<svg width="426" height="717" viewBox="0 0 426 717" fill="none" xmlns="http://www.w3.org/2000/svg">
<g filter="url(#filter0_d)">
<rect width="375" height="667" transform="translate(26 25)" fill="white"/>
<path d="M192.279 30.334C190.445 30.334 189.139 31.5879 189.139 33.3047V33.3164C189.139 34.9219 190.275 36.1055 191.898 36.1055C193.059 36.1055 193.797 35.5137 194.107 34.8457H194.225C194.225 34.9102 194.219 34.9746 194.219 35.0391C194.154 36.6562 193.586 37.9688 192.244 37.9688C191.5 37.9688 190.979 37.582 190.756 36.9902L190.738 36.9316H189.25L189.262 36.9961C189.531 38.291 190.691 39.2109 192.244 39.2109C194.371 39.2109 195.654 37.5234 195.654 34.6758V34.6641C195.654 31.6172 194.084 30.334 192.279 30.334ZM192.273 34.9453C191.312 34.9453 190.615 34.2422 190.615 33.2637V33.252C190.615 32.3086 191.359 31.5645 192.291 31.5645C193.229 31.5645 193.961 32.3203 193.961 33.2871V33.2988C193.961 34.2539 193.229 34.9453 192.273 34.9453ZM198.314 33.5215C198.854 33.5215 199.246 33.1113 199.246 32.5957C199.246 32.0742 198.854 31.6699 198.314 31.6699C197.781 31.6699 197.383 32.0742 197.383 32.5957C197.383 33.1113 197.781 33.5215 198.314 33.5215ZM198.314 37.8691C198.854 37.8691 199.246 37.4648 199.246 36.9434C199.246 36.4219 198.854 36.0176 198.314 36.0176C197.781 36.0176 197.383 36.4219 197.383 36.9434C197.383 37.4648 197.781 37.8691 198.314 37.8691ZM205.076 39H206.523V37.377H207.66V36.1289H206.523V30.5449H204.385C203.236 32.291 202.035 34.2363 200.939 36.1406V37.377H205.076V39ZM202.346 36.1641V36.0762C203.166 34.6406 204.145 33.0762 205.012 31.752H205.1V36.1641H202.346ZM211.164 39H212.676V30.5449H211.17L208.961 32.0977V33.5215L211.064 32.0332H211.164V39ZM217.756 39H219.338L220.041 36.8145H223.17L223.879 39H225.461L222.461 30.5449H220.756L217.756 39ZM221.559 32.1152H221.658L222.795 35.6484H220.422L221.559 32.1152ZM226.914 39H228.279V32.9883H228.379L230.723 39H231.754L234.098 32.9883H234.203V39H235.562V30.5449H233.828L231.291 37.0488H231.191L228.648 30.5449H226.914V39Z" fill="black"/>
<path opacity="0.35" fill-rule="evenodd" clip-rule="evenodd" d="M370.5 29.5H389.5C390.881 29.5 392 30.6193 392 32V38.5C392 39.8807 390.881 41 389.5 41H370.5C369.119 41 368 39.8807 368 38.5V32C368 30.6193 369.119 29.5 370.5 29.5ZM370.5 30.5C369.672 30.5 369 31.1716 369 32V38.5C369 39.3284 369.672 40 370.5 40H389.5C390.328 40 391 39.3284 391 38.5V32C391 31.1716 390.328 30.5 389.5 30.5H370.5Z" fill="black"/>
<path opacity="0.4" fill-rule="evenodd" clip-rule="evenodd" d="M393 32.7998C393.89 33.255 394.5 34.1813 394.5 35.2499C394.5 36.3186 393.89 37.2449 393 37.7001V32.7998Z" fill="black"/>
<path fill-rule="evenodd" clip-rule="evenodd" d="M371 31.5H389C389.552 31.5 390 31.9477 390 32.5V38C390 38.5523 389.552 39 389 39H371C370.448 39 370 38.5523 370 38V32.5C370 31.9477 370.448 31.5 371 31.5Z" fill="black"/>
<path d="M336.219 39.3H337.273V30.845H336.225L333.975 32.4622V33.5754L336.125 32.0168H336.219V39.3ZM342.547 39.4993C344.416 39.4993 345.541 37.7942 345.541 35.0754V35.0637C345.541 32.345 344.416 30.6458 342.547 30.6458C340.678 30.6458 339.564 32.345 339.564 35.0637V35.0754C339.564 37.7942 340.678 39.4993 342.547 39.4993ZM342.547 38.5793C341.334 38.5793 340.625 37.2317 340.625 35.0754V35.0637C340.625 32.9075 341.334 31.5715 342.547 31.5715C343.76 31.5715 344.48 32.9075 344.48 35.0637V35.0754C344.48 37.2317 343.76 38.5793 342.547 38.5793ZM350.105 39.4993C351.975 39.4993 353.1 37.7942 353.1 35.0754V35.0637C353.1 32.345 351.975 30.6458 350.105 30.6458C348.236 30.6458 347.123 32.345 347.123 35.0637V35.0754C347.123 37.7942 348.236 39.4993 350.105 39.4993ZM350.105 38.5793C348.893 38.5793 348.184 37.2317 348.184 35.0754V35.0637C348.184 32.9075 348.893 31.5715 350.105 31.5715C351.318 31.5715 352.039 32.9075 352.039 35.0637V35.0754C352.039 37.2317 351.318 38.5793 350.105 38.5793ZM356.41 35.2922C357.488 35.2922 358.145 34.4133 358.145 33.0129V33.0071C358.145 31.6067 357.488 30.7336 356.41 30.7336C355.332 30.7336 354.682 31.6067 354.682 33.0071V33.0129C354.682 34.4133 355.332 35.2922 356.41 35.2922ZM357.043 39.3L362.797 30.845H361.848L356.094 39.3H357.043ZM356.41 34.595C355.83 34.595 355.496 34.0032 355.496 33.0129V33.0071C355.496 32.0168 355.83 31.4309 356.41 31.4309C356.99 31.4309 357.33 32.0168 357.33 33.0071V33.0129C357.33 34.0032 356.99 34.595 356.41 34.595ZM362.469 39.4114C363.547 39.4114 364.203 38.5325 364.203 37.1321V37.1262C364.203 35.7258 363.547 34.8528 362.469 34.8528C361.391 34.8528 360.74 35.7258 360.74 37.1262V37.1321C360.74 38.5325 361.391 39.4114 362.469 39.4114ZM362.469 38.7141C361.889 38.7141 361.555 38.1223 361.555 37.1321V37.1262C361.555 36.136 361.889 35.55 362.469 35.55C363.049 35.55 363.389 36.136 363.389 37.1262V37.1321C363.389 38.1223 363.049 38.7141 362.469 38.7141Z" fill="black"/>
<path fill-rule="evenodd" clip-rule="evenodd" d="M45.5 30H46.5C47.0523 30 47.5 30.4477 47.5 31V39C47.5 39.5523 47.0523 40 46.5 40H45.5C44.9477 40 44.5 39.5523 44.5 39V31C44.5 30.4477 44.9477 30 45.5 30Z" fill="black"/>
<path d="M42 32H41C40.4477 32 40 32.4477 40 33V39C40 39.5523 40.4477 40 41 40H42C42.5523 40 43 39.5523 43 39V33C43 32.4477 42.5523 32 42 32Z" fill="black"/>
<path d="M36.5 34H37.5C38.0523 34 38.5 34.4477 38.5 35V39C38.5 39.5523 38.0523 40 37.5 40H36.5C35.9477 40 35.5 39.5523 35.5 39V35C35.5 34.4477 35.9477 34 36.5 34Z" fill="black"/>
<path d="M32 35.5H33C33.5523 35.5 34 35.9477 34 36.5V39C34 39.5523 33.5523 40 33 40H32C31.4477 40 31 39.5523 31 39V36.5C31 35.9477 31.4477 35.5 32 35.5Z" fill="black"/>
<path d="M55.0781 39H56.1328V35.6543H58.2129L60.0234 39H61.2598L59.3027 35.4902C60.3633 35.1562 61.002 34.2422 61.002 33.0703V33.0586C61.002 31.541 59.9355 30.5449 58.3066 30.5449H55.0781V39ZM56.1328 34.7168V31.4824H58.166C59.2559 31.4824 59.9121 32.0859 59.9121 33.0938V33.1055C59.9121 34.1367 59.2969 34.7168 58.2129 34.7168H56.1328ZM65.6395 39.1992C67.5262 39.1992 68.7625 38.2148 68.7625 36.6328V36.627C68.7625 35.4082 68.0652 34.6992 66.3016 34.3066L65.3641 34.0957C64.2156 33.8438 63.7527 33.3867 63.7527 32.7129V32.707C63.7527 31.8223 64.5672 31.3242 65.6219 31.3184C66.7234 31.3125 67.4266 31.8633 67.5437 32.6074L67.5555 32.6836H68.6102L68.6043 32.6016C68.5164 31.3418 67.3387 30.3457 65.6512 30.3457C63.9051 30.3457 62.6805 31.3359 62.6746 32.7363V32.7422C62.6746 33.9668 63.407 34.7461 65.1004 35.1211L66.0379 35.3262C67.198 35.584 67.6844 36.0645 67.6844 36.7676V36.7734C67.6844 37.6348 66.8465 38.2266 65.698 38.2266C64.4793 38.2266 63.6004 37.6934 63.5242 36.8496L63.5184 36.7852H62.4637L62.4695 36.8496C62.5926 38.2266 63.7879 39.1992 65.6395 39.1992ZM73.2418 39.1992C75.1285 39.1992 76.3648 38.2148 76.3648 36.6328V36.627C76.3648 35.4082 75.6676 34.6992 73.9039 34.3066L72.9664 34.0957C71.818 33.8438 71.3551 33.3867 71.3551 32.7129V32.707C71.3551 31.8223 72.1695 31.3242 73.2242 31.3184C74.3258 31.3125 75.0289 31.8633 75.1461 32.6074L75.1578 32.6836H76.2125L76.2066 32.6016C76.1187 31.3418 74.941 30.3457 73.2535 30.3457C71.5074 30.3457 70.2828 31.3359 70.277 32.7363V32.7422C70.277 33.9668 71.0094 34.7461 72.7027 35.1211L73.6402 35.3262C74.8004 35.584 75.2867 36.0645 75.2867 36.7676V36.7734C75.2867 37.6348 74.4488 38.2266 73.3004 38.2266C72.0816 38.2266 71.2027 37.6934 71.1266 36.8496L71.1207 36.7852H70.066L70.0719 36.8496C70.1949 38.2266 71.3902 39.1992 73.2418 39.1992ZM80.5277 39.1113C82.0453 39.1113 82.8949 38.2969 83.1527 37.1543L83.1645 37.0898L82.1566 37.0957L82.1449 37.1309C81.9105 37.834 81.3715 38.209 80.5219 38.209C79.3969 38.209 78.6703 37.2773 78.6703 35.8242V35.8125C78.6703 34.3887 79.3852 33.4746 80.5219 33.4746C81.4301 33.4746 81.9926 33.9785 82.1508 34.5996L82.1566 34.6172H83.1703L83.1645 34.582C82.977 33.457 82.057 32.5723 80.5219 32.5723C78.7523 32.5723 77.6273 33.8496 77.6273 35.8125V35.8242C77.6273 37.8281 78.7582 39.1113 80.5277 39.1113ZM84.6672 39H85.6867V35.2617C85.6867 34.1543 86.3254 33.4746 87.3332 33.4746C88.341 33.4746 88.8098 34.0195 88.8098 35.1562V39H89.8293V34.9102C89.8293 33.4102 89.0383 32.5723 87.6203 32.5723C86.6887 32.5723 86.0969 32.9648 85.7805 33.6328H85.6867V30.1758H84.6672V39ZM94.2207 39.1113C96.0195 39.1113 97.1328 37.8691 97.1328 35.8477V35.8359C97.1328 33.8086 96.0195 32.5723 94.2207 32.5723C92.4219 32.5723 91.3086 33.8086 91.3086 35.8359V35.8477C91.3086 37.8691 92.4219 39.1113 94.2207 39.1113ZM94.2207 38.209C93.0254 38.209 92.3516 37.3359 92.3516 35.8477V35.8359C92.3516 34.3418 93.0254 33.4746 94.2207 33.4746C95.416 33.4746 96.0898 34.3418 96.0898 35.8359V35.8477C96.0898 37.3359 95.416 38.209 94.2207 38.209ZM101.261 39.1113C103.059 39.1113 104.173 37.8691 104.173 35.8477V35.8359C104.173 33.8086 103.059 32.5723 101.261 32.5723C99.4617 32.5723 98.3484 33.8086 98.3484 35.8359V35.8477C98.3484 37.8691 99.4617 39.1113 101.261 39.1113ZM101.261 38.209C100.065 38.209 99.3914 37.3359 99.3914 35.8477V35.8359C99.3914 34.3418 100.065 33.4746 101.261 33.4746C102.456 33.4746 103.13 34.3418 103.13 35.8359V35.8477C103.13 37.3359 102.456 38.209 101.261 38.209ZM105.763 39H106.783V30.1758H105.763V39Z" fill="black"/>
<path fill-rule="evenodd" clip-rule="evenodd" d="M125.983 32.5229C124.072 30.8906 121.657 30 119.133 30C116.601 30 114.18 30.8959 112.266 32.5371L112.104 32.6765C111.972 32.7892 111.965 32.9895 112.087 33.1118L113.214 34.2356C113.324 34.3447 113.498 34.3521 113.617 34.2527L113.756 34.1354C115.263 32.8694 117.155 32.1804 119.133 32.1804C121.104 32.1804 122.989 32.8647 124.494 34.1228L124.634 34.2395C124.752 34.3385 124.926 34.3308 125.036 34.2219L126.163 33.098C126.285 32.9756 126.278 32.7749 126.146 32.6623L125.983 32.5229ZM119.133 33.4698C120.724 33.4698 122.251 33.9975 123.495 34.9749L123.671 35.113C123.811 35.2231 123.824 35.4306 123.697 35.5564L122.567 36.6841C122.462 36.7884 122.297 36.8003 122.178 36.7122L122.04 36.6098C121.2 35.9852 120.186 35.6501 119.133 35.6501C118.073 35.6501 117.053 35.9893 116.21 36.6211L116.072 36.7245C115.954 36.8133 115.787 36.8016 115.683 36.697L114.552 35.5698C114.426 35.4442 114.438 35.2373 114.578 35.1269L114.753 34.9887C116 34.0027 117.534 33.4698 119.133 33.4698ZM119.133 36.9396C119.772 36.9396 120.394 37.1076 120.941 37.4281L121.163 37.5579C121.331 37.6563 121.361 37.8867 121.223 38.0242L119.329 39.913C119.212 40.029 119.024 40.029 118.907 39.913L117.026 38.0363C116.888 37.8994 116.917 37.6702 117.084 37.5711L117.303 37.4406C117.856 37.1121 118.485 36.9396 119.133 36.9396Z" fill="black"/>
<rect x="259" y="577" width="50" height="50" rx="25" fill="#80A4ED" fill-opacity="0.2"/>
<rect x="127" y="132" width="173" height="41" rx="5" fill="#C4C4C4"/>
<path d="M62 335C62 332.2 62 330.8 62.545 329.73C63.0243 328.789 63.7892 328.024 64.73 327.545C65.7996 327 67.1997 327 70 327H357C359.8 327 361.2 327 362.27 327.545C363.211 328.024 363.976 328.789 364.455 329.73C365 330.8 365 332.2 365 335V355C365 357.8 365 359.2 364.455 360.27C363.976 361.211 363.211 361.976 362.27 362.455C361.2 363 359.8 363 357 363H70C67.1997 363 65.7996 363 64.73 362.455C63.7892 361.976 63.0243 361.211 62.545 360.27C62 359.2 62 357.8 62 355V335Z" fill="#C4C4C4"/>
<path d="M62 269C62 266.2 62 264.8 62.545 263.73C63.0243 262.789 63.7892 262.024 64.73 261.545C65.7996 261 67.1997 261 70 261H357C359.8 261 361.2 261 362.27 261.545C363.211 262.024 363.976 262.789 364.455 263.73C365 264.8 365 266.2 365 269V289C365 291.8 365 293.2 364.455 294.27C363.976 295.211 363.211 295.976 362.27 296.455C361.2 297 359.8 297 357 297H70C67.1997 297 65.7996 297 64.73 296.455C63.7892 295.976 63.0243 295.211 62.545 294.27C62 293.2 62 291.8 62 289V269Z" fill="#C4C4C4"/>
<rect x="135" y="423" width="156" height="42" rx="5" fill="#C4C4C4"/>
<rect x="97" y="533" width="234" height="108" rx="9" stroke="white" stroke-width="2"/>
<rect x="119.75" y="577.75" width="48.5" height="48.5" rx="24.25" stroke="#80A4ED" stroke-width="1.5"/>
<path d="M143.906 610H146.93V593.09H143.918L139.5 596.195V599.043L143.707 596.066H143.906V610Z" fill="#80A4ED"/>
<rect x="189.75" y="577.75" width="48.5" height="48.5" rx="24.25" stroke="#80A4ED" stroke-width="1.5"/>
<rect x="259.75" y="577.75" width="48.5" height="48.5" rx="24.25" stroke="#80A4ED" stroke-width="1.5"/>
<path d="M207.77 610H219.512V607.492H211.859V607.246L215.246 603.965C218.328 601 219.254 599.477 219.254 597.555V597.52C219.254 594.672 216.887 592.668 213.594 592.668C210.066 592.668 207.605 594.871 207.605 598.023L207.617 598.059L210.43 598.07L210.441 598.023C210.441 596.277 211.648 595.094 213.441 595.094C215.199 595.094 216.266 596.219 216.266 597.777V597.812C216.266 599.113 215.621 599.969 213.324 602.289L207.77 607.961V610Z" fill="#80A4ED"/>
<path d="M283.887 610.34C287.637 610.34 290.203 608.266 290.203 605.289V605.266C290.203 602.922 288.551 601.445 286.066 601.211V601.152C288.094 600.73 289.605 599.336 289.605 597.238V597.215C289.605 594.566 287.344 592.75 283.863 592.75C280.453 592.75 278.145 594.672 277.887 597.602L277.875 597.73H280.688L280.699 597.613C280.852 596.102 282.082 595.152 283.863 595.152C285.668 595.152 286.711 596.066 286.711 597.613V597.637C286.711 599.113 285.469 600.168 283.605 600.168H281.672V602.418H283.664C285.832 602.418 287.145 603.402 287.145 605.184V605.207C287.145 606.777 285.844 607.867 283.887 607.867C281.906 607.867 280.582 606.848 280.418 605.418L280.406 605.289H277.523L277.535 605.43C277.758 608.324 280.184 610.34 283.887 610.34Z" fill="#80A4ED"/>
<rect x="208" y="550" width="13" height="13" rx="5" fill="#C4C4C4"/>
<path d="M271.17 550.105C272.061 550.105 272.781 549.643 273.062 548.887H273.168L273.221 549.027C273.402 549.73 273.947 550.059 274.773 550.059C275.09 550.059 275.441 550.018 275.611 549.959V548.705C275.523 548.729 275.406 548.746 275.301 548.746C274.955 548.746 274.773 548.576 274.773 548.025V543.549H273.062V544.539H272.957C272.629 543.848 271.938 543.443 271.129 543.443C269.523 543.443 268.51 544.709 268.51 546.76V546.771C268.51 548.852 269.518 550.105 271.17 550.105ZM271.598 548.729C270.789 548.729 270.262 547.973 270.262 546.783V546.771C270.262 545.564 270.812 544.82 271.662 544.82C272.512 544.82 273.068 545.6 273.068 546.777V546.789C273.068 547.967 272.494 548.729 271.598 548.729ZM283.129 550.217C285.22 550.217 286.486 548.506 286.486 545.775V545.764C286.486 543.027 285.22 541.328 283.129 541.328C281.043 541.328 279.771 543.027 279.771 545.764V545.775C279.771 548.506 281.043 550.217 283.129 550.217ZM283.129 548.816C282.132 548.816 281.564 547.686 281.564 545.775V545.764C281.564 543.848 282.132 542.729 283.129 542.729C284.13 542.729 284.699 543.848 284.699 545.764V545.775C284.699 547.686 284.13 548.816 283.129 548.816ZM288.651 550.146C289.254 550.146 289.682 549.707 289.682 549.127C289.682 548.547 289.254 548.113 288.651 548.113C288.053 548.113 287.62 548.547 287.62 549.127C287.62 549.707 288.053 550.146 288.651 550.146ZM291.425 550H297.525V548.576H293.798V548.441L295.362 546.982C296.904 545.559 297.402 544.762 297.402 543.801V543.783C297.402 542.324 296.183 541.328 294.443 541.328C292.591 541.328 291.325 542.441 291.325 544.064L291.331 544.088H292.966V544.059C292.966 543.256 293.534 542.705 294.361 542.705C295.169 542.705 295.661 543.209 295.661 543.93V543.947C295.661 544.539 295.339 544.967 294.15 546.121L291.425 548.811V550Z" fill="#FFA800"/>
<line x1="283.5" y1="559.5" x2="283.5" y2="586.5" stroke="#FFA800" stroke-linecap="round"/>
<line x1="280.5" y1="559.5" x2="286.5" y2="559.5" stroke="#FFA800" stroke-linecap="round"/>
<path d="M120.477 533.139H123.723V531.879H122.117V523.342H123.723V522.082H120.477V533.139ZM125.12 531H128.917C130.721 531 131.841 530.068 131.841 528.586V528.574C131.841 527.49 131.026 526.652 129.907 526.564V526.459C130.774 526.33 131.436 525.551 131.436 524.66V524.648C131.436 523.348 130.458 522.545 128.817 522.545H125.12V531ZM128.366 523.857C129.21 523.857 129.696 524.268 129.696 524.953V524.965C129.696 525.662 129.175 526.061 128.22 526.061H126.889V523.857H128.366ZM128.425 527.227C129.468 527.227 130.036 527.648 130.036 528.434V528.445C130.036 529.248 129.485 529.682 128.466 529.682H126.889V527.227H128.425ZM136.086 531.135C138.072 531.135 139.267 529.881 139.267 527.777V527.766C139.267 525.68 138.054 524.408 136.086 524.408C134.117 524.408 132.904 525.686 132.904 527.766V527.777C132.904 529.875 134.099 531.135 136.086 531.135ZM136.086 529.793C135.171 529.793 134.656 529.049 134.656 527.777V527.766C134.656 526.506 135.177 525.75 136.086 525.75C136.988 525.75 137.515 526.506 137.515 527.766V527.777C137.515 529.049 136.994 529.793 136.086 529.793ZM140.612 531H142.323V527.391C142.323 526.477 142.938 525.92 143.911 525.92C144.174 525.92 144.438 525.961 144.696 526.02V524.525C144.526 524.479 144.286 524.443 144.057 524.443C143.219 524.443 142.633 524.854 142.428 525.551H142.323V524.549H140.612V531ZM147.939 531.1C148.847 531.1 149.532 530.695 149.866 529.998H149.972V531H151.683V522.082H149.972V525.58H149.866C149.544 524.877 148.823 524.443 147.939 524.443C146.304 524.443 145.32 525.691 145.32 527.766V527.777C145.32 529.84 146.327 531.1 147.939 531.1ZM148.519 529.682C147.616 529.682 147.06 528.967 147.06 527.777V527.766C147.06 526.588 147.616 525.861 148.519 525.861C149.421 525.861 149.989 526.588 149.989 527.771V527.783C149.989 528.967 149.427 529.682 148.519 529.682ZM156.238 531.135C158.125 531.135 158.957 530.045 159.156 529.236L159.168 529.178H157.574L157.557 529.213C157.439 529.459 157.023 529.857 156.273 529.857C155.365 529.857 154.797 529.242 154.779 528.182H159.221V527.648C159.221 525.697 158.049 524.408 156.168 524.408C154.287 524.408 153.086 525.727 153.086 527.777V527.783C153.086 529.852 154.275 531.135 156.238 531.135ZM156.197 525.691C156.941 525.691 157.475 526.172 157.58 527.109H154.797C154.902 526.195 155.453 525.691 156.197 525.691ZM160.571 531H162.282V527.391C162.282 526.477 162.897 525.92 163.87 525.92C164.134 525.92 164.397 525.961 164.655 526.02V524.525C164.485 524.479 164.245 524.443 164.016 524.443C163.179 524.443 162.593 524.854 162.388 525.551H162.282V524.549H160.571V531ZM168.566 533.139V522.082H165.32V523.342H166.92V531.879H165.32V533.139H168.566ZM120.025 547H125.557V545.541H121.795V538.545H120.025V547ZM127.815 539.559C128.343 539.559 128.776 539.137 128.776 538.609C128.776 538.076 128.343 537.654 127.815 537.654C127.288 537.654 126.848 538.076 126.848 538.609C126.848 539.137 127.288 539.559 127.815 539.559ZM126.954 547H128.665V540.549H126.954V547ZM133.015 547.023C133.343 547.023 133.66 546.988 133.871 546.947V545.676C133.707 545.693 133.589 545.705 133.367 545.705C132.787 545.705 132.541 545.447 132.541 544.867V541.838H133.871V540.549H132.541V539.008H130.812V540.549H129.816V541.838H130.812V545.26C130.812 546.514 131.445 547.023 133.015 547.023ZM137.981 547.023C138.309 547.023 138.625 546.988 138.836 546.947V545.676C138.672 545.693 138.555 545.705 138.332 545.705C137.752 545.705 137.506 545.447 137.506 544.867V541.838H138.836V540.549H137.506V539.008H135.778V540.549H134.782V541.838H135.778V545.26C135.778 546.514 136.411 547.023 137.981 547.023ZM140.269 547H141.98V538.082H140.269V547ZM146.535 547.135C148.422 547.135 149.254 546.045 149.453 545.236L149.465 545.178H147.871L147.854 545.213C147.736 545.459 147.32 545.857 146.57 545.857C145.662 545.857 145.094 545.242 145.076 544.182H149.518V543.648C149.518 541.697 148.346 540.408 146.465 540.408C144.584 540.408 143.383 541.727 143.383 543.777V543.783C143.383 545.852 144.572 547.135 146.535 547.135ZM146.494 541.691C147.238 541.691 147.771 542.172 147.877 543.109H145.094C145.199 542.195 145.75 541.691 146.494 541.691ZM154.082 547H157.879C159.683 547 160.802 546.068 160.802 544.586V544.574C160.802 543.49 159.988 542.652 158.869 542.564V542.459C159.736 542.33 160.398 541.551 160.398 540.66V540.648C160.398 539.348 159.42 538.545 157.779 538.545H154.082V547ZM157.328 539.857C158.171 539.857 158.658 540.268 158.658 540.953V540.965C158.658 541.662 158.136 542.061 157.181 542.061H155.851V539.857H157.328ZM157.386 543.227C158.429 543.227 158.998 543.648 158.998 544.434V544.445C158.998 545.248 158.447 545.682 157.427 545.682H155.851V543.227H157.386ZM165.047 547.135C167.034 547.135 168.229 545.881 168.229 543.777V543.766C168.229 541.68 167.016 540.408 165.047 540.408C163.079 540.408 161.866 541.686 161.866 543.766V543.777C161.866 545.875 163.061 547.135 165.047 547.135ZM165.047 545.793C164.133 545.793 163.618 545.049 163.618 543.777V543.766C163.618 542.506 164.139 541.75 165.047 541.75C165.95 541.75 166.477 542.506 166.477 543.766V543.777C166.477 545.049 165.955 545.793 165.047 545.793ZM170.071 549.273C171.665 549.273 172.515 548.699 173.089 546.994L175.286 540.549H173.482L172.128 545.436H172.011L170.657 540.549H168.777L171.044 547L170.986 547.246C170.862 547.75 170.511 547.984 169.902 547.984C169.743 547.984 169.573 547.979 169.456 547.967V549.256C169.655 549.268 169.872 549.273 170.071 549.273ZM179.639 547H183.436C185.241 547 186.36 546.068 186.36 544.586V544.574C186.36 543.49 185.546 542.652 184.427 542.564V542.459C185.294 542.33 185.956 541.551 185.956 540.66V540.648C185.956 539.348 184.977 538.545 183.337 538.545H179.639V547ZM182.886 539.857C183.729 539.857 184.216 540.268 184.216 540.953V540.965C184.216 541.662 183.694 542.061 182.739 542.061H181.409V539.857H182.886ZM182.944 543.227C183.987 543.227 184.555 543.648 184.555 544.434V544.445C184.555 545.248 184.005 545.682 182.985 545.682H181.409V543.227H182.944ZM187.798 547H189.509V538.082H187.798V547ZM193.362 547.135C194.282 547.135 194.938 546.707 195.231 546.004H195.336V547H197.047V540.549H195.336V544.275C195.336 545.148 194.879 545.717 194.036 545.717C193.227 545.717 192.881 545.242 192.881 544.328V540.549H191.17V544.721C191.17 546.256 191.914 547.135 193.362 547.135ZM201.55 547.135C203.437 547.135 204.269 546.045 204.468 545.236L204.48 545.178H202.886L202.868 545.213C202.751 545.459 202.335 545.857 201.585 545.857C200.677 545.857 200.109 545.242 200.091 544.182H204.532V543.648C204.532 541.697 203.361 540.408 201.48 540.408C199.599 540.408 198.398 541.727 198.398 543.777V543.783C198.398 545.852 199.587 547.135 201.55 547.135ZM201.509 541.691C202.253 541.691 202.786 542.172 202.892 543.109H200.109C200.214 542.195 200.765 541.691 201.509 541.691ZM121.924 563H123.693V554.545H121.93L119.744 556.062V557.656L121.818 556.215H121.924V563ZM126.848 563.146C127.452 563.146 127.88 562.707 127.88 562.127C127.88 561.547 127.452 561.113 126.848 561.113C126.251 561.113 125.817 561.547 125.817 562.127C125.817 562.707 126.251 563.146 126.848 563.146ZM132.582 563.217C134.48 563.217 135.793 562.004 135.793 560.223V560.211C135.793 558.6 134.656 557.439 133.08 557.439C132.271 557.439 131.615 557.791 131.275 558.359H131.17L131.38 555.951H135.289V554.545H130.004L129.611 559.549H131.129C131.222 559.367 131.363 559.209 131.521 559.08C131.802 558.84 132.166 558.717 132.593 558.717C133.49 558.717 134.129 559.344 134.129 560.246V560.258C134.129 561.166 133.496 561.805 132.587 561.805C131.791 561.805 131.211 561.307 131.087 560.686L131.076 560.645H129.47L129.476 560.727C129.576 562.139 130.771 563.217 132.582 563.217ZM137.295 565.139H139.006V561.969H139.112C139.44 562.672 140.161 563.1 141.045 563.1C142.68 563.1 143.664 561.852 143.664 559.777V559.766C143.664 557.709 142.657 556.443 141.045 556.443C140.131 556.443 139.446 556.854 139.112 557.545H139.006V556.549H137.295V565.139ZM140.459 561.682C139.563 561.682 138.989 560.961 138.989 559.777V559.766C138.989 558.582 139.557 557.861 140.459 557.861C141.368 557.861 141.924 558.582 141.924 559.766V559.777C141.924 560.961 141.362 561.682 140.459 561.682ZM144.195 563H145.999L147.2 560.867H147.306L148.513 563H150.405L148.361 559.736L150.394 556.549H148.53L147.388 558.688H147.282L146.14 556.549H144.177L146.216 559.807L144.195 563Z" fill="#FFA800"/>
<path d="M261.477 651.139H264.723V649.879H263.117V641.342H264.723V640.082H261.477V651.139ZM266.12 649H269.917C271.721 649 272.841 648.068 272.841 646.586V646.574C272.841 645.49 272.026 644.652 270.907 644.564V644.459C271.774 644.33 272.436 643.551 272.436 642.66V642.648C272.436 641.348 271.458 640.545 269.817 640.545H266.12V649ZM269.366 641.857C270.21 641.857 270.696 642.268 270.696 642.953V642.965C270.696 643.662 270.175 644.061 269.22 644.061H267.889V641.857H269.366ZM269.425 645.227C270.468 645.227 271.036 645.648 271.036 646.434V646.445C271.036 647.248 270.485 647.682 269.466 647.682H267.889V645.227H269.425ZM275.978 649.1C276.822 649.1 277.502 648.742 277.83 648.145H277.935V649H279.623V644.594C279.623 643.217 278.656 642.408 276.945 642.408C275.322 642.408 274.255 643.158 274.121 644.289L274.115 644.342H275.697L275.709 644.318C275.843 643.938 276.236 643.721 276.851 643.721C277.554 643.721 277.935 644.037 277.935 644.594V645.127L276.377 645.221C274.771 645.314 273.875 645.994 273.875 647.154V647.166C273.875 648.338 274.748 649.1 275.978 649.1ZM275.545 647.061V647.049C275.545 646.58 275.902 646.305 276.634 646.258L277.935 646.176V646.65C277.935 647.33 277.343 647.852 276.552 647.852C275.961 647.852 275.545 647.553 275.545 647.061ZM284.09 649.135C285.772 649.135 286.78 648.232 286.955 646.826L286.961 646.791H285.379L285.368 646.814C285.215 647.459 284.799 647.793 284.096 647.793C283.182 647.793 282.672 647.072 282.672 645.766V645.754C282.672 644.465 283.176 643.75 284.096 643.75C284.829 643.75 285.256 644.16 285.368 644.787L285.373 644.799H286.967V644.781C286.815 643.34 285.801 642.408 284.09 642.408C282.069 642.408 280.932 643.633 280.932 645.754V645.766C280.932 647.91 282.075 649.135 284.09 649.135ZM288.312 649H290.023V646.838L290.491 646.34L292.372 649H294.394L291.745 645.285L294.224 642.549H292.284L290.128 645.098H290.023V640.082H288.312V649ZM297.883 651.268C299.834 651.268 301.07 650.312 301.07 648.801V642.549H299.359V643.604H299.277C298.932 642.877 298.24 642.443 297.355 642.443C295.703 642.443 294.701 643.721 294.701 645.619V645.631C294.701 647.465 295.703 648.719 297.326 648.719C298.223 648.719 298.902 648.35 299.26 647.67H299.365V648.871C299.365 649.621 298.832 650.049 297.918 650.049C297.156 650.049 296.711 649.791 296.617 649.416L296.611 649.393H294.918V649.422C295.059 650.518 296.096 651.268 297.883 651.268ZM297.906 647.406C296.98 647.406 296.453 646.686 296.453 645.625V645.613C296.453 644.553 296.986 643.832 297.906 643.832C298.826 643.832 299.383 644.553 299.383 645.613V645.625C299.383 646.686 298.832 647.406 297.906 647.406ZM302.731 649H304.442V645.391C304.442 644.477 305.057 643.92 306.03 643.92C306.294 643.92 306.557 643.961 306.815 644.02V642.525C306.645 642.479 306.405 642.443 306.177 642.443C305.339 642.443 304.753 642.854 304.548 643.551H304.442V642.549H302.731V649ZM310.621 649.135C312.607 649.135 313.802 647.881 313.802 645.777V645.766C313.802 643.68 312.589 642.408 310.621 642.408C308.652 642.408 307.439 643.686 307.439 645.766V645.777C307.439 647.875 308.634 649.135 310.621 649.135ZM310.621 647.793C309.707 647.793 309.191 647.049 309.191 645.777V645.766C309.191 644.506 309.713 643.75 310.621 643.75C311.523 643.75 312.05 644.506 312.05 645.766V645.777C312.05 647.049 311.529 647.793 310.621 647.793ZM317.28 649.135C318.2 649.135 318.856 648.707 319.149 648.004H319.254V649H320.965V642.549H319.254V646.275C319.254 647.148 318.797 647.717 317.954 647.717C317.145 647.717 316.799 647.242 316.799 646.328V642.549H315.088V646.721C315.088 648.256 315.832 649.135 317.28 649.135ZM322.632 649H324.343V645.268C324.343 644.395 324.823 643.826 325.614 643.826C326.423 643.826 326.798 644.307 326.798 645.215V649H328.509V644.828C328.509 643.287 327.736 642.408 326.3 642.408C325.38 642.408 324.741 642.848 324.448 643.545H324.343V642.549H322.632V649ZM332.42 649.1C333.328 649.1 334.014 648.695 334.348 647.998H334.453V649H336.164V640.082H334.453V643.58H334.348C334.025 642.877 333.305 642.443 332.42 642.443C330.785 642.443 329.801 643.691 329.801 645.766V645.777C329.801 647.84 330.809 649.1 332.42 649.1ZM333 647.682C332.098 647.682 331.541 646.967 331.541 645.777V645.766C331.541 644.588 332.098 643.861 333 643.861C333.902 643.861 334.471 644.588 334.471 645.771V645.783C334.471 646.967 333.908 647.682 333 647.682ZM340.702 651.139V640.082H337.456V641.342H339.055V649.879H337.456V651.139H340.702ZM261.025 665H266.557V663.541H262.795V656.545H261.025V665ZM268.815 657.559C269.343 657.559 269.776 657.137 269.776 656.609C269.776 656.076 269.343 655.654 268.815 655.654C268.288 655.654 267.848 656.076 267.848 656.609C267.848 657.137 268.288 657.559 268.815 657.559ZM267.954 665H269.665V658.549H267.954V665ZM274.015 665.023C274.343 665.023 274.66 664.988 274.871 664.947V663.676C274.707 663.693 274.589 663.705 274.367 663.705C273.787 663.705 273.541 663.447 273.541 662.867V659.838H274.871V658.549H273.541V657.008H271.812V658.549H270.816V659.838H271.812V663.26C271.812 664.514 272.445 665.023 274.015 665.023ZM278.981 665.023C279.309 665.023 279.625 664.988 279.836 664.947V663.676C279.672 663.693 279.555 663.705 279.332 663.705C278.752 663.705 278.506 663.447 278.506 662.867V659.838H279.836V658.549H278.506V657.008H276.778V658.549H275.782V659.838H276.778V663.26C276.778 664.514 277.411 665.023 278.981 665.023ZM281.269 665H282.98V656.082H281.269V665ZM287.535 665.135C289.422 665.135 290.254 664.045 290.453 663.236L290.465 663.178H288.871L288.854 663.213C288.736 663.459 288.32 663.857 287.57 663.857C286.662 663.857 286.094 663.242 286.076 662.182H290.518V661.648C290.518 659.697 289.346 658.408 287.465 658.408C285.584 658.408 284.383 659.727 284.383 661.777V661.783C284.383 663.852 285.572 665.135 287.535 665.135ZM287.494 659.691C288.238 659.691 288.771 660.172 288.877 661.109H286.094C286.199 660.195 286.75 659.691 287.494 659.691ZM295.082 665H298.879C300.683 665 301.802 664.068 301.802 662.586V662.574C301.802 661.49 300.988 660.652 299.869 660.564V660.459C300.736 660.33 301.398 659.551 301.398 658.66V658.648C301.398 657.348 300.42 656.545 298.779 656.545H295.082V665ZM298.328 657.857C299.171 657.857 299.658 658.268 299.658 658.953V658.965C299.658 659.662 299.136 660.061 298.181 660.061H296.851V657.857H298.328ZM298.386 661.227C299.429 661.227 299.998 661.648 299.998 662.434V662.445C299.998 663.248 299.447 663.682 298.427 663.682H296.851V661.227H298.386ZM306.047 665.135C308.034 665.135 309.229 663.881 309.229 661.777V661.766C309.229 659.68 308.016 658.408 306.047 658.408C304.079 658.408 302.866 659.686 302.866 661.766V661.777C302.866 663.875 304.061 665.135 306.047 665.135ZM306.047 663.793C305.133 663.793 304.618 663.049 304.618 661.777V661.766C304.618 660.506 305.139 659.75 306.047 659.75C306.95 659.75 307.477 660.506 307.477 661.766V661.777C307.477 663.049 306.955 663.793 306.047 663.793ZM311.071 667.273C312.665 667.273 313.515 666.699 314.089 664.994L316.286 658.549H314.482L313.128 663.436H313.011L311.657 658.549H309.777L312.044 665L311.986 665.246C311.862 665.75 311.511 665.984 310.902 665.984C310.743 665.984 310.573 665.979 310.456 665.967V667.256C310.655 667.268 310.872 667.273 311.071 667.273ZM320.639 665H324.436C326.241 665 327.36 664.068 327.36 662.586V662.574C327.36 661.49 326.546 660.652 325.427 660.564V660.459C326.294 660.33 326.956 659.551 326.956 658.66V658.648C326.956 657.348 325.977 656.545 324.337 656.545H320.639V665ZM323.886 657.857C324.729 657.857 325.216 658.268 325.216 658.953V658.965C325.216 659.662 324.694 660.061 323.739 660.061H322.409V657.857H323.886ZM323.944 661.227C324.987 661.227 325.555 661.648 325.555 662.434V662.445C325.555 663.248 325.005 663.682 323.985 663.682H322.409V661.227H323.944ZM328.798 665H330.509V656.082H328.798V665ZM334.362 665.135C335.282 665.135 335.938 664.707 336.231 664.004H336.336V665H338.047V658.549H336.336V662.275C336.336 663.148 335.879 663.717 335.036 663.717C334.227 663.717 333.881 663.242 333.881 662.328V658.549H332.17V662.721C332.17 664.256 332.914 665.135 334.362 665.135ZM342.55 665.135C344.437 665.135 345.269 664.045 345.468 663.236L345.48 663.178H343.886L343.868 663.213C343.751 663.459 343.335 663.857 342.585 663.857C341.677 663.857 341.109 663.242 341.091 662.182H345.532V661.648C345.532 659.697 344.361 658.408 342.48 658.408C340.599 658.408 339.398 659.727 339.398 661.777V661.783C339.398 663.852 340.587 665.135 342.55 665.135ZM342.509 659.691C343.253 659.691 343.786 660.172 343.892 661.109H341.109C341.214 660.195 341.765 659.691 342.509 659.691Z" fill="#FFA800"/>
</g>
<defs>
<filter id="filter0_d" x="0" y="0" width="426" height="717" filterUnits="userSpaceOnUse" color-interpolation-filters="sRGB">
<feFlood flood-opacity="0" result="BackgroundImageFix"/>
<feColorMatrix in="SourceAlpha" type="matrix" values="0 0 0 0 0 0 0 0 0 0 0 0 0 0 0 0 0 0 127 0"/>
<feMorphology radius="5" operator="dilate" in="SourceAlpha" result="effect1_dropShadow"/>
<feOffset/>
<feGaussianBlur stdDeviation="10"/>
<feColorMatrix type="matrix" values="0 0 0 0 0 0 0 0 0 0 0 0 0 0 0 0 0 0 0.15 0"/>
<feBlend mode="normal" in2="BackgroundImageFix" result="effect1_dropShadow"/>
<feBlend mode="normal" in="SourceGraphic" in2="effect1_dropShadow" result="shape"/>
</filter>
</defs>
</svg>
