<svg width="426" height="717" viewBox="0 0 426 717" fill="none" xmlns="http://www.w3.org/2000/svg">
<g filter="url(#filter0_d)">
<rect width="375" height="667" transform="translate(26 25)" fill="white"/>
<path d="M192.279 30.334C190.445 30.334 189.139 31.5879 189.139 33.3047V33.3164C189.139 34.9219 190.275 36.1055 191.898 36.1055C193.059 36.1055 193.797 35.5137 194.107 34.8457H194.225C194.225 34.9102 194.219 34.9746 194.219 35.0391C194.154 36.6562 193.586 37.9688 192.244 37.9688C191.5 37.9688 190.979 37.582 190.756 36.9902L190.738 36.9316H189.25L189.262 36.9961C189.531 38.291 190.691 39.2109 192.244 39.2109C194.371 39.2109 195.654 37.5234 195.654 34.6758V34.6641C195.654 31.6172 194.084 30.334 192.279 30.334ZM192.273 34.9453C191.312 34.9453 190.615 34.2422 190.615 33.2637V33.252C190.615 32.3086 191.359 31.5645 192.291 31.5645C193.229 31.5645 193.961 32.3203 193.961 33.2871V33.2988C193.961 34.2539 193.229 34.9453 192.273 34.9453ZM198.314 33.5215C198.854 33.5215 199.246 33.1113 199.246 32.5957C199.246 32.0742 198.854 31.6699 198.314 31.6699C197.781 31.6699 197.383 32.0742 197.383 32.5957C197.383 33.1113 197.781 33.5215 198.314 33.5215ZM198.314 37.8691C198.854 37.8691 199.246 37.4648 199.246 36.9434C199.246 36.4219 198.854 36.0176 198.314 36.0176C197.781 36.0176 197.383 36.4219 197.383 36.9434C197.383 37.4648 197.781 37.8691 198.314 37.8691ZM205.076 39H206.523V37.377H207.66V36.1289H206.523V30.5449H204.385C203.236 32.291 202.035 34.2363 200.939 36.1406V37.377H205.076V39ZM202.346 36.1641V36.0762C203.166 34.6406 204.145 33.0762 205.012 31.752H205.1V36.1641H202.346ZM211.164 39H212.676V30.5449H211.17L208.961 32.0977V33.5215L211.064 32.0332H211.164V39ZM217.756 39H219.338L220.041 36.8145H223.17L223.879 39H225.461L222.461 30.5449H220.756L217.756 39ZM221.559 32.1152H221.658L222.795 35.6484H220.422L221.559 32.1152ZM226.914 39H228.279V32.9883H228.379L230.723 39H231.754L234.098 32.9883H234.203V39H235.562V30.5449H233.828L231.291 37.0488H231.191L228.648 30.5449H226.914V39Z" fill="black"/>
<path opacity="0.35" fill-rule="evenodd" clip-rule="evenodd" d="M370.5 29.5H389.5C390.881 29.5 392 30.6193 392 32V38.5C392 39.8807 390.881 41 389.5 41H370.5C369.119 41 368 39.8807 368 38.5V32C368 30.6193 369.119 29.5 370.5 29.5ZM370.5 30.5C369.672 30.5 369 31.1716 369 32V38.5C369 39.3284 369.672 40 370.5 40H389.5C390.328 40 391 39.3284 391 38.5V32C391 31.1716 390.328 30.5 389.5 30.5H370.5Z" fill="black"/>
<path opacity="0.4" fill-rule="evenodd" clip-rule="evenodd" d="M393 32.7998C393.89 33.255 394.5 34.1813 394.5 35.2499C394.5 36.3186 393.89 37.2449 393 37.7001V32.7998Z" fill="black"/>
<path fill-rule="evenodd" clip-rule="evenodd" d="M371 31.5H389C389.552 31.5 390 31.9477 390 32.5V38C390 38.5523 389.552 39 389 39H371C370.448 39 370 38.5523 370 38V32.5C370 31.9477 370.448 31.5 371 31.5Z" fill="black"/>
<path d="M336.219 39.3H337.273V30.8449H336.225L333.975 32.4621V33.5754L336.125 32.0168H336.219V39.3ZM342.547 39.4992C344.416 39.4992 345.541 37.7941 345.541 35.0754V35.0637C345.541 32.3449 344.416 30.6457 342.547 30.6457C340.678 30.6457 339.564 32.3449 339.564 35.0637V35.0754C339.564 37.7941 340.678 39.4992 342.547 39.4992ZM342.547 38.5793C341.334 38.5793 340.625 37.2316 340.625 35.0754V35.0637C340.625 32.9074 341.334 31.5715 342.547 31.5715C343.76 31.5715 344.48 32.9074 344.48 35.0637V35.0754C344.48 37.2316 343.76 38.5793 342.547 38.5793ZM350.105 39.4992C351.975 39.4992 353.1 37.7941 353.1 35.0754V35.0637C353.1 32.3449 351.975 30.6457 350.105 30.6457C348.236 30.6457 347.123 32.3449 347.123 35.0637V35.0754C347.123 37.7941 348.236 39.4992 350.105 39.4992ZM350.105 38.5793C348.893 38.5793 348.184 37.2316 348.184 35.0754V35.0637C348.184 32.9074 348.893 31.5715 350.105 31.5715C351.318 31.5715 352.039 32.9074 352.039 35.0637V35.0754C352.039 37.2316 351.318 38.5793 350.105 38.5793ZM356.41 35.2922C357.488 35.2922 358.145 34.4133 358.145 33.0129V33.007C358.145 31.6066 357.488 30.7336 356.41 30.7336C355.332 30.7336 354.682 31.6066 354.682 33.007V33.0129C354.682 34.4133 355.332 35.2922 356.41 35.2922ZM357.043 39.3L362.797 30.8449H361.848L356.094 39.3H357.043ZM356.41 34.5949C355.83 34.5949 355.496 34.0031 355.496 33.0129V33.007C355.496 32.0168 355.83 31.4308 356.41 31.4308C356.99 31.4308 357.33 32.0168 357.33 33.007V33.0129C357.33 34.0031 356.99 34.5949 356.41 34.5949ZM362.469 39.4113C363.547 39.4113 364.203 38.5324 364.203 37.132V37.1262C364.203 35.7258 363.547 34.8527 362.469 34.8527C361.391 34.8527 360.74 35.7258 360.74 37.1262V37.132C360.74 38.5324 361.391 39.4113 362.469 39.4113ZM362.469 38.7141C361.889 38.7141 361.555 38.1223 361.555 37.132V37.1262C361.555 36.1359 361.889 35.55 362.469 35.55C363.049 35.55 363.389 36.1359 363.389 37.1262V37.132C363.389 38.1223 363.049 38.7141 362.469 38.7141Z" fill="black"/>
<path fill-rule="evenodd" clip-rule="evenodd" d="M45.5 30H46.5C47.0523 30 47.5 30.4477 47.5 31V39C47.5 39.5523 47.0523 40 46.5 40H45.5C44.9477 40 44.5 39.5523 44.5 39V31C44.5 30.4477 44.9477 30 45.5 30Z" fill="black"/>
<path d="M42 32H41C40.4477 32 40 32.4477 40 33V39C40 39.5523 40.4477 40 41 40H42C42.5523 40 43 39.5523 43 39V33C43 32.4477 42.5523 32 42 32Z" fill="black"/>
<path d="M36.5 34H37.5C38.0523 34 38.5 34.4477 38.5 35V39C38.5 39.5523 38.0523 40 37.5 40H36.5C35.9477 40 35.5 39.5523 35.5 39V35C35.5 34.4477 35.9477 34 36.5 34Z" fill="black"/>
<path d="M32 35.5H33C33.5523 35.5 34 35.9477 34 36.5V39C34 39.5523 33.5523 40 33 40H32C31.4477 40 31 39.5523 31 39V36.5C31 35.9477 31.4477 35.5 32 35.5Z" fill="black"/>
<path d="M55.0781 39H56.1328V35.6543H58.2129L60.0234 39H61.2598L59.3027 35.4902C60.3633 35.1562 61.002 34.2422 61.002 33.0703V33.0586C61.002 31.541 59.9355 30.5449 58.3066 30.5449H55.0781V39ZM56.1328 34.7168V31.4824H58.166C59.2559 31.4824 59.9121 32.0859 59.9121 33.0938V33.1055C59.9121 34.1367 59.2969 34.7168 58.2129 34.7168H56.1328ZM65.6395 39.1992C67.5262 39.1992 68.7625 38.2148 68.7625 36.6328V36.627C68.7625 35.4082 68.0652 34.6992 66.3016 34.3066L65.3641 34.0957C64.2156 33.8438 63.7527 33.3867 63.7527 32.7129V32.707C63.7527 31.8223 64.5672 31.3242 65.6219 31.3184C66.7234 31.3125 67.4266 31.8633 67.5437 32.6074L67.5555 32.6836H68.6102L68.6043 32.6016C68.5164 31.3418 67.3387 30.3457 65.6512 30.3457C63.9051 30.3457 62.6805 31.3359 62.6746 32.7363V32.7422C62.6746 33.9668 63.407 34.7461 65.1004 35.1211L66.0379 35.3262C67.198 35.584 67.6844 36.0645 67.6844 36.7676V36.7734C67.6844 37.6348 66.8465 38.2266 65.698 38.2266C64.4793 38.2266 63.6004 37.6934 63.5242 36.8496L63.5184 36.7852H62.4637L62.4695 36.8496C62.5926 38.2266 63.7879 39.1992 65.6395 39.1992ZM73.2418 39.1992C75.1285 39.1992 76.3648 38.2148 76.3648 36.6328V36.627C76.3648 35.4082 75.6676 34.6992 73.9039 34.3066L72.9664 34.0957C71.818 33.8438 71.3551 33.3867 71.3551 32.7129V32.707C71.3551 31.8223 72.1695 31.3242 73.2242 31.3184C74.3258 31.3125 75.0289 31.8633 75.1461 32.6074L75.1578 32.6836H76.2125L76.2066 32.6016C76.1187 31.3418 74.941 30.3457 73.2535 30.3457C71.5074 30.3457 70.2828 31.3359 70.277 32.7363V32.7422C70.277 33.9668 71.0094 34.7461 72.7027 35.1211L73.6402 35.3262C74.8004 35.584 75.2867 36.0645 75.2867 36.7676V36.7734C75.2867 37.6348 74.4488 38.2266 73.3004 38.2266C72.0816 38.2266 71.2027 37.6934 71.1266 36.8496L71.1207 36.7852H70.066L70.0719 36.8496C70.1949 38.2266 71.3902 39.1992 73.2418 39.1992ZM80.5277 39.1113C82.0453 39.1113 82.8949 38.2969 83.1527 37.1543L83.1645 37.0898L82.1566 37.0957L82.1449 37.1309C81.9105 37.834 81.3715 38.209 80.5219 38.209C79.3969 38.209 78.6703 37.2773 78.6703 35.8242V35.8125C78.6703 34.3887 79.3852 33.4746 80.5219 33.4746C81.4301 33.4746 81.9926 33.9785 82.1508 34.5996L82.1566 34.6172H83.1703L83.1645 34.582C82.977 33.457 82.057 32.5723 80.5219 32.5723C78.7523 32.5723 77.6273 33.8496 77.6273 35.8125V35.8242C77.6273 37.8281 78.7582 39.1113 80.5277 39.1113ZM84.6672 39H85.6867V35.2617C85.6867 34.1543 86.3254 33.4746 87.3332 33.4746C88.341 33.4746 88.8098 34.0195 88.8098 35.1562V39H89.8293V34.9102C89.8293 33.4102 89.0383 32.5723 87.6203 32.5723C86.6887 32.5723 86.0969 32.9648 85.7805 33.6328H85.6867V30.1758H84.6672V39ZM94.2207 39.1113C96.0195 39.1113 97.1328 37.8691 97.1328 35.8477V35.8359C97.1328 33.8086 96.0195 32.5723 94.2207 32.5723C92.4219 32.5723 91.3086 33.8086 91.3086 35.8359V35.8477C91.3086 37.8691 92.4219 39.1113 94.2207 39.1113ZM94.2207 38.209C93.0254 38.209 92.3516 37.3359 92.3516 35.8477V35.8359C92.3516 34.3418 93.0254 33.4746 94.2207 33.4746C95.416 33.4746 96.0898 34.3418 96.0898 35.8359V35.8477C96.0898 37.3359 95.416 38.209 94.2207 38.209ZM101.261 39.1113C103.059 39.1113 104.173 37.8691 104.173 35.8477V35.8359C104.173 33.8086 103.059 32.5723 101.261 32.5723C99.4617 32.5723 98.3484 33.8086 98.3484 35.8359V35.8477C98.3484 37.8691 99.4617 39.1113 101.261 39.1113ZM101.261 38.209C100.065 38.209 99.3914 37.3359 99.3914 35.8477V35.8359C99.3914 34.3418 100.065 33.4746 101.261 33.4746C102.456 33.4746 103.13 34.3418 103.13 35.8359V35.8477C103.13 37.3359 102.456 38.209 101.261 38.209ZM105.763 39H106.783V30.1758H105.763V39Z" fill="black"/>
<path fill-rule="evenodd" clip-rule="evenodd" d="M125.983 32.5229C124.072 30.8906 121.657 30 119.133 30C116.601 30 114.18 30.8959 112.266 32.5371L112.104 32.6765C111.972 32.7892 111.965 32.9895 112.087 33.1118L113.214 34.2356C113.324 34.3447 113.498 34.3521 113.617 34.2527L113.756 34.1354C115.263 32.8694 117.155 32.1804 119.133 32.1804C121.104 32.1804 122.989 32.8647 124.494 34.1228L124.634 34.2395C124.752 34.3385 124.926 34.3308 125.036 34.2219L126.163 33.098C126.285 32.9756 126.278 32.7749 126.146 32.6623L125.983 32.5229ZM119.133 33.4698C120.724 33.4698 122.251 33.9975 123.495 34.9749L123.671 35.113C123.811 35.2231 123.824 35.4306 123.697 35.5564L122.567 36.6841C122.462 36.7884 122.297 36.8003 122.178 36.7122L122.04 36.6098C121.2 35.9852 120.186 35.6501 119.133 35.6501C118.073 35.6501 117.053 35.9893 116.21 36.6211L116.072 36.7245C115.954 36.8133 115.787 36.8016 115.683 36.697L114.552 35.5698C114.426 35.4442 114.438 35.2373 114.578 35.1269L114.753 34.9887C116 34.0027 117.534 33.4698 119.133 33.4698ZM119.133 36.9396C119.772 36.9396 120.394 37.1076 120.941 37.4281L121.163 37.5579C121.331 37.6563 121.361 37.8867 121.223 38.0242L119.329 39.913C119.212 40.029 119.024 40.029 118.907 39.913L117.026 38.0363C116.888 37.8994 116.917 37.6702 117.084 37.5711L117.303 37.4406C117.856 37.1121 118.485 36.9396 119.133 36.9396Z" fill="black"/>
<rect x="127" y="132" width="173" height="41" rx="5" fill="#C4C4C4"/>
<rect x="135" y="423" width="156" height="42" rx="5" fill="#C4C4C4"/>
<rect x="96" y="532" width="235" height="110" rx="5" fill="#C4C4C4"/>
<g opacity="0.5">
<path d="M75.8545 350.455C78.5791 350.455 80.835 348.194 80.835 345.475C80.835 342.75 78.5742 340.494 75.8496 340.494C73.1299 340.494 70.874 342.75 70.874 345.475C70.874 348.194 73.1348 350.455 75.8545 350.455ZM87.1555 350.455C89.8801 350.455 92.1359 348.194 92.1359 345.475C92.1359 342.75 89.8752 340.494 87.1506 340.494C84.4309 340.494 82.175 342.75 82.175 345.475C82.175 348.194 84.4358 350.455 87.1555 350.455ZM98.4565 350.455C101.181 350.455 103.437 348.194 103.437 345.475C103.437 342.75 101.176 340.494 98.4516 340.494C95.7319 340.494 93.476 342.75 93.476 345.475C93.476 348.194 95.7367 350.455 98.4565 350.455ZM109.757 350.455C112.482 350.455 114.738 348.194 114.738 345.475C114.738 342.75 112.477 340.494 109.753 340.494C107.033 340.494 104.777 342.75 104.777 345.475C104.777 348.194 107.038 350.455 109.757 350.455ZM121.058 350.455C123.783 350.455 126.039 348.194 126.039 345.475C126.039 342.75 123.778 340.494 121.054 340.494C118.334 340.494 116.078 342.75 116.078 345.475C116.078 348.194 118.339 350.455 121.058 350.455Z" fill="black"/>
<path d="M64.73 362.455L64.3896 363.123L64.73 362.455ZM62.545 360.27L61.8767 360.61L62.545 360.27ZM364.455 360.27L363.787 359.929L364.455 360.27ZM362.27 362.455L362.61 363.123L362.27 362.455ZM362.27 327.545L362.61 326.877L362.27 327.545ZM364.455 329.73L363.787 330.071L364.455 329.73ZM64.73 327.545L65.0705 328.213L64.73 327.545ZM70 327.75H357V326.25H70V327.75ZM364.25 335V355H365.75V335H364.25ZM357 362.25H70V363.75H357V362.25ZM62.75 355V335H61.25V355H62.75ZM70 362.25C68.5875 362.25 67.5732 362.249 66.7771 362.184C65.9897 362.12 65.482 361.996 65.0705 361.787L64.3896 363.123C65.0477 363.459 65.7748 363.607 66.6549 363.679C67.5263 363.751 68.6122 363.75 70 363.75V362.25ZM61.25 355C61.25 356.388 61.2494 357.474 61.3206 358.345C61.3925 359.225 61.5414 359.952 61.8767 360.61L63.2132 359.929C63.0036 359.518 62.88 359.01 62.8156 358.223C62.7506 357.427 62.75 356.413 62.75 355H61.25ZM65.0705 361.787C64.2709 361.379 63.6207 360.729 63.2132 359.929L61.8767 360.61C62.428 361.692 63.3076 362.572 64.3896 363.123L65.0705 361.787ZM364.25 355C364.25 356.413 364.249 357.427 364.184 358.223C364.12 359.01 363.996 359.518 363.787 359.929L365.123 360.61C365.459 359.952 365.607 359.225 365.679 358.345C365.751 357.474 365.75 356.388 365.75 355H364.25ZM357 363.75C358.388 363.75 359.474 363.751 360.345 363.679C361.225 363.607 361.952 363.459 362.61 363.123L361.929 361.787C361.518 361.996 361.01 362.12 360.223 362.184C359.427 362.249 358.413 362.25 357 362.25V363.75ZM363.787 359.929C363.379 360.729 362.729 361.379 361.929 361.787L362.61 363.123C363.692 362.572 364.572 361.692 365.123 360.61L363.787 359.929ZM357 327.75C358.413 327.75 359.427 327.751 360.223 327.816C361.01 327.88 361.518 328.004 361.929 328.213L362.61 326.877C361.952 326.541 361.225 326.393 360.345 326.321C359.474 326.249 358.388 326.25 357 326.25V327.75ZM365.75 335C365.75 333.612 365.751 332.526 365.679 331.655C365.607 330.775 365.459 330.048 365.123 329.39L363.787 330.071C363.996 330.482 364.12 330.99 364.184 331.777C364.249 332.573 364.25 333.587 364.25 335H365.75ZM361.929 328.213C362.729 328.621 363.379 329.271 363.787 330.071L365.123 329.39C364.572 328.308 363.692 327.428 362.61 326.877L361.929 328.213ZM70 326.25C68.6122 326.25 67.5263 326.249 66.6549 326.321C65.7748 326.393 65.0477 326.541 64.3896 326.877L65.0705 328.213C65.482 328.004 65.9897 327.88 66.7771 327.816C67.5732 327.751 68.5875 327.75 70 327.75V326.25ZM62.75 335C62.75 333.587 62.7506 332.573 62.8156 331.777C62.88 330.99 63.0036 330.482 63.2132 330.071L61.8767 329.39C61.5414 330.048 61.3925 330.775 61.3206 331.655C61.2494 332.526 61.25 333.612 61.25 335H62.75ZM64.3896 326.877C63.3076 327.428 62.428 328.308 61.8767 329.39L63.2132 330.071C63.6207 329.271 64.2709 328.621 65.0705 328.213L64.3896 326.877Z" fill="#91C7B1"/>
</g>
<g opacity="0.5">
<path d="M74.3413 285.158C75.6528 285.158 76.5576 284.618 76.9976 283.664H77.1304V285H78.5747V276.052H77.1304V281.348C77.1304 282.917 76.292 283.879 74.7148 283.879C73.2871 283.879 72.7061 283.107 72.7061 281.497V276.052H71.2617V281.846C71.2617 283.962 72.3076 285.158 74.3413 285.158ZM83.9358 285.158C85.9694 285.158 87.5217 284.054 87.5217 282.46V282.443C87.5217 281.165 86.7082 280.435 85.0232 280.028L83.6452 279.696C82.591 279.438 82.1428 279.057 82.1428 278.451V278.434C82.1428 277.646 82.9231 277.098 83.9856 277.098C85.0647 277.098 85.7619 277.587 85.9528 278.293H87.3723C87.1731 276.832 85.8698 275.894 83.9939 275.894C82.093 275.894 80.6652 277.015 80.6652 278.5V278.509C80.6652 279.795 81.4206 280.526 83.0974 280.924L84.4836 281.256C85.5876 281.522 86.0441 281.945 86.0441 282.551V282.568C86.0441 283.381 85.1892 283.954 83.9856 283.954C82.84 283.954 82.1262 283.464 81.8855 282.717H80.4079C80.5739 284.195 81.9436 285.158 83.9358 285.158ZM93.0072 285.158C95.1156 285.158 96.394 283.962 96.7011 282.75L96.7177 282.684H95.2734L95.2402 282.759C94.9994 283.298 94.2524 283.871 93.0404 283.871C91.4467 283.871 90.4257 282.792 90.3842 280.941H96.8256V280.376C96.8256 277.704 95.3481 275.894 92.9159 275.894C90.4838 275.894 88.9067 277.787 88.9067 280.551V280.559C88.9067 283.365 90.4506 285.158 93.0072 285.158ZM92.9076 277.181C94.2275 277.181 95.2069 278.019 95.3564 279.787H90.4091C90.5668 278.085 91.5795 277.181 92.9076 277.181ZM98.6588 285H100.103V279.455C100.103 278.144 101.083 277.272 102.461 277.272C102.776 277.272 103.05 277.305 103.349 277.355V275.952C103.208 275.927 102.901 275.894 102.627 275.894C101.415 275.894 100.576 276.442 100.236 277.38H100.103V276.052H98.6588V285ZM104.891 285H106.336V279.704C106.336 278.135 107.241 277.172 108.668 277.172C110.096 277.172 110.76 277.944 110.76 279.555V285H112.204V279.206C112.204 277.081 111.084 275.894 109.075 275.894C107.755 275.894 106.917 276.45 106.469 277.396H106.336V276.052H104.891V285ZM116.868 285.158C118.072 285.158 119.01 284.635 119.574 283.68H119.707V285H121.151V278.874C121.151 277.015 119.931 275.894 117.748 275.894C115.839 275.894 114.478 276.84 114.245 278.243L114.237 278.293H115.681L115.689 278.268C115.922 277.571 116.627 277.172 117.698 277.172C119.035 277.172 119.707 277.77 119.707 278.874V279.688L117.142 279.845C115.059 279.97 113.88 280.891 113.88 282.485V282.501C113.88 284.128 115.167 285.158 116.868 285.158ZM115.357 282.468V282.452C115.357 281.563 115.955 281.082 117.316 280.999L119.707 280.85V281.663C119.707 282.941 118.636 283.904 117.167 283.904C116.129 283.904 115.357 283.373 115.357 282.468ZM123.383 285H124.827V279.455C124.827 278.193 125.716 277.172 126.886 277.172C128.015 277.172 128.745 277.861 128.745 278.924V285H130.19V279.248C130.19 278.11 131.011 277.172 132.257 277.172C133.518 277.172 134.124 277.828 134.124 279.148V285H135.569V278.816C135.569 276.94 134.548 275.894 132.721 275.894C131.485 275.894 130.464 276.517 129.982 277.463H129.849C129.434 276.533 128.588 275.894 127.376 275.894C126.205 275.894 125.359 276.45 124.96 277.413H124.827V276.052H123.383V285ZM141.419 285.158C143.528 285.158 144.806 283.962 145.113 282.75L145.13 282.684H143.686L143.652 282.759C143.412 283.298 142.665 283.871 141.453 283.871C139.859 283.871 138.838 282.792 138.796 280.941H145.238V280.376C145.238 277.704 143.76 275.894 141.328 275.894C138.896 275.894 137.319 277.787 137.319 280.551V280.559C137.319 283.365 138.863 285.158 141.419 285.158ZM141.32 277.181C142.64 277.181 143.619 278.019 143.769 279.787H138.821C138.979 278.085 139.992 277.181 141.32 277.181Z" fill="black"/>
<path d="M64.73 296.455L64.3896 297.123L64.73 296.455ZM62.545 294.27L61.8767 294.61L62.545 294.27ZM364.455 294.27L363.787 293.929L364.455 294.27ZM362.27 296.455L362.61 297.123L362.27 296.455ZM362.27 261.545L362.61 260.877L362.27 261.545ZM364.455 263.73L363.787 264.071L364.455 263.73ZM64.73 261.545L65.0705 262.213L64.73 261.545ZM70 261.75H357V260.25H70V261.75ZM364.25 269V289H365.75V269H364.25ZM357 296.25H70V297.75H357V296.25ZM62.75 289V269H61.25V289H62.75ZM70 296.25C68.5875 296.25 67.5732 296.249 66.7771 296.184C65.9897 296.12 65.482 295.996 65.0705 295.787L64.3896 297.123C65.0477 297.459 65.7748 297.607 66.6549 297.679C67.5263 297.751 68.6122 297.75 70 297.75V296.25ZM61.25 289C61.25 290.388 61.2494 291.474 61.3206 292.345C61.3925 293.225 61.5414 293.952 61.8767 294.61L63.2132 293.929C63.0036 293.518 62.88 293.01 62.8156 292.223C62.7506 291.427 62.75 290.413 62.75 289H61.25ZM65.0705 295.787C64.2709 295.379 63.6207 294.729 63.2132 293.929L61.8767 294.61C62.428 295.692 63.3076 296.572 64.3896 297.123L65.0705 295.787ZM364.25 289C364.25 290.413 364.249 291.427 364.184 292.223C364.12 293.01 363.996 293.518 363.787 293.929L365.123 294.61C365.459 293.952 365.607 293.225 365.679 292.345C365.751 291.474 365.75 290.388 365.75 289H364.25ZM357 297.75C358.388 297.75 359.474 297.751 360.345 297.679C361.225 297.607 361.952 297.459 362.61 297.123L361.929 295.787C361.518 295.996 361.01 296.12 360.223 296.184C359.427 296.249 358.413 296.25 357 296.25V297.75ZM363.787 293.929C363.379 294.729 362.729 295.379 361.929 295.787L362.61 297.123C363.692 296.572 364.572 295.692 365.123 294.61L363.787 293.929ZM357 261.75C358.413 261.75 359.427 261.751 360.223 261.816C361.01 261.88 361.518 262.004 361.929 262.213L362.61 260.877C361.952 260.541 361.225 260.393 360.345 260.321C359.474 260.249 358.388 260.25 357 260.25V261.75ZM365.75 269C365.75 267.612 365.751 266.526 365.679 265.655C365.607 264.775 365.459 264.048 365.123 263.39L363.787 264.071C363.996 264.482 364.12 264.99 364.184 265.777C364.249 266.573 364.25 267.587 364.25 269H365.75ZM361.929 262.213C362.729 262.621 363.379 263.271 363.787 264.071L365.123 263.39C364.572 262.308 363.692 261.428 362.61 260.877L361.929 262.213ZM70 260.25C68.6122 260.25 67.5263 260.249 66.6549 260.321C65.7748 260.393 65.0477 260.541 64.3896 260.877L65.0705 262.213C65.482 262.004 65.9897 261.88 66.7771 261.816C67.5732 261.751 68.5875 261.75 70 261.75V260.25ZM62.75 269C62.75 267.587 62.7506 266.573 62.8156 265.777C62.88 264.99 63.0036 264.482 63.2132 264.071L61.8767 263.39C61.5414 264.048 61.3925 264.775 61.3206 265.655C61.2494 266.526 61.25 267.612 61.25 269H62.75ZM64.3896 260.877C63.3076 261.428 62.428 262.308 61.8767 263.39L63.2132 264.071C63.6207 263.271 64.2709 262.621 65.0705 262.213L64.3896 260.877Z" fill="#91C7B1"/>
</g>
<path d="M317.17 237.105C318.061 237.105 318.781 236.643 319.062 235.887H319.168L319.221 236.027C319.402 236.73 319.947 237.059 320.773 237.059C321.09 237.059 321.441 237.018 321.611 236.959V235.705C321.523 235.729 321.406 235.746 321.301 235.746C320.955 235.746 320.773 235.576 320.773 235.025V230.549H319.062V231.539H318.957C318.629 230.848 317.938 230.443 317.129 230.443C315.523 230.443 314.51 231.709 314.51 233.76V233.771C314.51 235.852 315.518 237.105 317.17 237.105ZM317.598 235.729C316.789 235.729 316.262 234.973 316.262 233.783V233.771C316.262 232.564 316.812 231.82 317.662 231.82C318.512 231.82 319.068 232.6 319.068 233.777V233.789C319.068 234.967 318.494 235.729 317.598 235.729ZM329.129 237.217C331.22 237.217 332.486 235.506 332.486 232.775V232.764C332.486 230.027 331.22 228.328 329.129 228.328C327.043 228.328 325.771 230.027 325.771 232.764V232.775C325.771 235.506 327.043 237.217 329.129 237.217ZM329.129 235.816C328.132 235.816 327.564 234.686 327.564 232.775V232.764C327.564 230.848 328.132 229.729 329.129 229.729C330.13 229.729 330.699 230.848 330.699 232.764V232.775C330.699 234.686 330.13 235.816 329.129 235.816ZM334.651 237.146C335.254 237.146 335.682 236.707 335.682 236.127C335.682 235.547 335.254 235.113 334.651 235.113C334.053 235.113 333.62 235.547 333.62 236.127C333.62 236.707 334.053 237.146 334.651 237.146ZM340.384 237.217C342.282 237.217 343.595 236.004 343.595 234.223V234.211C343.595 232.6 342.458 231.439 340.882 231.439C340.073 231.439 339.417 231.791 339.077 232.359H338.972L339.183 229.951H343.091V228.545H337.806L337.413 233.549H338.931C339.025 233.367 339.165 233.209 339.323 233.08C339.605 232.84 339.968 232.717 340.396 232.717C341.292 232.717 341.931 233.344 341.931 234.246V234.258C341.931 235.166 341.298 235.805 340.39 235.805C339.593 235.805 339.013 235.307 338.89 234.686L338.878 234.645H337.273L337.279 234.727C337.378 236.139 338.573 237.217 340.384 237.217Z" fill="#FFA800"/>
<line x1="329.5" y1="246.5" x2="329.5" y2="273.5" stroke="#FFA800" stroke-linecap="round"/>
<line x1="326.5" y1="246.5" x2="332.5" y2="246.5" stroke="#FFA800" stroke-linecap="round"/>
<path d="M63.4766 387.139H66.7227V385.879H65.1172V377.342H66.7227V376.082H63.4766V387.139ZM68.1199 385H71.9168C73.7215 385 74.8406 384.068 74.8406 382.586V382.574C74.8406 381.49 74.0262 380.652 72.907 380.564V380.459C73.7742 380.33 74.4363 379.551 74.4363 378.66V378.648C74.4363 377.348 73.4578 376.545 71.8172 376.545H68.1199V385ZM71.366 377.857C72.2098 377.857 72.6961 378.268 72.6961 378.953V378.965C72.6961 379.662 72.1746 380.061 71.2195 380.061H69.8895V377.857H71.366ZM71.4246 381.227C72.4676 381.227 73.0359 381.648 73.0359 382.434V382.445C73.0359 383.248 72.4852 383.682 71.4656 383.682H69.8895V381.227H71.4246ZM79.0855 385.135C81.0719 385.135 82.2672 383.881 82.2672 381.777V381.766C82.2672 379.68 81.0543 378.408 79.0855 378.408C77.1168 378.408 75.9039 379.686 75.9039 381.766V381.777C75.9039 383.875 77.0992 385.135 79.0855 385.135ZM79.0855 383.793C78.1715 383.793 77.6559 383.049 77.6559 381.777V381.766C77.6559 380.506 78.1773 379.75 79.0855 379.75C79.9879 379.75 80.5152 380.506 80.5152 381.766V381.777C80.5152 383.049 79.9937 383.793 79.0855 383.793ZM83.6117 385H85.3227V381.391C85.3227 380.477 85.9379 379.92 86.9105 379.92C87.1742 379.92 87.4379 379.961 87.6957 380.02V378.525C87.5258 378.479 87.2855 378.443 87.057 378.443C86.2191 378.443 85.6332 378.854 85.4281 379.551H85.3227V378.549H83.6117V385ZM90.9387 385.1C91.8469 385.1 92.5324 384.695 92.8664 383.998H92.9719V385H94.6828V376.082H92.9719V379.58H92.8664C92.5441 378.877 91.8234 378.443 90.9387 378.443C89.3039 378.443 88.3195 379.691 88.3195 381.766V381.777C88.3195 383.84 89.3273 385.1 90.9387 385.1ZM91.5187 383.682C90.6164 383.682 90.0598 382.967 90.0598 381.777V381.766C90.0598 380.588 90.6164 379.861 91.5187 379.861C92.4211 379.861 92.9895 380.588 92.9895 381.771V381.783C92.9895 382.967 92.427 383.682 91.5187 383.682ZM99.2383 385.135C101.125 385.135 101.957 384.045 102.156 383.236L102.168 383.178H100.574L100.557 383.213C100.439 383.459 100.023 383.857 99.2734 383.857C98.3652 383.857 97.7969 383.242 97.7793 382.182H102.221V381.648C102.221 379.697 101.049 378.408 99.168 378.408C97.2871 378.408 96.0859 379.727 96.0859 381.777V381.783C96.0859 383.852 97.2754 385.135 99.2383 385.135ZM99.1973 379.691C99.9414 379.691 100.475 380.172 100.58 381.109H97.7969C97.9023 380.195 98.4531 379.691 99.1973 379.691ZM103.571 385H105.282V381.391C105.282 380.477 105.897 379.92 106.87 379.92C107.134 379.92 107.397 379.961 107.655 380.02V378.525C107.485 378.479 107.245 378.443 107.016 378.443C106.179 378.443 105.593 378.854 105.388 379.551H105.282V378.549H103.571V385ZM111.566 387.139V376.082H108.32V377.342H109.92V385.879H108.32V387.139H111.566ZM65.0762 401H66.8457V394.004H69.3828V392.545H62.5391V394.004H65.0762V401ZM72.2391 401.135C73.159 401.135 73.8152 400.707 74.1082 400.004H74.2137V401H75.9246V394.549H74.2137V398.275C74.2137 399.148 73.7566 399.717 72.9129 399.717C72.1043 399.717 71.7586 399.242 71.7586 398.328V394.549H70.0477V398.721C70.0477 400.256 70.7918 401.135 72.2391 401.135ZM77.5914 401H79.3023V397.391C79.3023 396.477 79.9176 395.92 80.8902 395.92C81.1539 395.92 81.4176 395.961 81.6754 396.02V394.525C81.5055 394.479 81.2652 394.443 81.0367 394.443C80.1988 394.443 79.6129 394.854 79.4078 395.551H79.3023V394.549H77.5914V401ZM86.9691 403.139H88.6801V394.549H86.9691V395.609H86.893C86.5355 394.883 85.8207 394.443 84.9477 394.443C83.2953 394.443 82.3109 395.691 82.3109 397.766V397.777C82.3109 399.84 83.307 401.1 84.9184 401.1C85.8441 401.1 86.5473 400.695 86.8637 400.016H86.9691V403.139ZM85.516 399.682C84.6078 399.682 84.0512 398.967 84.0512 397.777V397.766C84.0512 396.588 84.6137 395.861 85.516 395.861C86.4125 395.861 86.9926 396.588 86.9926 397.771V397.783C86.9926 398.961 86.4184 399.682 85.516 399.682ZM92.468 401.135C93.3879 401.135 94.0441 400.707 94.3371 400.004H94.4426V401H96.1535V394.549H94.4426V398.275C94.4426 399.148 93.9855 399.717 93.1418 399.717C92.3332 399.717 91.9875 399.242 91.9875 398.328V394.549H90.2766V398.721C90.2766 400.256 91.0207 401.135 92.468 401.135ZM100.686 401.135C102.672 401.135 103.867 399.881 103.867 397.777V397.766C103.867 395.68 102.654 394.408 100.686 394.408C98.7168 394.408 97.5039 395.686 97.5039 397.766V397.777C97.5039 399.875 98.6992 401.135 100.686 401.135ZM100.686 399.793C99.7715 399.793 99.2559 399.049 99.2559 397.777V397.766C99.2559 396.506 99.7773 395.75 100.686 395.75C101.588 395.75 102.115 396.506 102.115 397.766V397.777C102.115 399.049 101.594 399.793 100.686 399.793ZM106.085 393.559C106.612 393.559 107.046 393.137 107.046 392.609C107.046 392.076 106.612 391.654 106.085 391.654C105.557 391.654 105.118 392.076 105.118 392.609C105.118 393.137 105.557 393.559 106.085 393.559ZM105.223 401H106.934V394.549H105.223V401ZM111.173 401.135C112.826 401.135 114.004 400.303 114.004 399.025V399.02C114.004 398.064 113.4 397.525 112.111 397.25L111.039 397.021C110.371 396.875 110.13 396.676 110.13 396.33V396.324C110.13 395.891 110.552 395.615 111.144 395.615C111.783 395.615 112.164 395.938 112.257 396.283L112.263 396.312H113.851V396.289C113.781 395.252 112.843 394.408 111.15 394.408C109.539 394.408 108.461 395.217 108.461 396.43V396.436C108.461 397.402 109.07 398.006 110.3 398.27L111.379 398.498C112.035 398.645 112.293 398.861 112.293 399.207V399.219C112.293 399.646 111.847 399.928 111.191 399.928C110.517 399.928 110.125 399.641 109.99 399.242L109.978 399.219H108.296L108.302 399.242C108.425 400.35 109.421 401.135 111.173 401.135ZM118.19 401.135C120.077 401.135 120.909 400.045 121.108 399.236L121.12 399.178H119.526L119.508 399.213C119.391 399.459 118.975 399.857 118.225 399.857C117.317 399.857 116.748 399.242 116.731 398.182H121.172V397.648C121.172 395.697 120 394.408 118.12 394.408C116.239 394.408 115.037 395.727 115.037 397.777V397.783C115.037 399.852 116.227 401.135 118.19 401.135ZM118.149 395.691C118.893 395.691 119.426 396.172 119.532 397.109H116.748C116.854 396.195 117.405 395.691 118.149 395.691ZM129.416 401.217C131.725 401.217 133.166 399.811 133.166 397.566V396.494H129.615V397.783H131.443L131.438 397.941C131.402 399.008 130.605 399.717 129.445 399.717C128.051 399.717 127.166 398.586 127.166 396.752V396.74C127.166 394.941 128.01 393.828 129.375 393.828C130.365 393.828 131.086 394.326 131.326 395.164L131.338 395.223H133.096L133.084 395.164C132.832 393.477 131.373 392.328 129.375 392.328C126.914 392.328 125.361 394.045 125.361 396.758V396.77C125.361 399.523 126.902 401.217 129.416 401.217ZM134.645 401H136.356V397.391C136.356 396.477 136.971 395.92 137.944 395.92C138.208 395.92 138.471 395.961 138.729 396.02V394.525C138.559 394.479 138.319 394.443 138.091 394.443C137.253 394.443 136.667 394.854 136.462 395.551H136.356V394.549H134.645V401ZM142.505 401.135C144.392 401.135 145.224 400.045 145.423 399.236L145.435 399.178H143.841L143.824 399.213C143.707 399.459 143.291 399.857 142.541 399.857C141.632 399.857 141.064 399.242 141.046 398.182H145.488V397.648C145.488 395.697 144.316 394.408 142.435 394.408C140.554 394.408 139.353 395.727 139.353 397.777V397.783C139.353 399.852 140.543 401.135 142.505 401.135ZM142.464 395.691C143.209 395.691 143.742 396.172 143.847 397.109H141.064C141.17 396.195 141.72 395.691 142.464 395.691ZM149.674 401.135C151.561 401.135 152.393 400.045 152.592 399.236L152.604 399.178H151.01L150.993 399.213C150.875 399.459 150.459 399.857 149.709 399.857C148.801 399.857 148.233 399.242 148.215 398.182H152.657V397.648C152.657 395.697 151.485 394.408 149.604 394.408C147.723 394.408 146.522 395.727 146.522 397.777V397.783C146.522 399.852 147.711 401.135 149.674 401.135ZM149.633 395.691C150.377 395.691 150.911 396.172 151.016 397.109H148.233C148.338 396.195 148.889 395.691 149.633 395.691ZM154.007 401H155.718V397.268C155.718 396.395 156.198 395.826 156.989 395.826C157.798 395.826 158.173 396.307 158.173 397.215V401H159.884V396.828C159.884 395.287 159.111 394.408 157.675 394.408C156.755 394.408 156.116 394.848 155.823 395.545H155.718V394.549H154.007V401ZM64.9238 417H66.6934V408.545H64.9297L62.7441 410.062V411.656L64.8184 410.215H64.9238V417ZM69.8484 417.146C70.452 417.146 70.8797 416.707 70.8797 416.127C70.8797 415.547 70.452 415.113 69.8484 415.113C69.2508 415.113 68.8172 415.547 68.8172 416.127C68.8172 416.707 69.2508 417.146 69.8484 417.146ZM75.5816 417.217C77.4801 417.217 78.7926 416.004 78.7926 414.223V414.211C78.7926 412.6 77.6559 411.439 76.0797 411.439C75.2711 411.439 74.6148 411.791 74.275 412.359H74.1695L74.3805 409.951H78.2887V408.545H73.0035L72.6109 413.549H74.1285C74.2223 413.367 74.3629 413.209 74.5211 413.08C74.8023 412.84 75.1656 412.717 75.5934 412.717C76.4898 412.717 77.1285 413.344 77.1285 414.246V414.258C77.1285 415.166 76.4957 415.805 75.5875 415.805C74.7906 415.805 74.2105 415.307 74.0875 414.686L74.0758 414.645H72.4703L72.4762 414.727C72.5758 416.139 73.7711 417.217 75.5816 417.217ZM80.2953 419.139H82.0063V415.969H82.1117C82.4398 416.672 83.1605 417.1 84.0453 417.1C85.6801 417.1 86.6645 415.852 86.6645 413.777V413.766C86.6645 411.709 85.6566 410.443 84.0453 410.443C83.1313 410.443 82.4457 410.854 82.1117 411.545H82.0063V410.549H80.2953V419.139ZM83.4594 415.682C82.5629 415.682 81.9887 414.961 81.9887 413.777V413.766C81.9887 412.582 82.557 411.861 83.4594 411.861C84.3676 411.861 84.9242 412.582 84.9242 413.766V413.777C84.9242 414.961 84.3617 415.682 83.4594 415.682ZM87.1945 417H88.9992L90.2004 414.867H90.3059L91.5129 417H93.4055L91.3605 413.736L93.3937 410.549H91.5305L90.3879 412.688H90.2824L89.1398 410.549H87.177L89.216 413.807L87.1945 417Z" fill="#FFA800"/>
</g>
<defs>
<filter id="filter0_d" x="0" y="0" width="426" height="717" filterUnits="userSpaceOnUse" color-interpolation-filters="sRGB">
<feFlood flood-opacity="0" result="BackgroundImageFix"/>
<feColorMatrix in="SourceAlpha" type="matrix" values="0 0 0 0 0 0 0 0 0 0 0 0 0 0 0 0 0 0 127 0"/>
<feMorphology radius="5" operator="dilate" in="SourceAlpha" result="effect1_dropShadow"/>
<feOffset/>
<feGaussianBlur stdDeviation="10"/>
<feColorMatrix type="matrix" values="0 0 0 0 0 0 0 0 0 0 0 0 0 0 0 0 0 0 0.15 0"/>
<feBlend mode="normal" in2="BackgroundImageFix" result="effect1_dropShadow"/>
<feBlend mode="normal" in="SourceGraphic" in2="effect1_dropShadow" result="shape"/>
</filter>
</defs>
</svg>
