<svg width="426" height="717" viewBox="0 0 426 717" fill="none" xmlns="http://www.w3.org/2000/svg">
<g filter="url(#filter0_d)">
<rect width="375" height="667" transform="translate(26 25)" fill="white"/>
<path d="M192.279 30.334C190.445 30.334 189.139 31.5879 189.139 33.3047V33.3164C189.139 34.9219 190.275 36.1055 191.898 36.1055C193.059 36.1055 193.797 35.5137 194.107 34.8457H194.225C194.225 34.9102 194.219 34.9746 194.219 35.0391C194.154 36.6562 193.586 37.9688 192.244 37.9688C191.5 37.9688 190.979 37.582 190.756 36.9902L190.738 36.9316H189.25L189.262 36.9961C189.531 38.291 190.691 39.2109 192.244 39.2109C194.371 39.2109 195.654 37.5234 195.654 34.6758V34.6641C195.654 31.6172 194.084 30.334 192.279 30.334ZM192.273 34.9453C191.312 34.9453 190.615 34.2422 190.615 33.2637V33.252C190.615 32.3086 191.359 31.5645 192.291 31.5645C193.229 31.5645 193.961 32.3203 193.961 33.2871V33.2988C193.961 34.2539 193.229 34.9453 192.273 34.9453ZM198.314 33.5215C198.854 33.5215 199.246 33.1113 199.246 32.5957C199.246 32.0742 198.854 31.6699 198.314 31.6699C197.781 31.6699 197.383 32.0742 197.383 32.5957C197.383 33.1113 197.781 33.5215 198.314 33.5215ZM198.314 37.8691C198.854 37.8691 199.246 37.4648 199.246 36.9434C199.246 36.4219 198.854 36.0176 198.314 36.0176C197.781 36.0176 197.383 36.4219 197.383 36.9434C197.383 37.4648 197.781 37.8691 198.314 37.8691ZM205.076 39H206.523V37.377H207.66V36.1289H206.523V30.5449H204.385C203.236 32.291 202.035 34.2363 200.939 36.1406V37.377H205.076V39ZM202.346 36.1641V36.0762C203.166 34.6406 204.145 33.0762 205.012 31.752H205.1V36.1641H202.346ZM211.164 39H212.676V30.5449H211.17L208.961 32.0977V33.5215L211.064 32.0332H211.164V39ZM217.756 39H219.338L220.041 36.8145H223.17L223.879 39H225.461L222.461 30.5449H220.756L217.756 39ZM221.559 32.1152H221.658L222.795 35.6484H220.422L221.559 32.1152ZM226.914 39H228.279V32.9883H228.379L230.723 39H231.754L234.098 32.9883H234.203V39H235.562V30.5449H233.828L231.291 37.0488H231.191L228.648 30.5449H226.914V39Z" fill="black"/>
<path opacity="0.35" fill-rule="evenodd" clip-rule="evenodd" d="M370.5 29.5H389.5C390.881 29.5 392 30.6193 392 32V38.5C392 39.8807 390.881 41 389.5 41H370.5C369.119 41 368 39.8807 368 38.5V32C368 30.6193 369.119 29.5 370.5 29.5ZM370.5 30.5C369.672 30.5 369 31.1716 369 32V38.5C369 39.3284 369.672 40 370.5 40H389.5C390.328 40 391 39.3284 391 38.5V32C391 31.1716 390.328 30.5 389.5 30.5H370.5Z" fill="black"/>
<path opacity="0.4" fill-rule="evenodd" clip-rule="evenodd" d="M393 32.7998C393.89 33.255 394.5 34.1813 394.5 35.2499C394.5 36.3186 393.89 37.2449 393 37.7001V32.7998Z" fill="black"/>
<path fill-rule="evenodd" clip-rule="evenodd" d="M371 31.5H389C389.552 31.5 390 31.9477 390 32.5V38C390 38.5523 389.552 39 389 39H371C370.448 39 370 38.5523 370 38V32.5C370 31.9477 370.448 31.5 371 31.5Z" fill="black"/>
<path d="M336.219 39.3H337.273V30.8449H336.225L333.975 32.4621V33.5754L336.125 32.0168H336.219V39.3ZM342.547 39.4992C344.416 39.4992 345.541 37.7941 345.541 35.0754V35.0637C345.541 32.3449 344.416 30.6457 342.547 30.6457C340.678 30.6457 339.564 32.3449 339.564 35.0637V35.0754C339.564 37.7941 340.678 39.4992 342.547 39.4992ZM342.547 38.5793C341.334 38.5793 340.625 37.2316 340.625 35.0754V35.0637C340.625 32.9074 341.334 31.5715 342.547 31.5715C343.76 31.5715 344.48 32.9074 344.48 35.0637V35.0754C344.48 37.2316 343.76 38.5793 342.547 38.5793ZM350.105 39.4992C351.975 39.4992 353.1 37.7941 353.1 35.0754V35.0637C353.1 32.3449 351.975 30.6457 350.105 30.6457C348.236 30.6457 347.123 32.3449 347.123 35.0637V35.0754C347.123 37.7941 348.236 39.4992 350.105 39.4992ZM350.105 38.5793C348.893 38.5793 348.184 37.2316 348.184 35.0754V35.0637C348.184 32.9074 348.893 31.5715 350.105 31.5715C351.318 31.5715 352.039 32.9074 352.039 35.0637V35.0754C352.039 37.2316 351.318 38.5793 350.105 38.5793ZM356.41 35.2922C357.488 35.2922 358.145 34.4133 358.145 33.0129V33.007C358.145 31.6066 357.488 30.7336 356.41 30.7336C355.332 30.7336 354.682 31.6066 354.682 33.007V33.0129C354.682 34.4133 355.332 35.2922 356.41 35.2922ZM357.043 39.3L362.797 30.8449H361.848L356.094 39.3H357.043ZM356.41 34.5949C355.83 34.5949 355.496 34.0031 355.496 33.0129V33.007C355.496 32.0168 355.83 31.4308 356.41 31.4308C356.99 31.4308 357.33 32.0168 357.33 33.007V33.0129C357.33 34.0031 356.99 34.5949 356.41 34.5949ZM362.469 39.4113C363.547 39.4113 364.203 38.5324 364.203 37.132V37.1262C364.203 35.7258 363.547 34.8527 362.469 34.8527C361.391 34.8527 360.74 35.7258 360.74 37.1262V37.132C360.74 38.5324 361.391 39.4113 362.469 39.4113ZM362.469 38.7141C361.889 38.7141 361.555 38.1223 361.555 37.132V37.1262C361.555 36.1359 361.889 35.55 362.469 35.55C363.049 35.55 363.389 36.1359 363.389 37.1262V37.132C363.389 38.1223 363.049 38.7141 362.469 38.7141Z" fill="black"/>
<path fill-rule="evenodd" clip-rule="evenodd" d="M45.5 30H46.5C47.0523 30 47.5 30.4477 47.5 31V39C47.5 39.5523 47.0523 40 46.5 40H45.5C44.9477 40 44.5 39.5523 44.5 39V31C44.5 30.4477 44.9477 30 45.5 30Z" fill="black"/>
<path d="M42 32H41C40.4477 32 40 32.4477 40 33V39C40 39.5523 40.4477 40 41 40H42C42.5523 40 43 39.5523 43 39V33C43 32.4477 42.5523 32 42 32Z" fill="black"/>
<path d="M36.5 34H37.5C38.0523 34 38.5 34.4477 38.5 35V39C38.5 39.5523 38.0523 40 37.5 40H36.5C35.9477 40 35.5 39.5523 35.5 39V35C35.5 34.4477 35.9477 34 36.5 34Z" fill="black"/>
<path d="M32 35.5H33C33.5523 35.5 34 35.9477 34 36.5V39C34 39.5523 33.5523 40 33 40H32C31.4477 40 31 39.5523 31 39V36.5C31 35.9477 31.4477 35.5 32 35.5Z" fill="black"/>
<path d="M55.0781 39H56.1328V35.6543H58.2129L60.0234 39H61.2598L59.3027 35.4902C60.3633 35.1562 61.002 34.2422 61.002 33.0703V33.0586C61.002 31.541 59.9355 30.5449 58.3066 30.5449H55.0781V39ZM56.1328 34.7168V31.4824H58.166C59.2559 31.4824 59.9121 32.0859 59.9121 33.0938V33.1055C59.9121 34.1367 59.2969 34.7168 58.2129 34.7168H56.1328ZM65.6395 39.1992C67.5262 39.1992 68.7625 38.2148 68.7625 36.6328V36.627C68.7625 35.4082 68.0652 34.6992 66.3016 34.3066L65.3641 34.0957C64.2156 33.8438 63.7527 33.3867 63.7527 32.7129V32.707C63.7527 31.8223 64.5672 31.3242 65.6219 31.3184C66.7234 31.3125 67.4266 31.8633 67.5437 32.6074L67.5555 32.6836H68.6102L68.6043 32.6016C68.5164 31.3418 67.3387 30.3457 65.6512 30.3457C63.9051 30.3457 62.6805 31.3359 62.6746 32.7363V32.7422C62.6746 33.9668 63.407 34.7461 65.1004 35.1211L66.0379 35.3262C67.198 35.584 67.6844 36.0645 67.6844 36.7676V36.7734C67.6844 37.6348 66.8465 38.2266 65.698 38.2266C64.4793 38.2266 63.6004 37.6934 63.5242 36.8496L63.5184 36.7852H62.4637L62.4695 36.8496C62.5926 38.2266 63.7879 39.1992 65.6395 39.1992ZM73.2418 39.1992C75.1285 39.1992 76.3648 38.2148 76.3648 36.6328V36.627C76.3648 35.4082 75.6676 34.6992 73.9039 34.3066L72.9664 34.0957C71.818 33.8438 71.3551 33.3867 71.3551 32.7129V32.707C71.3551 31.8223 72.1695 31.3242 73.2242 31.3184C74.3258 31.3125 75.0289 31.8633 75.1461 32.6074L75.1578 32.6836H76.2125L76.2066 32.6016C76.1187 31.3418 74.941 30.3457 73.2535 30.3457C71.5074 30.3457 70.2828 31.3359 70.277 32.7363V32.7422C70.277 33.9668 71.0094 34.7461 72.7027 35.1211L73.6402 35.3262C74.8004 35.584 75.2867 36.0645 75.2867 36.7676V36.7734C75.2867 37.6348 74.4488 38.2266 73.3004 38.2266C72.0816 38.2266 71.2027 37.6934 71.1266 36.8496L71.1207 36.7852H70.066L70.0719 36.8496C70.1949 38.2266 71.3902 39.1992 73.2418 39.1992ZM80.5277 39.1113C82.0453 39.1113 82.8949 38.2969 83.1527 37.1543L83.1645 37.0898L82.1566 37.0957L82.1449 37.1309C81.9105 37.834 81.3715 38.209 80.5219 38.209C79.3969 38.209 78.6703 37.2773 78.6703 35.8242V35.8125C78.6703 34.3887 79.3852 33.4746 80.5219 33.4746C81.4301 33.4746 81.9926 33.9785 82.1508 34.5996L82.1566 34.6172H83.1703L83.1645 34.582C82.977 33.457 82.057 32.5723 80.5219 32.5723C78.7523 32.5723 77.6273 33.8496 77.6273 35.8125V35.8242C77.6273 37.8281 78.7582 39.1113 80.5277 39.1113ZM84.6672 39H85.6867V35.2617C85.6867 34.1543 86.3254 33.4746 87.3332 33.4746C88.341 33.4746 88.8098 34.0195 88.8098 35.1562V39H89.8293V34.9102C89.8293 33.4102 89.0383 32.5723 87.6203 32.5723C86.6887 32.5723 86.0969 32.9648 85.7805 33.6328H85.6867V30.1758H84.6672V39ZM94.2207 39.1113C96.0195 39.1113 97.1328 37.8691 97.1328 35.8477V35.8359C97.1328 33.8086 96.0195 32.5723 94.2207 32.5723C92.4219 32.5723 91.3086 33.8086 91.3086 35.8359V35.8477C91.3086 37.8691 92.4219 39.1113 94.2207 39.1113ZM94.2207 38.209C93.0254 38.209 92.3516 37.3359 92.3516 35.8477V35.8359C92.3516 34.3418 93.0254 33.4746 94.2207 33.4746C95.416 33.4746 96.0898 34.3418 96.0898 35.8359V35.8477C96.0898 37.3359 95.416 38.209 94.2207 38.209ZM101.261 39.1113C103.059 39.1113 104.173 37.8691 104.173 35.8477V35.8359C104.173 33.8086 103.059 32.5723 101.261 32.5723C99.4617 32.5723 98.3484 33.8086 98.3484 35.8359V35.8477C98.3484 37.8691 99.4617 39.1113 101.261 39.1113ZM101.261 38.209C100.065 38.209 99.3914 37.3359 99.3914 35.8477V35.8359C99.3914 34.3418 100.065 33.4746 101.261 33.4746C102.456 33.4746 103.13 34.3418 103.13 35.8359V35.8477C103.13 37.3359 102.456 38.209 101.261 38.209ZM105.763 39H106.783V30.1758H105.763V39Z" fill="black"/>
<path fill-rule="evenodd" clip-rule="evenodd" d="M125.983 32.5229C124.072 30.8906 121.657 30 119.133 30C116.601 30 114.18 30.8959 112.266 32.5371L112.104 32.6765C111.972 32.7892 111.965 32.9895 112.087 33.1118L113.214 34.2356C113.324 34.3447 113.498 34.3521 113.617 34.2527L113.756 34.1354C115.263 32.8694 117.155 32.1804 119.133 32.1804C121.104 32.1804 122.989 32.8647 124.494 34.1228L124.634 34.2395C124.752 34.3385 124.926 34.3308 125.036 34.2219L126.163 33.098C126.285 32.9756 126.278 32.7749 126.146 32.6623L125.983 32.5229ZM119.133 33.4698C120.724 33.4698 122.251 33.9975 123.495 34.9749L123.671 35.113C123.811 35.2231 123.824 35.4306 123.697 35.5564L122.567 36.6841C122.462 36.7884 122.297 36.8003 122.178 36.7122L122.04 36.6098C121.2 35.9852 120.186 35.6501 119.133 35.6501C118.073 35.6501 117.053 35.9893 116.21 36.6211L116.072 36.7245C115.954 36.8133 115.787 36.8016 115.683 36.697L114.552 35.5698C114.426 35.4442 114.438 35.2373 114.578 35.1269L114.753 34.9887C116 34.0027 117.534 33.4698 119.133 33.4698ZM119.133 36.9396C119.772 36.9396 120.394 37.1076 120.941 37.4281L121.163 37.5579C121.331 37.6563 121.361 37.8867 121.223 38.0242L119.329 39.913C119.212 40.029 119.024 40.029 118.907 39.913L117.026 38.0363C116.888 37.8994 116.917 37.6702 117.084 37.5711L117.303 37.4406C117.856 37.1121 118.485 36.9396 119.133 36.9396Z" fill="black"/>
<rect x="127" y="132" width="173" height="41" rx="5" fill="#C4C4C4"/>
<path d="M62 335C62 332.2 62 330.8 62.545 329.73C63.0243 328.789 63.7892 328.024 64.73 327.545C65.7996 327 67.1997 327 70 327H357C359.8 327 361.2 327 362.27 327.545C363.211 328.024 363.976 328.789 364.455 329.73C365 330.8 365 332.2 365 335V355C365 357.8 365 359.2 364.455 360.27C363.976 361.211 363.211 361.976 362.27 362.455C361.2 363 359.8 363 357 363H70C67.1997 363 65.7996 363 64.73 362.455C63.7892 361.976 63.0243 361.211 62.545 360.27C62 359.2 62 357.8 62 355V335Z" fill="#C4C4C4"/>
<path d="M62 269C62 266.2 62 264.8 62.545 263.73C63.0243 262.789 63.7892 262.024 64.73 261.545C65.7996 261 67.1997 261 70 261H357C359.8 261 361.2 261 362.27 261.545C363.211 262.024 363.976 262.789 364.455 263.73C365 264.8 365 266.2 365 269V289C365 291.8 365 293.2 364.455 294.27C363.976 295.211 363.211 295.976 362.27 296.455C361.2 297 359.8 297 357 297H70C67.1997 297 65.7996 297 64.73 296.455C63.7892 295.976 63.0243 295.211 62.545 294.27C62 293.2 62 291.8 62 289V269Z" fill="#C4C4C4"/>
<rect x="96" y="532" width="235" height="110" rx="5" fill="#C4C4C4"/>
<rect x="136" y="424" width="154" height="40" rx="9" stroke="#80A4ED" stroke-width="2"/>
<path d="M180.231 451H182.868L184.039 447.357H189.254L190.436 451H193.073L188.073 436.908H185.231L180.231 451ZM186.569 439.525H186.735L188.629 445.414H184.674L186.569 439.525ZM197.821 451.215C199.364 451.215 200.448 450.521 200.946 449.379H201.112V451H203.543V440.326H201.112V446.547C201.112 448.148 200.272 449.164 198.7 449.164C197.235 449.164 196.62 448.324 196.62 446.674V440.326H194.188V447.23C194.188 449.77 195.418 451.215 197.821 451.215ZM210.303 451.049C210.772 451.049 211.221 451.01 211.573 450.941V449.066C211.28 449.096 211.094 449.105 210.753 449.105C209.737 449.105 209.317 448.656 209.317 447.592V442.211H211.573V440.326H209.317V437.709H206.846V440.326H205.186V442.211H206.846V448.168C206.846 450.229 207.852 451.049 210.303 451.049ZM213.685 451H216.116V444.779C216.116 443.178 217.015 442.162 218.46 442.162C219.935 442.162 220.608 443.002 220.608 444.662V451H223.04V444.096C223.04 441.557 221.741 440.121 219.358 440.121C217.815 440.121 216.79 440.814 216.282 441.957H216.116V436.195H213.685V451ZM230.112 451.215C233.306 451.215 235.249 449.125 235.249 445.668V445.648C235.249 442.211 233.296 440.121 230.112 440.121C226.939 440.121 224.976 442.221 224.976 445.648V445.668C224.976 449.125 226.909 451.215 230.112 451.215ZM230.112 449.242C228.423 449.242 227.456 447.924 227.456 445.678V445.658C227.456 443.412 228.423 442.084 230.112 442.084C231.792 442.084 232.759 443.412 232.759 445.658V445.678C232.759 447.924 231.802 449.242 230.112 449.242ZM237.283 451H239.714V444.799C239.714 443.275 240.779 442.309 242.4 442.309C242.82 442.309 243.22 442.367 243.611 442.445V440.268C243.376 440.199 242.995 440.15 242.624 440.15C241.218 440.15 240.242 440.824 239.88 441.967H239.714V440.326H237.283V451ZM246.445 438.539C247.236 438.539 247.89 437.904 247.89 437.104C247.89 436.312 247.236 435.668 246.445 435.668C245.644 435.668 244.99 436.312 244.99 437.104C244.99 437.904 245.644 438.539 246.445 438.539ZM245.224 451H247.656V440.326H245.224V451ZM249.992 451H258.644V449.125H253.068V448.949L258.556 441.947V440.326H250.041V442.211H255.685V442.377L249.992 449.516V451ZM265.258 451.215C268.158 451.215 269.584 449.545 269.926 448.168L269.955 448.08H267.641L267.611 448.148C267.377 448.637 266.625 449.301 265.307 449.301C263.656 449.301 262.621 448.188 262.592 446.273H270.053V445.473C270.053 442.25 268.178 440.121 265.141 440.121C262.104 440.121 260.16 442.318 260.16 445.678V445.688C260.16 449.086 262.084 451.215 265.258 451.215ZM265.17 442.025C266.527 442.025 267.514 442.895 267.68 444.643H262.611C262.797 442.943 263.812 442.025 265.17 442.025Z" fill="#80A4ED"/>
<path d="M164.628 444.156C166.604 444.156 168.214 442.396 168.214 440.255C168.214 438.13 166.612 436.461 164.628 436.461C162.661 436.461 161.042 438.163 161.042 440.271C161.051 442.405 162.653 444.156 164.628 444.156ZM164.628 442.903C163.417 442.903 162.379 441.741 162.379 440.271C162.379 438.827 163.4 437.715 164.628 437.715C165.865 437.715 166.878 438.811 166.878 440.255C166.878 441.724 165.849 442.903 164.628 442.903ZM159.407 451.834H169.841C171.219 451.834 171.875 451.419 171.875 450.506C171.875 448.332 169.127 445.186 164.628 445.186C160.121 445.186 157.374 448.332 157.374 450.506C157.374 451.419 158.029 451.834 159.407 451.834ZM159.017 450.581C158.801 450.581 158.71 450.523 158.71 450.349C158.71 448.987 160.818 446.439 164.628 446.439C168.43 446.439 170.539 448.987 170.539 450.349C170.539 450.523 170.456 450.581 170.24 450.581H159.017Z" fill="#80A4ED"/>
<path d="M39.4766 437.139H42.7227V435.879H41.1172V427.342H42.7227V426.082H39.4766V437.139ZM46.1707 435H47.9402V428.004H50.4773V426.545H43.6336V428.004H46.1707V435ZM52.5777 427.559C53.1051 427.559 53.5387 427.137 53.5387 426.609C53.5387 426.076 53.1051 425.654 52.5777 425.654C52.0504 425.654 51.6109 426.076 51.6109 426.609C51.6109 427.137 52.0504 427.559 52.5777 427.559ZM51.7164 435H53.4273V428.549H51.7164V435ZM57.7777 435.023C58.1059 435.023 58.4223 434.988 58.6332 434.947V433.676C58.4691 433.693 58.352 433.705 58.1293 433.705C57.5492 433.705 57.3031 433.447 57.3031 432.867V429.838H58.6332V428.549H57.3031V427.008H55.5746V428.549H54.5785V429.838H55.5746V433.26C55.5746 434.514 56.2074 435.023 57.7777 435.023ZM60.0656 435H61.7766V426.082H60.0656V435ZM66.332 435.135C68.2188 435.135 69.0508 434.045 69.25 433.236L69.2617 433.178H67.668L67.6504 433.213C67.5332 433.459 67.1172 433.857 66.3672 433.857C65.459 433.857 64.8906 433.242 64.873 432.182H69.3145V431.648C69.3145 429.697 68.1426 428.408 66.2617 428.408C64.3809 428.408 63.1797 429.727 63.1797 431.777V431.783C63.1797 433.852 64.3691 435.135 66.332 435.135ZM66.291 429.691C67.0352 429.691 67.5684 430.172 67.6738 431.109H64.8906C64.9961 430.195 65.5469 429.691 66.291 429.691ZM73.4832 437.139V426.082H70.2371V427.342H71.8367V435.879H70.2371V437.139H73.4832ZM42.0488 451.217C44.1582 451.217 45.459 450.156 45.459 448.48V448.475C45.459 447.156 44.6797 446.441 42.8926 446.072L41.9961 445.891C41 445.686 40.5898 445.357 40.5898 444.807V444.801C40.5898 444.168 41.1699 443.77 42.043 443.764C42.9336 443.764 43.5195 444.186 43.6191 444.789L43.6309 444.859H45.2949L45.2891 444.783C45.1777 443.371 44.0176 442.328 42.043 442.328C40.168 442.328 38.8203 443.365 38.8203 444.936V444.941C38.8203 446.225 39.5762 447.045 41.334 447.402L42.2246 447.584C43.2734 447.801 43.6895 448.111 43.6895 448.668V448.674C43.6895 449.324 43.0391 449.775 42.0957 449.775C41.1055 449.775 40.4199 449.348 40.3555 448.715L40.3496 448.656H38.6445L38.6504 448.75C38.75 450.25 40.0273 451.217 42.0488 451.217ZM47.0848 451H48.8543V447.672H52.2937V446.271H48.8543V444.004H52.6219V442.545H47.0848V451ZM57.2504 451H59.0199V448.334H60.7367C62.518 448.334 63.7074 447.186 63.7074 445.445V445.434C63.7074 443.693 62.518 442.545 60.7367 442.545H57.2504V451ZM60.3031 443.945C61.3168 443.945 61.9145 444.479 61.9145 445.439V445.451C61.9145 446.412 61.3168 446.951 60.3031 446.951H59.0199V443.945H60.3031ZM65.1164 451H66.8273V447.391C66.8273 446.477 67.4426 445.92 68.4152 445.92C68.6789 445.92 68.9426 445.961 69.2004 446.02V444.525C69.0305 444.479 68.7902 444.443 68.5617 444.443C67.7238 444.443 67.1379 444.854 66.9328 445.551H66.8273V444.549H65.1164V451ZM73.0059 451.135C74.9922 451.135 76.1875 449.881 76.1875 447.777V447.766C76.1875 445.68 74.9746 444.408 73.0059 444.408C71.0371 444.408 69.8242 445.686 69.8242 447.766V447.777C69.8242 449.875 71.0195 451.135 73.0059 451.135ZM73.0059 449.793C72.0918 449.793 71.5762 449.049 71.5762 447.777V447.766C71.5762 446.506 72.0977 445.75 73.0059 445.75C73.9082 445.75 74.4355 446.506 74.4355 447.766V447.777C74.4355 449.049 73.9141 449.793 73.0059 449.793ZM82.7965 451H84.566V444.004H87.1031V442.545H80.2594V444.004H82.7965V451ZM90.1703 451.135C92.057 451.135 92.8891 450.045 93.0883 449.236L93.1 449.178H91.5062L91.4887 449.213C91.3715 449.459 90.9555 449.857 90.2055 449.857C89.2973 449.857 88.7289 449.242 88.7113 448.182H93.1527V447.648C93.1527 445.697 91.9809 444.408 90.1 444.408C88.2191 444.408 87.018 445.727 87.018 447.777V447.783C87.018 449.852 88.2074 451.135 90.1703 451.135ZM90.1293 445.691C90.8734 445.691 91.4066 446.172 91.5121 447.109H88.7289C88.8344 446.195 89.3852 445.691 90.1293 445.691ZM93.7648 451H95.5695L96.7707 448.867H96.8762L98.0832 451H99.9758L97.9309 447.736L99.9641 444.549H98.1008L96.9582 446.688H96.8527L95.7102 444.549H93.7473L95.7863 447.807L93.7648 451ZM103.834 451.023C104.162 451.023 104.479 450.988 104.689 450.947V449.676C104.525 449.693 104.408 449.705 104.186 449.705C103.605 449.705 103.359 449.447 103.359 448.867V445.838H104.689V444.549H103.359V443.008H101.631V444.549H100.635V445.838H101.631V449.26C101.631 450.514 102.264 451.023 103.834 451.023ZM38.8555 467H44.9551V465.576H41.2285V465.441L42.793 463.982C44.334 462.559 44.832 461.762 44.832 460.801V460.783C44.832 459.324 43.6133 458.328 41.873 458.328C40.0215 458.328 38.7559 459.441 38.7559 461.064L38.7617 461.088H40.3965V461.059C40.3965 460.256 40.9648 459.705 41.791 459.705C42.5996 459.705 43.0918 460.209 43.0918 460.93V460.947C43.0918 461.539 42.7695 461.967 41.5801 463.121L38.8555 465.811V467ZM49.7801 467.217C51.8719 467.217 53.1375 465.506 53.1375 462.775V462.764C53.1375 460.027 51.8719 458.328 49.7801 458.328C47.6941 458.328 46.4227 460.027 46.4227 462.764V462.775C46.4227 465.506 47.6941 467.217 49.7801 467.217ZM49.7801 465.816C48.784 465.816 48.2156 464.686 48.2156 462.775V462.764C48.2156 460.848 48.784 459.729 49.7801 459.729C50.782 459.729 51.3504 460.848 51.3504 462.764V462.775C51.3504 464.686 50.782 465.816 49.7801 465.816ZM54.693 469.139H56.4039V465.969H56.5094C56.8375 466.672 57.5582 467.1 58.443 467.1C60.0777 467.1 61.0621 465.852 61.0621 463.777V463.766C61.0621 461.709 60.0543 460.443 58.443 460.443C57.5289 460.443 56.8434 460.854 56.5094 461.545H56.4039V460.549H54.693V469.139ZM57.857 465.682C56.9605 465.682 56.3863 464.961 56.3863 463.777V463.766C56.3863 462.582 56.9547 461.861 57.857 461.861C58.7652 461.861 59.3219 462.582 59.3219 463.766V463.777C59.3219 464.961 58.7594 465.682 57.857 465.682ZM65.0902 467.023C65.4184 467.023 65.7348 466.988 65.9457 466.947V465.676C65.7816 465.693 65.6645 465.705 65.4418 465.705C64.8617 465.705 64.6156 465.447 64.6156 464.867V461.838H65.9457V460.549H64.6156V459.008H62.8871V460.549H61.891V461.838H62.8871V465.26C62.8871 466.514 63.5199 467.023 65.0902 467.023ZM42.0488 483.217C44.1582 483.217 45.459 482.156 45.459 480.48V480.475C45.459 479.156 44.6797 478.441 42.8926 478.072L41.9961 477.891C41 477.686 40.5898 477.357 40.5898 476.807V476.801C40.5898 476.168 41.1699 475.77 42.043 475.764C42.9336 475.764 43.5195 476.186 43.6191 476.789L43.6309 476.859H45.2949L45.2891 476.783C45.1777 475.371 44.0176 474.328 42.043 474.328C40.168 474.328 38.8203 475.365 38.8203 476.936V476.941C38.8203 478.225 39.5762 479.045 41.334 479.402L42.2246 479.584C43.2734 479.801 43.6895 480.111 43.6895 480.668V480.674C43.6895 481.324 43.0391 481.775 42.0957 481.775C41.1055 481.775 40.4199 481.348 40.3555 480.715L40.3496 480.656H38.6445L38.6504 480.75C38.75 482.25 40.0273 483.217 42.0488 483.217ZM49.7508 483.135C51.6375 483.135 52.4695 482.045 52.6687 481.236L52.6805 481.178H51.0867L51.0691 481.213C50.952 481.459 50.5359 481.857 49.7859 481.857C48.8777 481.857 48.3094 481.242 48.2918 480.182H52.7332V479.648C52.7332 477.697 51.5613 476.408 49.6805 476.408C47.7996 476.408 46.5984 477.727 46.5984 479.777V479.783C46.5984 481.852 47.7879 483.135 49.7508 483.135ZM49.7098 477.691C50.4539 477.691 50.9871 478.172 51.0926 479.109H48.3094C48.4148 478.195 48.9656 477.691 49.7098 477.691ZM54.0836 483H55.7945V479.109C55.7945 478.371 56.2633 477.826 56.9312 477.826C57.5992 477.826 57.9918 478.23 57.9918 478.922V483H59.7027V479.033C59.7027 478.336 60.148 477.826 60.8395 477.826C61.5543 477.826 61.9059 478.219 61.9059 478.998V483H63.6168V478.57C63.6168 477.24 62.8141 476.408 61.5309 476.408C60.6285 476.408 59.8785 476.883 59.5855 477.598H59.4801C59.2164 476.854 58.566 476.408 57.6871 476.408C56.8434 476.408 56.1754 476.83 55.9 477.557H55.7945V476.549H54.0836V483ZM66.098 475.559C66.6254 475.559 67.059 475.137 67.059 474.609C67.059 474.076 66.6254 473.654 66.098 473.654C65.5707 473.654 65.1313 474.076 65.1313 474.609C65.1313 475.137 65.5707 475.559 66.098 475.559ZM65.2367 483H66.9477V476.549H65.2367V483ZM72.4289 483.1C74.0402 483.1 75.048 481.84 75.048 479.777V479.766C75.048 477.691 74.0637 476.443 72.4289 476.443C71.5441 476.443 70.8234 476.877 70.4953 477.58H70.3898V474.082H68.6789V483H70.3898V481.998H70.4953C70.8293 482.695 71.5148 483.1 72.4289 483.1ZM71.843 481.682C70.9406 481.682 70.3723 480.967 70.3723 479.783V479.771C70.3723 478.588 70.9465 477.861 71.843 477.861C72.7453 477.861 73.3078 478.588 73.3078 479.766V479.777C73.3078 480.967 72.7512 481.682 71.843 481.682ZM79.252 483.135C81.2383 483.135 82.4336 481.881 82.4336 479.777V479.766C82.4336 477.68 81.2207 476.408 79.252 476.408C77.2832 476.408 76.0703 477.686 76.0703 479.766V479.777C76.0703 481.875 77.2656 483.135 79.252 483.135ZM79.252 481.793C78.3379 481.793 77.8223 481.049 77.8223 479.777V479.766C77.8223 478.506 78.3438 477.75 79.252 477.75C80.1543 477.75 80.6816 478.506 80.6816 479.766V479.777C80.6816 481.049 80.1602 481.793 79.252 481.793ZM83.8367 483H85.5477V474.082H83.8367V483ZM89.5699 483.1C90.4781 483.1 91.1637 482.695 91.4977 481.998H91.6031V483H93.3141V474.082H91.6031V477.58H91.4977C91.1754 476.877 90.4547 476.443 89.5699 476.443C87.9352 476.443 86.9508 477.691 86.9508 479.766V479.777C86.9508 481.84 87.9586 483.1 89.5699 483.1ZM90.15 481.682C89.2477 481.682 88.691 480.967 88.691 479.777V479.766C88.691 478.588 89.2477 477.861 90.15 477.861C91.0523 477.861 91.6207 478.588 91.6207 479.771V479.783C91.6207 480.967 91.0582 481.682 90.15 481.682ZM39.0254 499H44.5566V497.541H40.7949V490.545H39.0254V499ZM46.8152 491.559C47.3426 491.559 47.7762 491.137 47.7762 490.609C47.7762 490.076 47.3426 489.654 46.8152 489.654C46.2879 489.654 45.8484 490.076 45.8484 490.609C45.8484 491.137 46.2879 491.559 46.8152 491.559ZM45.9539 499H47.6648V492.549H45.9539V499ZM52.0152 499.023C52.3434 499.023 52.6598 498.988 52.8707 498.947V497.676C52.7066 497.693 52.5895 497.705 52.3668 497.705C51.7867 497.705 51.5406 497.447 51.5406 496.867V493.838H52.8707V492.549H51.5406V491.008H49.8121V492.549H48.816V493.838H49.8121V497.26C49.8121 498.514 50.4449 499.023 52.0152 499.023ZM56.9809 499.023C57.309 499.023 57.6254 498.988 57.8363 498.947V497.676C57.6723 497.693 57.5551 497.705 57.3324 497.705C56.7523 497.705 56.5063 497.447 56.5063 496.867V493.838H57.8363V492.549H56.5063V491.008H54.7777V492.549H53.7816V493.838H54.7777V497.26C54.7777 498.514 55.4105 499.023 56.9809 499.023ZM59.2687 499H60.9797V490.082H59.2687V499ZM65.5352 499.135C67.4219 499.135 68.2539 498.045 68.4531 497.236L68.4648 497.178H66.8711L66.8535 497.213C66.7363 497.459 66.3203 497.857 65.5703 497.857C64.6621 497.857 64.0938 497.242 64.0762 496.182H68.5176V495.648C68.5176 493.697 67.3457 492.408 65.4648 492.408C63.584 492.408 62.3828 493.727 62.3828 495.777V495.783C62.3828 497.852 63.5723 499.135 65.5352 499.135ZM65.4941 493.691C66.2383 493.691 66.7715 494.172 66.877 495.109H64.0938C64.1992 494.195 64.75 493.691 65.4941 493.691ZM73.0816 499H76.8785C78.6832 499 79.8023 498.068 79.8023 496.586V496.574C79.8023 495.49 78.9879 494.652 77.8688 494.564V494.459C78.7359 494.33 79.398 493.551 79.398 492.66V492.648C79.398 491.348 78.4195 490.545 76.7789 490.545H73.0816V499ZM76.3277 491.857C77.1715 491.857 77.6578 492.268 77.6578 492.953V492.965C77.6578 493.662 77.1363 494.061 76.1813 494.061H74.8512V491.857H76.3277ZM76.3863 495.227C77.4293 495.227 77.9977 495.648 77.9977 496.434V496.445C77.9977 497.248 77.4469 497.682 76.4273 497.682H74.8512V495.227H76.3863ZM84.0473 499.135C86.0336 499.135 87.2289 497.881 87.2289 495.777V495.766C87.2289 493.68 86.016 492.408 84.0473 492.408C82.0785 492.408 80.8656 493.686 80.8656 495.766V495.777C80.8656 497.875 82.0609 499.135 84.0473 499.135ZM84.0473 497.793C83.1332 497.793 82.6176 497.049 82.6176 495.777V495.766C82.6176 494.506 83.1391 493.75 84.0473 493.75C84.9496 493.75 85.477 494.506 85.477 495.766V495.777C85.477 497.049 84.9555 497.793 84.0473 497.793ZM89.0715 501.273C90.6652 501.273 91.5148 500.699 92.0891 498.994L94.2863 492.549H92.4816L91.1281 497.436H91.0109L89.6574 492.549H87.7766L90.0441 499L89.9855 499.246C89.8625 499.75 89.5109 499.984 88.9016 499.984C88.7434 499.984 88.5734 499.979 88.4562 499.967V501.256C88.6555 501.268 88.8723 501.273 89.0715 501.273ZM98.6395 499H102.436C104.241 499 105.36 498.068 105.36 496.586V496.574C105.36 495.49 104.546 494.652 103.427 494.564V494.459C104.294 494.33 104.956 493.551 104.956 492.66V492.648C104.956 491.348 103.977 490.545 102.337 490.545H98.6395V499ZM101.886 491.857C102.729 491.857 103.216 492.268 103.216 492.953V492.965C103.216 493.662 102.694 494.061 101.739 494.061H100.409V491.857H101.886ZM101.944 495.227C102.987 495.227 103.555 495.648 103.555 496.434V496.445C103.555 497.248 103.005 497.682 101.985 497.682H100.409V495.227H101.944ZM106.798 499H108.509V490.082H106.798V499ZM112.362 499.135C113.282 499.135 113.938 498.707 114.231 498.004H114.336V499H116.047V492.549H114.336V496.275C114.336 497.148 113.879 497.717 113.036 497.717C112.227 497.717 111.881 497.242 111.881 496.328V492.549H110.17V496.721C110.17 498.256 110.914 499.135 112.362 499.135ZM120.55 499.135C122.437 499.135 123.269 498.045 123.468 497.236L123.48 497.178H121.886L121.868 497.213C121.751 497.459 121.335 497.857 120.585 497.857C119.677 497.857 119.109 497.242 119.091 496.182H123.532V495.648C123.532 493.697 122.361 492.408 120.48 492.408C118.599 492.408 117.398 493.727 117.398 495.777V495.783C117.398 497.852 118.587 499.135 120.55 499.135ZM120.509 493.691C121.253 493.691 121.786 494.172 121.892 495.109H119.109C119.214 494.195 119.765 493.691 120.509 493.691Z" fill="#FFA800"/>
</g>
<defs>
<filter id="filter0_d" x="0" y="0" width="426" height="717" filterUnits="userSpaceOnUse" color-interpolation-filters="sRGB">
<feFlood flood-opacity="0" result="BackgroundImageFix"/>
<feColorMatrix in="SourceAlpha" type="matrix" values="0 0 0 0 0 0 0 0 0 0 0 0 0 0 0 0 0 0 127 0"/>
<feMorphology radius="5" operator="dilate" in="SourceAlpha" result="effect1_dropShadow"/>
<feOffset/>
<feGaussianBlur stdDeviation="10"/>
<feColorMatrix type="matrix" values="0 0 0 0 0 0 0 0 0 0 0 0 0 0 0 0 0 0 0.15 0"/>
<feBlend mode="normal" in2="BackgroundImageFix" result="effect1_dropShadow"/>
<feBlend mode="normal" in="SourceGraphic" in2="effect1_dropShadow" result="shape"/>
</filter>
</defs>
</svg>
