<svg width="426" height="717" viewBox="0 0 426 717" fill="none" xmlns="http://www.w3.org/2000/svg">
<g filter="url(#filter0_d)">
<rect width="375" height="667" transform="translate(26 25)" fill="white"/>
<path d="M192.279 30.334C190.445 30.334 189.139 31.5879 189.139 33.3047V33.3164C189.139 34.9219 190.275 36.1055 191.898 36.1055C193.059 36.1055 193.797 35.5137 194.107 34.8457H194.225C194.225 34.9102 194.219 34.9746 194.219 35.0391C194.154 36.6562 193.586 37.9688 192.244 37.9688C191.5 37.9688 190.979 37.582 190.756 36.9902L190.738 36.9316H189.25L189.262 36.9961C189.531 38.291 190.691 39.2109 192.244 39.2109C194.371 39.2109 195.654 37.5234 195.654 34.6758V34.6641C195.654 31.6172 194.084 30.334 192.279 30.334ZM192.273 34.9453C191.312 34.9453 190.615 34.2422 190.615 33.2637V33.252C190.615 32.3086 191.359 31.5645 192.291 31.5645C193.229 31.5645 193.961 32.3203 193.961 33.2871V33.2988C193.961 34.2539 193.229 34.9453 192.273 34.9453ZM198.314 33.5215C198.854 33.5215 199.246 33.1113 199.246 32.5957C199.246 32.0742 198.854 31.6699 198.314 31.6699C197.781 31.6699 197.383 32.0742 197.383 32.5957C197.383 33.1113 197.781 33.5215 198.314 33.5215ZM198.314 37.8691C198.854 37.8691 199.246 37.4648 199.246 36.9434C199.246 36.4219 198.854 36.0176 198.314 36.0176C197.781 36.0176 197.383 36.4219 197.383 36.9434C197.383 37.4648 197.781 37.8691 198.314 37.8691ZM205.076 39H206.523V37.377H207.66V36.1289H206.523V30.5449H204.385C203.236 32.291 202.035 34.2363 200.939 36.1406V37.377H205.076V39ZM202.346 36.1641V36.0762C203.166 34.6406 204.145 33.0762 205.012 31.752H205.1V36.1641H202.346ZM211.164 39H212.676V30.5449H211.17L208.961 32.0977V33.5215L211.064 32.0332H211.164V39ZM217.756 39H219.338L220.041 36.8145H223.17L223.879 39H225.461L222.461 30.5449H220.756L217.756 39ZM221.559 32.1152H221.658L222.795 35.6484H220.422L221.559 32.1152ZM226.914 39H228.279V32.9883H228.379L230.723 39H231.754L234.098 32.9883H234.203V39H235.562V30.5449H233.828L231.291 37.0488H231.191L228.648 30.5449H226.914V39Z" fill="black"/>
<path opacity="0.35" fill-rule="evenodd" clip-rule="evenodd" d="M370.5 29.5H389.5C390.881 29.5 392 30.6193 392 32V38.5C392 39.8807 390.881 41 389.5 41H370.5C369.119 41 368 39.8807 368 38.5V32C368 30.6193 369.119 29.5 370.5 29.5ZM370.5 30.5C369.672 30.5 369 31.1716 369 32V38.5C369 39.3284 369.672 40 370.5 40H389.5C390.328 40 391 39.3284 391 38.5V32C391 31.1716 390.328 30.5 389.5 30.5H370.5Z" fill="black"/>
<path opacity="0.4" fill-rule="evenodd" clip-rule="evenodd" d="M393 32.7998C393.89 33.255 394.5 34.1813 394.5 35.2499C394.5 36.3186 393.89 37.2449 393 37.7001V32.7998Z" fill="black"/>
<path fill-rule="evenodd" clip-rule="evenodd" d="M371 31.5H389C389.552 31.5 390 31.9477 390 32.5V38C390 38.5523 389.552 39 389 39H371C370.448 39 370 38.5523 370 38V32.5C370 31.9477 370.448 31.5 371 31.5Z" fill="black"/>
<path d="M336.219 39.3H337.273V30.845H336.225L333.975 32.4622V33.5754L336.125 32.0168H336.219V39.3ZM342.547 39.4993C344.416 39.4993 345.541 37.7942 345.541 35.0754V35.0637C345.541 32.345 344.416 30.6458 342.547 30.6458C340.678 30.6458 339.564 32.345 339.564 35.0637V35.0754C339.564 37.7942 340.678 39.4993 342.547 39.4993ZM342.547 38.5793C341.334 38.5793 340.625 37.2317 340.625 35.0754V35.0637C340.625 32.9075 341.334 31.5715 342.547 31.5715C343.76 31.5715 344.48 32.9075 344.48 35.0637V35.0754C344.48 37.2317 343.76 38.5793 342.547 38.5793ZM350.105 39.4993C351.975 39.4993 353.1 37.7942 353.1 35.0754V35.0637C353.1 32.345 351.975 30.6458 350.105 30.6458C348.236 30.6458 347.123 32.345 347.123 35.0637V35.0754C347.123 37.7942 348.236 39.4993 350.105 39.4993ZM350.105 38.5793C348.893 38.5793 348.184 37.2317 348.184 35.0754V35.0637C348.184 32.9075 348.893 31.5715 350.105 31.5715C351.318 31.5715 352.039 32.9075 352.039 35.0637V35.0754C352.039 37.2317 351.318 38.5793 350.105 38.5793ZM356.41 35.2922C357.488 35.2922 358.145 34.4133 358.145 33.0129V33.0071C358.145 31.6067 357.488 30.7336 356.41 30.7336C355.332 30.7336 354.682 31.6067 354.682 33.0071V33.0129C354.682 34.4133 355.332 35.2922 356.41 35.2922ZM357.043 39.3L362.797 30.845H361.848L356.094 39.3H357.043ZM356.41 34.595C355.83 34.595 355.496 34.0032 355.496 33.0129V33.0071C355.496 32.0168 355.83 31.4309 356.41 31.4309C356.99 31.4309 357.33 32.0168 357.33 33.0071V33.0129C357.33 34.0032 356.99 34.595 356.41 34.595ZM362.469 39.4114C363.547 39.4114 364.203 38.5325 364.203 37.1321V37.1262C364.203 35.7258 363.547 34.8528 362.469 34.8528C361.391 34.8528 360.74 35.7258 360.74 37.1262V37.1321C360.74 38.5325 361.391 39.4114 362.469 39.4114ZM362.469 38.7141C361.889 38.7141 361.555 38.1223 361.555 37.1321V37.1262C361.555 36.136 361.889 35.55 362.469 35.55C363.049 35.55 363.389 36.136 363.389 37.1262V37.1321C363.389 38.1223 363.049 38.7141 362.469 38.7141Z" fill="black"/>
<path fill-rule="evenodd" clip-rule="evenodd" d="M45.5 30H46.5C47.0523 30 47.5 30.4477 47.5 31V39C47.5 39.5523 47.0523 40 46.5 40H45.5C44.9477 40 44.5 39.5523 44.5 39V31C44.5 30.4477 44.9477 30 45.5 30Z" fill="black"/>
<path d="M42 32H41C40.4477 32 40 32.4477 40 33V39C40 39.5523 40.4477 40 41 40H42C42.5523 40 43 39.5523 43 39V33C43 32.4477 42.5523 32 42 32Z" fill="black"/>
<path d="M36.5 34H37.5C38.0523 34 38.5 34.4477 38.5 35V39C38.5 39.5523 38.0523 40 37.5 40H36.5C35.9477 40 35.5 39.5523 35.5 39V35C35.5 34.4477 35.9477 34 36.5 34Z" fill="black"/>
<path d="M32 35.5H33C33.5523 35.5 34 35.9477 34 36.5V39C34 39.5523 33.5523 40 33 40H32C31.4477 40 31 39.5523 31 39V36.5C31 35.9477 31.4477 35.5 32 35.5Z" fill="black"/>
<path d="M55.0781 39H56.1328V35.6543H58.2129L60.0234 39H61.2598L59.3027 35.4902C60.3633 35.1562 61.002 34.2422 61.002 33.0703V33.0586C61.002 31.541 59.9355 30.5449 58.3066 30.5449H55.0781V39ZM56.1328 34.7168V31.4824H58.166C59.2559 31.4824 59.9121 32.0859 59.9121 33.0938V33.1055C59.9121 34.1367 59.2969 34.7168 58.2129 34.7168H56.1328ZM65.6395 39.1992C67.5262 39.1992 68.7625 38.2148 68.7625 36.6328V36.627C68.7625 35.4082 68.0652 34.6992 66.3016 34.3066L65.3641 34.0957C64.2156 33.8438 63.7527 33.3867 63.7527 32.7129V32.707C63.7527 31.8223 64.5672 31.3242 65.6219 31.3184C66.7234 31.3125 67.4266 31.8633 67.5437 32.6074L67.5555 32.6836H68.6102L68.6043 32.6016C68.5164 31.3418 67.3387 30.3457 65.6512 30.3457C63.9051 30.3457 62.6805 31.3359 62.6746 32.7363V32.7422C62.6746 33.9668 63.407 34.7461 65.1004 35.1211L66.0379 35.3262C67.198 35.584 67.6844 36.0645 67.6844 36.7676V36.7734C67.6844 37.6348 66.8465 38.2266 65.698 38.2266C64.4793 38.2266 63.6004 37.6934 63.5242 36.8496L63.5184 36.7852H62.4637L62.4695 36.8496C62.5926 38.2266 63.7879 39.1992 65.6395 39.1992ZM73.2418 39.1992C75.1285 39.1992 76.3648 38.2148 76.3648 36.6328V36.627C76.3648 35.4082 75.6676 34.6992 73.9039 34.3066L72.9664 34.0957C71.818 33.8438 71.3551 33.3867 71.3551 32.7129V32.707C71.3551 31.8223 72.1695 31.3242 73.2242 31.3184C74.3258 31.3125 75.0289 31.8633 75.1461 32.6074L75.1578 32.6836H76.2125L76.2066 32.6016C76.1187 31.3418 74.941 30.3457 73.2535 30.3457C71.5074 30.3457 70.2828 31.3359 70.277 32.7363V32.7422C70.277 33.9668 71.0094 34.7461 72.7027 35.1211L73.6402 35.3262C74.8004 35.584 75.2867 36.0645 75.2867 36.7676V36.7734C75.2867 37.6348 74.4488 38.2266 73.3004 38.2266C72.0816 38.2266 71.2027 37.6934 71.1266 36.8496L71.1207 36.7852H70.066L70.0719 36.8496C70.1949 38.2266 71.3902 39.1992 73.2418 39.1992ZM80.5277 39.1113C82.0453 39.1113 82.8949 38.2969 83.1527 37.1543L83.1645 37.0898L82.1566 37.0957L82.1449 37.1309C81.9105 37.834 81.3715 38.209 80.5219 38.209C79.3969 38.209 78.6703 37.2773 78.6703 35.8242V35.8125C78.6703 34.3887 79.3852 33.4746 80.5219 33.4746C81.4301 33.4746 81.9926 33.9785 82.1508 34.5996L82.1566 34.6172H83.1703L83.1645 34.582C82.977 33.457 82.057 32.5723 80.5219 32.5723C78.7523 32.5723 77.6273 33.8496 77.6273 35.8125V35.8242C77.6273 37.8281 78.7582 39.1113 80.5277 39.1113ZM84.6672 39H85.6867V35.2617C85.6867 34.1543 86.3254 33.4746 87.3332 33.4746C88.341 33.4746 88.8098 34.0195 88.8098 35.1562V39H89.8293V34.9102C89.8293 33.4102 89.0383 32.5723 87.6203 32.5723C86.6887 32.5723 86.0969 32.9648 85.7805 33.6328H85.6867V30.1758H84.6672V39ZM94.2207 39.1113C96.0195 39.1113 97.1328 37.8691 97.1328 35.8477V35.8359C97.1328 33.8086 96.0195 32.5723 94.2207 32.5723C92.4219 32.5723 91.3086 33.8086 91.3086 35.8359V35.8477C91.3086 37.8691 92.4219 39.1113 94.2207 39.1113ZM94.2207 38.209C93.0254 38.209 92.3516 37.3359 92.3516 35.8477V35.8359C92.3516 34.3418 93.0254 33.4746 94.2207 33.4746C95.416 33.4746 96.0898 34.3418 96.0898 35.8359V35.8477C96.0898 37.3359 95.416 38.209 94.2207 38.209ZM101.261 39.1113C103.059 39.1113 104.173 37.8691 104.173 35.8477V35.8359C104.173 33.8086 103.059 32.5723 101.261 32.5723C99.4617 32.5723 98.3484 33.8086 98.3484 35.8359V35.8477C98.3484 37.8691 99.4617 39.1113 101.261 39.1113ZM101.261 38.209C100.065 38.209 99.3914 37.3359 99.3914 35.8477V35.8359C99.3914 34.3418 100.065 33.4746 101.261 33.4746C102.456 33.4746 103.13 34.3418 103.13 35.8359V35.8477C103.13 37.3359 102.456 38.209 101.261 38.209ZM105.763 39H106.783V30.1758H105.763V39Z" fill="black"/>
<path fill-rule="evenodd" clip-rule="evenodd" d="M125.983 32.5229C124.072 30.8906 121.657 30 119.133 30C116.601 30 114.18 30.8959 112.266 32.5371L112.104 32.6765C111.972 32.7892 111.965 32.9895 112.087 33.1118L113.214 34.2356C113.324 34.3447 113.498 34.3521 113.617 34.2527L113.756 34.1354C115.263 32.8694 117.155 32.1804 119.133 32.1804C121.104 32.1804 122.989 32.8647 124.494 34.1228L124.634 34.2395C124.752 34.3385 124.926 34.3308 125.036 34.2219L126.163 33.098C126.285 32.9756 126.278 32.7749 126.146 32.6623L125.983 32.5229ZM119.133 33.4698C120.724 33.4698 122.251 33.9975 123.495 34.9749L123.671 35.113C123.811 35.2231 123.824 35.4306 123.697 35.5564L122.567 36.6841C122.462 36.7884 122.297 36.8003 122.178 36.7122L122.04 36.6098C121.2 35.9852 120.186 35.6501 119.133 35.6501C118.073 35.6501 117.053 35.9893 116.21 36.6211L116.072 36.7245C115.954 36.8133 115.787 36.8016 115.683 36.697L114.552 35.5698C114.426 35.4442 114.438 35.2373 114.578 35.1269L114.753 34.9887C116 34.0027 117.534 33.4698 119.133 33.4698ZM119.133 36.9396C119.772 36.9396 120.394 37.1076 120.941 37.4281L121.163 37.5579C121.331 37.6563 121.361 37.8867 121.223 38.0242L119.329 39.913C119.212 40.029 119.024 40.029 118.907 39.913L117.026 38.0363C116.888 37.8994 116.917 37.6702 117.084 37.5711L117.303 37.4406C117.856 37.1121 118.485 36.9396 119.133 36.9396Z" fill="black"/>
<rect x="127" y="132" width="173" height="41" rx="5" fill="#C4C4C4"/>
<path d="M62 335C62 332.2 62 330.8 62.545 329.73C63.0243 328.789 63.7892 328.024 64.73 327.545C65.7996 327 67.1997 327 70 327H357C359.8 327 361.2 327 362.27 327.545C363.211 328.024 363.976 328.789 364.455 329.73C365 330.8 365 332.2 365 335V355C365 357.8 365 359.2 364.455 360.27C363.976 361.211 363.211 361.976 362.27 362.455C361.2 363 359.8 363 357 363H70C67.1997 363 65.7996 363 64.73 362.455C63.7892 361.976 63.0243 361.211 62.545 360.27C62 359.2 62 357.8 62 355V335Z" fill="#C4C4C4"/>
<path d="M62 269C62 266.2 62 264.8 62.545 263.73C63.0243 262.789 63.7892 262.024 64.73 261.545C65.7996 261 67.1997 261 70 261H357C359.8 261 361.2 261 362.27 261.545C363.211 262.024 363.976 262.789 364.455 263.73C365 264.8 365 266.2 365 269V289C365 291.8 365 293.2 364.455 294.27C363.976 295.211 363.211 295.976 362.27 296.455C361.2 297 359.8 297 357 297H70C67.1997 297 65.7996 297 64.73 296.455C63.7892 295.976 63.0243 295.211 62.545 294.27C62 293.2 62 291.8 62 289V269Z" fill="#C4C4C4"/>
<rect x="135" y="423" width="156" height="42" rx="5" fill="#C4C4C4"/>
<rect x="97" y="533" width="234" height="108" rx="9" stroke="#91C7B1" stroke-width="2"/>
<rect x="119.75" y="577.75" width="48.5" height="48.5" rx="24.25" stroke="#80A4ED" stroke-width="1.5"/>
<path d="M143.906 610H146.93V593.09H143.918L139.5 596.195V599.043L143.707 596.066H143.906V610Z" fill="#80A4ED"/>
<rect x="189.75" y="577.75" width="48.5" height="48.5" rx="24.25" stroke="#80A4ED" stroke-width="1.5"/>
<rect x="259.75" y="577.75" width="48.5" height="48.5" rx="24.25" stroke="#80A4ED" stroke-width="1.5"/>
<path d="M197.43 560H199.697V547.317H197.438L194.125 549.646V551.782L197.28 549.55H197.43V560ZM212.728 560.255C215.541 560.255 217.466 558.699 217.466 556.467V556.449C217.466 554.691 216.226 553.584 214.363 553.408V553.364C215.884 553.048 217.017 552.002 217.017 550.429V550.411C217.017 548.425 215.321 547.062 212.711 547.062C210.153 547.062 208.422 548.504 208.228 550.701L208.22 550.798H210.329L210.338 550.71C210.452 549.576 211.375 548.864 212.711 548.864C214.064 548.864 214.847 549.55 214.847 550.71V550.728C214.847 551.835 213.915 552.626 212.517 552.626H211.067V554.313H212.561C214.187 554.313 215.172 555.052 215.172 556.388V556.405C215.172 557.583 214.196 558.4 212.728 558.4C211.243 558.4 210.25 557.636 210.127 556.563L210.118 556.467H207.956L207.965 556.572C208.132 558.743 209.951 560.255 212.728 560.255ZM224.837 560H233.643V558.119H227.904V557.935L230.444 555.474C232.756 553.25 233.45 552.107 233.45 550.666V550.64C233.45 548.504 231.675 547.001 229.205 547.001C226.559 547.001 224.714 548.653 224.714 551.018L224.722 551.044L226.832 551.053L226.841 551.018C226.841 549.708 227.746 548.82 229.091 548.82C230.409 548.82 231.209 549.664 231.209 550.833V550.859C231.209 551.835 230.725 552.477 229.003 554.217L224.837 558.471V560Z" fill="black"/>
<path d="M207.77 610H219.512V607.492H211.859V607.246L215.246 603.965C218.328 601 219.254 599.477 219.254 597.555V597.52C219.254 594.672 216.887 592.668 213.594 592.668C210.066 592.668 207.605 594.871 207.605 598.023L207.617 598.059L210.43 598.07L210.441 598.023C210.441 596.277 211.648 595.094 213.441 595.094C215.199 595.094 216.266 596.219 216.266 597.777V597.812C216.266 599.113 215.621 599.969 213.324 602.289L207.77 607.961V610Z" fill="#80A4ED"/>
<path d="M283.887 610.34C287.637 610.34 290.203 608.266 290.203 605.289V605.266C290.203 602.922 288.551 601.445 286.066 601.211V601.152C288.094 600.73 289.605 599.336 289.605 597.238V597.215C289.605 594.566 287.344 592.75 283.863 592.75C280.453 592.75 278.145 594.672 277.887 597.602L277.875 597.73H280.688L280.699 597.613C280.852 596.102 282.082 595.152 283.863 595.152C285.668 595.152 286.711 596.066 286.711 597.613V597.637C286.711 599.113 285.469 600.168 283.605 600.168H281.672V602.418H283.664C285.832 602.418 287.145 603.402 287.145 605.184V605.207C287.145 606.777 285.844 607.867 283.887 607.867C281.906 607.867 280.582 606.848 280.418 605.418L280.406 605.289H277.523L277.535 605.43C277.758 608.324 280.184 610.34 283.887 610.34Z" fill="#80A4ED"/>
<line x1="103.5" y1="601.5" x2="113.5" y2="601.5" stroke="#FFA800" stroke-linecap="round"/>
<line x1="314.5" y1="601.5" x2="324.5" y2="601.5" stroke="#FFA800" stroke-linecap="round"/>
<line x1="284.5" y1="631.5" x2="284.5" y2="637.5" stroke="#FFA800" stroke-linecap="round"/>
<line x1="98.5" y1="648.5" x2="118.5" y2="648.5" stroke="#FFA800" stroke-linecap="round"/>
<line x1="108.5" y1="601.5" x2="108.5" y2="648.5" stroke="#FFA800" stroke-linecap="round"/>
<line x1="353.5" y1="644.5" x2="353.5" y2="624.5" stroke="#FFA800" stroke-linecap="round"/>
<line x1="284.5" y1="634.5" x2="353.5" y2="634.5" stroke="#FFA800" stroke-linecap="round"/>
<path d="M91.8555 666H97.9551V664.576H94.2285V664.441L95.793 662.982C97.334 661.559 97.832 660.762 97.832 659.801V659.783C97.832 658.324 96.6133 657.328 94.873 657.328C93.0215 657.328 91.7559 658.441 91.7559 660.064L91.7617 660.088H93.3965V660.059C93.3965 659.256 93.9648 658.705 94.791 658.705C95.5996 658.705 96.0918 659.209 96.0918 659.93V659.947C96.0918 660.539 95.7695 660.967 94.5801 662.121L91.8555 664.811V666ZM102.686 666.188C104.661 666.188 105.979 665.15 105.979 663.615V663.604C105.979 662.455 105.159 661.729 103.899 661.611V661.576C104.889 661.371 105.663 660.686 105.663 659.631V659.619C105.663 658.271 104.491 657.357 102.675 657.357C100.899 657.357 99.7098 658.342 99.5867 659.854L99.5809 659.924H101.21L101.216 659.871C101.286 659.168 101.843 658.717 102.675 658.717C103.507 658.717 103.993 659.15 103.993 659.854V659.865C103.993 660.551 103.419 661.02 102.528 661.02H101.585V662.279H102.552C103.577 662.279 104.18 662.725 104.18 663.533V663.545C104.18 664.26 103.589 664.764 102.686 664.764C101.772 664.764 101.169 664.295 101.093 663.639L101.087 663.574H99.3934L99.3992 663.65C99.5164 665.162 100.776 666.188 102.686 666.188ZM110.549 668.139H112.26V664.969H112.366C112.694 665.672 113.414 666.1 114.299 666.1C115.934 666.1 116.918 664.852 116.918 662.777V662.766C116.918 660.709 115.911 659.443 114.299 659.443C113.385 659.443 112.7 659.854 112.366 660.545H112.26V659.549H110.549V668.139ZM113.713 664.682C112.817 664.682 112.243 663.961 112.243 662.777V662.766C112.243 661.582 112.811 660.861 113.713 660.861C114.621 660.861 115.178 661.582 115.178 662.766V662.777C115.178 663.961 114.616 664.682 113.713 664.682ZM117.448 666H119.253L120.454 663.867H120.56L121.767 666H123.659L121.614 662.736L123.648 659.549H121.784L120.642 661.688H120.536L119.394 659.549H117.431L119.47 662.807L117.448 666Z" fill="#FFA800"/>
<path d="M361.924 639H363.693V630.545H361.93L359.744 632.062V633.656L361.818 632.215H361.924V639ZM369.151 639.217C371.05 639.217 372.362 638.004 372.362 636.223V636.211C372.362 634.6 371.225 633.439 369.649 633.439C368.841 633.439 368.184 633.791 367.845 634.359H367.739L367.95 631.951H371.858V630.545H366.573L366.18 635.549H367.698C367.792 635.367 367.932 635.209 368.091 635.08C368.372 634.84 368.735 634.717 369.163 634.717C370.059 634.717 370.698 635.344 370.698 636.246V636.258C370.698 637.166 370.065 637.805 369.157 637.805C368.36 637.805 367.78 637.307 367.657 636.686L367.645 636.645H366.04L366.046 636.727C366.145 638.139 367.341 639.217 369.151 639.217ZM376.909 641.139H378.62V637.969H378.725C379.053 638.672 379.774 639.1 380.659 639.1C382.293 639.1 383.278 637.852 383.278 635.777V635.766C383.278 633.709 382.27 632.443 380.659 632.443C379.745 632.443 379.059 632.854 378.725 633.545H378.62V632.549H376.909V641.139ZM380.073 637.682C379.176 637.682 378.602 636.961 378.602 635.777V635.766C378.602 634.582 379.17 633.861 380.073 633.861C380.981 633.861 381.538 634.582 381.538 635.766V635.777C381.538 636.961 380.975 637.682 380.073 637.682ZM383.808 639H385.612L386.814 636.867H386.919L388.126 639H390.019L387.974 635.736L390.007 632.549H388.144L387.001 634.688H386.896L385.753 632.549H383.79L385.829 635.807L383.808 639Z" fill="#FFA800"/>
<line x1="213.5" y1="543.5" x2="213.5" y2="537.5" stroke="#FFA800" stroke-linecap="round"/>
<line x1="144.5" y1="537.5" x2="144.5" y2="551.5" stroke="#FFA800" stroke-linecap="round"/>
<line x1="213.5" y1="540.5" x2="144.5" y2="540.5" stroke="#FFA800" stroke-linecap="round"/>
<path d="M109.924 550H111.693V541.545H109.93L107.744 543.062V544.656L109.818 543.215H109.924V550ZM117.151 550.217C119.05 550.217 120.362 549.004 120.362 547.223V547.211C120.362 545.6 119.225 544.439 117.649 544.439C116.841 544.439 116.184 544.791 115.845 545.359H115.739L115.95 542.951H119.858V541.545H114.573L114.18 546.549H115.698C115.792 546.367 115.932 546.209 116.091 546.08C116.372 545.84 116.735 545.717 117.163 545.717C118.059 545.717 118.698 546.344 118.698 547.246V547.258C118.698 548.166 118.065 548.805 117.157 548.805C116.36 548.805 115.78 548.307 115.657 547.686L115.645 547.645H114.04L114.046 547.727C114.145 549.139 115.341 550.217 117.151 550.217ZM124.909 552.139H126.62V548.969H126.725C127.053 549.672 127.774 550.1 128.659 550.1C130.293 550.1 131.278 548.852 131.278 546.777V546.766C131.278 544.709 130.27 543.443 128.659 543.443C127.745 543.443 127.059 543.854 126.725 544.545H126.62V543.549H124.909V552.139ZM128.073 548.682C127.176 548.682 126.602 547.961 126.602 546.777V546.766C126.602 545.582 127.17 544.861 128.073 544.861C128.981 544.861 129.538 545.582 129.538 546.766V546.777C129.538 547.961 128.975 548.682 128.073 548.682ZM131.808 550H133.612L134.814 547.867H134.919L136.126 550H138.019L135.974 546.736L138.007 543.549H136.144L135.001 545.688H134.896L133.753 543.549H131.79L133.829 546.807L131.808 550Z" fill="#FFA800"/>
<line x1="284.5" y1="539.5" x2="284.5" y2="569.5" stroke="#FFA800" stroke-linecap="round"/>
<line x1="353.5" y1="564.5" x2="353.5" y2="544.5" stroke="#FFA800" stroke-linecap="round"/>
<line x1="284.5" y1="554.5" x2="353.5" y2="554.5" stroke="#FFA800" stroke-linecap="round"/>
<path d="M363.775 559H365.463V557.447H366.564V556.029H365.463V550.545H362.979C361.854 552.279 360.705 554.154 359.633 556.059V557.447H363.775V559ZM361.227 556.076V555.982C361.988 554.617 362.896 553.146 363.717 551.887H363.811V556.076H361.227ZM371.261 559.217C373.159 559.217 374.471 558.004 374.471 556.223V556.211C374.471 554.6 373.335 553.439 371.759 553.439C370.95 553.439 370.294 553.791 369.954 554.359H369.848L370.059 551.951H373.968V550.545H368.682L368.29 555.549H369.807C369.901 555.367 370.042 555.209 370.2 555.08C370.481 554.84 370.845 554.717 371.272 554.717C372.169 554.717 372.807 555.344 372.807 556.246V556.258C372.807 557.166 372.175 557.805 371.266 557.805C370.47 557.805 369.889 557.307 369.766 556.686L369.755 556.645H368.149L368.155 556.727C368.255 558.139 369.45 559.217 371.261 559.217ZM379.018 561.139H380.729V557.969H380.834C381.163 558.672 381.883 559.1 382.768 559.1C384.403 559.1 385.387 557.852 385.387 555.777V555.766C385.387 553.709 384.379 552.443 382.768 552.443C381.854 552.443 381.168 552.854 380.834 553.545H380.729V552.549H379.018V561.139ZM382.182 557.682C381.286 557.682 380.711 556.961 380.711 555.777V555.766C380.711 554.582 381.28 553.861 382.182 553.861C383.09 553.861 383.647 554.582 383.647 555.766V555.777C383.647 556.961 383.084 557.682 382.182 557.682ZM385.917 559H387.722L388.923 556.867H389.029L390.236 559H392.128L390.083 555.736L392.116 552.549H390.253L389.111 554.688H389.005L387.862 552.549H385.9L387.939 555.807L385.917 559Z" fill="#FFA800"/>
<path d="M97.4766 488.139H100.723V486.879H99.1172V478.342H100.723V477.082H97.4766V488.139ZM102.12 486H105.917C107.721 486 108.841 485.068 108.841 483.586V483.574C108.841 482.49 108.026 481.652 106.907 481.564V481.459C107.774 481.33 108.436 480.551 108.436 479.66V479.648C108.436 478.348 107.458 477.545 105.817 477.545H102.12V486ZM105.366 478.857C106.21 478.857 106.696 479.268 106.696 479.953V479.965C106.696 480.662 106.175 481.061 105.22 481.061H103.889V478.857H105.366ZM105.425 482.227C106.468 482.227 107.036 482.648 107.036 483.434V483.445C107.036 484.248 106.485 484.682 105.466 484.682H103.889V482.227H105.425ZM113.086 486.135C115.072 486.135 116.267 484.881 116.267 482.777V482.766C116.267 480.68 115.054 479.408 113.086 479.408C111.117 479.408 109.904 480.686 109.904 482.766V482.777C109.904 484.875 111.099 486.135 113.086 486.135ZM113.086 484.793C112.171 484.793 111.656 484.049 111.656 482.777V482.766C111.656 481.506 112.177 480.75 113.086 480.75C113.988 480.75 114.515 481.506 114.515 482.766V482.777C114.515 484.049 113.994 484.793 113.086 484.793ZM117.612 486H119.323V482.391C119.323 481.477 119.938 480.92 120.911 480.92C121.174 480.92 121.438 480.961 121.696 481.02V479.525C121.526 479.479 121.286 479.443 121.057 479.443C120.219 479.443 119.633 479.854 119.428 480.551H119.323V479.549H117.612V486ZM124.939 486.1C125.847 486.1 126.532 485.695 126.866 484.998H126.972V486H128.683V477.082H126.972V480.58H126.866C126.544 479.877 125.823 479.443 124.939 479.443C123.304 479.443 122.32 480.691 122.32 482.766V482.777C122.32 484.84 123.327 486.1 124.939 486.1ZM125.519 484.682C124.616 484.682 124.06 483.967 124.06 482.777V482.766C124.06 481.588 124.616 480.861 125.519 480.861C126.421 480.861 126.989 481.588 126.989 482.771V482.783C126.989 483.967 126.427 484.682 125.519 484.682ZM133.238 486.135C135.125 486.135 135.957 485.045 136.156 484.236L136.168 484.178H134.574L134.557 484.213C134.439 484.459 134.023 484.857 133.273 484.857C132.365 484.857 131.797 484.242 131.779 483.182H136.221V482.648C136.221 480.697 135.049 479.408 133.168 479.408C131.287 479.408 130.086 480.727 130.086 482.777V482.783C130.086 484.852 131.275 486.135 133.238 486.135ZM133.197 480.691C133.941 480.691 134.475 481.172 134.58 482.109H131.797C131.902 481.195 132.453 480.691 133.197 480.691ZM137.571 486H139.282V482.391C139.282 481.477 139.897 480.92 140.87 480.92C141.134 480.92 141.397 480.961 141.655 481.02V479.525C141.485 479.479 141.245 479.443 141.016 479.443C140.179 479.443 139.593 479.854 139.388 480.551H139.282V479.549H137.571V486ZM145.566 488.139V477.082H142.32V478.342H143.92V486.879H142.32V488.139H145.566ZM99.0762 502H100.846V495.004H103.383V493.545H96.5391V495.004H99.0762V502ZM106.239 502.135C107.159 502.135 107.815 501.707 108.108 501.004H108.214V502H109.925V495.549H108.214V499.275C108.214 500.148 107.757 500.717 106.913 500.717C106.104 500.717 105.759 500.242 105.759 499.328V495.549H104.048V499.721C104.048 501.256 104.792 502.135 106.239 502.135ZM111.591 502H113.302V498.391C113.302 497.477 113.918 496.92 114.89 496.92C115.154 496.92 115.418 496.961 115.675 497.02V495.525C115.505 495.479 115.265 495.443 115.037 495.443C114.199 495.443 113.613 495.854 113.408 496.551H113.302V495.549H111.591V502ZM120.969 504.139H122.68V495.549H120.969V496.609H120.893C120.536 495.883 119.821 495.443 118.948 495.443C117.295 495.443 116.311 496.691 116.311 498.766V498.777C116.311 500.84 117.307 502.1 118.918 502.1C119.844 502.1 120.547 501.695 120.864 501.016H120.969V504.139ZM119.516 500.682C118.608 500.682 118.051 499.967 118.051 498.777V498.766C118.051 497.588 118.614 496.861 119.516 496.861C120.413 496.861 120.993 497.588 120.993 498.771V498.783C120.993 499.961 120.418 500.682 119.516 500.682ZM126.468 502.135C127.388 502.135 128.044 501.707 128.337 501.004H128.443V502H130.154V495.549H128.443V499.275C128.443 500.148 127.986 500.717 127.142 500.717C126.333 500.717 125.987 500.242 125.987 499.328V495.549H124.277V499.721C124.277 501.256 125.021 502.135 126.468 502.135ZM134.686 502.135C136.672 502.135 137.867 500.881 137.867 498.777V498.766C137.867 496.68 136.654 495.408 134.686 495.408C132.717 495.408 131.504 496.686 131.504 498.766V498.777C131.504 500.875 132.699 502.135 134.686 502.135ZM134.686 500.793C133.771 500.793 133.256 500.049 133.256 498.777V498.766C133.256 497.506 133.777 496.75 134.686 496.75C135.588 496.75 136.115 497.506 136.115 498.766V498.777C136.115 500.049 135.594 500.793 134.686 500.793ZM140.085 494.559C140.612 494.559 141.046 494.137 141.046 493.609C141.046 493.076 140.612 492.654 140.085 492.654C139.557 492.654 139.118 493.076 139.118 493.609C139.118 494.137 139.557 494.559 140.085 494.559ZM139.223 502H140.934V495.549H139.223V502ZM145.173 502.135C146.826 502.135 148.004 501.303 148.004 500.025V500.02C148.004 499.064 147.4 498.525 146.111 498.25L145.039 498.021C144.371 497.875 144.13 497.676 144.13 497.33V497.324C144.13 496.891 144.552 496.615 145.144 496.615C145.783 496.615 146.164 496.938 146.257 497.283L146.263 497.312H147.851V497.289C147.781 496.252 146.843 495.408 145.15 495.408C143.539 495.408 142.461 496.217 142.461 497.43V497.436C142.461 498.402 143.07 499.006 144.3 499.27L145.379 499.498C146.035 499.645 146.293 499.861 146.293 500.207V500.219C146.293 500.646 145.847 500.928 145.191 500.928C144.517 500.928 144.125 500.641 143.99 500.242L143.978 500.219H142.296L142.302 500.242C142.425 501.35 143.421 502.135 145.173 502.135ZM152.19 502.135C154.077 502.135 154.909 501.045 155.108 500.236L155.12 500.178H153.526L153.508 500.213C153.391 500.459 152.975 500.857 152.225 500.857C151.317 500.857 150.748 500.242 150.731 499.182H155.172V498.648C155.172 496.697 154 495.408 152.12 495.408C150.239 495.408 149.037 496.727 149.037 498.777V498.783C149.037 500.852 150.227 502.135 152.19 502.135ZM152.149 496.691C152.893 496.691 153.426 497.172 153.532 498.109H150.748C150.854 497.195 151.405 496.691 152.149 496.691ZM163.416 502.217C165.725 502.217 167.166 500.811 167.166 498.566V497.494H163.615V498.783H165.443L165.438 498.941C165.402 500.008 164.605 500.717 163.445 500.717C162.051 500.717 161.166 499.586 161.166 497.752V497.74C161.166 495.941 162.01 494.828 163.375 494.828C164.365 494.828 165.086 495.326 165.326 496.164L165.338 496.223H167.096L167.084 496.164C166.832 494.477 165.373 493.328 163.375 493.328C160.914 493.328 159.361 495.045 159.361 497.758V497.77C159.361 500.523 160.902 502.217 163.416 502.217ZM168.645 502H170.356V498.391C170.356 497.477 170.971 496.92 171.944 496.92C172.208 496.92 172.471 496.961 172.729 497.02V495.525C172.559 495.479 172.319 495.443 172.091 495.443C171.253 495.443 170.667 495.854 170.462 496.551H170.356V495.549H168.645V502ZM176.505 502.135C178.392 502.135 179.224 501.045 179.423 500.236L179.435 500.178H177.841L177.824 500.213C177.707 500.459 177.291 500.857 176.541 500.857C175.632 500.857 175.064 500.242 175.046 499.182H179.488V498.648C179.488 496.697 178.316 495.408 176.435 495.408C174.554 495.408 173.353 496.727 173.353 498.777V498.783C173.353 500.852 174.543 502.135 176.505 502.135ZM176.464 496.691C177.209 496.691 177.742 497.172 177.847 498.109H175.064C175.17 497.195 175.72 496.691 176.464 496.691ZM183.674 502.135C185.561 502.135 186.393 501.045 186.592 500.236L186.604 500.178H185.01L184.993 500.213C184.875 500.459 184.459 500.857 183.709 500.857C182.801 500.857 182.233 500.242 182.215 499.182H186.657V498.648C186.657 496.697 185.485 495.408 183.604 495.408C181.723 495.408 180.522 496.727 180.522 498.777V498.783C180.522 500.852 181.711 502.135 183.674 502.135ZM183.633 496.691C184.377 496.691 184.911 497.172 185.016 498.109H182.233C182.338 497.195 182.889 496.691 183.633 496.691ZM188.007 502H189.718V498.268C189.718 497.395 190.198 496.826 190.989 496.826C191.798 496.826 192.173 497.307 192.173 498.215V502H193.884V497.828C193.884 496.287 193.111 495.408 191.675 495.408C190.755 495.408 190.116 495.848 189.823 496.545H189.718V495.549H188.007V502ZM96.8555 518H102.955V516.576H99.2285V516.441L100.793 514.982C102.334 513.559 102.832 512.762 102.832 511.801V511.783C102.832 510.324 101.613 509.328 99.873 509.328C98.0215 509.328 96.7559 510.441 96.7559 512.064L96.7617 512.088H98.3965V512.059C98.3965 511.256 98.9648 510.705 99.791 510.705C100.6 510.705 101.092 511.209 101.092 511.93V511.947C101.092 512.539 100.77 512.967 99.5801 514.121L96.8555 516.811V518ZM104.528 520.139H106.239V516.969H106.345C106.673 517.672 107.393 518.1 108.278 518.1C109.913 518.1 110.897 516.852 110.897 514.777V514.766C110.897 512.709 109.889 511.443 108.278 511.443C107.364 511.443 106.679 511.854 106.345 512.545H106.239V511.549H104.528V520.139ZM107.692 516.682C106.796 516.682 106.221 515.961 106.221 514.777V514.766C106.221 513.582 106.79 512.861 107.692 512.861C108.6 512.861 109.157 513.582 109.157 514.766V514.777C109.157 515.961 108.595 516.682 107.692 516.682ZM111.427 518H113.232L114.433 515.867H114.539L115.746 518H117.638L115.593 514.736L117.627 511.549H115.763L114.621 513.688H114.515L113.373 511.549H111.41L113.449 514.807L111.427 518Z" fill="#FFA800"/>
</g>
<defs>
<filter id="filter0_d" x="0" y="0" width="426" height="717" filterUnits="userSpaceOnUse" color-interpolation-filters="sRGB">
<feFlood flood-opacity="0" result="BackgroundImageFix"/>
<feColorMatrix in="SourceAlpha" type="matrix" values="0 0 0 0 0 0 0 0 0 0 0 0 0 0 0 0 0 0 127 0"/>
<feMorphology radius="5" operator="dilate" in="SourceAlpha" result="effect1_dropShadow"/>
<feOffset/>
<feGaussianBlur stdDeviation="10"/>
<feColorMatrix type="matrix" values="0 0 0 0 0 0 0 0 0 0 0 0 0 0 0 0 0 0 0.15 0"/>
<feBlend mode="normal" in2="BackgroundImageFix" result="effect1_dropShadow"/>
<feBlend mode="normal" in="SourceGraphic" in2="effect1_dropShadow" result="shape"/>
</filter>
</defs>
</svg>
