<svg width="426" height="717" viewBox="0 0 426 717" fill="none" xmlns="http://www.w3.org/2000/svg">
<g filter="url(#filter0_d)">
<rect width="375" height="667" transform="translate(26 25)" fill="white"/>
<path d="M192.279 30.334C190.445 30.334 189.139 31.5879 189.139 33.3047V33.3164C189.139 34.9219 190.275 36.1055 191.898 36.1055C193.059 36.1055 193.797 35.5137 194.107 34.8457H194.225C194.225 34.9102 194.219 34.9746 194.219 35.0391C194.154 36.6562 193.586 37.9688 192.244 37.9688C191.5 37.9688 190.979 37.582 190.756 36.9902L190.738 36.9316H189.25L189.262 36.9961C189.531 38.291 190.691 39.2109 192.244 39.2109C194.371 39.2109 195.654 37.5234 195.654 34.6758V34.6641C195.654 31.6172 194.084 30.334 192.279 30.334ZM192.273 34.9453C191.312 34.9453 190.615 34.2422 190.615 33.2637V33.252C190.615 32.3086 191.359 31.5645 192.291 31.5645C193.229 31.5645 193.961 32.3203 193.961 33.2871V33.2988C193.961 34.2539 193.229 34.9453 192.273 34.9453ZM198.314 33.5215C198.854 33.5215 199.246 33.1113 199.246 32.5957C199.246 32.0742 198.854 31.6699 198.314 31.6699C197.781 31.6699 197.383 32.0742 197.383 32.5957C197.383 33.1113 197.781 33.5215 198.314 33.5215ZM198.314 37.8691C198.854 37.8691 199.246 37.4648 199.246 36.9434C199.246 36.4219 198.854 36.0176 198.314 36.0176C197.781 36.0176 197.383 36.4219 197.383 36.9434C197.383 37.4648 197.781 37.8691 198.314 37.8691ZM205.076 39H206.523V37.377H207.66V36.1289H206.523V30.5449H204.385C203.236 32.291 202.035 34.2363 200.939 36.1406V37.377H205.076V39ZM202.346 36.1641V36.0762C203.166 34.6406 204.145 33.0762 205.012 31.752H205.1V36.1641H202.346ZM211.164 39H212.676V30.5449H211.17L208.961 32.0977V33.5215L211.064 32.0332H211.164V39ZM217.756 39H219.338L220.041 36.8145H223.17L223.879 39H225.461L222.461 30.5449H220.756L217.756 39ZM221.559 32.1152H221.658L222.795 35.6484H220.422L221.559 32.1152ZM226.914 39H228.279V32.9883H228.379L230.723 39H231.754L234.098 32.9883H234.203V39H235.562V30.5449H233.828L231.291 37.0488H231.191L228.648 30.5449H226.914V39Z" fill="black"/>
<path opacity="0.35" fill-rule="evenodd" clip-rule="evenodd" d="M370.5 29.5H389.5C390.881 29.5 392 30.6193 392 32V38.5C392 39.8807 390.881 41 389.5 41H370.5C369.119 41 368 39.8807 368 38.5V32C368 30.6193 369.119 29.5 370.5 29.5ZM370.5 30.5C369.672 30.5 369 31.1716 369 32V38.5C369 39.3284 369.672 40 370.5 40H389.5C390.328 40 391 39.3284 391 38.5V32C391 31.1716 390.328 30.5 389.5 30.5H370.5Z" fill="black"/>
<path opacity="0.4" fill-rule="evenodd" clip-rule="evenodd" d="M393 32.7998C393.89 33.255 394.5 34.1813 394.5 35.2499C394.5 36.3186 393.89 37.2449 393 37.7001V32.7998Z" fill="black"/>
<path fill-rule="evenodd" clip-rule="evenodd" d="M371 31.5H389C389.552 31.5 390 31.9477 390 32.5V38C390 38.5523 389.552 39 389 39H371C370.448 39 370 38.5523 370 38V32.5C370 31.9477 370.448 31.5 371 31.5Z" fill="black"/>
<path d="M336.219 39.3H337.273V30.845H336.225L333.975 32.4622V33.5754L336.125 32.0168H336.219V39.3ZM342.547 39.4993C344.416 39.4993 345.541 37.7942 345.541 35.0754V35.0637C345.541 32.345 344.416 30.6458 342.547 30.6458C340.678 30.6458 339.564 32.345 339.564 35.0637V35.0754C339.564 37.7942 340.678 39.4993 342.547 39.4993ZM342.547 38.5793C341.334 38.5793 340.625 37.2317 340.625 35.0754V35.0637C340.625 32.9075 341.334 31.5715 342.547 31.5715C343.76 31.5715 344.48 32.9075 344.48 35.0637V35.0754C344.48 37.2317 343.76 38.5793 342.547 38.5793ZM350.105 39.4993C351.975 39.4993 353.1 37.7942 353.1 35.0754V35.0637C353.1 32.345 351.975 30.6458 350.105 30.6458C348.236 30.6458 347.123 32.345 347.123 35.0637V35.0754C347.123 37.7942 348.236 39.4993 350.105 39.4993ZM350.105 38.5793C348.893 38.5793 348.184 37.2317 348.184 35.0754V35.0637C348.184 32.9075 348.893 31.5715 350.105 31.5715C351.318 31.5715 352.039 32.9075 352.039 35.0637V35.0754C352.039 37.2317 351.318 38.5793 350.105 38.5793ZM356.41 35.2922C357.488 35.2922 358.145 34.4133 358.145 33.0129V33.0071C358.145 31.6067 357.488 30.7336 356.41 30.7336C355.332 30.7336 354.682 31.6067 354.682 33.0071V33.0129C354.682 34.4133 355.332 35.2922 356.41 35.2922ZM357.043 39.3L362.797 30.845H361.848L356.094 39.3H357.043ZM356.41 34.595C355.83 34.595 355.496 34.0032 355.496 33.0129V33.0071C355.496 32.0168 355.83 31.4309 356.41 31.4309C356.99 31.4309 357.33 32.0168 357.33 33.0071V33.0129C357.33 34.0032 356.99 34.595 356.41 34.595ZM362.469 39.4114C363.547 39.4114 364.203 38.5325 364.203 37.1321V37.1262C364.203 35.7258 363.547 34.8528 362.469 34.8528C361.391 34.8528 360.74 35.7258 360.74 37.1262V37.1321C360.74 38.5325 361.391 39.4114 362.469 39.4114ZM362.469 38.7141C361.889 38.7141 361.555 38.1223 361.555 37.1321V37.1262C361.555 36.136 361.889 35.55 362.469 35.55C363.049 35.55 363.389 36.136 363.389 37.1262V37.1321C363.389 38.1223 363.049 38.7141 362.469 38.7141Z" fill="black"/>
<path fill-rule="evenodd" clip-rule="evenodd" d="M45.5 30H46.5C47.0523 30 47.5 30.4477 47.5 31V39C47.5 39.5523 47.0523 40 46.5 40H45.5C44.9477 40 44.5 39.5523 44.5 39V31C44.5 30.4477 44.9477 30 45.5 30Z" fill="black"/>
<path d="M42 32H41C40.4477 32 40 32.4477 40 33V39C40 39.5523 40.4477 40 41 40H42C42.5523 40 43 39.5523 43 39V33C43 32.4477 42.5523 32 42 32Z" fill="black"/>
<path d="M36.5 34H37.5C38.0523 34 38.5 34.4477 38.5 35V39C38.5 39.5523 38.0523 40 37.5 40H36.5C35.9477 40 35.5 39.5523 35.5 39V35C35.5 34.4477 35.9477 34 36.5 34Z" fill="black"/>
<path d="M32 35.5H33C33.5523 35.5 34 35.9477 34 36.5V39C34 39.5523 33.5523 40 33 40H32C31.4477 40 31 39.5523 31 39V36.5C31 35.9477 31.4477 35.5 32 35.5Z" fill="black"/>
<path d="M55.0781 39H56.1328V35.6543H58.2129L60.0234 39H61.2598L59.3027 35.4902C60.3633 35.1562 61.002 34.2422 61.002 33.0703V33.0586C61.002 31.541 59.9355 30.5449 58.3066 30.5449H55.0781V39ZM56.1328 34.7168V31.4824H58.166C59.2559 31.4824 59.9121 32.0859 59.9121 33.0938V33.1055C59.9121 34.1367 59.2969 34.7168 58.2129 34.7168H56.1328ZM65.6395 39.1992C67.5262 39.1992 68.7625 38.2148 68.7625 36.6328V36.627C68.7625 35.4082 68.0652 34.6992 66.3016 34.3066L65.3641 34.0957C64.2156 33.8438 63.7527 33.3867 63.7527 32.7129V32.707C63.7527 31.8223 64.5672 31.3242 65.6219 31.3184C66.7234 31.3125 67.4266 31.8633 67.5437 32.6074L67.5555 32.6836H68.6102L68.6043 32.6016C68.5164 31.3418 67.3387 30.3457 65.6512 30.3457C63.9051 30.3457 62.6805 31.3359 62.6746 32.7363V32.7422C62.6746 33.9668 63.407 34.7461 65.1004 35.1211L66.0379 35.3262C67.198 35.584 67.6844 36.0645 67.6844 36.7676V36.7734C67.6844 37.6348 66.8465 38.2266 65.698 38.2266C64.4793 38.2266 63.6004 37.6934 63.5242 36.8496L63.5184 36.7852H62.4637L62.4695 36.8496C62.5926 38.2266 63.7879 39.1992 65.6395 39.1992ZM73.2418 39.1992C75.1285 39.1992 76.3648 38.2148 76.3648 36.6328V36.627C76.3648 35.4082 75.6676 34.6992 73.9039 34.3066L72.9664 34.0957C71.818 33.8438 71.3551 33.3867 71.3551 32.7129V32.707C71.3551 31.8223 72.1695 31.3242 73.2242 31.3184C74.3258 31.3125 75.0289 31.8633 75.1461 32.6074L75.1578 32.6836H76.2125L76.2066 32.6016C76.1187 31.3418 74.941 30.3457 73.2535 30.3457C71.5074 30.3457 70.2828 31.3359 70.277 32.7363V32.7422C70.277 33.9668 71.0094 34.7461 72.7027 35.1211L73.6402 35.3262C74.8004 35.584 75.2867 36.0645 75.2867 36.7676V36.7734C75.2867 37.6348 74.4488 38.2266 73.3004 38.2266C72.0816 38.2266 71.2027 37.6934 71.1266 36.8496L71.1207 36.7852H70.066L70.0719 36.8496C70.1949 38.2266 71.3902 39.1992 73.2418 39.1992ZM80.5277 39.1113C82.0453 39.1113 82.8949 38.2969 83.1527 37.1543L83.1645 37.0898L82.1566 37.0957L82.1449 37.1309C81.9105 37.834 81.3715 38.209 80.5219 38.209C79.3969 38.209 78.6703 37.2773 78.6703 35.8242V35.8125C78.6703 34.3887 79.3852 33.4746 80.5219 33.4746C81.4301 33.4746 81.9926 33.9785 82.1508 34.5996L82.1566 34.6172H83.1703L83.1645 34.582C82.977 33.457 82.057 32.5723 80.5219 32.5723C78.7523 32.5723 77.6273 33.8496 77.6273 35.8125V35.8242C77.6273 37.8281 78.7582 39.1113 80.5277 39.1113ZM84.6672 39H85.6867V35.2617C85.6867 34.1543 86.3254 33.4746 87.3332 33.4746C88.341 33.4746 88.8098 34.0195 88.8098 35.1562V39H89.8293V34.9102C89.8293 33.4102 89.0383 32.5723 87.6203 32.5723C86.6887 32.5723 86.0969 32.9648 85.7805 33.6328H85.6867V30.1758H84.6672V39ZM94.2207 39.1113C96.0195 39.1113 97.1328 37.8691 97.1328 35.8477V35.8359C97.1328 33.8086 96.0195 32.5723 94.2207 32.5723C92.4219 32.5723 91.3086 33.8086 91.3086 35.8359V35.8477C91.3086 37.8691 92.4219 39.1113 94.2207 39.1113ZM94.2207 38.209C93.0254 38.209 92.3516 37.3359 92.3516 35.8477V35.8359C92.3516 34.3418 93.0254 33.4746 94.2207 33.4746C95.416 33.4746 96.0898 34.3418 96.0898 35.8359V35.8477C96.0898 37.3359 95.416 38.209 94.2207 38.209ZM101.261 39.1113C103.059 39.1113 104.173 37.8691 104.173 35.8477V35.8359C104.173 33.8086 103.059 32.5723 101.261 32.5723C99.4617 32.5723 98.3484 33.8086 98.3484 35.8359V35.8477C98.3484 37.8691 99.4617 39.1113 101.261 39.1113ZM101.261 38.209C100.065 38.209 99.3914 37.3359 99.3914 35.8477V35.8359C99.3914 34.3418 100.065 33.4746 101.261 33.4746C102.456 33.4746 103.13 34.3418 103.13 35.8359V35.8477C103.13 37.3359 102.456 38.209 101.261 38.209ZM105.763 39H106.783V30.1758H105.763V39Z" fill="black"/>
<path fill-rule="evenodd" clip-rule="evenodd" d="M125.983 32.5229C124.072 30.8906 121.657 30 119.133 30C116.601 30 114.18 30.8959 112.266 32.5371L112.104 32.6765C111.972 32.7892 111.965 32.9895 112.087 33.1118L113.214 34.2356C113.324 34.3447 113.498 34.3521 113.617 34.2527L113.756 34.1354C115.263 32.8694 117.155 32.1804 119.133 32.1804C121.104 32.1804 122.989 32.8647 124.494 34.1228L124.634 34.2395C124.752 34.3385 124.926 34.3308 125.036 34.2219L126.163 33.098C126.285 32.9756 126.278 32.7749 126.146 32.6623L125.983 32.5229ZM119.133 33.4698C120.724 33.4698 122.251 33.9975 123.495 34.9749L123.671 35.113C123.811 35.2231 123.824 35.4306 123.697 35.5564L122.567 36.6841C122.462 36.7884 122.297 36.8003 122.178 36.7122L122.04 36.6098C121.2 35.9852 120.186 35.6501 119.133 35.6501C118.073 35.6501 117.053 35.9893 116.21 36.6211L116.072 36.7245C115.954 36.8133 115.787 36.8016 115.683 36.697L114.552 35.5698C114.426 35.4442 114.438 35.2373 114.578 35.1269L114.753 34.9887C116 34.0027 117.534 33.4698 119.133 33.4698ZM119.133 36.9396C119.772 36.9396 120.394 37.1076 120.941 37.4281L121.163 37.5579C121.331 37.6563 121.361 37.8867 121.223 38.0242L119.329 39.913C119.212 40.029 119.024 40.029 118.907 39.913L117.026 38.0363C116.888 37.8994 116.917 37.6702 117.084 37.5711L117.303 37.4406C117.856 37.1121 118.485 36.9396 119.133 36.9396Z" fill="black"/>
<rect x="127" y="132" width="173" height="41" rx="5" fill="#C4C4C4"/>
<path d="M62 335C62 332.2 62 330.8 62.545 329.73C63.0243 328.789 63.7892 328.024 64.73 327.545C65.7996 327 67.1997 327 70 327H357C359.8 327 361.2 327 362.27 327.545C363.211 328.024 363.976 328.789 364.455 329.73C365 330.8 365 332.2 365 335V355C365 357.8 365 359.2 364.455 360.27C363.976 361.211 363.211 361.976 362.27 362.455C361.2 363 359.8 363 357 363H70C67.1997 363 65.7996 363 64.73 362.455C63.7892 361.976 63.0243 361.211 62.545 360.27C62 359.2 62 357.8 62 355V335Z" fill="#C4C4C4"/>
<path d="M62 269C62 266.2 62 264.8 62.545 263.73C63.0243 262.789 63.7892 262.024 64.73 261.545C65.7996 261 67.1997 261 70 261H357C359.8 261 361.2 261 362.27 261.545C363.211 262.024 363.976 262.789 364.455 263.73C365 264.8 365 266.2 365 269V289C365 291.8 365 293.2 364.455 294.27C363.976 295.211 363.211 295.976 362.27 296.455C361.2 297 359.8 297 357 297H70C67.1997 297 65.7996 297 64.73 296.455C63.7892 295.976 63.0243 295.211 62.545 294.27C62 293.2 62 291.8 62 289V269Z" fill="#C4C4C4"/>
<rect x="135" y="423" width="156" height="42" rx="5" fill="#C4C4C4"/>
<rect x="96" y="532" width="235" height="110" rx="5" fill="#C4C4C4"/>
<path d="M47.4766 74.1387H50.7227V72.8789H49.1172V64.3418H50.7227V63.082H47.4766V74.1387ZM52.1199 72H55.9168C57.7215 72 58.8406 71.0684 58.8406 69.5859V69.5742C58.8406 68.4902 58.0262 67.6523 56.907 67.5645V67.459C57.7742 67.3301 58.4363 66.5508 58.4363 65.6602V65.6484C58.4363 64.3477 57.4578 63.5449 55.8172 63.5449H52.1199V72ZM55.366 64.8574C56.2098 64.8574 56.6961 65.2676 56.6961 65.9531V65.9648C56.6961 66.6621 56.1746 67.0605 55.2195 67.0605H53.8895V64.8574H55.366ZM55.4246 68.2266C56.4676 68.2266 57.0359 68.6484 57.0359 69.4336V69.4453C57.0359 70.248 56.4852 70.6816 55.4656 70.6816H53.8895V68.2266H55.4246ZM61.9781 72.0996C62.8219 72.0996 63.5016 71.7422 63.8297 71.1445H63.9352V72H65.6227V67.5938C65.6227 66.2168 64.6559 65.4082 62.9449 65.4082C61.3219 65.4082 60.2555 66.1582 60.1207 67.2891L60.1148 67.3418H61.6969L61.7086 67.3184C61.8434 66.9375 62.2359 66.7207 62.8512 66.7207C63.5543 66.7207 63.9352 67.0371 63.9352 67.5938V68.127L62.3766 68.2207C60.7711 68.3145 59.8746 68.9941 59.8746 70.1543V70.166C59.8746 71.3379 60.7477 72.0996 61.9781 72.0996ZM61.5445 70.0605V70.0488C61.5445 69.5801 61.902 69.3047 62.6344 69.2578L63.9352 69.1758V69.6504C63.9352 70.3301 63.3434 70.8516 62.5523 70.8516C61.9605 70.8516 61.5445 70.5527 61.5445 70.0605ZM70.0902 72.1348C71.7719 72.1348 72.7797 71.2324 72.9555 69.8262L72.9613 69.791H71.3793L71.3676 69.8145C71.2152 70.459 70.7992 70.793 70.0961 70.793C69.182 70.793 68.6723 70.0723 68.6723 68.7656V68.7539C68.6723 67.4648 69.1762 66.75 70.0961 66.75C70.8285 66.75 71.2563 67.1602 71.3676 67.7871L71.3734 67.7988H72.9672V67.7812C72.8148 66.3398 71.8012 65.4082 70.0902 65.4082C68.0688 65.4082 66.932 66.6328 66.932 68.7539V68.7656C66.932 70.9102 68.0746 72.1348 70.0902 72.1348ZM74.3117 72H76.0227V69.8379L76.4914 69.3398L78.3723 72H80.3937L77.7453 68.2852L80.2238 65.5488H78.2844L76.1281 68.0977H76.0227V63.082H74.3117V72ZM83.8828 74.2676C85.834 74.2676 87.0703 73.3125 87.0703 71.8008V65.5488H85.3594V66.6035H85.2773C84.9316 65.877 84.2402 65.4434 83.3555 65.4434C81.7031 65.4434 80.7012 66.7207 80.7012 68.6191V68.6309C80.7012 70.4648 81.7031 71.7188 83.3262 71.7188C84.2227 71.7188 84.9023 71.3496 85.2598 70.6699H85.3652V71.8711C85.3652 72.6211 84.832 73.0488 83.918 73.0488C83.1562 73.0488 82.7109 72.791 82.6172 72.416L82.6113 72.3926H80.918V72.4219C81.0586 73.5176 82.0957 74.2676 83.8828 74.2676ZM83.9062 70.4062C82.9805 70.4062 82.4531 69.6855 82.4531 68.625V68.6133C82.4531 67.5527 82.9863 66.832 83.9062 66.832C84.8262 66.832 85.3828 67.5527 85.3828 68.6133V68.625C85.3828 69.6855 84.832 70.4062 83.9062 70.4062ZM88.7313 72H90.4422V68.3906C90.4422 67.4766 91.0574 66.9199 92.0301 66.9199C92.2938 66.9199 92.5574 66.9609 92.8152 67.0195V65.5254C92.6453 65.4785 92.4051 65.4434 92.1766 65.4434C91.3387 65.4434 90.7527 65.8535 90.5477 66.5508H90.4422V65.5488H88.7313V72ZM96.6207 72.1348C98.607 72.1348 99.8023 70.8809 99.8023 68.7773V68.7656C99.8023 66.6797 98.5895 65.4082 96.6207 65.4082C94.652 65.4082 93.4391 66.6855 93.4391 68.7656V68.7773C93.4391 70.875 94.6344 72.1348 96.6207 72.1348ZM96.6207 70.793C95.7066 70.793 95.191 70.0488 95.191 68.7773V68.7656C95.191 67.5059 95.7125 66.75 96.6207 66.75C97.523 66.75 98.0504 67.5059 98.0504 68.7656V68.7773C98.0504 70.0488 97.5289 70.793 96.6207 70.793ZM103.28 72.1348C104.2 72.1348 104.856 71.707 105.149 71.0039H105.254V72H106.965V65.5488H105.254V69.2754C105.254 70.1484 104.797 70.7168 103.954 70.7168C103.145 70.7168 102.799 70.2422 102.799 69.3281V65.5488H101.088V69.7207C101.088 71.2559 101.832 72.1348 103.28 72.1348ZM108.632 72H110.343V68.2676C110.343 67.3945 110.823 66.8262 111.614 66.8262C112.423 66.8262 112.798 67.3066 112.798 68.2148V72H114.509V67.8281C114.509 66.2871 113.736 65.4082 112.3 65.4082C111.38 65.4082 110.741 65.8477 110.448 66.5449H110.343V65.5488H108.632V72ZM118.42 72.0996C119.328 72.0996 120.014 71.6953 120.348 70.998H120.453V72H122.164V63.082H120.453V66.5801H120.348C120.025 65.877 119.305 65.4434 118.42 65.4434C116.785 65.4434 115.801 66.6914 115.801 68.7656V68.7773C115.801 70.8398 116.809 72.0996 118.42 72.0996ZM119 70.6816C118.098 70.6816 117.541 69.9668 117.541 68.7773V68.7656C117.541 67.5879 118.098 66.8613 119 66.8613C119.902 66.8613 120.471 67.5879 120.471 68.7715V68.7832C120.471 69.9668 119.908 70.6816 119 70.6816ZM126.702 74.1387V63.082H123.456V64.3418H125.055V72.8789H123.456V74.1387H126.702ZM48.7539 88H50.4238L52.0059 82.3047H52.0996L53.6992 88H55.3574L57.6016 79.5449H55.7734L54.4668 85.5859H54.373L52.8027 79.5449H51.3086L49.7676 85.5859H49.6738L48.3555 79.5449H46.5156L48.7539 88ZM58.9812 88H60.6922V84.2676C60.6922 83.3945 61.1727 82.8262 61.9637 82.8262C62.7723 82.8262 63.1473 83.3066 63.1473 84.2148V88H64.8582V83.8281C64.8582 82.2871 64.0848 81.4082 62.6492 81.4082C61.7293 81.4082 61.0906 81.8477 60.7977 82.5449H60.6922V79.082H58.9812V88ZM67.3395 80.5586C67.8668 80.5586 68.3004 80.1367 68.3004 79.6094C68.3004 79.0762 67.8668 78.6543 67.3395 78.6543C66.8121 78.6543 66.3727 79.0762 66.3727 79.6094C66.3727 80.1367 66.8121 80.5586 67.3395 80.5586ZM66.4781 88H68.1891V81.5488H66.4781V88ZM72.5395 88.0234C72.8676 88.0234 73.184 87.9883 73.3949 87.9473V86.6758C73.2309 86.6934 73.1137 86.7051 72.891 86.7051C72.3109 86.7051 72.0648 86.4473 72.0648 85.8672V82.8379H73.3949V81.5488H72.0648V80.0078H70.3363V81.5488H69.3402V82.8379H70.3363V86.2598C70.3363 87.5137 70.9691 88.0234 72.5395 88.0234ZM77.5578 88.1348C79.4445 88.1348 80.2766 87.0449 80.4758 86.2363L80.4875 86.1777H78.8937L78.8762 86.2129C78.759 86.459 78.343 86.8574 77.593 86.8574C76.6848 86.8574 76.1164 86.2422 76.0988 85.1816H80.5402V84.6484C80.5402 82.6973 79.3684 81.4082 77.4875 81.4082C75.6066 81.4082 74.4055 82.7266 74.4055 84.7773V84.7832C74.4055 86.8516 75.5949 88.1348 77.5578 88.1348ZM77.5168 82.6914C78.2609 82.6914 78.7941 83.1719 78.8996 84.1094H76.1164C76.2219 83.1953 76.7727 82.6914 77.5168 82.6914Z" fill="#FFA800"/>
</g>
<defs>
<filter id="filter0_d" x="0" y="0" width="426" height="717" filterUnits="userSpaceOnUse" color-interpolation-filters="sRGB">
<feFlood flood-opacity="0" result="BackgroundImageFix"/>
<feColorMatrix in="SourceAlpha" type="matrix" values="0 0 0 0 0 0 0 0 0 0 0 0 0 0 0 0 0 0 127 0"/>
<feMorphology radius="5" operator="dilate" in="SourceAlpha" result="effect1_dropShadow"/>
<feOffset/>
<feGaussianBlur stdDeviation="10"/>
<feColorMatrix type="matrix" values="0 0 0 0 0 0 0 0 0 0 0 0 0 0 0 0 0 0 0.15 0"/>
<feBlend mode="normal" in2="BackgroundImageFix" result="effect1_dropShadow"/>
<feBlend mode="normal" in="SourceGraphic" in2="effect1_dropShadow" result="shape"/>
</filter>
</defs>
</svg>
