<svg width="426" height="717" viewBox="0 0 426 717" fill="none" xmlns="http://www.w3.org/2000/svg">
<g filter="url(#filter0_d)">
<rect width="375" height="667" transform="translate(26 25)" fill="white"/>
<path d="M192.279 30.334C190.445 30.334 189.139 31.5879 189.139 33.3047V33.3164C189.139 34.9219 190.275 36.1055 191.898 36.1055C193.059 36.1055 193.797 35.5137 194.107 34.8457H194.225C194.225 34.9102 194.219 34.9746 194.219 35.0391C194.154 36.6562 193.586 37.9688 192.244 37.9688C191.5 37.9688 190.979 37.582 190.756 36.9902L190.738 36.9316H189.25L189.262 36.9961C189.531 38.291 190.691 39.2109 192.244 39.2109C194.371 39.2109 195.654 37.5234 195.654 34.6758V34.6641C195.654 31.6172 194.084 30.334 192.279 30.334ZM192.273 34.9453C191.312 34.9453 190.615 34.2422 190.615 33.2637V33.252C190.615 32.3086 191.359 31.5645 192.291 31.5645C193.229 31.5645 193.961 32.3203 193.961 33.2871V33.2988C193.961 34.2539 193.229 34.9453 192.273 34.9453ZM198.314 33.5215C198.854 33.5215 199.246 33.1113 199.246 32.5957C199.246 32.0742 198.854 31.6699 198.314 31.6699C197.781 31.6699 197.383 32.0742 197.383 32.5957C197.383 33.1113 197.781 33.5215 198.314 33.5215ZM198.314 37.8691C198.854 37.8691 199.246 37.4648 199.246 36.9434C199.246 36.4219 198.854 36.0176 198.314 36.0176C197.781 36.0176 197.383 36.4219 197.383 36.9434C197.383 37.4648 197.781 37.8691 198.314 37.8691ZM205.076 39H206.523V37.377H207.66V36.1289H206.523V30.5449H204.385C203.236 32.291 202.035 34.2363 200.939 36.1406V37.377H205.076V39ZM202.346 36.1641V36.0762C203.166 34.6406 204.145 33.0762 205.012 31.752H205.1V36.1641H202.346ZM211.164 39H212.676V30.5449H211.17L208.961 32.0977V33.5215L211.064 32.0332H211.164V39ZM217.756 39H219.338L220.041 36.8145H223.17L223.879 39H225.461L222.461 30.5449H220.756L217.756 39ZM221.559 32.1152H221.658L222.795 35.6484H220.422L221.559 32.1152ZM226.914 39H228.279V32.9883H228.379L230.723 39H231.754L234.098 32.9883H234.203V39H235.562V30.5449H233.828L231.291 37.0488H231.191L228.648 30.5449H226.914V39Z" fill="black"/>
<path opacity="0.35" fill-rule="evenodd" clip-rule="evenodd" d="M370.5 29.5H389.5C390.881 29.5 392 30.6193 392 32V38.5C392 39.8807 390.881 41 389.5 41H370.5C369.119 41 368 39.8807 368 38.5V32C368 30.6193 369.119 29.5 370.5 29.5ZM370.5 30.5C369.672 30.5 369 31.1716 369 32V38.5C369 39.3284 369.672 40 370.5 40H389.5C390.328 40 391 39.3284 391 38.5V32C391 31.1716 390.328 30.5 389.5 30.5H370.5Z" fill="black"/>
<path opacity="0.4" fill-rule="evenodd" clip-rule="evenodd" d="M393 32.7998C393.89 33.255 394.5 34.1813 394.5 35.2499C394.5 36.3186 393.89 37.2449 393 37.7001V32.7998Z" fill="black"/>
<path fill-rule="evenodd" clip-rule="evenodd" d="M371 31.5H389C389.552 31.5 390 31.9477 390 32.5V38C390 38.5523 389.552 39 389 39H371C370.448 39 370 38.5523 370 38V32.5C370 31.9477 370.448 31.5 371 31.5Z" fill="black"/>
<path d="M336.219 39.3H337.273V30.8449H336.225L333.975 32.4621V33.5754L336.125 32.0168H336.219V39.3ZM342.547 39.4992C344.416 39.4992 345.541 37.7941 345.541 35.0754V35.0637C345.541 32.3449 344.416 30.6457 342.547 30.6457C340.678 30.6457 339.564 32.3449 339.564 35.0637V35.0754C339.564 37.7941 340.678 39.4992 342.547 39.4992ZM342.547 38.5793C341.334 38.5793 340.625 37.2316 340.625 35.0754V35.0637C340.625 32.9074 341.334 31.5715 342.547 31.5715C343.76 31.5715 344.48 32.9074 344.48 35.0637V35.0754C344.48 37.2316 343.76 38.5793 342.547 38.5793ZM350.105 39.4992C351.975 39.4992 353.1 37.7941 353.1 35.0754V35.0637C353.1 32.3449 351.975 30.6457 350.105 30.6457C348.236 30.6457 347.123 32.3449 347.123 35.0637V35.0754C347.123 37.7941 348.236 39.4992 350.105 39.4992ZM350.105 38.5793C348.893 38.5793 348.184 37.2316 348.184 35.0754V35.0637C348.184 32.9074 348.893 31.5715 350.105 31.5715C351.318 31.5715 352.039 32.9074 352.039 35.0637V35.0754C352.039 37.2316 351.318 38.5793 350.105 38.5793ZM356.41 35.2922C357.488 35.2922 358.145 34.4133 358.145 33.0129V33.007C358.145 31.6066 357.488 30.7336 356.41 30.7336C355.332 30.7336 354.682 31.6066 354.682 33.007V33.0129C354.682 34.4133 355.332 35.2922 356.41 35.2922ZM357.043 39.3L362.797 30.8449H361.848L356.094 39.3H357.043ZM356.41 34.5949C355.83 34.5949 355.496 34.0031 355.496 33.0129V33.007C355.496 32.0168 355.83 31.4308 356.41 31.4308C356.99 31.4308 357.33 32.0168 357.33 33.007V33.0129C357.33 34.0031 356.99 34.5949 356.41 34.5949ZM362.469 39.4113C363.547 39.4113 364.203 38.5324 364.203 37.132V37.1262C364.203 35.7258 363.547 34.8527 362.469 34.8527C361.391 34.8527 360.74 35.7258 360.74 37.1262V37.132C360.74 38.5324 361.391 39.4113 362.469 39.4113ZM362.469 38.7141C361.889 38.7141 361.555 38.1223 361.555 37.132V37.1262C361.555 36.1359 361.889 35.55 362.469 35.55C363.049 35.55 363.389 36.1359 363.389 37.1262V37.132C363.389 38.1223 363.049 38.7141 362.469 38.7141Z" fill="black"/>
<path fill-rule="evenodd" clip-rule="evenodd" d="M45.5 30H46.5C47.0523 30 47.5 30.4477 47.5 31V39C47.5 39.5523 47.0523 40 46.5 40H45.5C44.9477 40 44.5 39.5523 44.5 39V31C44.5 30.4477 44.9477 30 45.5 30Z" fill="black"/>
<path d="M42 32H41C40.4477 32 40 32.4477 40 33V39C40 39.5523 40.4477 40 41 40H42C42.5523 40 43 39.5523 43 39V33C43 32.4477 42.5523 32 42 32Z" fill="black"/>
<path d="M36.5 34H37.5C38.0523 34 38.5 34.4477 38.5 35V39C38.5 39.5523 38.0523 40 37.5 40H36.5C35.9477 40 35.5 39.5523 35.5 39V35C35.5 34.4477 35.9477 34 36.5 34Z" fill="black"/>
<path d="M32 35.5H33C33.5523 35.5 34 35.9477 34 36.5V39C34 39.5523 33.5523 40 33 40H32C31.4477 40 31 39.5523 31 39V36.5C31 35.9477 31.4477 35.5 32 35.5Z" fill="black"/>
<path d="M55.0781 39H56.1328V35.6543H58.2129L60.0234 39H61.2598L59.3027 35.4902C60.3633 35.1562 61.002 34.2422 61.002 33.0703V33.0586C61.002 31.541 59.9355 30.5449 58.3066 30.5449H55.0781V39ZM56.1328 34.7168V31.4824H58.166C59.2559 31.4824 59.9121 32.0859 59.9121 33.0938V33.1055C59.9121 34.1367 59.2969 34.7168 58.2129 34.7168H56.1328ZM65.6395 39.1992C67.5262 39.1992 68.7625 38.2148 68.7625 36.6328V36.627C68.7625 35.4082 68.0652 34.6992 66.3016 34.3066L65.3641 34.0957C64.2156 33.8438 63.7527 33.3867 63.7527 32.7129V32.707C63.7527 31.8223 64.5672 31.3242 65.6219 31.3184C66.7234 31.3125 67.4266 31.8633 67.5437 32.6074L67.5555 32.6836H68.6102L68.6043 32.6016C68.5164 31.3418 67.3387 30.3457 65.6512 30.3457C63.9051 30.3457 62.6805 31.3359 62.6746 32.7363V32.7422C62.6746 33.9668 63.407 34.7461 65.1004 35.1211L66.0379 35.3262C67.198 35.584 67.6844 36.0645 67.6844 36.7676V36.7734C67.6844 37.6348 66.8465 38.2266 65.698 38.2266C64.4793 38.2266 63.6004 37.6934 63.5242 36.8496L63.5184 36.7852H62.4637L62.4695 36.8496C62.5926 38.2266 63.7879 39.1992 65.6395 39.1992ZM73.2418 39.1992C75.1285 39.1992 76.3648 38.2148 76.3648 36.6328V36.627C76.3648 35.4082 75.6676 34.6992 73.9039 34.3066L72.9664 34.0957C71.818 33.8438 71.3551 33.3867 71.3551 32.7129V32.707C71.3551 31.8223 72.1695 31.3242 73.2242 31.3184C74.3258 31.3125 75.0289 31.8633 75.1461 32.6074L75.1578 32.6836H76.2125L76.2066 32.6016C76.1187 31.3418 74.941 30.3457 73.2535 30.3457C71.5074 30.3457 70.2828 31.3359 70.277 32.7363V32.7422C70.277 33.9668 71.0094 34.7461 72.7027 35.1211L73.6402 35.3262C74.8004 35.584 75.2867 36.0645 75.2867 36.7676V36.7734C75.2867 37.6348 74.4488 38.2266 73.3004 38.2266C72.0816 38.2266 71.2027 37.6934 71.1266 36.8496L71.1207 36.7852H70.066L70.0719 36.8496C70.1949 38.2266 71.3902 39.1992 73.2418 39.1992ZM80.5277 39.1113C82.0453 39.1113 82.8949 38.2969 83.1527 37.1543L83.1645 37.0898L82.1566 37.0957L82.1449 37.1309C81.9105 37.834 81.3715 38.209 80.5219 38.209C79.3969 38.209 78.6703 37.2773 78.6703 35.8242V35.8125C78.6703 34.3887 79.3852 33.4746 80.5219 33.4746C81.4301 33.4746 81.9926 33.9785 82.1508 34.5996L82.1566 34.6172H83.1703L83.1645 34.582C82.977 33.457 82.057 32.5723 80.5219 32.5723C78.7523 32.5723 77.6273 33.8496 77.6273 35.8125V35.8242C77.6273 37.8281 78.7582 39.1113 80.5277 39.1113ZM84.6672 39H85.6867V35.2617C85.6867 34.1543 86.3254 33.4746 87.3332 33.4746C88.341 33.4746 88.8098 34.0195 88.8098 35.1562V39H89.8293V34.9102C89.8293 33.4102 89.0383 32.5723 87.6203 32.5723C86.6887 32.5723 86.0969 32.9648 85.7805 33.6328H85.6867V30.1758H84.6672V39ZM94.2207 39.1113C96.0195 39.1113 97.1328 37.8691 97.1328 35.8477V35.8359C97.1328 33.8086 96.0195 32.5723 94.2207 32.5723C92.4219 32.5723 91.3086 33.8086 91.3086 35.8359V35.8477C91.3086 37.8691 92.4219 39.1113 94.2207 39.1113ZM94.2207 38.209C93.0254 38.209 92.3516 37.3359 92.3516 35.8477V35.8359C92.3516 34.3418 93.0254 33.4746 94.2207 33.4746C95.416 33.4746 96.0898 34.3418 96.0898 35.8359V35.8477C96.0898 37.3359 95.416 38.209 94.2207 38.209ZM101.261 39.1113C103.059 39.1113 104.173 37.8691 104.173 35.8477V35.8359C104.173 33.8086 103.059 32.5723 101.261 32.5723C99.4617 32.5723 98.3484 33.8086 98.3484 35.8359V35.8477C98.3484 37.8691 99.4617 39.1113 101.261 39.1113ZM101.261 38.209C100.065 38.209 99.3914 37.3359 99.3914 35.8477V35.8359C99.3914 34.3418 100.065 33.4746 101.261 33.4746C102.456 33.4746 103.13 34.3418 103.13 35.8359V35.8477C103.13 37.3359 102.456 38.209 101.261 38.209ZM105.763 39H106.783V30.1758H105.763V39Z" fill="black"/>
<path fill-rule="evenodd" clip-rule="evenodd" d="M125.983 32.5229C124.072 30.8906 121.657 30 119.133 30C116.601 30 114.18 30.8959 112.266 32.5371L112.104 32.6765C111.972 32.7892 111.965 32.9895 112.087 33.1118L113.214 34.2356C113.324 34.3447 113.498 34.3521 113.617 34.2527L113.756 34.1354C115.263 32.8694 117.155 32.1804 119.133 32.1804C121.104 32.1804 122.989 32.8647 124.494 34.1228L124.634 34.2395C124.752 34.3385 124.926 34.3308 125.036 34.2219L126.163 33.098C126.285 32.9756 126.278 32.7749 126.146 32.6623L125.983 32.5229ZM119.133 33.4698C120.724 33.4698 122.251 33.9975 123.495 34.9749L123.671 35.113C123.811 35.2231 123.824 35.4306 123.697 35.5564L122.567 36.6841C122.462 36.7884 122.297 36.8003 122.178 36.7122L122.04 36.6098C121.2 35.9852 120.186 35.6501 119.133 35.6501C118.073 35.6501 117.053 35.9893 116.21 36.6211L116.072 36.7245C115.954 36.8133 115.787 36.8016 115.683 36.697L114.552 35.5698C114.426 35.4442 114.438 35.2373 114.578 35.1269L114.753 34.9887C116 34.0027 117.534 33.4698 119.133 33.4698ZM119.133 36.9396C119.772 36.9396 120.394 37.1076 120.941 37.4281L121.163 37.5579C121.331 37.6563 121.361 37.8867 121.223 38.0242L119.329 39.913C119.212 40.029 119.024 40.029 118.907 39.913L117.026 38.0363C116.888 37.8994 116.917 37.6702 117.084 37.5711L117.303 37.4406C117.856 37.1121 118.485 36.9396 119.133 36.9396Z" fill="black"/>
<rect x="127" y="132" width="173" height="41" rx="5" fill="#C4C4C4"/>
<path d="M62 335C62 332.2 62 330.8 62.545 329.73C63.0243 328.789 63.7892 328.024 64.73 327.545C65.7996 327 67.1997 327 70 327H357C359.8 327 361.2 327 362.27 327.545C363.211 328.024 363.976 328.789 364.455 329.73C365 330.8 365 332.2 365 335V355C365 357.8 365 359.2 364.455 360.27C363.976 361.211 363.211 361.976 362.27 362.455C361.2 363 359.8 363 357 363H70C67.1997 363 65.7996 363 64.73 362.455C63.7892 361.976 63.0243 361.211 62.545 360.27C62 359.2 62 357.8 62 355V335Z" fill="#C4C4C4"/>
<path d="M62 269C62 266.2 62 264.8 62.545 263.73C63.0243 262.789 63.7892 262.024 64.73 261.545C65.7996 261 67.1997 261 70 261H357C359.8 261 361.2 261 362.27 261.545C363.211 262.024 363.976 262.789 364.455 263.73C365 264.8 365 266.2 365 269V289C365 291.8 365 293.2 364.455 294.27C363.976 295.211 363.211 295.976 362.27 296.455C361.2 297 359.8 297 357 297H70C67.1997 297 65.7996 297 64.73 296.455C63.7892 295.976 63.0243 295.211 62.545 294.27C62 293.2 62 291.8 62 289V269Z" fill="#C4C4C4"/>
<rect x="96" y="532" width="235" height="110" rx="5" fill="#C4C4C4"/>
<rect x="136" y="424" width="154" height="40" rx="9" fill="#80A4ED" fill-opacity="0.2" stroke="#80A4ED" stroke-width="2"/>
<path d="M180.231 451H182.868L184.039 447.357H189.254L190.436 451H193.073L188.073 436.908H185.231L180.231 451ZM186.569 439.525H186.735L188.629 445.414H184.674L186.569 439.525ZM197.821 451.215C199.364 451.215 200.448 450.521 200.946 449.379H201.112V451H203.543V440.326H201.112V446.547C201.112 448.148 200.272 449.164 198.7 449.164C197.235 449.164 196.62 448.324 196.62 446.674V440.326H194.188V447.23C194.188 449.77 195.418 451.215 197.821 451.215ZM210.303 451.049C210.772 451.049 211.221 451.01 211.573 450.941V449.066C211.28 449.096 211.094 449.105 210.753 449.105C209.737 449.105 209.317 448.656 209.317 447.592V442.211H211.573V440.326H209.317V437.709H206.846V440.326H205.186V442.211H206.846V448.168C206.846 450.229 207.852 451.049 210.303 451.049ZM213.685 451H216.116V444.779C216.116 443.178 217.015 442.162 218.46 442.162C219.935 442.162 220.608 443.002 220.608 444.662V451H223.04V444.096C223.04 441.557 221.741 440.121 219.358 440.121C217.815 440.121 216.79 440.814 216.282 441.957H216.116V436.195H213.685V451ZM230.112 451.215C233.306 451.215 235.249 449.125 235.249 445.668V445.648C235.249 442.211 233.296 440.121 230.112 440.121C226.939 440.121 224.976 442.221 224.976 445.648V445.668C224.976 449.125 226.909 451.215 230.112 451.215ZM230.112 449.242C228.423 449.242 227.456 447.924 227.456 445.678V445.658C227.456 443.412 228.423 442.084 230.112 442.084C231.792 442.084 232.759 443.412 232.759 445.658V445.678C232.759 447.924 231.802 449.242 230.112 449.242ZM237.283 451H239.714V444.799C239.714 443.275 240.779 442.309 242.4 442.309C242.82 442.309 243.22 442.367 243.611 442.445V440.268C243.376 440.199 242.995 440.15 242.624 440.15C241.218 440.15 240.242 440.824 239.88 441.967H239.714V440.326H237.283V451ZM246.445 438.539C247.236 438.539 247.89 437.904 247.89 437.104C247.89 436.312 247.236 435.668 246.445 435.668C245.644 435.668 244.99 436.312 244.99 437.104C244.99 437.904 245.644 438.539 246.445 438.539ZM245.224 451H247.656V440.326H245.224V451ZM249.992 451H258.644V449.125H253.068V448.949L258.556 441.947V440.326H250.041V442.211H255.685V442.377L249.992 449.516V451ZM265.258 451.215C268.158 451.215 269.584 449.545 269.926 448.168L269.955 448.08H267.641L267.611 448.148C267.377 448.637 266.625 449.301 265.307 449.301C263.656 449.301 262.621 448.188 262.592 446.273H270.053V445.473C270.053 442.25 268.178 440.121 265.141 440.121C262.104 440.121 260.16 442.318 260.16 445.678V445.688C260.16 449.086 262.084 451.215 265.258 451.215ZM265.17 442.025C266.527 442.025 267.514 442.895 267.68 444.643H262.611C262.797 442.943 263.812 442.025 265.17 442.025Z" fill="#80A4ED" fill-opacity="0.4"/>
<path d="M164.894 443.924C166.67 443.924 168.214 442.33 168.214 440.255C168.214 438.205 166.67 436.686 164.894 436.686C163.118 436.686 161.574 438.238 161.574 440.271C161.574 442.33 163.109 443.924 164.894 443.924ZM159.673 451.61H170.099C171.41 451.61 171.875 451.237 171.875 450.506C171.875 448.365 169.194 445.41 164.886 445.41C160.586 445.41 157.905 448.365 157.905 450.506C157.905 451.237 158.37 451.61 159.673 451.61Z" fill="#80A4ED"/>
<path d="M203.17 403.105C204.061 403.105 204.781 402.643 205.062 401.887H205.168L205.221 402.027C205.402 402.73 205.947 403.059 206.773 403.059C207.09 403.059 207.441 403.018 207.611 402.959V401.705C207.523 401.729 207.406 401.746 207.301 401.746C206.955 401.746 206.773 401.576 206.773 401.025V396.549H205.062V397.539H204.957C204.629 396.848 203.938 396.443 203.129 396.443C201.523 396.443 200.51 397.709 200.51 399.76V399.771C200.51 401.852 201.518 403.105 203.17 403.105ZM203.598 401.729C202.789 401.729 202.262 400.973 202.262 399.783V399.771C202.262 398.564 202.812 397.82 203.662 397.82C204.512 397.82 205.068 398.6 205.068 399.777V399.789C205.068 400.967 204.494 401.729 203.598 401.729ZM215.129 403.217C217.22 403.217 218.486 401.506 218.486 398.775V398.764C218.486 396.027 217.22 394.328 215.129 394.328C213.043 394.328 211.771 396.027 211.771 398.764V398.775C211.771 401.506 213.043 403.217 215.129 403.217ZM215.129 401.816C214.132 401.816 213.564 400.686 213.564 398.775V398.764C213.564 396.848 214.132 395.729 215.129 395.729C216.13 395.729 216.699 396.848 216.699 398.764V398.775C216.699 400.686 216.13 401.816 215.129 401.816ZM220.651 403.146C221.254 403.146 221.682 402.707 221.682 402.127C221.682 401.547 221.254 401.113 220.651 401.113C220.053 401.113 219.62 401.547 219.62 402.127C219.62 402.707 220.053 403.146 220.651 403.146ZM227.286 403H228.974V401.447H230.075V400.029H228.974V394.545H226.489C225.364 396.279 224.216 398.154 223.144 400.059V401.447H227.286V403ZM224.737 400.076V399.982C225.499 398.617 226.407 397.146 227.228 395.887H227.321V400.076H224.737Z" fill="#FFA800"/>
<line x1="215.5" y1="412.5" x2="215.5" y2="439.5" stroke="#FFA800" stroke-linecap="round"/>
<line x1="212.5" y1="412.5" x2="218.5" y2="412.5" stroke="#FFA800" stroke-linecap="round"/>
<path d="M81.1699 451.105C82.0605 451.105 82.7812 450.643 83.0625 449.887H83.168L83.2207 450.027C83.4023 450.73 83.9473 451.059 84.7734 451.059C85.0898 451.059 85.4414 451.018 85.6113 450.959V449.705C85.5234 449.729 85.4062 449.746 85.3008 449.746C84.9551 449.746 84.7734 449.576 84.7734 449.025V444.549H83.0625V445.539H82.957C82.6289 444.848 81.9375 444.443 81.1289 444.443C79.5234 444.443 78.5098 445.709 78.5098 447.76V447.771C78.5098 449.852 79.5176 451.105 81.1699 451.105ZM81.5977 449.729C80.7891 449.729 80.2617 448.973 80.2617 447.783V447.771C80.2617 446.564 80.8125 445.82 81.6621 445.82C82.5117 445.82 83.0684 446.6 83.0684 447.777V447.789C83.0684 448.967 82.4941 449.729 81.5977 449.729ZM93.1285 451.217C95.2203 451.217 96.4859 449.506 96.4859 446.775V446.764C96.4859 444.027 95.2203 442.328 93.1285 442.328C91.0426 442.328 89.7711 444.027 89.7711 446.764V446.775C89.7711 449.506 91.0426 451.217 93.1285 451.217ZM93.1285 449.816C92.1324 449.816 91.5641 448.686 91.5641 446.775V446.764C91.5641 444.848 92.1324 443.729 93.1285 443.729C94.1305 443.729 94.6988 444.848 94.6988 446.764V446.775C94.6988 448.686 94.1305 449.816 93.1285 449.816ZM98.6508 451.146C99.2543 451.146 99.682 450.707 99.682 450.127C99.682 449.547 99.2543 449.113 98.6508 449.113C98.0531 449.113 97.6195 449.547 97.6195 450.127C97.6195 450.707 98.0531 451.146 98.6508 451.146ZM101.425 451H107.525V449.576H103.798V449.441L105.362 447.982C106.904 446.559 107.402 445.762 107.402 444.801V444.783C107.402 443.324 106.183 442.328 104.443 442.328C102.591 442.328 101.325 443.441 101.325 445.064L101.331 445.088H102.966V445.059C102.966 444.256 103.534 443.705 104.361 443.705C105.169 443.705 105.661 444.209 105.661 444.93V444.947C105.661 445.539 105.339 445.967 104.15 447.121L101.425 449.811V451Z" fill="#FFA800"/>
<line x1="114.5" y1="447.5" x2="141.5" y2="447.5" stroke="#FFA800" stroke-linecap="round"/>
<line x1="114.5" y1="450.5" x2="114.5" y2="444.5" stroke="#FFA800" stroke-linecap="round"/>
<path d="M136.477 489.139H139.723V487.879H138.117V479.342H139.723V478.082H136.477V489.139ZM141.12 487H144.917C146.721 487 147.841 486.068 147.841 484.586V484.574C147.841 483.49 147.026 482.652 145.907 482.564V482.459C146.774 482.33 147.436 481.551 147.436 480.66V480.648C147.436 479.348 146.458 478.545 144.817 478.545H141.12V487ZM144.366 479.857C145.21 479.857 145.696 480.268 145.696 480.953V480.965C145.696 481.662 145.175 482.061 144.22 482.061H142.889V479.857H144.366ZM144.425 483.227C145.468 483.227 146.036 483.648 146.036 484.434V484.445C146.036 485.248 145.485 485.682 144.466 485.682H142.889V483.227H144.425ZM150.978 487.1C151.822 487.1 152.502 486.742 152.83 486.145H152.935V487H154.623V482.594C154.623 481.217 153.656 480.408 151.945 480.408C150.322 480.408 149.255 481.158 149.121 482.289L149.115 482.342H150.697L150.709 482.318C150.843 481.938 151.236 481.721 151.851 481.721C152.554 481.721 152.935 482.037 152.935 482.594V483.127L151.377 483.221C149.771 483.314 148.875 483.994 148.875 485.154V485.166C148.875 486.338 149.748 487.1 150.978 487.1ZM150.545 485.061V485.049C150.545 484.58 150.902 484.305 151.634 484.258L152.935 484.176V484.65C152.935 485.33 152.343 485.852 151.552 485.852C150.961 485.852 150.545 485.553 150.545 485.061ZM159.09 487.135C160.772 487.135 161.78 486.232 161.955 484.826L161.961 484.791H160.379L160.368 484.814C160.215 485.459 159.799 485.793 159.096 485.793C158.182 485.793 157.672 485.072 157.672 483.766V483.754C157.672 482.465 158.176 481.75 159.096 481.75C159.829 481.75 160.256 482.16 160.368 482.787L160.373 482.799H161.967V482.781C161.815 481.34 160.801 480.408 159.09 480.408C157.069 480.408 155.932 481.633 155.932 483.754V483.766C155.932 485.91 157.075 487.135 159.09 487.135ZM163.312 487H165.023V484.838L165.491 484.34L167.372 487H169.394L166.745 483.285L169.224 480.549H167.284L165.128 483.098H165.023V478.082H163.312V487ZM172.883 489.268C174.834 489.268 176.07 488.312 176.07 486.801V480.549H174.359V481.604H174.277C173.932 480.877 173.24 480.443 172.355 480.443C170.703 480.443 169.701 481.721 169.701 483.619V483.631C169.701 485.465 170.703 486.719 172.326 486.719C173.223 486.719 173.902 486.35 174.26 485.67H174.365V486.871C174.365 487.621 173.832 488.049 172.918 488.049C172.156 488.049 171.711 487.791 171.617 487.416L171.611 487.393H169.918V487.422C170.059 488.518 171.096 489.268 172.883 489.268ZM172.906 485.406C171.98 485.406 171.453 484.686 171.453 483.625V483.613C171.453 482.553 171.986 481.832 172.906 481.832C173.826 481.832 174.383 482.553 174.383 483.613V483.625C174.383 484.686 173.832 485.406 172.906 485.406ZM177.731 487H179.442V483.391C179.442 482.477 180.057 481.92 181.03 481.92C181.294 481.92 181.557 481.961 181.815 482.02V480.525C181.645 480.479 181.405 480.443 181.177 480.443C180.339 480.443 179.753 480.854 179.548 481.551H179.442V480.549H177.731V487ZM185.621 487.135C187.607 487.135 188.802 485.881 188.802 483.777V483.766C188.802 481.68 187.589 480.408 185.621 480.408C183.652 480.408 182.439 481.686 182.439 483.766V483.777C182.439 485.875 183.634 487.135 185.621 487.135ZM185.621 485.793C184.707 485.793 184.191 485.049 184.191 483.777V483.766C184.191 482.506 184.713 481.75 185.621 481.75C186.523 481.75 187.05 482.506 187.05 483.766V483.777C187.05 485.049 186.529 485.793 185.621 485.793ZM192.28 487.135C193.2 487.135 193.856 486.707 194.149 486.004H194.254V487H195.965V480.549H194.254V484.275C194.254 485.148 193.797 485.717 192.954 485.717C192.145 485.717 191.799 485.242 191.799 484.328V480.549H190.088V484.721C190.088 486.256 190.832 487.135 192.28 487.135ZM197.632 487H199.343V483.268C199.343 482.395 199.823 481.826 200.614 481.826C201.423 481.826 201.798 482.307 201.798 483.215V487H203.509V482.828C203.509 481.287 202.736 480.408 201.3 480.408C200.38 480.408 199.741 480.848 199.448 481.545H199.343V480.549H197.632V487ZM207.42 487.1C208.328 487.1 209.014 486.695 209.348 485.998H209.453V487H211.164V478.082H209.453V481.58H209.348C209.025 480.877 208.305 480.443 207.42 480.443C205.785 480.443 204.801 481.691 204.801 483.766V483.777C204.801 485.84 205.809 487.1 207.42 487.1ZM208 485.682C207.098 485.682 206.541 484.967 206.541 483.777V483.766C206.541 482.588 207.098 481.861 208 481.861C208.902 481.861 209.471 482.588 209.471 483.771V483.783C209.471 484.967 208.908 485.682 208 485.682ZM215.702 489.139V478.082H212.456V479.342H214.055V487.879H212.456V489.139H215.702ZM136.025 503H141.557V501.541H137.795V494.545H136.025V503ZM143.815 495.559C144.343 495.559 144.776 495.137 144.776 494.609C144.776 494.076 144.343 493.654 143.815 493.654C143.288 493.654 142.848 494.076 142.848 494.609C142.848 495.137 143.288 495.559 143.815 495.559ZM142.954 503H144.665V496.549H142.954V503ZM149.015 503.023C149.343 503.023 149.66 502.988 149.871 502.947V501.676C149.707 501.693 149.589 501.705 149.367 501.705C148.787 501.705 148.541 501.447 148.541 500.867V497.838H149.871V496.549H148.541V495.008H146.812V496.549H145.816V497.838H146.812V501.26C146.812 502.514 147.445 503.023 149.015 503.023ZM153.981 503.023C154.309 503.023 154.625 502.988 154.836 502.947V501.676C154.672 501.693 154.555 501.705 154.332 501.705C153.752 501.705 153.506 501.447 153.506 500.867V497.838H154.836V496.549H153.506V495.008H151.778V496.549H150.782V497.838H151.778V501.26C151.778 502.514 152.411 503.023 153.981 503.023ZM156.269 503H157.98V494.082H156.269V503ZM162.535 503.135C164.422 503.135 165.254 502.045 165.453 501.236L165.465 501.178H163.871L163.854 501.213C163.736 501.459 163.32 501.857 162.57 501.857C161.662 501.857 161.094 501.242 161.076 500.182H165.518V499.648C165.518 497.697 164.346 496.408 162.465 496.408C160.584 496.408 159.383 497.727 159.383 499.777V499.783C159.383 501.852 160.572 503.135 162.535 503.135ZM162.494 497.691C163.238 497.691 163.771 498.172 163.877 499.109H161.094C161.199 498.195 161.75 497.691 162.494 497.691ZM170.082 503H173.879C175.683 503 176.802 502.068 176.802 500.586V500.574C176.802 499.49 175.988 498.652 174.869 498.564V498.459C175.736 498.33 176.398 497.551 176.398 496.66V496.648C176.398 495.348 175.42 494.545 173.779 494.545H170.082V503ZM173.328 495.857C174.171 495.857 174.658 496.268 174.658 496.953V496.965C174.658 497.662 174.136 498.061 173.181 498.061H171.851V495.857H173.328ZM173.386 499.227C174.429 499.227 174.998 499.648 174.998 500.434V500.445C174.998 501.248 174.447 501.682 173.427 501.682H171.851V499.227H173.386ZM181.047 503.135C183.034 503.135 184.229 501.881 184.229 499.777V499.766C184.229 497.68 183.016 496.408 181.047 496.408C179.079 496.408 177.866 497.686 177.866 499.766V499.777C177.866 501.875 179.061 503.135 181.047 503.135ZM181.047 501.793C180.133 501.793 179.618 501.049 179.618 499.777V499.766C179.618 498.506 180.139 497.75 181.047 497.75C181.95 497.75 182.477 498.506 182.477 499.766V499.777C182.477 501.049 181.955 501.793 181.047 501.793ZM186.071 505.273C187.665 505.273 188.515 504.699 189.089 502.994L191.286 496.549H189.482L188.128 501.436H188.011L186.657 496.549H184.777L187.044 503L186.986 503.246C186.862 503.75 186.511 503.984 185.902 503.984C185.743 503.984 185.573 503.979 185.456 503.967V505.256C185.655 505.268 185.872 505.273 186.071 505.273ZM195.639 503H199.436C201.241 503 202.36 502.068 202.36 500.586V500.574C202.36 499.49 201.546 498.652 200.427 498.564V498.459C201.294 498.33 201.956 497.551 201.956 496.66V496.648C201.956 495.348 200.977 494.545 199.337 494.545H195.639V503ZM198.886 495.857C199.729 495.857 200.216 496.268 200.216 496.953V496.965C200.216 497.662 199.694 498.061 198.739 498.061H197.409V495.857H198.886ZM198.944 499.227C199.987 499.227 200.555 499.648 200.555 500.434V500.445C200.555 501.248 200.005 501.682 198.985 501.682H197.409V499.227H198.944ZM203.798 503H205.509V494.082H203.798V503ZM209.362 503.135C210.282 503.135 210.938 502.707 211.231 502.004H211.336V503H213.047V496.549H211.336V500.275C211.336 501.148 210.879 501.717 210.036 501.717C209.227 501.717 208.881 501.242 208.881 500.328V496.549H207.17V500.721C207.17 502.256 207.914 503.135 209.362 503.135ZM217.55 503.135C219.437 503.135 220.269 502.045 220.468 501.236L220.48 501.178H218.886L218.868 501.213C218.751 501.459 218.335 501.857 217.585 501.857C216.677 501.857 216.109 501.242 216.091 500.182H220.532V499.648C220.532 497.697 219.361 496.408 217.48 496.408C215.599 496.408 214.398 497.727 214.398 499.777V499.783C214.398 501.852 215.587 503.135 217.55 503.135ZM217.509 497.691C218.253 497.691 218.786 498.172 218.892 499.109H216.109C216.214 498.195 216.765 497.691 217.509 497.691Z" fill="#FFA800"/>
</g>
<defs>
<filter id="filter0_d" x="0" y="0" width="426" height="717" filterUnits="userSpaceOnUse" color-interpolation-filters="sRGB">
<feFlood flood-opacity="0" result="BackgroundImageFix"/>
<feColorMatrix in="SourceAlpha" type="matrix" values="0 0 0 0 0 0 0 0 0 0 0 0 0 0 0 0 0 0 127 0"/>
<feMorphology radius="5" operator="dilate" in="SourceAlpha" result="effect1_dropShadow"/>
<feOffset/>
<feGaussianBlur stdDeviation="10"/>
<feColorMatrix type="matrix" values="0 0 0 0 0 0 0 0 0 0 0 0 0 0 0 0 0 0 0.15 0"/>
<feBlend mode="normal" in2="BackgroundImageFix" result="effect1_dropShadow"/>
<feBlend mode="normal" in="SourceGraphic" in2="effect1_dropShadow" result="shape"/>
</filter>
</defs>
</svg>
