<svg width="426" height="717" viewBox="0 0 426 717" fill="none" xmlns="http://www.w3.org/2000/svg">
<g filter="url(#filter0_d)">
<rect width="375" height="667" transform="translate(26 25)" fill="white"/>
<path d="M192.279 30.334C190.445 30.334 189.139 31.5879 189.139 33.3047V33.3164C189.139 34.9219 190.275 36.1055 191.898 36.1055C193.059 36.1055 193.797 35.5137 194.107 34.8457H194.225C194.225 34.9102 194.219 34.9746 194.219 35.0391C194.154 36.6562 193.586 37.9688 192.244 37.9688C191.5 37.9688 190.979 37.582 190.756 36.9902L190.738 36.9316H189.25L189.262 36.9961C189.531 38.291 190.691 39.2109 192.244 39.2109C194.371 39.2109 195.654 37.5234 195.654 34.6758V34.6641C195.654 31.6172 194.084 30.334 192.279 30.334ZM192.273 34.9453C191.312 34.9453 190.615 34.2422 190.615 33.2637V33.252C190.615 32.3086 191.359 31.5645 192.291 31.5645C193.229 31.5645 193.961 32.3203 193.961 33.2871V33.2988C193.961 34.2539 193.229 34.9453 192.273 34.9453ZM198.314 33.5215C198.854 33.5215 199.246 33.1113 199.246 32.5957C199.246 32.0742 198.854 31.6699 198.314 31.6699C197.781 31.6699 197.383 32.0742 197.383 32.5957C197.383 33.1113 197.781 33.5215 198.314 33.5215ZM198.314 37.8691C198.854 37.8691 199.246 37.4648 199.246 36.9434C199.246 36.4219 198.854 36.0176 198.314 36.0176C197.781 36.0176 197.383 36.4219 197.383 36.9434C197.383 37.4648 197.781 37.8691 198.314 37.8691ZM205.076 39H206.523V37.377H207.66V36.1289H206.523V30.5449H204.385C203.236 32.291 202.035 34.2363 200.939 36.1406V37.377H205.076V39ZM202.346 36.1641V36.0762C203.166 34.6406 204.145 33.0762 205.012 31.752H205.1V36.1641H202.346ZM211.164 39H212.676V30.5449H211.17L208.961 32.0977V33.5215L211.064 32.0332H211.164V39ZM217.756 39H219.338L220.041 36.8145H223.17L223.879 39H225.461L222.461 30.5449H220.756L217.756 39ZM221.559 32.1152H221.658L222.795 35.6484H220.422L221.559 32.1152ZM226.914 39H228.279V32.9883H228.379L230.723 39H231.754L234.098 32.9883H234.203V39H235.562V30.5449H233.828L231.291 37.0488H231.191L228.648 30.5449H226.914V39Z" fill="black"/>
<path opacity="0.35" fill-rule="evenodd" clip-rule="evenodd" d="M370.5 29.5H389.5C390.881 29.5 392 30.6193 392 32V38.5C392 39.8807 390.881 41 389.5 41H370.5C369.119 41 368 39.8807 368 38.5V32C368 30.6193 369.119 29.5 370.5 29.5ZM370.5 30.5C369.672 30.5 369 31.1716 369 32V38.5C369 39.3284 369.672 40 370.5 40H389.5C390.328 40 391 39.3284 391 38.5V32C391 31.1716 390.328 30.5 389.5 30.5H370.5Z" fill="black"/>
<path opacity="0.4" fill-rule="evenodd" clip-rule="evenodd" d="M393 32.7998C393.89 33.255 394.5 34.1813 394.5 35.2499C394.5 36.3186 393.89 37.2449 393 37.7001V32.7998Z" fill="black"/>
<path fill-rule="evenodd" clip-rule="evenodd" d="M371 31.5H389C389.552 31.5 390 31.9477 390 32.5V38C390 38.5523 389.552 39 389 39H371C370.448 39 370 38.5523 370 38V32.5C370 31.9477 370.448 31.5 371 31.5Z" fill="black"/>
<path d="M336.219 39.3H337.273V30.8449H336.225L333.975 32.4621V33.5754L336.125 32.0168H336.219V39.3ZM342.547 39.4992C344.416 39.4992 345.541 37.7941 345.541 35.0754V35.0637C345.541 32.3449 344.416 30.6457 342.547 30.6457C340.678 30.6457 339.564 32.3449 339.564 35.0637V35.0754C339.564 37.7941 340.678 39.4992 342.547 39.4992ZM342.547 38.5793C341.334 38.5793 340.625 37.2316 340.625 35.0754V35.0637C340.625 32.9074 341.334 31.5715 342.547 31.5715C343.76 31.5715 344.48 32.9074 344.48 35.0637V35.0754C344.48 37.2316 343.76 38.5793 342.547 38.5793ZM350.105 39.4992C351.975 39.4992 353.1 37.7941 353.1 35.0754V35.0637C353.1 32.3449 351.975 30.6457 350.105 30.6457C348.236 30.6457 347.123 32.3449 347.123 35.0637V35.0754C347.123 37.7941 348.236 39.4992 350.105 39.4992ZM350.105 38.5793C348.893 38.5793 348.184 37.2316 348.184 35.0754V35.0637C348.184 32.9074 348.893 31.5715 350.105 31.5715C351.318 31.5715 352.039 32.9074 352.039 35.0637V35.0754C352.039 37.2316 351.318 38.5793 350.105 38.5793ZM356.41 35.2922C357.488 35.2922 358.145 34.4133 358.145 33.0129V33.007C358.145 31.6066 357.488 30.7336 356.41 30.7336C355.332 30.7336 354.682 31.6066 354.682 33.007V33.0129C354.682 34.4133 355.332 35.2922 356.41 35.2922ZM357.043 39.3L362.797 30.8449H361.848L356.094 39.3H357.043ZM356.41 34.5949C355.83 34.5949 355.496 34.0031 355.496 33.0129V33.007C355.496 32.0168 355.83 31.4308 356.41 31.4308C356.99 31.4308 357.33 32.0168 357.33 33.007V33.0129C357.33 34.0031 356.99 34.5949 356.41 34.5949ZM362.469 39.4113C363.547 39.4113 364.203 38.5324 364.203 37.132V37.1262C364.203 35.7258 363.547 34.8527 362.469 34.8527C361.391 34.8527 360.74 35.7258 360.74 37.1262V37.132C360.74 38.5324 361.391 39.4113 362.469 39.4113ZM362.469 38.7141C361.889 38.7141 361.555 38.1223 361.555 37.132V37.1262C361.555 36.1359 361.889 35.55 362.469 35.55C363.049 35.55 363.389 36.1359 363.389 37.1262V37.132C363.389 38.1223 363.049 38.7141 362.469 38.7141Z" fill="black"/>
<path fill-rule="evenodd" clip-rule="evenodd" d="M45.5 30H46.5C47.0523 30 47.5 30.4477 47.5 31V39C47.5 39.5523 47.0523 40 46.5 40H45.5C44.9477 40 44.5 39.5523 44.5 39V31C44.5 30.4477 44.9477 30 45.5 30Z" fill="black"/>
<path d="M42 32H41C40.4477 32 40 32.4477 40 33V39C40 39.5523 40.4477 40 41 40H42C42.5523 40 43 39.5523 43 39V33C43 32.4477 42.5523 32 42 32Z" fill="black"/>
<path d="M36.5 34H37.5C38.0523 34 38.5 34.4477 38.5 35V39C38.5 39.5523 38.0523 40 37.5 40H36.5C35.9477 40 35.5 39.5523 35.5 39V35C35.5 34.4477 35.9477 34 36.5 34Z" fill="black"/>
<path d="M32 35.5H33C33.5523 35.5 34 35.9477 34 36.5V39C34 39.5523 33.5523 40 33 40H32C31.4477 40 31 39.5523 31 39V36.5C31 35.9477 31.4477 35.5 32 35.5Z" fill="black"/>
<path d="M55.0781 39H56.1328V35.6543H58.2129L60.0234 39H61.2598L59.3027 35.4902C60.3633 35.1562 61.002 34.2422 61.002 33.0703V33.0586C61.002 31.541 59.9355 30.5449 58.3066 30.5449H55.0781V39ZM56.1328 34.7168V31.4824H58.166C59.2559 31.4824 59.9121 32.0859 59.9121 33.0938V33.1055C59.9121 34.1367 59.2969 34.7168 58.2129 34.7168H56.1328ZM65.6395 39.1992C67.5262 39.1992 68.7625 38.2148 68.7625 36.6328V36.627C68.7625 35.4082 68.0652 34.6992 66.3016 34.3066L65.3641 34.0957C64.2156 33.8438 63.7527 33.3867 63.7527 32.7129V32.707C63.7527 31.8223 64.5672 31.3242 65.6219 31.3184C66.7234 31.3125 67.4266 31.8633 67.5437 32.6074L67.5555 32.6836H68.6102L68.6043 32.6016C68.5164 31.3418 67.3387 30.3457 65.6512 30.3457C63.9051 30.3457 62.6805 31.3359 62.6746 32.7363V32.7422C62.6746 33.9668 63.407 34.7461 65.1004 35.1211L66.0379 35.3262C67.198 35.584 67.6844 36.0645 67.6844 36.7676V36.7734C67.6844 37.6348 66.8465 38.2266 65.698 38.2266C64.4793 38.2266 63.6004 37.6934 63.5242 36.8496L63.5184 36.7852H62.4637L62.4695 36.8496C62.5926 38.2266 63.7879 39.1992 65.6395 39.1992ZM73.2418 39.1992C75.1285 39.1992 76.3648 38.2148 76.3648 36.6328V36.627C76.3648 35.4082 75.6676 34.6992 73.9039 34.3066L72.9664 34.0957C71.818 33.8438 71.3551 33.3867 71.3551 32.7129V32.707C71.3551 31.8223 72.1695 31.3242 73.2242 31.3184C74.3258 31.3125 75.0289 31.8633 75.1461 32.6074L75.1578 32.6836H76.2125L76.2066 32.6016C76.1187 31.3418 74.941 30.3457 73.2535 30.3457C71.5074 30.3457 70.2828 31.3359 70.277 32.7363V32.7422C70.277 33.9668 71.0094 34.7461 72.7027 35.1211L73.6402 35.3262C74.8004 35.584 75.2867 36.0645 75.2867 36.7676V36.7734C75.2867 37.6348 74.4488 38.2266 73.3004 38.2266C72.0816 38.2266 71.2027 37.6934 71.1266 36.8496L71.1207 36.7852H70.066L70.0719 36.8496C70.1949 38.2266 71.3902 39.1992 73.2418 39.1992ZM80.5277 39.1113C82.0453 39.1113 82.8949 38.2969 83.1527 37.1543L83.1645 37.0898L82.1566 37.0957L82.1449 37.1309C81.9105 37.834 81.3715 38.209 80.5219 38.209C79.3969 38.209 78.6703 37.2773 78.6703 35.8242V35.8125C78.6703 34.3887 79.3852 33.4746 80.5219 33.4746C81.4301 33.4746 81.9926 33.9785 82.1508 34.5996L82.1566 34.6172H83.1703L83.1645 34.582C82.977 33.457 82.057 32.5723 80.5219 32.5723C78.7523 32.5723 77.6273 33.8496 77.6273 35.8125V35.8242C77.6273 37.8281 78.7582 39.1113 80.5277 39.1113ZM84.6672 39H85.6867V35.2617C85.6867 34.1543 86.3254 33.4746 87.3332 33.4746C88.341 33.4746 88.8098 34.0195 88.8098 35.1562V39H89.8293V34.9102C89.8293 33.4102 89.0383 32.5723 87.6203 32.5723C86.6887 32.5723 86.0969 32.9648 85.7805 33.6328H85.6867V30.1758H84.6672V39ZM94.2207 39.1113C96.0195 39.1113 97.1328 37.8691 97.1328 35.8477V35.8359C97.1328 33.8086 96.0195 32.5723 94.2207 32.5723C92.4219 32.5723 91.3086 33.8086 91.3086 35.8359V35.8477C91.3086 37.8691 92.4219 39.1113 94.2207 39.1113ZM94.2207 38.209C93.0254 38.209 92.3516 37.3359 92.3516 35.8477V35.8359C92.3516 34.3418 93.0254 33.4746 94.2207 33.4746C95.416 33.4746 96.0898 34.3418 96.0898 35.8359V35.8477C96.0898 37.3359 95.416 38.209 94.2207 38.209ZM101.261 39.1113C103.059 39.1113 104.173 37.8691 104.173 35.8477V35.8359C104.173 33.8086 103.059 32.5723 101.261 32.5723C99.4617 32.5723 98.3484 33.8086 98.3484 35.8359V35.8477C98.3484 37.8691 99.4617 39.1113 101.261 39.1113ZM101.261 38.209C100.065 38.209 99.3914 37.3359 99.3914 35.8477V35.8359C99.3914 34.3418 100.065 33.4746 101.261 33.4746C102.456 33.4746 103.13 34.3418 103.13 35.8359V35.8477C103.13 37.3359 102.456 38.209 101.261 38.209ZM105.763 39H106.783V30.1758H105.763V39Z" fill="black"/>
<path fill-rule="evenodd" clip-rule="evenodd" d="M125.983 32.5229C124.072 30.8906 121.657 30 119.133 30C116.601 30 114.18 30.8959 112.266 32.5371L112.104 32.6765C111.972 32.7892 111.965 32.9895 112.087 33.1118L113.214 34.2356C113.324 34.3447 113.498 34.3521 113.617 34.2527L113.756 34.1354C115.263 32.8694 117.155 32.1804 119.133 32.1804C121.104 32.1804 122.989 32.8647 124.494 34.1228L124.634 34.2395C124.752 34.3385 124.926 34.3308 125.036 34.2219L126.163 33.098C126.285 32.9756 126.278 32.7749 126.146 32.6623L125.983 32.5229ZM119.133 33.4698C120.724 33.4698 122.251 33.9975 123.495 34.9749L123.671 35.113C123.811 35.2231 123.824 35.4306 123.697 35.5564L122.567 36.6841C122.462 36.7884 122.297 36.8003 122.178 36.7122L122.04 36.6098C121.2 35.9852 120.186 35.6501 119.133 35.6501C118.073 35.6501 117.053 35.9893 116.21 36.6211L116.072 36.7245C115.954 36.8133 115.787 36.8016 115.683 36.697L114.552 35.5698C114.426 35.4442 114.438 35.2373 114.578 35.1269L114.753 34.9887C116 34.0027 117.534 33.4698 119.133 33.4698ZM119.133 36.9396C119.772 36.9396 120.394 37.1076 120.941 37.4281L121.163 37.5579C121.331 37.6563 121.361 37.8867 121.223 38.0242L119.329 39.913C119.212 40.029 119.024 40.029 118.907 39.913L117.026 38.0363C116.888 37.8994 116.917 37.6702 117.084 37.5711L117.303 37.4406C117.856 37.1121 118.485 36.9396 119.133 36.9396Z" fill="black"/>
<path d="M62 335C62 332.2 62 330.8 62.545 329.73C63.0243 328.789 63.7892 328.024 64.73 327.545C65.7996 327 67.1997 327 70 327H357C359.8 327 361.2 327 362.27 327.545C363.211 328.024 363.976 328.789 364.455 329.73C365 330.8 365 332.2 365 335V355C365 357.8 365 359.2 364.455 360.27C363.976 361.211 363.211 361.976 362.27 362.455C361.2 363 359.8 363 357 363H70C67.1997 363 65.7996 363 64.73 362.455C63.7892 361.976 63.0243 361.211 62.545 360.27C62 359.2 62 357.8 62 355V335Z" fill="#C4C4C4"/>
<path d="M62 269C62 266.2 62 264.8 62.545 263.73C63.0243 262.789 63.7892 262.024 64.73 261.545C65.7996 261 67.1997 261 70 261H357C359.8 261 361.2 261 362.27 261.545C363.211 262.024 363.976 262.789 364.455 263.73C365 264.8 365 266.2 365 269V289C365 291.8 365 293.2 364.455 294.27C363.976 295.211 363.211 295.976 362.27 296.455C361.2 297 359.8 297 357 297H70C67.1997 297 65.7996 297 64.73 296.455C63.7892 295.976 63.0243 295.211 62.545 294.27C62 293.2 62 291.8 62 289V269Z" fill="#C4C4C4"/>
<rect x="96" y="532" width="235" height="110" rx="5" fill="#C4C4C4"/>
<path d="M136.109 166H141.418V156.807H145.672L150.4 166H156.412L151.068 156.016C153.881 154.908 155.656 152.131 155.656 148.791V148.756C155.656 143.658 152.281 140.635 146.586 140.635H136.109V166ZM141.418 152.781V144.783H145.936C148.555 144.783 150.225 146.33 150.225 148.756V148.791C150.225 151.287 148.643 152.781 146.006 152.781H141.418ZM168.386 166.439C174.784 166.439 178.616 163.346 178.616 158.477V158.459C178.616 154.469 176.225 152.307 170.917 151.252L168.227 150.707C165.309 150.127 164.009 149.195 164.009 147.596V147.578C164.009 145.768 165.643 144.52 168.368 144.502C170.987 144.502 172.815 145.715 173.079 147.701L173.096 147.912H178.106L178.089 147.578C177.843 143.131 174.239 140.195 168.368 140.195C162.743 140.195 158.7 143.254 158.7 147.895V147.912C158.7 151.727 161.231 154.117 166.241 155.119L168.913 155.646C172.059 156.297 173.307 157.158 173.307 158.881V158.898C173.307 160.832 171.462 162.115 168.526 162.115C165.626 162.115 163.534 160.885 163.2 158.916L163.165 158.723H158.155L158.173 159.004C158.471 163.68 162.356 166.439 168.386 166.439ZM191.082 166.439C197.48 166.439 201.312 163.346 201.312 158.477V158.459C201.312 154.469 198.921 152.307 193.613 151.252L190.923 150.707C188.005 150.127 186.705 149.195 186.705 147.596V147.578C186.705 145.768 188.339 144.52 191.064 144.502C193.683 144.502 195.511 145.715 195.775 147.701L195.793 147.912H200.802L200.785 147.578C200.539 143.131 196.935 140.195 191.064 140.195C185.439 140.195 181.396 143.254 181.396 147.895V147.912C181.396 151.727 183.927 154.117 188.937 155.119L191.609 155.646C194.755 156.297 196.004 157.158 196.004 158.881V158.898C196.004 160.832 194.158 162.115 191.222 162.115C188.322 162.115 186.23 160.885 185.896 158.916L185.861 158.723H180.851L180.869 159.004C181.168 163.68 185.052 166.439 191.082 166.439ZM212.688 166.387C217.715 166.387 220.967 163.258 221.213 159.145V159.039H216.432L216.414 159.197C216.063 161.096 214.78 162.361 212.723 162.361C210.192 162.361 208.61 160.27 208.61 156.578V156.561C208.61 152.957 210.192 150.795 212.705 150.795C214.832 150.795 216.08 152.166 216.397 153.959L216.432 154.117H221.196V153.994C221.002 149.916 217.75 146.77 212.635 146.77C206.993 146.77 203.389 150.514 203.389 156.543V156.561C203.389 162.643 206.94 166.387 212.688 166.387ZM223.765 166H228.898V155.207C228.898 152.746 230.357 151.023 232.624 151.023C234.962 151.023 236.263 152.588 236.263 155.225V166H241.396V154.17C241.396 149.617 238.864 146.77 234.786 146.77C231.956 146.77 229.97 148.07 229.003 150.408H228.898V140.635H223.765V166ZM253.299 166.387C258.994 166.387 262.633 162.73 262.633 156.578V156.543C262.633 150.443 258.924 146.77 253.281 146.77C247.656 146.77 243.965 150.479 243.965 156.543V156.578C243.965 162.713 247.568 166.387 253.299 166.387ZM253.316 162.361C250.785 162.361 249.186 160.27 249.186 156.578V156.543C249.186 152.904 250.803 150.795 253.281 150.795C255.777 150.795 257.412 152.904 257.412 156.543V156.578C257.412 160.252 255.812 162.361 253.316 162.361ZM273.886 166.387C279.581 166.387 283.22 162.73 283.22 156.578V156.543C283.22 150.443 279.511 146.77 273.868 146.77C268.243 146.77 264.552 150.479 264.552 156.543V156.578C264.552 162.713 268.155 166.387 273.886 166.387ZM273.903 162.361C271.372 162.361 269.772 160.27 269.772 156.578V156.543C269.772 152.904 271.389 150.795 273.868 150.795C276.364 150.795 277.999 152.904 277.999 156.543V156.578C277.999 160.252 276.399 162.361 273.903 162.361ZM285.947 166H291.08V140.635H285.947V166Z" fill="black"/>
<rect x="135" y="423" width="156" height="42" rx="5" fill="#C4C4C4"/>
<line x1="212.5" y1="53.5" x2="212.5" y2="131.5" stroke="#FFA800" stroke-linecap="round"/>
<line x1="212.5" y1="177.5" x2="212.5" y2="255.5" stroke="#FFA800" stroke-linecap="round"/>
<path d="M223.477 190.139H226.723V188.879H225.117V180.342H226.723V179.082H223.477V190.139ZM230.171 188H231.94V181.004H234.477V179.545H227.634V181.004H230.171V188ZM236.578 180.559C237.105 180.559 237.539 180.137 237.539 179.609C237.539 179.076 237.105 178.654 236.578 178.654C236.05 178.654 235.611 179.076 235.611 179.609C235.611 180.137 236.05 180.559 236.578 180.559ZM235.716 188H237.427V181.549H235.716V188ZM241.778 188.023C242.106 188.023 242.422 187.988 242.633 187.947V186.676C242.469 186.693 242.352 186.705 242.129 186.705C241.549 186.705 241.303 186.447 241.303 185.867V182.838H242.633V181.549H241.303V180.008H239.575V181.549H238.579V182.838H239.575V186.26C239.575 187.514 240.207 188.023 241.778 188.023ZM244.066 188H245.777V179.082H244.066V188ZM250.332 188.135C252.219 188.135 253.051 187.045 253.25 186.236L253.262 186.178H251.668L251.65 186.213C251.533 186.459 251.117 186.857 250.367 186.857C249.459 186.857 248.891 186.242 248.873 185.182H253.314V184.648C253.314 182.697 252.143 181.408 250.262 181.408C248.381 181.408 247.18 182.727 247.18 184.777V184.783C247.18 186.852 248.369 188.135 250.332 188.135ZM250.291 182.691C251.035 182.691 251.568 183.172 251.674 184.109H248.891C248.996 183.195 249.547 182.691 250.291 182.691ZM257.483 190.139V179.082H254.237V180.342H255.837V188.879H254.237V190.139H257.483ZM226.049 204.217C228.158 204.217 229.459 203.156 229.459 201.48V201.475C229.459 200.156 228.68 199.441 226.893 199.072L225.996 198.891C225 198.686 224.59 198.357 224.59 197.807V197.801C224.59 197.168 225.17 196.77 226.043 196.764C226.934 196.764 227.52 197.186 227.619 197.789L227.631 197.859H229.295L229.289 197.783C229.178 196.371 228.018 195.328 226.043 195.328C224.168 195.328 222.82 196.365 222.82 197.936V197.941C222.82 199.225 223.576 200.045 225.334 200.402L226.225 200.584C227.273 200.801 227.689 201.111 227.689 201.668V201.674C227.689 202.324 227.039 202.775 226.096 202.775C225.105 202.775 224.42 202.348 224.355 201.715L224.35 201.656H222.645L222.65 201.75C222.75 203.25 224.027 204.217 226.049 204.217ZM231.085 204H232.854V200.672H236.294V199.271H232.854V197.004H236.622V195.545H231.085V204ZM241.25 204H243.02V201.334H244.737C246.518 201.334 247.707 200.186 247.707 198.445V198.434C247.707 196.693 246.518 195.545 244.737 195.545H241.25V204ZM244.303 196.945C245.317 196.945 245.914 197.479 245.914 198.439V198.451C245.914 199.412 245.317 199.951 244.303 199.951H243.02V196.945H244.303ZM249.116 204H250.827V200.391C250.827 199.477 251.443 198.92 252.415 198.92C252.679 198.92 252.943 198.961 253.2 199.02V197.525C253.03 197.479 252.79 197.443 252.562 197.443C251.724 197.443 251.138 197.854 250.933 198.551H250.827V197.549H249.116V204ZM257.006 204.135C258.992 204.135 260.188 202.881 260.188 200.777V200.766C260.188 198.68 258.975 197.408 257.006 197.408C255.037 197.408 253.824 198.686 253.824 200.766V200.777C253.824 202.875 255.02 204.135 257.006 204.135ZM257.006 202.793C256.092 202.793 255.576 202.049 255.576 200.777V200.766C255.576 199.506 256.098 198.75 257.006 198.75C257.908 198.75 258.436 199.506 258.436 200.766V200.777C258.436 202.049 257.914 202.793 257.006 202.793ZM264.746 204H268.074C270.605 204 272.041 202.453 272.041 199.723V199.711C272.041 197.062 270.588 195.545 268.074 195.545H264.746V204ZM266.515 202.541V197.004H267.793C269.328 197.004 270.236 198 270.236 199.74V199.752C270.236 201.557 269.357 202.541 267.793 202.541H266.515ZM274.375 196.559C274.903 196.559 275.336 196.137 275.336 195.609C275.336 195.076 274.903 194.654 274.375 194.654C273.848 194.654 273.409 195.076 273.409 195.609C273.409 196.137 273.848 196.559 274.375 196.559ZM273.514 204H275.225V197.549H273.514V204ZM279.464 204.135C281.116 204.135 282.294 203.303 282.294 202.025V202.02C282.294 201.064 281.691 200.525 280.402 200.25L279.329 200.021C278.661 199.875 278.421 199.676 278.421 199.33V199.324C278.421 198.891 278.843 198.615 279.435 198.615C280.073 198.615 280.454 198.938 280.548 199.283L280.554 199.312H282.142V199.289C282.071 198.252 281.134 197.408 279.441 197.408C277.829 197.408 276.751 198.217 276.751 199.43V199.436C276.751 200.402 277.361 201.006 278.591 201.27L279.669 201.498C280.325 201.645 280.583 201.861 280.583 202.207V202.219C280.583 202.646 280.138 202.928 279.482 202.928C278.808 202.928 278.415 202.641 278.28 202.242L278.269 202.219H276.587L276.593 202.242C276.716 203.35 277.712 204.135 279.464 204.135ZM283.645 206.139H285.355V202.969H285.461C285.789 203.672 286.51 204.1 287.395 204.1C289.029 204.1 290.014 202.852 290.014 200.777V200.766C290.014 198.709 289.006 197.443 287.395 197.443C286.48 197.443 285.795 197.854 285.461 198.545H285.355V197.549H283.645V206.139ZM286.809 202.682C285.912 202.682 285.338 201.961 285.338 200.777V200.766C285.338 199.582 285.906 198.861 286.809 198.861C287.717 198.861 288.273 199.582 288.273 200.766V200.777C288.273 201.961 287.711 202.682 286.809 202.682ZM291.423 204H293.134V195.082H291.423V204ZM296.611 204.1C297.455 204.1 298.134 203.742 298.463 203.145H298.568V204H300.255V199.594C300.255 198.217 299.289 197.408 297.578 197.408C295.955 197.408 294.888 198.158 294.754 199.289L294.748 199.342H296.33L296.341 199.318C296.476 198.938 296.869 198.721 297.484 198.721C298.187 198.721 298.568 199.037 298.568 199.594V200.127L297.009 200.221C295.404 200.314 294.507 200.994 294.507 202.154V202.166C294.507 203.338 295.38 204.1 296.611 204.1ZM296.177 202.061V202.049C296.177 201.58 296.535 201.305 297.267 201.258L298.568 201.176V201.65C298.568 202.33 297.976 202.852 297.185 202.852C296.593 202.852 296.177 202.553 296.177 202.061ZM302.473 206.273C304.067 206.273 304.916 205.699 305.491 203.994L307.688 197.549H305.883L304.53 202.436H304.412L303.059 197.549H301.178L303.446 204L303.387 204.246C303.264 204.75 302.912 204.984 302.303 204.984C302.145 204.984 301.975 204.979 301.858 204.967V206.256C302.057 206.268 302.274 206.273 302.473 206.273ZM226.014 220.188C227.988 220.188 229.307 219.15 229.307 217.615V217.604C229.307 216.455 228.486 215.729 227.227 215.611V215.576C228.217 215.371 228.99 214.686 228.99 213.631V213.619C228.99 212.271 227.818 211.357 226.002 211.357C224.227 211.357 223.037 212.342 222.914 213.854L222.908 213.924H224.537L224.543 213.871C224.613 213.168 225.17 212.717 226.002 212.717C226.834 212.717 227.32 213.15 227.32 213.854V213.865C227.32 214.551 226.746 215.02 225.855 215.02H224.912V216.279H225.879C226.904 216.279 227.508 216.725 227.508 217.533V217.545C227.508 218.26 226.916 218.764 226.014 218.764C225.1 218.764 224.496 218.295 224.42 217.639L224.414 217.574H222.721L222.727 217.65C222.844 219.162 224.104 220.188 226.014 220.188ZM234.143 220.217C236.048 220.217 237.384 218.945 237.384 217.217V217.205C237.384 215.605 236.27 214.434 234.624 214.434C233.458 214.434 232.749 215.014 232.444 215.67H232.327C232.327 215.605 232.327 215.541 232.333 215.477C232.397 213.941 232.93 212.74 234.155 212.74C234.841 212.74 235.321 213.098 235.52 213.625L235.544 213.678H237.272L237.261 213.619C237.003 212.295 235.784 211.328 234.149 211.328C231.987 211.328 230.651 213.01 230.651 215.84V215.852C230.651 218.828 232.18 220.217 234.143 220.217ZM232.591 217.24V217.234C232.591 216.361 233.27 215.734 234.143 215.734C235.028 215.734 235.673 216.379 235.673 217.264V217.275C235.673 218.143 234.987 218.816 234.132 218.816C233.27 218.816 232.591 218.131 232.591 217.24ZM238.927 222.139H240.638V218.969H240.744C241.072 219.672 241.793 220.1 242.677 220.1C244.312 220.1 245.296 218.852 245.296 216.777V216.766C245.296 214.709 244.289 213.443 242.677 213.443C241.763 213.443 241.078 213.854 240.744 214.545H240.638V213.549H238.927V222.139ZM242.091 218.682C241.195 218.682 240.621 217.961 240.621 216.777V216.766C240.621 215.582 241.189 214.861 242.091 214.861C243 214.861 243.556 215.582 243.556 216.766V216.777C243.556 217.961 242.994 218.682 242.091 218.682ZM249.325 220.023C249.653 220.023 249.969 219.988 250.18 219.947V218.676C250.016 218.693 249.899 218.705 249.676 218.705C249.096 218.705 248.85 218.447 248.85 217.867V214.838H250.18V213.549H248.85V212.008H247.121V213.549H246.125V214.838H247.121V218.26C247.121 219.514 247.754 220.023 249.325 220.023ZM223.025 236H226.822C228.627 236 229.746 235.068 229.746 233.586V233.574C229.746 232.49 228.932 231.652 227.812 231.564V231.459C228.68 231.33 229.342 230.551 229.342 229.66V229.648C229.342 228.348 228.363 227.545 226.723 227.545H223.025V236ZM226.271 228.857C227.115 228.857 227.602 229.268 227.602 229.953V229.965C227.602 230.662 227.08 231.061 226.125 231.061H224.795V228.857H226.271ZM226.33 232.227C227.373 232.227 227.941 232.648 227.941 233.434V233.445C227.941 234.248 227.391 234.682 226.371 234.682H224.795V232.227H226.33ZM233.991 236.135C235.977 236.135 237.173 234.881 237.173 232.777V232.766C237.173 230.68 235.96 229.408 233.991 229.408C232.022 229.408 230.809 230.686 230.809 232.766V232.777C230.809 234.875 232.005 236.135 233.991 236.135ZM233.991 234.793C233.077 234.793 232.561 234.049 232.561 232.777V232.766C232.561 231.506 233.083 230.75 233.991 230.75C234.893 230.75 235.421 231.506 235.421 232.766V232.777C235.421 234.049 234.899 234.793 233.991 234.793ZM238.576 236H240.287V227.082H238.576V236ZM244.309 236.1C245.217 236.1 245.903 235.695 246.237 234.998H246.342V236H248.053V227.082H246.342V230.58H246.237C245.914 229.877 245.194 229.443 244.309 229.443C242.674 229.443 241.69 230.691 241.69 232.766V232.777C241.69 234.84 242.698 236.1 244.309 236.1ZM244.889 234.682C243.987 234.682 243.43 233.967 243.43 232.777V232.766C243.43 231.588 243.987 230.861 244.889 230.861C245.791 230.861 246.36 231.588 246.36 232.771V232.783C246.36 233.967 245.797 234.682 244.889 234.682ZM223.025 252H226.822C228.627 252 229.746 251.068 229.746 249.586V249.574C229.746 248.49 228.932 247.652 227.812 247.564V247.459C228.68 247.33 229.342 246.551 229.342 245.66V245.648C229.342 244.348 228.363 243.545 226.723 243.545H223.025V252ZM226.271 244.857C227.115 244.857 227.602 245.268 227.602 245.953V245.965C227.602 246.662 227.08 247.061 226.125 247.061H224.795V244.857H226.271ZM226.33 248.227C227.373 248.227 227.941 248.648 227.941 249.434V249.445C227.941 250.248 227.391 250.682 226.371 250.682H224.795V248.227H226.33ZM231.184 252H232.895V243.082H231.184V252ZM236.373 252.1C237.216 252.1 237.896 251.742 238.224 251.145H238.33V252H240.017V247.594C240.017 246.217 239.05 245.408 237.339 245.408C235.716 245.408 234.65 246.158 234.515 247.289L234.509 247.342H236.091L236.103 247.318C236.238 246.938 236.63 246.721 237.246 246.721C237.949 246.721 238.33 247.037 238.33 247.594V248.127L236.771 248.221C235.166 248.314 234.269 248.994 234.269 250.154V250.166C234.269 251.338 235.142 252.1 236.373 252.1ZM235.939 250.061V250.049C235.939 249.58 236.296 249.305 237.029 249.258L238.33 249.176V249.65C238.33 250.33 237.738 250.852 236.947 250.852C236.355 250.852 235.939 250.553 235.939 250.061ZM244.485 252.135C246.166 252.135 247.174 251.232 247.35 249.826L247.356 249.791H245.774L245.762 249.814C245.61 250.459 245.194 250.793 244.491 250.793C243.577 250.793 243.067 250.072 243.067 248.766V248.754C243.067 247.465 243.571 246.75 244.491 246.75C245.223 246.75 245.651 247.16 245.762 247.787L245.768 247.799H247.362V247.781C247.209 246.34 246.196 245.408 244.485 245.408C242.463 245.408 241.327 246.633 241.327 248.754V248.766C241.327 250.91 242.469 252.135 244.485 252.135ZM248.706 252H250.417V249.838L250.886 249.34L252.767 252H254.788L252.14 248.285L254.618 245.549H252.679L250.523 248.098H250.417V243.082H248.706V252Z" fill="#FFA800"/>
<path d="M226.166 97.1875C228.199 97.1875 229.6 96.1738 229.6 94.709V94.6973C229.6 93.5957 228.773 92.7754 227.625 92.5527V92.5176C228.609 92.2715 229.289 91.5625 229.289 90.6426V90.6309C229.289 89.3184 228 88.3574 226.166 88.3574C224.326 88.3574 223.043 89.3184 223.043 90.6309V90.6426C223.043 91.5625 223.717 92.2773 224.707 92.5176V92.5527C223.553 92.7812 222.732 93.5957 222.732 94.6973V94.709C222.732 96.1738 224.133 97.1875 226.166 97.1875ZM226.166 91.9844C225.352 91.9844 224.789 91.5039 224.789 90.8125V90.8008C224.789 90.1094 225.357 89.6348 226.166 89.6348C226.969 89.6348 227.537 90.1094 227.537 90.8008V90.8125C227.537 91.5039 226.975 91.9844 226.166 91.9844ZM226.166 95.8984C225.234 95.8984 224.578 95.3535 224.578 94.5918V94.5801C224.578 93.8184 225.229 93.2676 226.166 93.2676C227.104 93.2676 227.748 93.8184 227.748 94.5801V94.5918C227.748 95.3535 227.092 95.8984 226.166 95.8984ZM234.331 97.2168C236.423 97.2168 237.688 95.5059 237.688 92.7754V92.7637C237.688 90.0273 236.423 88.3281 234.331 88.3281C232.245 88.3281 230.973 90.0273 230.973 92.7637V92.7754C230.973 95.5059 232.245 97.2168 234.331 97.2168ZM234.331 95.8164C233.335 95.8164 232.766 94.6855 232.766 92.7754V92.7637C232.766 90.8477 233.335 89.7285 234.331 89.7285C235.333 89.7285 235.901 90.8477 235.901 92.7637V92.7754C235.901 94.6855 235.333 95.8164 234.331 95.8164ZM242.288 99.1387H243.998V95.9688H244.104C244.432 96.6719 245.153 97.0996 246.038 97.0996C247.672 97.0996 248.657 95.8516 248.657 93.7773V93.7656C248.657 91.709 247.649 90.4434 246.038 90.4434C245.123 90.4434 244.438 90.8535 244.104 91.5449H243.998V90.5488H242.288V99.1387ZM245.452 95.6816C244.555 95.6816 243.981 94.9609 243.981 93.7773V93.7656C243.981 92.582 244.549 91.8613 245.452 91.8613C246.36 91.8613 246.916 92.582 246.916 93.7656V93.7773C246.916 94.9609 246.354 95.6816 245.452 95.6816ZM249.187 97H250.991L252.193 94.8672H252.298L253.505 97H255.398L253.353 93.7363L255.386 90.5488H253.523L252.38 92.6875H252.275L251.132 90.5488H249.169L251.208 93.8066L249.187 97Z" fill="#FFA800"/>
</g>
<defs>
<filter id="filter0_d" x="0" y="0" width="426" height="717" filterUnits="userSpaceOnUse" color-interpolation-filters="sRGB">
<feFlood flood-opacity="0" result="BackgroundImageFix"/>
<feColorMatrix in="SourceAlpha" type="matrix" values="0 0 0 0 0 0 0 0 0 0 0 0 0 0 0 0 0 0 127 0"/>
<feMorphology radius="5" operator="dilate" in="SourceAlpha" result="effect1_dropShadow"/>
<feOffset/>
<feGaussianBlur stdDeviation="10"/>
<feColorMatrix type="matrix" values="0 0 0 0 0 0 0 0 0 0 0 0 0 0 0 0 0 0 0.15 0"/>
<feBlend mode="normal" in2="BackgroundImageFix" result="effect1_dropShadow"/>
<feBlend mode="normal" in="SourceGraphic" in2="effect1_dropShadow" result="shape"/>
</filter>
</defs>
</svg>
