<svg width="426" height="717" viewBox="0 0 426 717" fill="none" xmlns="http://www.w3.org/2000/svg">
<g filter="url(#filter0_d)">
<rect width="375" height="667" transform="translate(26 25)" fill="white"/>
<path d="M192.279 30.334C190.445 30.334 189.139 31.5879 189.139 33.3047V33.3164C189.139 34.9219 190.275 36.1055 191.898 36.1055C193.059 36.1055 193.797 35.5137 194.107 34.8457H194.225C194.225 34.9102 194.219 34.9746 194.219 35.0391C194.154 36.6562 193.586 37.9688 192.244 37.9688C191.5 37.9688 190.979 37.582 190.756 36.9902L190.738 36.9316H189.25L189.262 36.9961C189.531 38.291 190.691 39.2109 192.244 39.2109C194.371 39.2109 195.654 37.5234 195.654 34.6758V34.6641C195.654 31.6172 194.084 30.334 192.279 30.334ZM192.273 34.9453C191.312 34.9453 190.615 34.2422 190.615 33.2637V33.252C190.615 32.3086 191.359 31.5645 192.291 31.5645C193.229 31.5645 193.961 32.3203 193.961 33.2871V33.2988C193.961 34.2539 193.229 34.9453 192.273 34.9453ZM198.314 33.5215C198.854 33.5215 199.246 33.1113 199.246 32.5957C199.246 32.0742 198.854 31.6699 198.314 31.6699C197.781 31.6699 197.383 32.0742 197.383 32.5957C197.383 33.1113 197.781 33.5215 198.314 33.5215ZM198.314 37.8691C198.854 37.8691 199.246 37.4648 199.246 36.9434C199.246 36.4219 198.854 36.0176 198.314 36.0176C197.781 36.0176 197.383 36.4219 197.383 36.9434C197.383 37.4648 197.781 37.8691 198.314 37.8691ZM205.076 39H206.523V37.377H207.66V36.1289H206.523V30.5449H204.385C203.236 32.291 202.035 34.2363 200.939 36.1406V37.377H205.076V39ZM202.346 36.1641V36.0762C203.166 34.6406 204.145 33.0762 205.012 31.752H205.1V36.1641H202.346ZM211.164 39H212.676V30.5449H211.17L208.961 32.0977V33.5215L211.064 32.0332H211.164V39ZM217.756 39H219.338L220.041 36.8145H223.17L223.879 39H225.461L222.461 30.5449H220.756L217.756 39ZM221.559 32.1152H221.658L222.795 35.6484H220.422L221.559 32.1152ZM226.914 39H228.279V32.9883H228.379L230.723 39H231.754L234.098 32.9883H234.203V39H235.562V30.5449H233.828L231.291 37.0488H231.191L228.648 30.5449H226.914V39Z" fill="black"/>
<path opacity="0.35" fill-rule="evenodd" clip-rule="evenodd" d="M370.5 29.5H389.5C390.881 29.5 392 30.6193 392 32V38.5C392 39.8807 390.881 41 389.5 41H370.5C369.119 41 368 39.8807 368 38.5V32C368 30.6193 369.119 29.5 370.5 29.5ZM370.5 30.5C369.672 30.5 369 31.1716 369 32V38.5C369 39.3284 369.672 40 370.5 40H389.5C390.328 40 391 39.3284 391 38.5V32C391 31.1716 390.328 30.5 389.5 30.5H370.5Z" fill="black"/>
<path opacity="0.4" fill-rule="evenodd" clip-rule="evenodd" d="M393 32.7998C393.89 33.255 394.5 34.1813 394.5 35.2499C394.5 36.3186 393.89 37.2449 393 37.7001V32.7998Z" fill="black"/>
<path fill-rule="evenodd" clip-rule="evenodd" d="M371 31.5H389C389.552 31.5 390 31.9477 390 32.5V38C390 38.5523 389.552 39 389 39H371C370.448 39 370 38.5523 370 38V32.5C370 31.9477 370.448 31.5 371 31.5Z" fill="black"/>
<path d="M336.219 39.3H337.273V30.845H336.225L333.975 32.4622V33.5754L336.125 32.0168H336.219V39.3ZM342.547 39.4993C344.416 39.4993 345.541 37.7942 345.541 35.0754V35.0637C345.541 32.345 344.416 30.6458 342.547 30.6458C340.678 30.6458 339.564 32.345 339.564 35.0637V35.0754C339.564 37.7942 340.678 39.4993 342.547 39.4993ZM342.547 38.5793C341.334 38.5793 340.625 37.2317 340.625 35.0754V35.0637C340.625 32.9075 341.334 31.5715 342.547 31.5715C343.76 31.5715 344.48 32.9075 344.48 35.0637V35.0754C344.48 37.2317 343.76 38.5793 342.547 38.5793ZM350.105 39.4993C351.975 39.4993 353.1 37.7942 353.1 35.0754V35.0637C353.1 32.345 351.975 30.6458 350.105 30.6458C348.236 30.6458 347.123 32.345 347.123 35.0637V35.0754C347.123 37.7942 348.236 39.4993 350.105 39.4993ZM350.105 38.5793C348.893 38.5793 348.184 37.2317 348.184 35.0754V35.0637C348.184 32.9075 348.893 31.5715 350.105 31.5715C351.318 31.5715 352.039 32.9075 352.039 35.0637V35.0754C352.039 37.2317 351.318 38.5793 350.105 38.5793ZM356.41 35.2922C357.488 35.2922 358.145 34.4133 358.145 33.0129V33.0071C358.145 31.6067 357.488 30.7336 356.41 30.7336C355.332 30.7336 354.682 31.6067 354.682 33.0071V33.0129C354.682 34.4133 355.332 35.2922 356.41 35.2922ZM357.043 39.3L362.797 30.845H361.848L356.094 39.3H357.043ZM356.41 34.595C355.83 34.595 355.496 34.0032 355.496 33.0129V33.0071C355.496 32.0168 355.83 31.4309 356.41 31.4309C356.99 31.4309 357.33 32.0168 357.33 33.0071V33.0129C357.33 34.0032 356.99 34.595 356.41 34.595ZM362.469 39.4114C363.547 39.4114 364.203 38.5325 364.203 37.1321V37.1262C364.203 35.7258 363.547 34.8528 362.469 34.8528C361.391 34.8528 360.74 35.7258 360.74 37.1262V37.1321C360.74 38.5325 361.391 39.4114 362.469 39.4114ZM362.469 38.7141C361.889 38.7141 361.555 38.1223 361.555 37.1321V37.1262C361.555 36.136 361.889 35.55 362.469 35.55C363.049 35.55 363.389 36.136 363.389 37.1262V37.1321C363.389 38.1223 363.049 38.7141 362.469 38.7141Z" fill="black"/>
<path fill-rule="evenodd" clip-rule="evenodd" d="M45.5 30H46.5C47.0523 30 47.5 30.4477 47.5 31V39C47.5 39.5523 47.0523 40 46.5 40H45.5C44.9477 40 44.5 39.5523 44.5 39V31C44.5 30.4477 44.9477 30 45.5 30Z" fill="black"/>
<path d="M42 32H41C40.4477 32 40 32.4477 40 33V39C40 39.5523 40.4477 40 41 40H42C42.5523 40 43 39.5523 43 39V33C43 32.4477 42.5523 32 42 32Z" fill="black"/>
<path d="M36.5 34H37.5C38.0523 34 38.5 34.4477 38.5 35V39C38.5 39.5523 38.0523 40 37.5 40H36.5C35.9477 40 35.5 39.5523 35.5 39V35C35.5 34.4477 35.9477 34 36.5 34Z" fill="black"/>
<path d="M32 35.5H33C33.5523 35.5 34 35.9477 34 36.5V39C34 39.5523 33.5523 40 33 40H32C31.4477 40 31 39.5523 31 39V36.5C31 35.9477 31.4477 35.5 32 35.5Z" fill="black"/>
<path d="M55.0781 39H56.1328V35.6543H58.2129L60.0234 39H61.2598L59.3027 35.4902C60.3633 35.1562 61.002 34.2422 61.002 33.0703V33.0586C61.002 31.541 59.9355 30.5449 58.3066 30.5449H55.0781V39ZM56.1328 34.7168V31.4824H58.166C59.2559 31.4824 59.9121 32.0859 59.9121 33.0938V33.1055C59.9121 34.1367 59.2969 34.7168 58.2129 34.7168H56.1328ZM65.6395 39.1992C67.5262 39.1992 68.7625 38.2148 68.7625 36.6328V36.627C68.7625 35.4082 68.0652 34.6992 66.3016 34.3066L65.3641 34.0957C64.2156 33.8438 63.7527 33.3867 63.7527 32.7129V32.707C63.7527 31.8223 64.5672 31.3242 65.6219 31.3184C66.7234 31.3125 67.4266 31.8633 67.5437 32.6074L67.5555 32.6836H68.6102L68.6043 32.6016C68.5164 31.3418 67.3387 30.3457 65.6512 30.3457C63.9051 30.3457 62.6805 31.3359 62.6746 32.7363V32.7422C62.6746 33.9668 63.407 34.7461 65.1004 35.1211L66.0379 35.3262C67.198 35.584 67.6844 36.0645 67.6844 36.7676V36.7734C67.6844 37.6348 66.8465 38.2266 65.698 38.2266C64.4793 38.2266 63.6004 37.6934 63.5242 36.8496L63.5184 36.7852H62.4637L62.4695 36.8496C62.5926 38.2266 63.7879 39.1992 65.6395 39.1992ZM73.2418 39.1992C75.1285 39.1992 76.3648 38.2148 76.3648 36.6328V36.627C76.3648 35.4082 75.6676 34.6992 73.9039 34.3066L72.9664 34.0957C71.818 33.8438 71.3551 33.3867 71.3551 32.7129V32.707C71.3551 31.8223 72.1695 31.3242 73.2242 31.3184C74.3258 31.3125 75.0289 31.8633 75.1461 32.6074L75.1578 32.6836H76.2125L76.2066 32.6016C76.1187 31.3418 74.941 30.3457 73.2535 30.3457C71.5074 30.3457 70.2828 31.3359 70.277 32.7363V32.7422C70.277 33.9668 71.0094 34.7461 72.7027 35.1211L73.6402 35.3262C74.8004 35.584 75.2867 36.0645 75.2867 36.7676V36.7734C75.2867 37.6348 74.4488 38.2266 73.3004 38.2266C72.0816 38.2266 71.2027 37.6934 71.1266 36.8496L71.1207 36.7852H70.066L70.0719 36.8496C70.1949 38.2266 71.3902 39.1992 73.2418 39.1992ZM80.5277 39.1113C82.0453 39.1113 82.8949 38.2969 83.1527 37.1543L83.1645 37.0898L82.1566 37.0957L82.1449 37.1309C81.9105 37.834 81.3715 38.209 80.5219 38.209C79.3969 38.209 78.6703 37.2773 78.6703 35.8242V35.8125C78.6703 34.3887 79.3852 33.4746 80.5219 33.4746C81.4301 33.4746 81.9926 33.9785 82.1508 34.5996L82.1566 34.6172H83.1703L83.1645 34.582C82.977 33.457 82.057 32.5723 80.5219 32.5723C78.7523 32.5723 77.6273 33.8496 77.6273 35.8125V35.8242C77.6273 37.8281 78.7582 39.1113 80.5277 39.1113ZM84.6672 39H85.6867V35.2617C85.6867 34.1543 86.3254 33.4746 87.3332 33.4746C88.341 33.4746 88.8098 34.0195 88.8098 35.1562V39H89.8293V34.9102C89.8293 33.4102 89.0383 32.5723 87.6203 32.5723C86.6887 32.5723 86.0969 32.9648 85.7805 33.6328H85.6867V30.1758H84.6672V39ZM94.2207 39.1113C96.0195 39.1113 97.1328 37.8691 97.1328 35.8477V35.8359C97.1328 33.8086 96.0195 32.5723 94.2207 32.5723C92.4219 32.5723 91.3086 33.8086 91.3086 35.8359V35.8477C91.3086 37.8691 92.4219 39.1113 94.2207 39.1113ZM94.2207 38.209C93.0254 38.209 92.3516 37.3359 92.3516 35.8477V35.8359C92.3516 34.3418 93.0254 33.4746 94.2207 33.4746C95.416 33.4746 96.0898 34.3418 96.0898 35.8359V35.8477C96.0898 37.3359 95.416 38.209 94.2207 38.209ZM101.261 39.1113C103.059 39.1113 104.173 37.8691 104.173 35.8477V35.8359C104.173 33.8086 103.059 32.5723 101.261 32.5723C99.4617 32.5723 98.3484 33.8086 98.3484 35.8359V35.8477C98.3484 37.8691 99.4617 39.1113 101.261 39.1113ZM101.261 38.209C100.065 38.209 99.3914 37.3359 99.3914 35.8477V35.8359C99.3914 34.3418 100.065 33.4746 101.261 33.4746C102.456 33.4746 103.13 34.3418 103.13 35.8359V35.8477C103.13 37.3359 102.456 38.209 101.261 38.209ZM105.763 39H106.783V30.1758H105.763V39Z" fill="black"/>
<path fill-rule="evenodd" clip-rule="evenodd" d="M125.983 32.5229C124.072 30.8906 121.657 30 119.133 30C116.601 30 114.18 30.8959 112.266 32.5371L112.104 32.6765C111.972 32.7892 111.965 32.9895 112.087 33.1118L113.214 34.2356C113.324 34.3447 113.498 34.3521 113.617 34.2527L113.756 34.1354C115.263 32.8694 117.155 32.1804 119.133 32.1804C121.104 32.1804 122.989 32.8647 124.494 34.1228L124.634 34.2395C124.752 34.3385 124.926 34.3308 125.036 34.2219L126.163 33.098C126.285 32.9756 126.278 32.7749 126.146 32.6623L125.983 32.5229ZM119.133 33.4698C120.724 33.4698 122.251 33.9975 123.495 34.9749L123.671 35.113C123.811 35.2231 123.824 35.4306 123.697 35.5564L122.567 36.6841C122.462 36.7884 122.297 36.8003 122.178 36.7122L122.04 36.6098C121.2 35.9852 120.186 35.6501 119.133 35.6501C118.073 35.6501 117.053 35.9893 116.21 36.6211L116.072 36.7245C115.954 36.8133 115.787 36.8016 115.683 36.697L114.552 35.5698C114.426 35.4442 114.438 35.2373 114.578 35.1269L114.753 34.9887C116 34.0027 117.534 33.4698 119.133 33.4698ZM119.133 36.9396C119.772 36.9396 120.394 37.1076 120.941 37.4281L121.163 37.5579C121.331 37.6563 121.361 37.8867 121.223 38.0242L119.329 39.913C119.212 40.029 119.024 40.029 118.907 39.913L117.026 38.0363C116.888 37.8994 116.917 37.6702 117.084 37.5711L117.303 37.4406C117.856 37.1121 118.485 36.9396 119.133 36.9396Z" fill="black"/>
<rect x="127" y="132" width="173" height="41" rx="5" fill="#C4C4C4"/>
<path d="M62 335C62 332.2 62 330.8 62.545 329.73C63.0243 328.789 63.7892 328.024 64.73 327.545C65.7996 327 67.1997 327 70 327H357C359.8 327 361.2 327 362.27 327.545C363.211 328.024 363.976 328.789 364.455 329.73C365 330.8 365 332.2 365 335V355C365 357.8 365 359.2 364.455 360.27C363.976 361.211 363.211 361.976 362.27 362.455C361.2 363 359.8 363 357 363H70C67.1997 363 65.7996 363 64.73 362.455C63.7892 361.976 63.0243 361.211 62.545 360.27C62 359.2 62 357.8 62 355V335Z" fill="#C4C4C4"/>
<path d="M62 269C62 266.2 62 264.8 62.545 263.73C63.0243 262.789 63.7892 262.024 64.73 261.545C65.7996 261 67.1997 261 70 261H357C359.8 261 361.2 261 362.27 261.545C363.211 262.024 363.976 262.789 364.455 263.73C365 264.8 365 266.2 365 269V289C365 291.8 365 293.2 364.455 294.27C363.976 295.211 363.211 295.976 362.27 296.455C361.2 297 359.8 297 357 297H70C67.1997 297 65.7996 297 64.73 296.455C63.7892 295.976 63.0243 295.211 62.545 294.27C62 293.2 62 291.8 62 289V269Z" fill="#C4C4C4"/>
<rect x="135" y="423" width="156" height="42" rx="5" fill="#C4C4C4"/>
<rect x="97" y="533" width="234" height="108" rx="9" stroke="#C20114" stroke-width="2"/>
<rect x="119.75" y="577.75" width="48.5" height="48.5" rx="24.25" stroke="#80A4ED" stroke-width="1.5"/>
<path d="M143.906 610H146.93V593.09H143.918L139.5 596.195V599.043L143.707 596.066H143.906V610Z" fill="#80A4ED"/>
<rect x="189.75" y="577.75" width="48.5" height="48.5" rx="24.25" stroke="#80A4ED" stroke-width="1.5"/>
<rect x="259.75" y="577.75" width="48.5" height="48.5" rx="24.25" stroke="#80A4ED" stroke-width="1.5"/>
<path d="M208 562.865H219.004V560.879H208V562.865Z" fill="black"/>
<path d="M207.77 610H219.512V607.492H211.859V607.246L215.246 603.965C218.328 601 219.254 599.477 219.254 597.555V597.52C219.254 594.672 216.887 592.668 213.594 592.668C210.066 592.668 207.605 594.871 207.605 598.023L207.617 598.059L210.43 598.07L210.441 598.023C210.441 596.277 211.648 595.094 213.441 595.094C215.199 595.094 216.266 596.219 216.266 597.777V597.812C216.266 599.113 215.621 599.969 213.324 602.289L207.77 607.961V610Z" fill="#80A4ED"/>
<path d="M283.887 610.34C287.637 610.34 290.203 608.266 290.203 605.289V605.266C290.203 602.922 288.551 601.445 286.066 601.211V601.152C288.094 600.73 289.605 599.336 289.605 597.238V597.215C289.605 594.566 287.344 592.75 283.863 592.75C280.453 592.75 278.145 594.672 277.887 597.602L277.875 597.73H280.688L280.699 597.613C280.852 596.102 282.082 595.152 283.863 595.152C285.668 595.152 286.711 596.066 286.711 597.613V597.637C286.711 599.113 285.469 600.168 283.605 600.168H281.672V602.418H283.664C285.832 602.418 287.145 603.402 287.145 605.184V605.207C287.145 606.777 285.844 607.867 283.887 607.867C281.906 607.867 280.582 606.848 280.418 605.418L280.406 605.289H277.523L277.535 605.43C277.758 608.324 280.184 610.34 283.887 610.34Z" fill="#80A4ED"/>
<line x1="214.5" y1="533.5" x2="214.5" y2="640.5" stroke="#FFA800" stroke-linecap="round" stroke-dasharray="2 2"/>
<path d="M97.4766 488.139H100.723V486.879H99.1172V478.342H100.723V477.082H97.4766V488.139ZM102.12 486H105.917C107.721 486 108.841 485.068 108.841 483.586V483.574C108.841 482.49 108.026 481.652 106.907 481.564V481.459C107.774 481.33 108.436 480.551 108.436 479.66V479.648C108.436 478.348 107.458 477.545 105.817 477.545H102.12V486ZM105.366 478.857C106.21 478.857 106.696 479.268 106.696 479.953V479.965C106.696 480.662 106.175 481.061 105.22 481.061H103.889V478.857H105.366ZM105.425 482.227C106.468 482.227 107.036 482.648 107.036 483.434V483.445C107.036 484.248 106.485 484.682 105.466 484.682H103.889V482.227H105.425ZM113.086 486.135C115.072 486.135 116.267 484.881 116.267 482.777V482.766C116.267 480.68 115.054 479.408 113.086 479.408C111.117 479.408 109.904 480.686 109.904 482.766V482.777C109.904 484.875 111.099 486.135 113.086 486.135ZM113.086 484.793C112.171 484.793 111.656 484.049 111.656 482.777V482.766C111.656 481.506 112.177 480.75 113.086 480.75C113.988 480.75 114.515 481.506 114.515 482.766V482.777C114.515 484.049 113.994 484.793 113.086 484.793ZM117.612 486H119.323V482.391C119.323 481.477 119.938 480.92 120.911 480.92C121.174 480.92 121.438 480.961 121.696 481.02V479.525C121.526 479.479 121.286 479.443 121.057 479.443C120.219 479.443 119.633 479.854 119.428 480.551H119.323V479.549H117.612V486ZM124.939 486.1C125.847 486.1 126.532 485.695 126.866 484.998H126.972V486H128.683V477.082H126.972V480.58H126.866C126.544 479.877 125.823 479.443 124.939 479.443C123.304 479.443 122.32 480.691 122.32 482.766V482.777C122.32 484.84 123.327 486.1 124.939 486.1ZM125.519 484.682C124.616 484.682 124.06 483.967 124.06 482.777V482.766C124.06 481.588 124.616 480.861 125.519 480.861C126.421 480.861 126.989 481.588 126.989 482.771V482.783C126.989 483.967 126.427 484.682 125.519 484.682ZM133.238 486.135C135.125 486.135 135.957 485.045 136.156 484.236L136.168 484.178H134.574L134.557 484.213C134.439 484.459 134.023 484.857 133.273 484.857C132.365 484.857 131.797 484.242 131.779 483.182H136.221V482.648C136.221 480.697 135.049 479.408 133.168 479.408C131.287 479.408 130.086 480.727 130.086 482.777V482.783C130.086 484.852 131.275 486.135 133.238 486.135ZM133.197 480.691C133.941 480.691 134.475 481.172 134.58 482.109H131.797C131.902 481.195 132.453 480.691 133.197 480.691ZM137.571 486H139.282V482.391C139.282 481.477 139.897 480.92 140.87 480.92C141.134 480.92 141.397 480.961 141.655 481.02V479.525C141.485 479.479 141.245 479.443 141.016 479.443C140.179 479.443 139.593 479.854 139.388 480.551H139.282V479.549H137.571V486ZM145.566 488.139V477.082H142.32V478.342H143.92V486.879H142.32V488.139H145.566ZM99.2402 502H101.42L104.238 493.545H102.246L100.383 500.031H100.277L98.4082 493.545H96.4219L99.2402 502ZM107.598 502.135C109.485 502.135 110.317 501.045 110.516 500.236L110.528 500.178H108.934L108.917 500.213C108.8 500.459 108.384 500.857 107.634 500.857C106.725 500.857 106.157 500.242 106.139 499.182H110.581V498.648C110.581 496.697 109.409 495.408 107.528 495.408C105.647 495.408 104.446 496.727 104.446 498.777V498.783C104.446 500.852 105.636 502.135 107.598 502.135ZM107.557 496.691C108.302 496.691 108.835 497.172 108.94 498.109H106.157C106.262 497.195 106.813 496.691 107.557 496.691ZM111.931 502H113.642V498.268C113.642 497.395 114.123 496.826 114.914 496.826C115.722 496.826 116.097 497.307 116.097 498.215V502H117.808V497.828C117.808 496.287 117.035 495.408 115.599 495.408C114.679 495.408 114.041 495.848 113.748 496.545H113.642V495.549H111.931V502ZM122.252 502.135C124.139 502.135 124.971 501.045 125.17 500.236L125.182 500.178H123.588L123.571 500.213C123.454 500.459 123.038 500.857 122.288 500.857C121.379 500.857 120.811 500.242 120.793 499.182H125.235V498.648C125.235 496.697 124.063 495.408 122.182 495.408C120.301 495.408 119.1 496.727 119.1 498.777V498.783C119.1 500.852 120.289 502.135 122.252 502.135ZM122.211 496.691C122.955 496.691 123.489 497.172 123.594 498.109H120.811C120.916 497.195 121.467 496.691 122.211 496.691ZM129.263 502.023C129.591 502.023 129.907 501.988 130.118 501.947V500.676C129.954 500.693 129.837 500.705 129.614 500.705C129.034 500.705 128.788 500.447 128.788 499.867V496.838H130.118V495.549H128.788V494.008H127.06V495.549H126.064V496.838H127.06V500.26C127.06 501.514 127.693 502.023 129.263 502.023ZM132.365 494.559C132.893 494.559 133.326 494.137 133.326 493.609C133.326 493.076 132.893 492.654 132.365 492.654C131.838 492.654 131.398 493.076 131.398 493.609C131.398 494.137 131.838 494.559 132.365 494.559ZM131.504 502H133.215V495.549H131.504V502ZM136.645 502.1C137.489 502.1 138.169 501.742 138.497 501.145H138.602V502H140.29V497.594C140.29 496.217 139.323 495.408 137.612 495.408C135.989 495.408 134.923 496.158 134.788 497.289L134.782 497.342H136.364L136.376 497.318C136.511 496.938 136.903 496.721 137.518 496.721C138.221 496.721 138.602 497.037 138.602 497.594V498.127L137.044 498.221C135.438 498.314 134.542 498.994 134.542 500.154V500.166C134.542 501.338 135.415 502.1 136.645 502.1ZM136.212 500.061V500.049C136.212 499.58 136.569 499.305 137.302 499.258L138.602 499.176V499.65C138.602 500.33 138.011 500.852 137.22 500.852C136.628 500.852 136.212 500.553 136.212 500.061ZM141.916 502H143.627V498.268C143.627 497.395 144.107 496.826 144.898 496.826C145.707 496.826 146.082 497.307 146.082 498.215V502H147.793V497.828C147.793 496.287 147.019 495.408 145.584 495.408C144.664 495.408 144.025 495.848 143.732 496.545H143.627V495.549H141.916V502ZM152.614 502H154.384V498.906H155.831L157.407 502H159.411L157.63 498.643C158.597 498.262 159.159 497.33 159.159 496.246V496.234C159.159 494.57 158.058 493.545 156.136 493.545H152.614V502ZM154.384 497.617V494.928H155.919C156.804 494.928 157.349 495.455 157.349 496.27V496.281C157.349 497.113 156.827 497.617 155.943 497.617H154.384ZM163.352 502.135C165.238 502.135 166.07 501.045 166.27 500.236L166.281 500.178H164.688L164.67 500.213C164.553 500.459 164.137 500.857 163.387 500.857C162.479 500.857 161.91 500.242 161.893 499.182H166.334V498.648C166.334 496.697 165.162 495.408 163.281 495.408C161.4 495.408 160.199 496.727 160.199 498.777V498.783C160.199 500.852 161.389 502.135 163.352 502.135ZM163.311 496.691C164.055 496.691 164.588 497.172 164.693 498.109H161.91C162.016 497.195 162.566 496.691 163.311 496.691ZM169.987 502.1C170.895 502.1 171.581 501.695 171.915 500.998H172.02V502H173.731V493.082H172.02V496.58H171.915C171.593 495.877 170.872 495.443 169.987 495.443C168.352 495.443 167.368 496.691 167.368 498.766V498.777C167.368 500.84 168.376 502.1 169.987 502.1ZM170.567 500.682C169.665 500.682 169.108 499.967 169.108 498.777V498.766C169.108 497.588 169.665 496.861 170.567 496.861C171.47 496.861 172.038 497.588 172.038 498.771V498.783C172.038 499.967 171.475 500.682 170.567 500.682ZM96.8555 518H102.955V516.576H99.2285V516.441L100.793 514.982C102.334 513.559 102.832 512.762 102.832 511.801V511.783C102.832 510.324 101.613 509.328 99.873 509.328C98.0215 509.328 96.7559 510.441 96.7559 512.064L96.7617 512.088H98.3965V512.059C98.3965 511.256 98.9648 510.705 99.791 510.705C100.6 510.705 101.092 511.209 101.092 511.93V511.947C101.092 512.539 100.77 512.967 99.5801 514.121L96.8555 516.811V518ZM104.528 520.139H106.239V516.969H106.345C106.673 517.672 107.393 518.1 108.278 518.1C109.913 518.1 110.897 516.852 110.897 514.777V514.766C110.897 512.709 109.889 511.443 108.278 511.443C107.364 511.443 106.679 511.854 106.345 512.545H106.239V511.549H104.528V520.139ZM107.692 516.682C106.796 516.682 106.221 515.961 106.221 514.777V514.766C106.221 513.582 106.79 512.861 107.692 512.861C108.6 512.861 109.157 513.582 109.157 514.766V514.777C109.157 515.961 108.595 516.682 107.692 516.682ZM111.427 518H113.232L114.433 515.867H114.539L115.746 518H117.638L115.593 514.736L117.627 511.549H115.763L114.621 513.688H114.515L113.373 511.549H111.41L113.449 514.807L111.427 518Z" fill="#FFA800"/>
<path d="M324.924 669H326.693V660.545H324.93L322.744 662.062V663.656L324.818 662.215H324.924V669ZM332.198 669.217C334.29 669.217 335.555 667.506 335.555 664.775V664.764C335.555 662.027 334.29 660.328 332.198 660.328C330.112 660.328 328.841 662.027 328.841 664.764V664.775C328.841 667.506 330.112 669.217 332.198 669.217ZM332.198 667.816C331.202 667.816 330.634 666.686 330.634 664.775V664.764C330.634 662.848 331.202 661.729 332.198 661.729C333.2 661.729 333.768 662.848 333.768 664.764V664.775C333.768 666.686 333.2 667.816 332.198 667.816ZM340.155 671.139H341.866V667.969H341.971C342.299 668.672 343.02 669.1 343.905 669.1C345.539 669.1 346.524 667.852 346.524 665.777V665.766C346.524 663.709 345.516 662.443 343.905 662.443C342.991 662.443 342.305 662.854 341.971 663.545H341.866V662.549H340.155V671.139ZM343.319 667.682C342.422 667.682 341.848 666.961 341.848 665.777V665.766C341.848 664.582 342.416 663.861 343.319 663.861C344.227 663.861 344.784 664.582 344.784 665.766V665.777C344.784 666.961 344.221 667.682 343.319 667.682ZM347.054 669H348.859L350.06 666.867H350.165L351.372 669H353.265L351.22 665.736L353.253 662.549H351.39L350.247 664.688H350.142L348.999 662.549H347.036L349.075 665.807L347.054 669Z" fill="#FFA800"/>
<path d="M338.498 640C337.05 646.697 335.053 648.906 329 649.594" stroke="#FFA800" stroke-linecap="round"/>
<line x1="214.511" y1="521.489" x2="215.489" y2="475.489" stroke="#FFA800" stroke-linecap="round"/>
<path d="M230.225 503.217C232.129 503.217 233.465 501.945 233.465 500.217V500.205C233.465 498.605 232.352 497.434 230.705 497.434C229.539 497.434 228.83 498.014 228.525 498.67H228.408C228.408 498.605 228.408 498.541 228.414 498.477C228.479 496.941 229.012 495.74 230.236 495.74C230.922 495.74 231.402 496.098 231.602 496.625L231.625 496.678H233.354L233.342 496.619C233.084 495.295 231.865 494.328 230.23 494.328C228.068 494.328 226.732 496.01 226.732 498.84V498.852C226.732 501.828 228.262 503.217 230.225 503.217ZM228.672 500.24V500.234C228.672 499.361 229.352 498.734 230.225 498.734C231.109 498.734 231.754 499.379 231.754 500.264V500.275C231.754 501.143 231.068 501.816 230.213 501.816C229.352 501.816 228.672 501.131 228.672 500.24ZM235.384 503H237.235L240.768 495.969V494.539H234.721V495.951H238.987V496.051L235.384 503ZM245.256 505.139H246.967V501.969H247.073C247.401 502.672 248.121 503.1 249.006 503.1C250.641 503.1 251.625 501.852 251.625 499.777V499.766C251.625 497.709 250.618 496.443 249.006 496.443C248.092 496.443 247.407 496.854 247.073 497.545H246.967V496.549H245.256V505.139ZM248.42 501.682C247.524 501.682 246.95 500.961 246.95 499.777V499.766C246.95 498.582 247.518 497.861 248.42 497.861C249.329 497.861 249.885 498.582 249.885 499.766V499.777C249.885 500.961 249.323 501.682 248.42 501.682ZM252.155 503H253.96L255.161 500.867H255.267L256.474 503H258.366L256.321 499.736L258.355 496.549H256.491L255.349 498.688H255.243L254.101 496.549H252.138L254.177 499.807L252.155 503Z" fill="#FFA800"/>
<line x1="214.5" y1="680.5" x2="214.5" y2="653.5" stroke="#FFA800" stroke-linecap="round"/>
<path d="M229.061 671.217C230.959 671.217 232.271 670.004 232.271 668.223V668.211C232.271 666.6 231.135 665.439 229.559 665.439C228.75 665.439 228.094 665.791 227.754 666.359H227.648L227.859 663.951H231.768V662.545H226.482L226.09 667.549H227.607C227.701 667.367 227.842 667.209 228 667.08C228.281 666.84 228.645 666.717 229.072 666.717C229.969 666.717 230.607 667.344 230.607 668.246V668.258C230.607 669.166 229.975 669.805 229.066 669.805C228.27 669.805 227.689 669.307 227.566 668.686L227.555 668.645H225.949L225.955 668.727C226.055 670.139 227.25 671.217 229.061 671.217ZM237.026 671.217C239.118 671.217 240.384 669.506 240.384 666.775V666.764C240.384 664.027 239.118 662.328 237.026 662.328C234.94 662.328 233.669 664.027 233.669 666.764V666.775C233.669 669.506 234.94 671.217 237.026 671.217ZM237.026 669.816C236.03 669.816 235.462 668.686 235.462 666.775V666.764C235.462 664.848 236.03 663.729 237.026 663.729C238.028 663.729 238.596 664.848 238.596 666.764V666.775C238.596 668.686 238.028 669.816 237.026 669.816ZM244.983 673.139H246.694V669.969H246.799C247.127 670.672 247.848 671.1 248.733 671.1C250.368 671.1 251.352 669.852 251.352 667.777V667.766C251.352 665.709 250.344 664.443 248.733 664.443C247.819 664.443 247.133 664.854 246.799 665.545H246.694V664.549H244.983V673.139ZM248.147 669.682C247.25 669.682 246.676 668.961 246.676 667.777V667.766C246.676 666.582 247.245 665.861 248.147 665.861C249.055 665.861 249.612 666.582 249.612 667.766V667.777C249.612 668.961 249.049 669.682 248.147 669.682ZM251.882 671H253.687L254.888 668.867H254.993L256.2 671H258.093L256.048 667.736L258.081 664.549H256.218L255.075 666.688H254.97L253.827 664.549H251.864L253.904 667.807L251.882 671Z" fill="#FFA800"/>
</g>
<defs>
<filter id="filter0_d" x="0" y="0" width="426" height="717" filterUnits="userSpaceOnUse" color-interpolation-filters="sRGB">
<feFlood flood-opacity="0" result="BackgroundImageFix"/>
<feColorMatrix in="SourceAlpha" type="matrix" values="0 0 0 0 0 0 0 0 0 0 0 0 0 0 0 0 0 0 127 0"/>
<feMorphology radius="5" operator="dilate" in="SourceAlpha" result="effect1_dropShadow"/>
<feOffset/>
<feGaussianBlur stdDeviation="10"/>
<feColorMatrix type="matrix" values="0 0 0 0 0 0 0 0 0 0 0 0 0 0 0 0 0 0 0.15 0"/>
<feBlend mode="normal" in2="BackgroundImageFix" result="effect1_dropShadow"/>
<feBlend mode="normal" in="SourceGraphic" in2="effect1_dropShadow" result="shape"/>
</filter>
</defs>
</svg>
