<svg width="426" height="717" viewBox="0 0 426 717" fill="none" xmlns="http://www.w3.org/2000/svg">
<g filter="url(#filter0_d)">
<rect width="375" height="667" transform="translate(26 25)" fill="white"/>
<path d="M192.279 30.334C190.445 30.334 189.139 31.5879 189.139 33.3047V33.3164C189.139 34.9219 190.275 36.1055 191.898 36.1055C193.059 36.1055 193.797 35.5137 194.107 34.8457H194.225C194.225 34.9102 194.219 34.9746 194.219 35.0391C194.154 36.6562 193.586 37.9688 192.244 37.9688C191.5 37.9688 190.979 37.582 190.756 36.9902L190.738 36.9316H189.25L189.262 36.9961C189.531 38.291 190.691 39.2109 192.244 39.2109C194.371 39.2109 195.654 37.5234 195.654 34.6758V34.6641C195.654 31.6172 194.084 30.334 192.279 30.334ZM192.273 34.9453C191.312 34.9453 190.615 34.2422 190.615 33.2637V33.252C190.615 32.3086 191.359 31.5645 192.291 31.5645C193.229 31.5645 193.961 32.3203 193.961 33.2871V33.2988C193.961 34.2539 193.229 34.9453 192.273 34.9453ZM198.314 33.5215C198.854 33.5215 199.246 33.1113 199.246 32.5957C199.246 32.0742 198.854 31.6699 198.314 31.6699C197.781 31.6699 197.383 32.0742 197.383 32.5957C197.383 33.1113 197.781 33.5215 198.314 33.5215ZM198.314 37.8691C198.854 37.8691 199.246 37.4648 199.246 36.9434C199.246 36.4219 198.854 36.0176 198.314 36.0176C197.781 36.0176 197.383 36.4219 197.383 36.9434C197.383 37.4648 197.781 37.8691 198.314 37.8691ZM205.076 39H206.523V37.377H207.66V36.1289H206.523V30.5449H204.385C203.236 32.291 202.035 34.2363 200.939 36.1406V37.377H205.076V39ZM202.346 36.1641V36.0762C203.166 34.6406 204.145 33.0762 205.012 31.752H205.1V36.1641H202.346ZM211.164 39H212.676V30.5449H211.17L208.961 32.0977V33.5215L211.064 32.0332H211.164V39ZM217.756 39H219.338L220.041 36.8145H223.17L223.879 39H225.461L222.461 30.5449H220.756L217.756 39ZM221.559 32.1152H221.658L222.795 35.6484H220.422L221.559 32.1152ZM226.914 39H228.279V32.9883H228.379L230.723 39H231.754L234.098 32.9883H234.203V39H235.562V30.5449H233.828L231.291 37.0488H231.191L228.648 30.5449H226.914V39Z" fill="black"/>
<path opacity="0.35" fill-rule="evenodd" clip-rule="evenodd" d="M370.5 29.5H389.5C390.881 29.5 392 30.6193 392 32V38.5C392 39.8807 390.881 41 389.5 41H370.5C369.119 41 368 39.8807 368 38.5V32C368 30.6193 369.119 29.5 370.5 29.5ZM370.5 30.5C369.672 30.5 369 31.1716 369 32V38.5C369 39.3284 369.672 40 370.5 40H389.5C390.328 40 391 39.3284 391 38.5V32C391 31.1716 390.328 30.5 389.5 30.5H370.5Z" fill="black"/>
<path opacity="0.4" fill-rule="evenodd" clip-rule="evenodd" d="M393 32.7998C393.89 33.255 394.5 34.1813 394.5 35.2499C394.5 36.3186 393.89 37.2449 393 37.7001V32.7998Z" fill="black"/>
<path fill-rule="evenodd" clip-rule="evenodd" d="M371 31.5H389C389.552 31.5 390 31.9477 390 32.5V38C390 38.5523 389.552 39 389 39H371C370.448 39 370 38.5523 370 38V32.5C370 31.9477 370.448 31.5 371 31.5Z" fill="black"/>
<path d="M336.219 39.3H337.273V30.845H336.225L333.975 32.4622V33.5754L336.125 32.0168H336.219V39.3ZM342.547 39.4993C344.416 39.4993 345.541 37.7942 345.541 35.0754V35.0637C345.541 32.345 344.416 30.6458 342.547 30.6458C340.678 30.6458 339.564 32.345 339.564 35.0637V35.0754C339.564 37.7942 340.678 39.4993 342.547 39.4993ZM342.547 38.5793C341.334 38.5793 340.625 37.2317 340.625 35.0754V35.0637C340.625 32.9075 341.334 31.5715 342.547 31.5715C343.76 31.5715 344.48 32.9075 344.48 35.0637V35.0754C344.48 37.2317 343.76 38.5793 342.547 38.5793ZM350.105 39.4993C351.975 39.4993 353.1 37.7942 353.1 35.0754V35.0637C353.1 32.345 351.975 30.6458 350.105 30.6458C348.236 30.6458 347.123 32.345 347.123 35.0637V35.0754C347.123 37.7942 348.236 39.4993 350.105 39.4993ZM350.105 38.5793C348.893 38.5793 348.184 37.2317 348.184 35.0754V35.0637C348.184 32.9075 348.893 31.5715 350.105 31.5715C351.318 31.5715 352.039 32.9075 352.039 35.0637V35.0754C352.039 37.2317 351.318 38.5793 350.105 38.5793ZM356.41 35.2922C357.488 35.2922 358.145 34.4133 358.145 33.0129V33.0071C358.145 31.6067 357.488 30.7336 356.41 30.7336C355.332 30.7336 354.682 31.6067 354.682 33.0071V33.0129C354.682 34.4133 355.332 35.2922 356.41 35.2922ZM357.043 39.3L362.797 30.845H361.848L356.094 39.3H357.043ZM356.41 34.595C355.83 34.595 355.496 34.0032 355.496 33.0129V33.0071C355.496 32.0168 355.83 31.4309 356.41 31.4309C356.99 31.4309 357.33 32.0168 357.33 33.0071V33.0129C357.33 34.0032 356.99 34.595 356.41 34.595ZM362.469 39.4114C363.547 39.4114 364.203 38.5325 364.203 37.1321V37.1262C364.203 35.7258 363.547 34.8528 362.469 34.8528C361.391 34.8528 360.74 35.7258 360.74 37.1262V37.1321C360.74 38.5325 361.391 39.4114 362.469 39.4114ZM362.469 38.7141C361.889 38.7141 361.555 38.1223 361.555 37.1321V37.1262C361.555 36.136 361.889 35.55 362.469 35.55C363.049 35.55 363.389 36.136 363.389 37.1262V37.1321C363.389 38.1223 363.049 38.7141 362.469 38.7141Z" fill="black"/>
<path fill-rule="evenodd" clip-rule="evenodd" d="M45.5 30H46.5C47.0523 30 47.5 30.4477 47.5 31V39C47.5 39.5523 47.0523 40 46.5 40H45.5C44.9477 40 44.5 39.5523 44.5 39V31C44.5 30.4477 44.9477 30 45.5 30Z" fill="black"/>
<path d="M42 32H41C40.4477 32 40 32.4477 40 33V39C40 39.5523 40.4477 40 41 40H42C42.5523 40 43 39.5523 43 39V33C43 32.4477 42.5523 32 42 32Z" fill="black"/>
<path d="M36.5 34H37.5C38.0523 34 38.5 34.4477 38.5 35V39C38.5 39.5523 38.0523 40 37.5 40H36.5C35.9477 40 35.5 39.5523 35.5 39V35C35.5 34.4477 35.9477 34 36.5 34Z" fill="black"/>
<path d="M32 35.5H33C33.5523 35.5 34 35.9477 34 36.5V39C34 39.5523 33.5523 40 33 40H32C31.4477 40 31 39.5523 31 39V36.5C31 35.9477 31.4477 35.5 32 35.5Z" fill="black"/>
<path d="M55.0781 39H56.1328V35.6543H58.2129L60.0234 39H61.2598L59.3027 35.4902C60.3633 35.1562 61.002 34.2422 61.002 33.0703V33.0586C61.002 31.541 59.9355 30.5449 58.3066 30.5449H55.0781V39ZM56.1328 34.7168V31.4824H58.166C59.2559 31.4824 59.9121 32.0859 59.9121 33.0938V33.1055C59.9121 34.1367 59.2969 34.7168 58.2129 34.7168H56.1328ZM65.6395 39.1992C67.5262 39.1992 68.7625 38.2148 68.7625 36.6328V36.627C68.7625 35.4082 68.0652 34.6992 66.3016 34.3066L65.3641 34.0957C64.2156 33.8438 63.7527 33.3867 63.7527 32.7129V32.707C63.7527 31.8223 64.5672 31.3242 65.6219 31.3184C66.7234 31.3125 67.4266 31.8633 67.5437 32.6074L67.5555 32.6836H68.6102L68.6043 32.6016C68.5164 31.3418 67.3387 30.3457 65.6512 30.3457C63.9051 30.3457 62.6805 31.3359 62.6746 32.7363V32.7422C62.6746 33.9668 63.407 34.7461 65.1004 35.1211L66.0379 35.3262C67.198 35.584 67.6844 36.0645 67.6844 36.7676V36.7734C67.6844 37.6348 66.8465 38.2266 65.698 38.2266C64.4793 38.2266 63.6004 37.6934 63.5242 36.8496L63.5184 36.7852H62.4637L62.4695 36.8496C62.5926 38.2266 63.7879 39.1992 65.6395 39.1992ZM73.2418 39.1992C75.1285 39.1992 76.3648 38.2148 76.3648 36.6328V36.627C76.3648 35.4082 75.6676 34.6992 73.9039 34.3066L72.9664 34.0957C71.818 33.8438 71.3551 33.3867 71.3551 32.7129V32.707C71.3551 31.8223 72.1695 31.3242 73.2242 31.3184C74.3258 31.3125 75.0289 31.8633 75.1461 32.6074L75.1578 32.6836H76.2125L76.2066 32.6016C76.1187 31.3418 74.941 30.3457 73.2535 30.3457C71.5074 30.3457 70.2828 31.3359 70.277 32.7363V32.7422C70.277 33.9668 71.0094 34.7461 72.7027 35.1211L73.6402 35.3262C74.8004 35.584 75.2867 36.0645 75.2867 36.7676V36.7734C75.2867 37.6348 74.4488 38.2266 73.3004 38.2266C72.0816 38.2266 71.2027 37.6934 71.1266 36.8496L71.1207 36.7852H70.066L70.0719 36.8496C70.1949 38.2266 71.3902 39.1992 73.2418 39.1992ZM80.5277 39.1113C82.0453 39.1113 82.8949 38.2969 83.1527 37.1543L83.1645 37.0898L82.1566 37.0957L82.1449 37.1309C81.9105 37.834 81.3715 38.209 80.5219 38.209C79.3969 38.209 78.6703 37.2773 78.6703 35.8242V35.8125C78.6703 34.3887 79.3852 33.4746 80.5219 33.4746C81.4301 33.4746 81.9926 33.9785 82.1508 34.5996L82.1566 34.6172H83.1703L83.1645 34.582C82.977 33.457 82.057 32.5723 80.5219 32.5723C78.7523 32.5723 77.6273 33.8496 77.6273 35.8125V35.8242C77.6273 37.8281 78.7582 39.1113 80.5277 39.1113ZM84.6672 39H85.6867V35.2617C85.6867 34.1543 86.3254 33.4746 87.3332 33.4746C88.341 33.4746 88.8098 34.0195 88.8098 35.1562V39H89.8293V34.9102C89.8293 33.4102 89.0383 32.5723 87.6203 32.5723C86.6887 32.5723 86.0969 32.9648 85.7805 33.6328H85.6867V30.1758H84.6672V39ZM94.2207 39.1113C96.0195 39.1113 97.1328 37.8691 97.1328 35.8477V35.8359C97.1328 33.8086 96.0195 32.5723 94.2207 32.5723C92.4219 32.5723 91.3086 33.8086 91.3086 35.8359V35.8477C91.3086 37.8691 92.4219 39.1113 94.2207 39.1113ZM94.2207 38.209C93.0254 38.209 92.3516 37.3359 92.3516 35.8477V35.8359C92.3516 34.3418 93.0254 33.4746 94.2207 33.4746C95.416 33.4746 96.0898 34.3418 96.0898 35.8359V35.8477C96.0898 37.3359 95.416 38.209 94.2207 38.209ZM101.261 39.1113C103.059 39.1113 104.173 37.8691 104.173 35.8477V35.8359C104.173 33.8086 103.059 32.5723 101.261 32.5723C99.4617 32.5723 98.3484 33.8086 98.3484 35.8359V35.8477C98.3484 37.8691 99.4617 39.1113 101.261 39.1113ZM101.261 38.209C100.065 38.209 99.3914 37.3359 99.3914 35.8477V35.8359C99.3914 34.3418 100.065 33.4746 101.261 33.4746C102.456 33.4746 103.13 34.3418 103.13 35.8359V35.8477C103.13 37.3359 102.456 38.209 101.261 38.209ZM105.763 39H106.783V30.1758H105.763V39Z" fill="black"/>
<path fill-rule="evenodd" clip-rule="evenodd" d="M125.983 32.5229C124.072 30.8906 121.657 30 119.133 30C116.601 30 114.18 30.8959 112.266 32.5371L112.104 32.6765C111.972 32.7892 111.965 32.9895 112.087 33.1118L113.214 34.2356C113.324 34.3447 113.498 34.3521 113.617 34.2527L113.756 34.1354C115.263 32.8694 117.155 32.1804 119.133 32.1804C121.104 32.1804 122.989 32.8647 124.494 34.1228L124.634 34.2395C124.752 34.3385 124.926 34.3308 125.036 34.2219L126.163 33.098C126.285 32.9756 126.278 32.7749 126.146 32.6623L125.983 32.5229ZM119.133 33.4698C120.724 33.4698 122.251 33.9975 123.495 34.9749L123.671 35.113C123.811 35.2231 123.824 35.4306 123.697 35.5564L122.567 36.6841C122.462 36.7884 122.297 36.8003 122.178 36.7122L122.04 36.6098C121.2 35.9852 120.186 35.6501 119.133 35.6501C118.073 35.6501 117.053 35.9893 116.21 36.6211L116.072 36.7245C115.954 36.8133 115.787 36.8016 115.683 36.697L114.552 35.5698C114.426 35.4442 114.438 35.2373 114.578 35.1269L114.753 34.9887C116 34.0027 117.534 33.4698 119.133 33.4698ZM119.133 36.9396C119.772 36.9396 120.394 37.1076 120.941 37.4281L121.163 37.5579C121.331 37.6563 121.361 37.8867 121.223 38.0242L119.329 39.913C119.212 40.029 119.024 40.029 118.907 39.913L117.026 38.0363C116.888 37.8994 116.917 37.6702 117.084 37.5711L117.303 37.4406C117.856 37.1121 118.485 36.9396 119.133 36.9396Z" fill="black"/>
<rect x="127" y="132" width="173" height="41" rx="5" fill="#C4C4C4"/>
<path d="M62 335C62 332.2 62 330.8 62.545 329.73C63.0243 328.789 63.7892 328.024 64.73 327.545C65.7996 327 67.1997 327 70 327H357C359.8 327 361.2 327 362.27 327.545C363.211 328.024 363.976 328.789 364.455 329.73C365 330.8 365 332.2 365 335V355C365 357.8 365 359.2 364.455 360.27C363.976 361.211 363.211 361.976 362.27 362.455C361.2 363 359.8 363 357 363H70C67.1997 363 65.7996 363 64.73 362.455C63.7892 361.976 63.0243 361.211 62.545 360.27C62 359.2 62 357.8 62 355V335Z" fill="#C4C4C4"/>
<path d="M62 269C62 266.2 62 264.8 62.545 263.73C63.0243 262.789 63.7892 262.024 64.73 261.545C65.7996 261 67.1997 261 70 261H357C359.8 261 361.2 261 362.27 261.545C363.211 262.024 363.976 262.789 364.455 263.73C365 264.8 365 266.2 365 269V289C365 291.8 365 293.2 364.455 294.27C363.976 295.211 363.211 295.976 362.27 296.455C361.2 297 359.8 297 357 297H70C67.1997 297 65.7996 297 64.73 296.455C63.7892 295.976 63.0243 295.211 62.545 294.27C62 293.2 62 291.8 62 289V269Z" fill="#C4C4C4"/>
<rect x="135" y="423" width="156" height="42" rx="5" fill="#C4C4C4"/>
<rect x="97" y="533" width="234" height="108" rx="9" stroke="white" stroke-width="2"/>
<rect x="119" y="577" width="50" height="50" rx="5" fill="#C4C4C4"/>
<rect x="189" y="577" width="50" height="50" rx="5" fill="#C4C4C4"/>
<rect x="259" y="577" width="50" height="50" rx="5" fill="#C4C4C4"/>
<path d="M205.43 560H207.697V547.317H205.438L202.125 549.646V551.782L205.28 549.55H205.43V560ZM220.728 560.255C223.541 560.255 225.466 558.699 225.466 556.467V556.449C225.466 554.691 224.226 553.584 222.363 553.408V553.364C223.884 553.048 225.017 552.002 225.017 550.429V550.411C225.017 548.425 223.321 547.062 220.711 547.062C218.153 547.062 216.422 548.504 216.228 550.701L216.22 550.798H218.329L218.338 550.71C218.452 549.576 219.375 548.864 220.711 548.864C222.064 548.864 222.847 549.55 222.847 550.71V550.728C222.847 551.835 221.915 552.626 220.517 552.626H219.067V554.313H220.561C222.187 554.313 223.172 555.052 223.172 556.388V556.405C223.172 557.583 222.196 558.4 220.728 558.4C219.243 558.4 218.25 557.636 218.127 556.563L218.118 556.467H215.956L215.965 556.572C216.132 558.743 217.951 560.255 220.728 560.255Z" fill="black"/>
<path d="M243.477 498.139H246.723V496.879H245.117V488.342H246.723V487.082H243.477V498.139ZM250.171 496H251.94V489.004H254.477V487.545H247.634V489.004H250.171V496ZM256.578 488.559C257.105 488.559 257.539 488.137 257.539 487.609C257.539 487.076 257.105 486.654 256.578 486.654C256.05 486.654 255.611 487.076 255.611 487.609C255.611 488.137 256.05 488.559 256.578 488.559ZM255.716 496H257.427V489.549H255.716V496ZM261.778 496.023C262.106 496.023 262.422 495.988 262.633 495.947V494.676C262.469 494.693 262.352 494.705 262.129 494.705C261.549 494.705 261.303 494.447 261.303 493.867V490.838H262.633V489.549H261.303V488.008H259.575V489.549H258.579V490.838H259.575V494.26C259.575 495.514 260.207 496.023 261.778 496.023ZM264.066 496H265.777V487.082H264.066V496ZM270.332 496.135C272.219 496.135 273.051 495.045 273.25 494.236L273.262 494.178H271.668L271.65 494.213C271.533 494.459 271.117 494.857 270.367 494.857C269.459 494.857 268.891 494.242 268.873 493.182H273.314V492.648C273.314 490.697 272.143 489.408 270.262 489.408C268.381 489.408 267.18 490.727 267.18 492.777V492.783C267.18 494.852 268.369 496.135 270.332 496.135ZM270.291 490.691C271.035 490.691 271.568 491.172 271.674 492.109H268.891C268.996 491.195 269.547 490.691 270.291 490.691ZM277.483 498.139V487.082H274.237V488.342H275.837V496.879H274.237V498.139H277.483ZM246.049 512.217C248.158 512.217 249.459 511.156 249.459 509.48V509.475C249.459 508.156 248.68 507.441 246.893 507.072L245.996 506.891C245 506.686 244.59 506.357 244.59 505.807V505.801C244.59 505.168 245.17 504.77 246.043 504.764C246.934 504.764 247.52 505.186 247.619 505.789L247.631 505.859H249.295L249.289 505.783C249.178 504.371 248.018 503.328 246.043 503.328C244.168 503.328 242.82 504.365 242.82 505.936V505.941C242.82 507.225 243.576 508.045 245.334 508.402L246.225 508.584C247.273 508.801 247.689 509.111 247.689 509.668V509.674C247.689 510.324 247.039 510.775 246.096 510.775C245.105 510.775 244.42 510.348 244.355 509.715L244.35 509.656H242.645L242.65 509.75C242.75 511.25 244.027 512.217 246.049 512.217ZM251.085 512H252.854V508.672H256.294V507.271H252.854V505.004H256.622V503.545H251.085V512ZM261.25 512H263.02V509.334H264.737C266.518 509.334 267.707 508.186 267.707 506.445V506.434C267.707 504.693 266.518 503.545 264.737 503.545H261.25V512ZM264.303 504.945C265.317 504.945 265.914 505.479 265.914 506.439V506.451C265.914 507.412 265.317 507.951 264.303 507.951H263.02V504.945H264.303ZM269.116 512H270.827V508.391C270.827 507.477 271.443 506.92 272.415 506.92C272.679 506.92 272.943 506.961 273.2 507.02V505.525C273.03 505.479 272.79 505.443 272.562 505.443C271.724 505.443 271.138 505.854 270.933 506.551H270.827V505.549H269.116V512ZM277.006 512.135C278.992 512.135 280.188 510.881 280.188 508.777V508.766C280.188 506.68 278.975 505.408 277.006 505.408C275.037 505.408 273.824 506.686 273.824 508.766V508.777C273.824 510.875 275.02 512.135 277.006 512.135ZM277.006 510.793C276.092 510.793 275.576 510.049 275.576 508.777V508.766C275.576 507.506 276.098 506.75 277.006 506.75C277.908 506.75 278.436 507.506 278.436 508.766V508.777C278.436 510.049 277.914 510.793 277.006 510.793ZM286.796 512H288.566V505.004H291.103V503.545H284.259V505.004H286.796V512ZM294.17 512.135C296.057 512.135 296.889 511.045 297.088 510.236L297.1 510.178H295.506L295.489 510.213C295.371 510.459 294.955 510.857 294.205 510.857C293.297 510.857 292.729 510.242 292.711 509.182H297.153V508.648C297.153 506.697 295.981 505.408 294.1 505.408C292.219 505.408 291.018 506.727 291.018 508.777V508.783C291.018 510.852 292.207 512.135 294.17 512.135ZM294.129 506.691C294.873 506.691 295.407 507.172 295.512 508.109H292.729C292.834 507.195 293.385 506.691 294.129 506.691ZM297.765 512H299.57L300.771 509.867H300.876L302.083 512H303.976L301.931 508.736L303.964 505.549H302.101L300.958 507.688H300.853L299.71 505.549H297.747L299.786 508.807L297.765 512ZM307.834 512.023C308.162 512.023 308.479 511.988 308.689 511.947V510.676C308.525 510.693 308.408 510.705 308.186 510.705C307.605 510.705 307.359 510.447 307.359 509.867V506.838H308.689V505.549H307.359V504.008H305.631V505.549H304.635V506.838H305.631V510.26C305.631 511.514 306.264 512.023 307.834 512.023ZM244.924 528H246.693V519.545H244.93L242.744 521.062V522.656L244.818 521.215H244.924V528ZM252.257 528.188C254.29 528.188 255.69 527.174 255.69 525.709V525.697C255.69 524.596 254.864 523.775 253.716 523.553V523.518C254.7 523.271 255.38 522.562 255.38 521.643V521.631C255.38 520.318 254.091 519.357 252.257 519.357C250.417 519.357 249.134 520.318 249.134 521.631V521.643C249.134 522.562 249.807 523.277 250.798 523.518V523.553C249.643 523.781 248.823 524.596 248.823 525.697V525.709C248.823 527.174 250.223 528.188 252.257 528.188ZM252.257 522.984C251.442 522.984 250.88 522.504 250.88 521.812V521.801C250.88 521.109 251.448 520.635 252.257 520.635C253.059 520.635 253.628 521.109 253.628 521.801V521.812C253.628 522.504 253.065 522.984 252.257 522.984ZM252.257 526.898C251.325 526.898 250.669 526.354 250.669 525.592V525.58C250.669 524.818 251.319 524.268 252.257 524.268C253.194 524.268 253.839 524.818 253.839 525.58V525.592C253.839 526.354 253.182 526.898 252.257 526.898ZM257.228 530.139H258.939V526.969H259.045C259.373 527.672 260.093 528.1 260.978 528.1C262.613 528.1 263.597 526.852 263.597 524.777V524.766C263.597 522.709 262.589 521.443 260.978 521.443C260.064 521.443 259.379 521.854 259.045 522.545H258.939V521.549H257.228V530.139ZM260.392 526.682C259.496 526.682 258.921 525.961 258.921 524.777V524.766C258.921 523.582 259.49 522.861 260.392 522.861C261.3 522.861 261.857 523.582 261.857 524.766V524.777C261.857 525.961 261.295 526.682 260.392 526.682ZM267.625 528.023C267.954 528.023 268.27 527.988 268.481 527.947V526.676C268.317 526.693 268.2 526.705 267.977 526.705C267.397 526.705 267.151 526.447 267.151 525.867V522.838H268.481V521.549H267.151V520.008H265.422V521.549H264.426V522.838H265.422V526.26C265.422 527.514 266.055 528.023 267.625 528.023ZM246.049 544.217C248.158 544.217 249.459 543.156 249.459 541.48V541.475C249.459 540.156 248.68 539.441 246.893 539.072L245.996 538.891C245 538.686 244.59 538.357 244.59 537.807V537.801C244.59 537.168 245.17 536.77 246.043 536.764C246.934 536.764 247.52 537.186 247.619 537.789L247.631 537.859H249.295L249.289 537.783C249.178 536.371 248.018 535.328 246.043 535.328C244.168 535.328 242.82 536.365 242.82 537.936V537.941C242.82 539.225 243.576 540.045 245.334 540.402L246.225 540.584C247.273 540.801 247.689 541.111 247.689 541.668V541.674C247.689 542.324 247.039 542.775 246.096 542.775C245.105 542.775 244.42 542.348 244.355 541.715L244.35 541.656H242.645L242.65 541.75C242.75 543.25 244.027 544.217 246.049 544.217ZM253.751 544.135C255.637 544.135 256.47 543.045 256.669 542.236L256.68 542.178H255.087L255.069 542.213C254.952 542.459 254.536 542.857 253.786 542.857C252.878 542.857 252.309 542.242 252.292 541.182H256.733V540.648C256.733 538.697 255.561 537.408 253.68 537.408C251.8 537.408 250.598 538.727 250.598 540.777V540.783C250.598 542.852 251.788 544.135 253.751 544.135ZM253.71 538.691C254.454 538.691 254.987 539.172 255.093 540.109H252.309C252.415 539.195 252.966 538.691 253.71 538.691ZM258.084 544H259.795V540.109C259.795 539.371 260.263 538.826 260.931 538.826C261.599 538.826 261.992 539.23 261.992 539.922V544H263.703V540.033C263.703 539.336 264.148 538.826 264.839 538.826C265.554 538.826 265.906 539.219 265.906 539.998V544H267.617V539.57C267.617 538.24 266.814 537.408 265.531 537.408C264.629 537.408 263.879 537.883 263.586 538.598H263.48C263.216 537.854 262.566 537.408 261.687 537.408C260.843 537.408 260.175 537.83 259.9 538.557H259.795V537.549H258.084V544ZM270.098 536.559C270.625 536.559 271.059 536.137 271.059 535.609C271.059 535.076 270.625 534.654 270.098 534.654C269.571 534.654 269.131 535.076 269.131 535.609C269.131 536.137 269.571 536.559 270.098 536.559ZM269.237 544H270.948V537.549H269.237V544ZM276.429 544.1C278.04 544.1 279.048 542.84 279.048 540.777V540.766C279.048 538.691 278.064 537.443 276.429 537.443C275.544 537.443 274.823 537.877 274.495 538.58H274.39V535.082H272.679V544H274.39V542.998H274.495C274.829 543.695 275.515 544.1 276.429 544.1ZM275.843 542.682C274.941 542.682 274.372 541.967 274.372 540.783V540.771C274.372 539.588 274.946 538.861 275.843 538.861C276.745 538.861 277.308 539.588 277.308 540.766V540.777C277.308 541.967 276.751 542.682 275.843 542.682ZM283.252 544.135C285.238 544.135 286.434 542.881 286.434 540.777V540.766C286.434 538.68 285.221 537.408 283.252 537.408C281.283 537.408 280.07 538.686 280.07 540.766V540.777C280.07 542.875 281.266 544.135 283.252 544.135ZM283.252 542.793C282.338 542.793 281.822 542.049 281.822 540.777V540.766C281.822 539.506 282.344 538.75 283.252 538.75C284.154 538.75 284.682 539.506 284.682 540.766V540.777C284.682 542.049 284.16 542.793 283.252 542.793ZM287.837 544H289.548V535.082H287.837V544ZM293.57 544.1C294.478 544.1 295.164 543.695 295.498 542.998H295.603V544H297.314V535.082H295.603V538.58H295.498C295.175 537.877 294.455 537.443 293.57 537.443C291.935 537.443 290.951 538.691 290.951 540.766V540.777C290.951 542.84 291.959 544.1 293.57 544.1ZM294.15 542.682C293.248 542.682 292.691 541.967 292.691 540.777V540.766C292.691 539.588 293.248 538.861 294.15 538.861C295.052 538.861 295.621 539.588 295.621 540.771V540.783C295.621 541.967 295.058 542.682 294.15 542.682ZM243.025 560H246.822C248.627 560 249.746 559.068 249.746 557.586V557.574C249.746 556.49 248.932 555.652 247.812 555.564V555.459C248.68 555.33 249.342 554.551 249.342 553.66V553.648C249.342 552.348 248.363 551.545 246.723 551.545H243.025V560ZM246.271 552.857C247.115 552.857 247.602 553.268 247.602 553.953V553.965C247.602 554.662 247.08 555.061 246.125 555.061H244.795V552.857H246.271ZM246.33 556.227C247.373 556.227 247.941 556.648 247.941 557.434V557.445C247.941 558.248 247.391 558.682 246.371 558.682H244.795V556.227H246.33ZM251.184 560H252.895V551.082H251.184V560ZM256.373 560.1C257.216 560.1 257.896 559.742 258.224 559.145H258.33V560H260.017V555.594C260.017 554.217 259.05 553.408 257.339 553.408C255.716 553.408 254.65 554.158 254.515 555.289L254.509 555.342H256.091L256.103 555.318C256.238 554.938 256.63 554.721 257.246 554.721C257.949 554.721 258.33 555.037 258.33 555.594V556.127L256.771 556.221C255.166 556.314 254.269 556.994 254.269 558.154V558.166C254.269 559.338 255.142 560.1 256.373 560.1ZM255.939 558.061V558.049C255.939 557.58 256.296 557.305 257.029 557.258L258.33 557.176V557.65C258.33 558.33 257.738 558.852 256.947 558.852C256.355 558.852 255.939 558.553 255.939 558.061ZM264.485 560.135C266.166 560.135 267.174 559.232 267.35 557.826L267.356 557.791H265.774L265.762 557.814C265.61 558.459 265.194 558.793 264.491 558.793C263.577 558.793 263.067 558.072 263.067 556.766V556.754C263.067 555.465 263.571 554.75 264.491 554.75C265.223 554.75 265.651 555.16 265.762 555.787L265.768 555.799H267.362V555.781C267.209 554.34 266.196 553.408 264.485 553.408C262.463 553.408 261.327 554.633 261.327 556.754V556.766C261.327 558.91 262.469 560.135 264.485 560.135ZM268.706 560H270.417V557.838L270.886 557.34L272.767 560H274.788L272.14 556.285L274.618 553.549H272.679L270.523 556.098H270.417V551.082H268.706V560Z" fill="#FFA800"/>
</g>
<defs>
<filter id="filter0_d" x="0" y="0" width="426" height="717" filterUnits="userSpaceOnUse" color-interpolation-filters="sRGB">
<feFlood flood-opacity="0" result="BackgroundImageFix"/>
<feColorMatrix in="SourceAlpha" type="matrix" values="0 0 0 0 0 0 0 0 0 0 0 0 0 0 0 0 0 0 127 0"/>
<feMorphology radius="5" operator="dilate" in="SourceAlpha" result="effect1_dropShadow"/>
<feOffset/>
<feGaussianBlur stdDeviation="10"/>
<feColorMatrix type="matrix" values="0 0 0 0 0 0 0 0 0 0 0 0 0 0 0 0 0 0 0.15 0"/>
<feBlend mode="normal" in2="BackgroundImageFix" result="effect1_dropShadow"/>
<feBlend mode="normal" in="SourceGraphic" in2="effect1_dropShadow" result="shape"/>
</filter>
</defs>
</svg>
