<svg width="426" height="717" viewBox="0 0 426 717" fill="none" xmlns="http://www.w3.org/2000/svg">
<g filter="url(#filter0_d)">
<rect width="375" height="667" transform="translate(26 25)" fill="white"/>
<path d="M192.279 30.334C190.445 30.334 189.139 31.5879 189.139 33.3047V33.3164C189.139 34.9219 190.275 36.1055 191.898 36.1055C193.059 36.1055 193.797 35.5137 194.107 34.8457H194.225C194.225 34.9102 194.219 34.9746 194.219 35.0391C194.154 36.6562 193.586 37.9688 192.244 37.9688C191.5 37.9688 190.979 37.582 190.756 36.9902L190.738 36.9316H189.25L189.262 36.9961C189.531 38.291 190.691 39.2109 192.244 39.2109C194.371 39.2109 195.654 37.5234 195.654 34.6758V34.6641C195.654 31.6172 194.084 30.334 192.279 30.334ZM192.273 34.9453C191.312 34.9453 190.615 34.2422 190.615 33.2637V33.252C190.615 32.3086 191.359 31.5645 192.291 31.5645C193.229 31.5645 193.961 32.3203 193.961 33.2871V33.2988C193.961 34.2539 193.229 34.9453 192.273 34.9453ZM198.314 33.5215C198.854 33.5215 199.246 33.1113 199.246 32.5957C199.246 32.0742 198.854 31.6699 198.314 31.6699C197.781 31.6699 197.383 32.0742 197.383 32.5957C197.383 33.1113 197.781 33.5215 198.314 33.5215ZM198.314 37.8691C198.854 37.8691 199.246 37.4648 199.246 36.9434C199.246 36.4219 198.854 36.0176 198.314 36.0176C197.781 36.0176 197.383 36.4219 197.383 36.9434C197.383 37.4648 197.781 37.8691 198.314 37.8691ZM205.076 39H206.523V37.377H207.66V36.1289H206.523V30.5449H204.385C203.236 32.291 202.035 34.2363 200.939 36.1406V37.377H205.076V39ZM202.346 36.1641V36.0762C203.166 34.6406 204.145 33.0762 205.012 31.752H205.1V36.1641H202.346ZM211.164 39H212.676V30.5449H211.17L208.961 32.0977V33.5215L211.064 32.0332H211.164V39ZM217.756 39H219.338L220.041 36.8145H223.17L223.879 39H225.461L222.461 30.5449H220.756L217.756 39ZM221.559 32.1152H221.658L222.795 35.6484H220.422L221.559 32.1152ZM226.914 39H228.279V32.9883H228.379L230.723 39H231.754L234.098 32.9883H234.203V39H235.562V30.5449H233.828L231.291 37.0488H231.191L228.648 30.5449H226.914V39Z" fill="black"/>
<path opacity="0.35" fill-rule="evenodd" clip-rule="evenodd" d="M370.5 29.5H389.5C390.881 29.5 392 30.6193 392 32V38.5C392 39.8807 390.881 41 389.5 41H370.5C369.119 41 368 39.8807 368 38.5V32C368 30.6193 369.119 29.5 370.5 29.5ZM370.5 30.5C369.672 30.5 369 31.1716 369 32V38.5C369 39.3284 369.672 40 370.5 40H389.5C390.328 40 391 39.3284 391 38.5V32C391 31.1716 390.328 30.5 389.5 30.5H370.5Z" fill="black"/>
<path opacity="0.4" fill-rule="evenodd" clip-rule="evenodd" d="M393 32.7998C393.89 33.255 394.5 34.1813 394.5 35.2499C394.5 36.3186 393.89 37.2449 393 37.7001V32.7998Z" fill="black"/>
<path fill-rule="evenodd" clip-rule="evenodd" d="M371 31.5H389C389.552 31.5 390 31.9477 390 32.5V38C390 38.5523 389.552 39 389 39H371C370.448 39 370 38.5523 370 38V32.5C370 31.9477 370.448 31.5 371 31.5Z" fill="black"/>
<path d="M336.219 39.3H337.273V30.845H336.225L333.975 32.4622V33.5754L336.125 32.0168H336.219V39.3ZM342.547 39.4993C344.416 39.4993 345.541 37.7942 345.541 35.0754V35.0637C345.541 32.345 344.416 30.6458 342.547 30.6458C340.678 30.6458 339.564 32.345 339.564 35.0637V35.0754C339.564 37.7942 340.678 39.4993 342.547 39.4993ZM342.547 38.5793C341.334 38.5793 340.625 37.2317 340.625 35.0754V35.0637C340.625 32.9075 341.334 31.5715 342.547 31.5715C343.76 31.5715 344.48 32.9075 344.48 35.0637V35.0754C344.48 37.2317 343.76 38.5793 342.547 38.5793ZM350.105 39.4993C351.975 39.4993 353.1 37.7942 353.1 35.0754V35.0637C353.1 32.345 351.975 30.6458 350.105 30.6458C348.236 30.6458 347.123 32.345 347.123 35.0637V35.0754C347.123 37.7942 348.236 39.4993 350.105 39.4993ZM350.105 38.5793C348.893 38.5793 348.184 37.2317 348.184 35.0754V35.0637C348.184 32.9075 348.893 31.5715 350.105 31.5715C351.318 31.5715 352.039 32.9075 352.039 35.0637V35.0754C352.039 37.2317 351.318 38.5793 350.105 38.5793ZM356.41 35.2922C357.488 35.2922 358.145 34.4133 358.145 33.0129V33.0071C358.145 31.6067 357.488 30.7336 356.41 30.7336C355.332 30.7336 354.682 31.6067 354.682 33.0071V33.0129C354.682 34.4133 355.332 35.2922 356.41 35.2922ZM357.043 39.3L362.797 30.845H361.848L356.094 39.3H357.043ZM356.41 34.595C355.83 34.595 355.496 34.0032 355.496 33.0129V33.0071C355.496 32.0168 355.83 31.4309 356.41 31.4309C356.99 31.4309 357.33 32.0168 357.33 33.0071V33.0129C357.33 34.0032 356.99 34.595 356.41 34.595ZM362.469 39.4114C363.547 39.4114 364.203 38.5325 364.203 37.1321V37.1262C364.203 35.7258 363.547 34.8528 362.469 34.8528C361.391 34.8528 360.74 35.7258 360.74 37.1262V37.1321C360.74 38.5325 361.391 39.4114 362.469 39.4114ZM362.469 38.7141C361.889 38.7141 361.555 38.1223 361.555 37.1321V37.1262C361.555 36.136 361.889 35.55 362.469 35.55C363.049 35.55 363.389 36.136 363.389 37.1262V37.1321C363.389 38.1223 363.049 38.7141 362.469 38.7141Z" fill="black"/>
<path fill-rule="evenodd" clip-rule="evenodd" d="M45.5 30H46.5C47.0523 30 47.5 30.4477 47.5 31V39C47.5 39.5523 47.0523 40 46.5 40H45.5C44.9477 40 44.5 39.5523 44.5 39V31C44.5 30.4477 44.9477 30 45.5 30Z" fill="black"/>
<path d="M42 32H41C40.4477 32 40 32.4477 40 33V39C40 39.5523 40.4477 40 41 40H42C42.5523 40 43 39.5523 43 39V33C43 32.4477 42.5523 32 42 32Z" fill="black"/>
<path d="M36.5 34H37.5C38.0523 34 38.5 34.4477 38.5 35V39C38.5 39.5523 38.0523 40 37.5 40H36.5C35.9477 40 35.5 39.5523 35.5 39V35C35.5 34.4477 35.9477 34 36.5 34Z" fill="black"/>
<path d="M32 35.5H33C33.5523 35.5 34 35.9477 34 36.5V39C34 39.5523 33.5523 40 33 40H32C31.4477 40 31 39.5523 31 39V36.5C31 35.9477 31.4477 35.5 32 35.5Z" fill="black"/>
<path d="M55.0781 39H56.1328V35.6543H58.2129L60.0234 39H61.2598L59.3027 35.4902C60.3633 35.1562 61.002 34.2422 61.002 33.0703V33.0586C61.002 31.541 59.9355 30.5449 58.3066 30.5449H55.0781V39ZM56.1328 34.7168V31.4824H58.166C59.2559 31.4824 59.9121 32.0859 59.9121 33.0938V33.1055C59.9121 34.1367 59.2969 34.7168 58.2129 34.7168H56.1328ZM65.6395 39.1992C67.5262 39.1992 68.7625 38.2148 68.7625 36.6328V36.627C68.7625 35.4082 68.0652 34.6992 66.3016 34.3066L65.3641 34.0957C64.2156 33.8438 63.7527 33.3867 63.7527 32.7129V32.707C63.7527 31.8223 64.5672 31.3242 65.6219 31.3184C66.7234 31.3125 67.4266 31.8633 67.5437 32.6074L67.5555 32.6836H68.6102L68.6043 32.6016C68.5164 31.3418 67.3387 30.3457 65.6512 30.3457C63.9051 30.3457 62.6805 31.3359 62.6746 32.7363V32.7422C62.6746 33.9668 63.407 34.7461 65.1004 35.1211L66.0379 35.3262C67.198 35.584 67.6844 36.0645 67.6844 36.7676V36.7734C67.6844 37.6348 66.8465 38.2266 65.698 38.2266C64.4793 38.2266 63.6004 37.6934 63.5242 36.8496L63.5184 36.7852H62.4637L62.4695 36.8496C62.5926 38.2266 63.7879 39.1992 65.6395 39.1992ZM73.2418 39.1992C75.1285 39.1992 76.3648 38.2148 76.3648 36.6328V36.627C76.3648 35.4082 75.6676 34.6992 73.9039 34.3066L72.9664 34.0957C71.818 33.8438 71.3551 33.3867 71.3551 32.7129V32.707C71.3551 31.8223 72.1695 31.3242 73.2242 31.3184C74.3258 31.3125 75.0289 31.8633 75.1461 32.6074L75.1578 32.6836H76.2125L76.2066 32.6016C76.1187 31.3418 74.941 30.3457 73.2535 30.3457C71.5074 30.3457 70.2828 31.3359 70.277 32.7363V32.7422C70.277 33.9668 71.0094 34.7461 72.7027 35.1211L73.6402 35.3262C74.8004 35.584 75.2867 36.0645 75.2867 36.7676V36.7734C75.2867 37.6348 74.4488 38.2266 73.3004 38.2266C72.0816 38.2266 71.2027 37.6934 71.1266 36.8496L71.1207 36.7852H70.066L70.0719 36.8496C70.1949 38.2266 71.3902 39.1992 73.2418 39.1992ZM80.5277 39.1113C82.0453 39.1113 82.8949 38.2969 83.1527 37.1543L83.1645 37.0898L82.1566 37.0957L82.1449 37.1309C81.9105 37.834 81.3715 38.209 80.5219 38.209C79.3969 38.209 78.6703 37.2773 78.6703 35.8242V35.8125C78.6703 34.3887 79.3852 33.4746 80.5219 33.4746C81.4301 33.4746 81.9926 33.9785 82.1508 34.5996L82.1566 34.6172H83.1703L83.1645 34.582C82.977 33.457 82.057 32.5723 80.5219 32.5723C78.7523 32.5723 77.6273 33.8496 77.6273 35.8125V35.8242C77.6273 37.8281 78.7582 39.1113 80.5277 39.1113ZM84.6672 39H85.6867V35.2617C85.6867 34.1543 86.3254 33.4746 87.3332 33.4746C88.341 33.4746 88.8098 34.0195 88.8098 35.1562V39H89.8293V34.9102C89.8293 33.4102 89.0383 32.5723 87.6203 32.5723C86.6887 32.5723 86.0969 32.9648 85.7805 33.6328H85.6867V30.1758H84.6672V39ZM94.2207 39.1113C96.0195 39.1113 97.1328 37.8691 97.1328 35.8477V35.8359C97.1328 33.8086 96.0195 32.5723 94.2207 32.5723C92.4219 32.5723 91.3086 33.8086 91.3086 35.8359V35.8477C91.3086 37.8691 92.4219 39.1113 94.2207 39.1113ZM94.2207 38.209C93.0254 38.209 92.3516 37.3359 92.3516 35.8477V35.8359C92.3516 34.3418 93.0254 33.4746 94.2207 33.4746C95.416 33.4746 96.0898 34.3418 96.0898 35.8359V35.8477C96.0898 37.3359 95.416 38.209 94.2207 38.209ZM101.261 39.1113C103.059 39.1113 104.173 37.8691 104.173 35.8477V35.8359C104.173 33.8086 103.059 32.5723 101.261 32.5723C99.4617 32.5723 98.3484 33.8086 98.3484 35.8359V35.8477C98.3484 37.8691 99.4617 39.1113 101.261 39.1113ZM101.261 38.209C100.065 38.209 99.3914 37.3359 99.3914 35.8477V35.8359C99.3914 34.3418 100.065 33.4746 101.261 33.4746C102.456 33.4746 103.13 34.3418 103.13 35.8359V35.8477C103.13 37.3359 102.456 38.209 101.261 38.209ZM105.763 39H106.783V30.1758H105.763V39Z" fill="black"/>
<path fill-rule="evenodd" clip-rule="evenodd" d="M125.983 32.5229C124.072 30.8906 121.657 30 119.133 30C116.601 30 114.18 30.8959 112.266 32.5371L112.104 32.6765C111.972 32.7892 111.965 32.9895 112.087 33.1118L113.214 34.2356C113.324 34.3447 113.498 34.3521 113.617 34.2527L113.756 34.1354C115.263 32.8694 117.155 32.1804 119.133 32.1804C121.104 32.1804 122.989 32.8647 124.494 34.1228L124.634 34.2395C124.752 34.3385 124.926 34.3308 125.036 34.2219L126.163 33.098C126.285 32.9756 126.278 32.7749 126.146 32.6623L125.983 32.5229ZM119.133 33.4698C120.724 33.4698 122.251 33.9975 123.495 34.9749L123.671 35.113C123.811 35.2231 123.824 35.4306 123.697 35.5564L122.567 36.6841C122.462 36.7884 122.297 36.8003 122.178 36.7122L122.04 36.6098C121.2 35.9852 120.186 35.6501 119.133 35.6501C118.073 35.6501 117.053 35.9893 116.21 36.6211L116.072 36.7245C115.954 36.8133 115.787 36.8016 115.683 36.697L114.552 35.5698C114.426 35.4442 114.438 35.2373 114.578 35.1269L114.753 34.9887C116 34.0027 117.534 33.4698 119.133 33.4698ZM119.133 36.9396C119.772 36.9396 120.394 37.1076 120.941 37.4281L121.163 37.5579C121.331 37.6563 121.361 37.8867 121.223 38.0242L119.329 39.913C119.212 40.029 119.024 40.029 118.907 39.913L117.026 38.0363C116.888 37.8994 116.917 37.6702 117.084 37.5711L117.303 37.4406C117.856 37.1121 118.485 36.9396 119.133 36.9396Z" fill="black"/>
<rect x="127" y="132" width="173" height="41" rx="5" fill="#C4C4C4"/>
<path d="M62 335C62 332.2 62 330.8 62.545 329.73C63.0243 328.789 63.7892 328.024 64.73 327.545C65.7996 327 67.1997 327 70 327H357C359.8 327 361.2 327 362.27 327.545C363.211 328.024 363.976 328.789 364.455 329.73C365 330.8 365 332.2 365 335V355C365 357.8 365 359.2 364.455 360.27C363.976 361.211 363.211 361.976 362.27 362.455C361.2 363 359.8 363 357 363H70C67.1997 363 65.7996 363 64.73 362.455C63.7892 361.976 63.0243 361.211 62.545 360.27C62 359.2 62 357.8 62 355V335Z" fill="#C4C4C4"/>
<path d="M62 269C62 266.2 62 264.8 62.545 263.73C63.0243 262.789 63.7892 262.024 64.73 261.545C65.7996 261 67.1997 261 70 261H357C359.8 261 361.2 261 362.27 261.545C363.211 262.024 363.976 262.789 364.455 263.73C365 264.8 365 266.2 365 269V289C365 291.8 365 293.2 364.455 294.27C363.976 295.211 363.211 295.976 362.27 296.455C361.2 297 359.8 297 357 297H70C67.1997 297 65.7996 297 64.73 296.455C63.7892 295.976 63.0243 295.211 62.545 294.27C62 293.2 62 291.8 62 289V269Z" fill="#C4C4C4"/>
<rect x="135" y="423" width="156" height="42" rx="5" fill="#C4C4C4"/>
<rect x="97" y="533" width="234" height="108" rx="9" stroke="white" stroke-width="2"/>
<rect x="119.75" y="577.75" width="48.5" height="48.5" rx="24.25" stroke="#80A4ED" stroke-width="1.5"/>
<path d="M143.906 610H146.93V593.09H143.918L139.5 596.195V599.043L143.707 596.066H143.906V610Z" fill="#80A4ED"/>
<rect x="189.75" y="577.75" width="48.5" height="48.5" rx="24.25" stroke="#80A4ED" stroke-width="1.5"/>
<rect x="259.75" y="577.75" width="48.5" height="48.5" rx="24.25" stroke="#80A4ED" stroke-width="1.5"/>
<path d="M207.77 610H219.512V607.492H211.859V607.246L215.246 603.965C218.328 601 219.254 599.477 219.254 597.555V597.52C219.254 594.672 216.887 592.668 213.594 592.668C210.066 592.668 207.605 594.871 207.605 598.023L207.617 598.059L210.43 598.07L210.441 598.023C210.441 596.277 211.648 595.094 213.441 595.094C215.199 595.094 216.266 596.219 216.266 597.777V597.812C216.266 599.113 215.621 599.969 213.324 602.289L207.77 607.961V610Z" fill="#80A4ED"/>
<path d="M283.887 610.34C287.637 610.34 290.203 608.266 290.203 605.289V605.266C290.203 602.922 288.551 601.445 286.066 601.211V601.152C288.094 600.73 289.605 599.336 289.605 597.238V597.215C289.605 594.566 287.344 592.75 283.863 592.75C280.453 592.75 278.145 594.672 277.887 597.602L277.875 597.73H280.688L280.699 597.613C280.852 596.102 282.082 595.152 283.863 595.152C285.668 595.152 286.711 596.066 286.711 597.613V597.637C286.711 599.113 285.469 600.168 283.605 600.168H281.672V602.418H283.664C285.832 602.418 287.145 603.402 287.145 605.184V605.207C287.145 606.777 285.844 607.867 283.887 607.867C281.906 607.867 280.582 606.848 280.418 605.418L280.406 605.289H277.523L277.535 605.43C277.758 608.324 280.184 610.34 283.887 610.34Z" fill="#80A4ED"/>
<line x1="259.5" y1="601.5" x2="308.5" y2="601.5" stroke="#FFA800" stroke-linecap="round" stroke-dasharray="2 2"/>
<line x1="284.5" y1="577.5" x2="284.5" y2="626.5" stroke="#FFA800" stroke-linecap="round" stroke-dasharray="2 2"/>
<line x1="189.5" y1="601.5" x2="238.5" y2="601.5" stroke="#FFA800" stroke-linecap="round" stroke-dasharray="2 2"/>
<line x1="214.5" y1="577.5" x2="214.5" y2="626.5" stroke="#FFA800" stroke-linecap="round" stroke-dasharray="2 2"/>
<line x1="119.5" y1="601.5" x2="168.5" y2="601.5" stroke="#FFA800" stroke-linecap="round" stroke-dasharray="2 2"/>
<line x1="144.5" y1="577.5" x2="144.5" y2="626.5" stroke="#FFA800" stroke-linecap="round" stroke-dasharray="2 2"/>
<path d="M42.4766 591.139H45.7227V589.879H44.1172V581.342H45.7227V580.082H42.4766V591.139ZM49.1707 589H50.9402V582.004H53.4773V580.545H46.6336V582.004H49.1707V589ZM55.5777 581.559C56.1051 581.559 56.5387 581.137 56.5387 580.609C56.5387 580.076 56.1051 579.654 55.5777 579.654C55.0504 579.654 54.6109 580.076 54.6109 580.609C54.6109 581.137 55.0504 581.559 55.5777 581.559ZM54.7164 589H56.4273V582.549H54.7164V589ZM60.7777 589.023C61.1059 589.023 61.4223 588.988 61.6332 588.947V587.676C61.4691 587.693 61.352 587.705 61.1293 587.705C60.5492 587.705 60.3031 587.447 60.3031 586.867V583.838H61.6332V582.549H60.3031V581.008H58.5746V582.549H57.5785V583.838H58.5746V587.26C58.5746 588.514 59.2074 589.023 60.7777 589.023ZM63.0656 589H64.7766V580.082H63.0656V589ZM69.332 589.135C71.2188 589.135 72.0508 588.045 72.25 587.236L72.2617 587.178H70.668L70.6504 587.213C70.5332 587.459 70.1172 587.857 69.3672 587.857C68.459 587.857 67.8906 587.242 67.873 586.182H72.3145V585.648C72.3145 583.697 71.1426 582.408 69.2617 582.408C67.3809 582.408 66.1797 583.727 66.1797 585.777V585.783C66.1797 587.852 67.3691 589.135 69.332 589.135ZM69.291 583.691C70.0352 583.691 70.5684 584.172 70.6738 585.109H67.8906C67.9961 584.195 68.5469 583.691 69.291 583.691ZM76.4832 591.139V580.082H73.2371V581.342H74.8367V589.879H73.2371V591.139H76.4832ZM45.0488 605.217C47.1582 605.217 48.459 604.156 48.459 602.48V602.475C48.459 601.156 47.6797 600.441 45.8926 600.072L44.9961 599.891C44 599.686 43.5898 599.357 43.5898 598.807V598.801C43.5898 598.168 44.1699 597.77 45.043 597.764C45.9336 597.764 46.5195 598.186 46.6191 598.789L46.6309 598.859H48.2949L48.2891 598.783C48.1777 597.371 47.0176 596.328 45.043 596.328C43.168 596.328 41.8203 597.365 41.8203 598.936V598.941C41.8203 600.225 42.5762 601.045 44.334 601.402L45.2246 601.584C46.2734 601.801 46.6895 602.111 46.6895 602.668V602.674C46.6895 603.324 46.0391 603.775 45.0957 603.775C44.1055 603.775 43.4199 603.348 43.3555 602.715L43.3496 602.656H41.6445L41.6504 602.75C41.75 604.25 43.0273 605.217 45.0488 605.217ZM50.0848 605H51.8543V601.672H55.2937V600.271H51.8543V598.004H55.6219V596.545H50.0848V605ZM60.2504 605H62.0199V602.334H63.7367C65.518 602.334 66.7074 601.186 66.7074 599.445V599.434C66.7074 597.693 65.518 596.545 63.7367 596.545H60.2504V605ZM63.3031 597.945C64.3168 597.945 64.9145 598.479 64.9145 599.439V599.451C64.9145 600.412 64.3168 600.951 63.3031 600.951H62.0199V597.945H63.3031ZM68.1164 605H69.8273V601.391C69.8273 600.477 70.4426 599.92 71.4152 599.92C71.6789 599.92 71.9426 599.961 72.2004 600.02V598.525C72.0305 598.479 71.7902 598.443 71.5617 598.443C70.7238 598.443 70.1379 598.854 69.9328 599.551H69.8273V598.549H68.1164V605ZM76.0059 605.135C77.9922 605.135 79.1875 603.881 79.1875 601.777V601.766C79.1875 599.68 77.9746 598.408 76.0059 598.408C74.0371 598.408 72.8242 599.686 72.8242 601.766V601.777C72.8242 603.875 74.0195 605.135 76.0059 605.135ZM76.0059 603.793C75.0918 603.793 74.5762 603.049 74.5762 601.777V601.766C74.5762 600.506 75.0977 599.75 76.0059 599.75C76.9082 599.75 77.4355 600.506 77.4355 601.766V601.777C77.4355 603.049 76.9141 603.793 76.0059 603.793ZM85.7965 605H87.566V598.004H90.1031V596.545H83.2594V598.004H85.7965V605ZM93.1703 605.135C95.057 605.135 95.8891 604.045 96.0883 603.236L96.1 603.178H94.5062L94.4887 603.213C94.3715 603.459 93.9555 603.857 93.2055 603.857C92.2973 603.857 91.7289 603.242 91.7113 602.182H96.1527V601.648C96.1527 599.697 94.9809 598.408 93.1 598.408C91.2191 598.408 90.018 599.727 90.018 601.777V601.783C90.018 603.852 91.2074 605.135 93.1703 605.135ZM93.1293 599.691C93.8734 599.691 94.4066 600.172 94.5121 601.109H91.7289C91.8344 600.195 92.3852 599.691 93.1293 599.691ZM96.7648 605H98.5695L99.7707 602.867H99.8762L101.083 605H102.976L100.931 601.736L102.964 598.549H101.101L99.9582 600.688H99.8527L98.7102 598.549H96.7473L98.7863 601.807L96.7648 605ZM106.834 605.023C107.162 605.023 107.479 604.988 107.689 604.947V603.676C107.525 603.693 107.408 603.705 107.186 603.705C106.605 603.705 106.359 603.447 106.359 602.867V599.838H107.689V598.549H106.359V597.008H104.631V598.549H103.635V599.838H104.631V603.26C104.631 604.514 105.264 605.023 106.834 605.023ZM41.8555 621H47.9551V619.576H44.2285V619.441L45.793 617.982C47.334 616.559 47.832 615.762 47.832 614.801V614.783C47.832 613.324 46.6133 612.328 44.873 612.328C43.0215 612.328 41.7559 613.441 41.7559 615.064L41.7617 615.088H43.3965V615.059C43.3965 614.256 43.9648 613.705 44.791 613.705C45.5996 613.705 46.0918 614.209 46.0918 614.93V614.947C46.0918 615.539 45.7695 615.967 44.5801 617.121L41.8555 619.811V621ZM53.3543 621H55.0418V619.447H56.1434V618.029H55.0418V612.545H52.5574C51.4324 614.279 50.284 616.154 49.2117 618.059V619.447H53.3543V621ZM50.8055 618.076V617.982C51.5672 616.617 52.4754 615.146 53.2957 613.887H53.3895V618.076H50.8055ZM57.6344 623.139H59.3453V619.969H59.4508C59.7789 620.672 60.4996 621.1 61.3844 621.1C63.0191 621.1 64.0035 619.852 64.0035 617.777V617.766C64.0035 615.709 62.9957 614.443 61.3844 614.443C60.4703 614.443 59.7848 614.854 59.4508 615.545H59.3453V614.549H57.6344V623.139ZM60.7984 619.682C59.902 619.682 59.3277 618.961 59.3277 617.777V617.766C59.3277 616.582 59.8961 615.861 60.7984 615.861C61.7066 615.861 62.2633 616.582 62.2633 617.766V617.777C62.2633 618.961 61.7008 619.682 60.7984 619.682ZM68.0316 621.023C68.3598 621.023 68.6762 620.988 68.8871 620.947V619.676C68.723 619.693 68.6059 619.705 68.3832 619.705C67.8031 619.705 67.557 619.447 67.557 618.867V615.838H68.8871V614.549H67.557V613.008H65.8285V614.549H64.8324V615.838H65.8285V619.26C65.8285 620.514 66.4613 621.023 68.0316 621.023ZM45.0488 637.217C47.1582 637.217 48.459 636.156 48.459 634.48V634.475C48.459 633.156 47.6797 632.441 45.8926 632.072L44.9961 631.891C44 631.686 43.5898 631.357 43.5898 630.807V630.801C43.5898 630.168 44.1699 629.77 45.043 629.764C45.9336 629.764 46.5195 630.186 46.6191 630.789L46.6309 630.859H48.2949L48.2891 630.783C48.1777 629.371 47.0176 628.328 45.043 628.328C43.168 628.328 41.8203 629.365 41.8203 630.936V630.941C41.8203 632.225 42.5762 633.045 44.334 633.402L45.2246 633.584C46.2734 633.801 46.6895 634.111 46.6895 634.668V634.674C46.6895 635.324 46.0391 635.775 45.0957 635.775C44.1055 635.775 43.4199 635.348 43.3555 634.715L43.3496 634.656H41.6445L41.6504 634.75C41.75 636.25 43.0273 637.217 45.0488 637.217ZM52.7508 637.135C54.6375 637.135 55.4695 636.045 55.6687 635.236L55.6805 635.178H54.0867L54.0691 635.213C53.952 635.459 53.5359 635.857 52.7859 635.857C51.8777 635.857 51.3094 635.242 51.2918 634.182H55.7332V633.648C55.7332 631.697 54.5613 630.408 52.6805 630.408C50.7996 630.408 49.5984 631.727 49.5984 633.777V633.783C49.5984 635.852 50.7879 637.135 52.7508 637.135ZM52.7098 631.691C53.4539 631.691 53.9871 632.172 54.0926 633.109H51.3094C51.4148 632.195 51.9656 631.691 52.7098 631.691ZM57.0836 637H58.7945V633.109C58.7945 632.371 59.2633 631.826 59.9312 631.826C60.5992 631.826 60.9918 632.23 60.9918 632.922V637H62.7027V633.033C62.7027 632.336 63.148 631.826 63.8395 631.826C64.5543 631.826 64.9059 632.219 64.9059 632.998V637H66.6168V632.57C66.6168 631.24 65.8141 630.408 64.5309 630.408C63.6285 630.408 62.8785 630.883 62.5855 631.598H62.4801C62.2164 630.854 61.566 630.408 60.6871 630.408C59.8434 630.408 59.1754 630.83 58.9 631.557H58.7945V630.549H57.0836V637ZM69.098 629.559C69.6254 629.559 70.059 629.137 70.059 628.609C70.059 628.076 69.6254 627.654 69.098 627.654C68.5707 627.654 68.1313 628.076 68.1313 628.609C68.1313 629.137 68.5707 629.559 69.098 629.559ZM68.2367 637H69.9477V630.549H68.2367V637ZM75.4289 637.1C77.0402 637.1 78.048 635.84 78.048 633.777V633.766C78.048 631.691 77.0637 630.443 75.4289 630.443C74.5441 630.443 73.8234 630.877 73.4953 631.58H73.3898V628.082H71.6789V637H73.3898V635.998H73.4953C73.8293 636.695 74.5148 637.1 75.4289 637.1ZM74.843 635.682C73.9406 635.682 73.3723 634.967 73.3723 633.783V633.771C73.3723 632.588 73.9465 631.861 74.843 631.861C75.7453 631.861 76.3078 632.588 76.3078 633.766V633.777C76.3078 634.967 75.7512 635.682 74.843 635.682ZM82.252 637.135C84.2383 637.135 85.4336 635.881 85.4336 633.777V633.766C85.4336 631.68 84.2207 630.408 82.252 630.408C80.2832 630.408 79.0703 631.686 79.0703 633.766V633.777C79.0703 635.875 80.2656 637.135 82.252 637.135ZM82.252 635.793C81.3379 635.793 80.8223 635.049 80.8223 633.777V633.766C80.8223 632.506 81.3438 631.75 82.252 631.75C83.1543 631.75 83.6816 632.506 83.6816 633.766V633.777C83.6816 635.049 83.1602 635.793 82.252 635.793ZM86.8367 637H88.5477V628.082H86.8367V637ZM92.5699 637.1C93.4781 637.1 94.1637 636.695 94.4977 635.998H94.6031V637H96.3141V628.082H94.6031V631.58H94.4977C94.1754 630.877 93.4547 630.443 92.5699 630.443C90.9352 630.443 89.9508 631.691 89.9508 633.766V633.777C89.9508 635.84 90.9586 637.1 92.5699 637.1ZM93.15 635.682C92.2477 635.682 91.691 634.967 91.691 633.777V633.766C91.691 632.588 92.2477 631.861 93.15 631.861C94.0523 631.861 94.6207 632.588 94.6207 633.771V633.783C94.6207 634.967 94.0582 635.682 93.15 635.682ZM42.0254 653H47.5566V651.541H43.7949V644.545H42.0254V653ZM49.8152 645.559C50.3426 645.559 50.7762 645.137 50.7762 644.609C50.7762 644.076 50.3426 643.654 49.8152 643.654C49.2879 643.654 48.8484 644.076 48.8484 644.609C48.8484 645.137 49.2879 645.559 49.8152 645.559ZM48.9539 653H50.6648V646.549H48.9539V653ZM55.0152 653.023C55.3434 653.023 55.6598 652.988 55.8707 652.947V651.676C55.7066 651.693 55.5895 651.705 55.3668 651.705C54.7867 651.705 54.5406 651.447 54.5406 650.867V647.838H55.8707V646.549H54.5406V645.008H52.8121V646.549H51.816V647.838H52.8121V651.26C52.8121 652.514 53.4449 653.023 55.0152 653.023ZM59.9809 653.023C60.309 653.023 60.6254 652.988 60.8363 652.947V651.676C60.6723 651.693 60.5551 651.705 60.3324 651.705C59.7523 651.705 59.5063 651.447 59.5063 650.867V647.838H60.8363V646.549H59.5063V645.008H57.7777V646.549H56.7816V647.838H57.7777V651.26C57.7777 652.514 58.4105 653.023 59.9809 653.023ZM62.2687 653H63.9797V644.082H62.2687V653ZM68.5352 653.135C70.4219 653.135 71.2539 652.045 71.4531 651.236L71.4648 651.178H69.8711L69.8535 651.213C69.7363 651.459 69.3203 651.857 68.5703 651.857C67.6621 651.857 67.0938 651.242 67.0762 650.182H71.5176V649.648C71.5176 647.697 70.3457 646.408 68.4648 646.408C66.584 646.408 65.3828 647.727 65.3828 649.777V649.783C65.3828 651.852 66.5723 653.135 68.5352 653.135ZM68.4941 647.691C69.2383 647.691 69.7715 648.172 69.877 649.109H67.0938C67.1992 648.195 67.75 647.691 68.4941 647.691ZM76.0816 653H79.8785C81.6832 653 82.8023 652.068 82.8023 650.586V650.574C82.8023 649.49 81.9879 648.652 80.8688 648.564V648.459C81.7359 648.33 82.398 647.551 82.398 646.66V646.648C82.398 645.348 81.4195 644.545 79.7789 644.545H76.0816V653ZM79.3277 645.857C80.1715 645.857 80.6578 646.268 80.6578 646.953V646.965C80.6578 647.662 80.1363 648.061 79.1813 648.061H77.8512V645.857H79.3277ZM79.3863 649.227C80.4293 649.227 80.9977 649.648 80.9977 650.434V650.445C80.9977 651.248 80.4469 651.682 79.4273 651.682H77.8512V649.227H79.3863ZM87.0473 653.135C89.0336 653.135 90.2289 651.881 90.2289 649.777V649.766C90.2289 647.68 89.016 646.408 87.0473 646.408C85.0785 646.408 83.8656 647.686 83.8656 649.766V649.777C83.8656 651.875 85.0609 653.135 87.0473 653.135ZM87.0473 651.793C86.1332 651.793 85.6176 651.049 85.6176 649.777V649.766C85.6176 648.506 86.1391 647.75 87.0473 647.75C87.9496 647.75 88.477 648.506 88.477 649.766V649.777C88.477 651.049 87.9555 651.793 87.0473 651.793ZM92.0715 655.273C93.6652 655.273 94.5148 654.699 95.0891 652.994L97.2863 646.549H95.4816L94.1281 651.436H94.0109L92.6574 646.549H90.7766L93.0441 653L92.9855 653.246C92.8625 653.75 92.5109 653.984 91.9016 653.984C91.7434 653.984 91.5734 653.979 91.4562 653.967V655.256C91.6555 655.268 91.8723 655.273 92.0715 655.273ZM101.639 653H105.436C107.241 653 108.36 652.068 108.36 650.586V650.574C108.36 649.49 107.546 648.652 106.427 648.564V648.459C107.294 648.33 107.956 647.551 107.956 646.66V646.648C107.956 645.348 106.977 644.545 105.337 644.545H101.639V653ZM104.886 645.857C105.729 645.857 106.216 646.268 106.216 646.953V646.965C106.216 647.662 105.694 648.061 104.739 648.061H103.409V645.857H104.886ZM104.944 649.227C105.987 649.227 106.555 649.648 106.555 650.434V650.445C106.555 651.248 106.005 651.682 104.985 651.682H103.409V649.227H104.944ZM109.798 653H111.509V644.082H109.798V653ZM115.362 653.135C116.282 653.135 116.938 652.707 117.231 652.004H117.336V653H119.047V646.549H117.336V650.275C117.336 651.148 116.879 651.717 116.036 651.717C115.227 651.717 114.881 651.242 114.881 650.328V646.549H113.17V650.721C113.17 652.256 113.914 653.135 115.362 653.135ZM123.55 653.135C125.437 653.135 126.269 652.045 126.468 651.236L126.48 651.178H124.886L124.868 651.213C124.751 651.459 124.335 651.857 123.585 651.857C122.677 651.857 122.109 651.242 122.091 650.182H126.532V649.648C126.532 647.697 125.361 646.408 123.48 646.408C121.599 646.408 120.398 647.727 120.398 649.777V649.783C120.398 651.852 121.587 653.135 123.55 653.135ZM123.509 647.691C124.253 647.691 124.786 648.172 124.892 649.109H122.109C122.214 648.195 122.765 647.691 123.509 647.691Z" fill="#FFA800"/>
<rect x="208" y="550" width="13" height="13" rx="5" fill="#C4C4C4"/>
</g>
<defs>
<filter id="filter0_d" x="0" y="0" width="426" height="717" filterUnits="userSpaceOnUse" color-interpolation-filters="sRGB">
<feFlood flood-opacity="0" result="BackgroundImageFix"/>
<feColorMatrix in="SourceAlpha" type="matrix" values="0 0 0 0 0 0 0 0 0 0 0 0 0 0 0 0 0 0 127 0"/>
<feMorphology radius="5" operator="dilate" in="SourceAlpha" result="effect1_dropShadow"/>
<feOffset/>
<feGaussianBlur stdDeviation="10"/>
<feColorMatrix type="matrix" values="0 0 0 0 0 0 0 0 0 0 0 0 0 0 0 0 0 0 0.15 0"/>
<feBlend mode="normal" in2="BackgroundImageFix" result="effect1_dropShadow"/>
<feBlend mode="normal" in="SourceGraphic" in2="effect1_dropShadow" result="shape"/>
</filter>
</defs>
</svg>
