<svg width="426" height="717" viewBox="0 0 426 717" fill="none" xmlns="http://www.w3.org/2000/svg">
<g filter="url(#filter0_d)">
<rect width="375" height="667" transform="translate(26 25)" fill="white"/>
<path d="M192.279 30.334C190.445 30.334 189.139 31.5879 189.139 33.3047V33.3164C189.139 34.9219 190.275 36.1055 191.898 36.1055C193.059 36.1055 193.797 35.5137 194.107 34.8457H194.225C194.225 34.9102 194.219 34.9746 194.219 35.0391C194.154 36.6562 193.586 37.9688 192.244 37.9688C191.5 37.9688 190.979 37.582 190.756 36.9902L190.738 36.9316H189.25L189.262 36.9961C189.531 38.291 190.691 39.2109 192.244 39.2109C194.371 39.2109 195.654 37.5234 195.654 34.6758V34.6641C195.654 31.6172 194.084 30.334 192.279 30.334ZM192.273 34.9453C191.312 34.9453 190.615 34.2422 190.615 33.2637V33.252C190.615 32.3086 191.359 31.5645 192.291 31.5645C193.229 31.5645 193.961 32.3203 193.961 33.2871V33.2988C193.961 34.2539 193.229 34.9453 192.273 34.9453ZM198.314 33.5215C198.854 33.5215 199.246 33.1113 199.246 32.5957C199.246 32.0742 198.854 31.6699 198.314 31.6699C197.781 31.6699 197.383 32.0742 197.383 32.5957C197.383 33.1113 197.781 33.5215 198.314 33.5215ZM198.314 37.8691C198.854 37.8691 199.246 37.4648 199.246 36.9434C199.246 36.4219 198.854 36.0176 198.314 36.0176C197.781 36.0176 197.383 36.4219 197.383 36.9434C197.383 37.4648 197.781 37.8691 198.314 37.8691ZM205.076 39H206.523V37.377H207.66V36.1289H206.523V30.5449H204.385C203.236 32.291 202.035 34.2363 200.939 36.1406V37.377H205.076V39ZM202.346 36.1641V36.0762C203.166 34.6406 204.145 33.0762 205.012 31.752H205.1V36.1641H202.346ZM211.164 39H212.676V30.5449H211.17L208.961 32.0977V33.5215L211.064 32.0332H211.164V39ZM217.756 39H219.338L220.041 36.8145H223.17L223.879 39H225.461L222.461 30.5449H220.756L217.756 39ZM221.559 32.1152H221.658L222.795 35.6484H220.422L221.559 32.1152ZM226.914 39H228.279V32.9883H228.379L230.723 39H231.754L234.098 32.9883H234.203V39H235.562V30.5449H233.828L231.291 37.0488H231.191L228.648 30.5449H226.914V39Z" fill="black"/>
<path opacity="0.35" fill-rule="evenodd" clip-rule="evenodd" d="M370.5 29.5H389.5C390.881 29.5 392 30.6193 392 32V38.5C392 39.8807 390.881 41 389.5 41H370.5C369.119 41 368 39.8807 368 38.5V32C368 30.6193 369.119 29.5 370.5 29.5ZM370.5 30.5C369.672 30.5 369 31.1716 369 32V38.5C369 39.3284 369.672 40 370.5 40H389.5C390.328 40 391 39.3284 391 38.5V32C391 31.1716 390.328 30.5 389.5 30.5H370.5Z" fill="black"/>
<path opacity="0.4" fill-rule="evenodd" clip-rule="evenodd" d="M393 32.7998C393.89 33.255 394.5 34.1813 394.5 35.2499C394.5 36.3186 393.89 37.2449 393 37.7001V32.7998Z" fill="black"/>
<path fill-rule="evenodd" clip-rule="evenodd" d="M371 31.5H389C389.552 31.5 390 31.9477 390 32.5V38C390 38.5523 389.552 39 389 39H371C370.448 39 370 38.5523 370 38V32.5C370 31.9477 370.448 31.5 371 31.5Z" fill="black"/>
<path d="M336.219 39.3H337.273V30.8449H336.225L333.975 32.4621V33.5754L336.125 32.0168H336.219V39.3ZM342.547 39.4992C344.416 39.4992 345.541 37.7941 345.541 35.0754V35.0637C345.541 32.3449 344.416 30.6457 342.547 30.6457C340.678 30.6457 339.564 32.3449 339.564 35.0637V35.0754C339.564 37.7941 340.678 39.4992 342.547 39.4992ZM342.547 38.5793C341.334 38.5793 340.625 37.2316 340.625 35.0754V35.0637C340.625 32.9074 341.334 31.5715 342.547 31.5715C343.76 31.5715 344.48 32.9074 344.48 35.0637V35.0754C344.48 37.2316 343.76 38.5793 342.547 38.5793ZM350.105 39.4992C351.975 39.4992 353.1 37.7941 353.1 35.0754V35.0637C353.1 32.3449 351.975 30.6457 350.105 30.6457C348.236 30.6457 347.123 32.3449 347.123 35.0637V35.0754C347.123 37.7941 348.236 39.4992 350.105 39.4992ZM350.105 38.5793C348.893 38.5793 348.184 37.2316 348.184 35.0754V35.0637C348.184 32.9074 348.893 31.5715 350.105 31.5715C351.318 31.5715 352.039 32.9074 352.039 35.0637V35.0754C352.039 37.2316 351.318 38.5793 350.105 38.5793ZM356.41 35.2922C357.488 35.2922 358.145 34.4133 358.145 33.0129V33.007C358.145 31.6066 357.488 30.7336 356.41 30.7336C355.332 30.7336 354.682 31.6066 354.682 33.007V33.0129C354.682 34.4133 355.332 35.2922 356.41 35.2922ZM357.043 39.3L362.797 30.8449H361.848L356.094 39.3H357.043ZM356.41 34.5949C355.83 34.5949 355.496 34.0031 355.496 33.0129V33.007C355.496 32.0168 355.83 31.4308 356.41 31.4308C356.99 31.4308 357.33 32.0168 357.33 33.007V33.0129C357.33 34.0031 356.99 34.5949 356.41 34.5949ZM362.469 39.4113C363.547 39.4113 364.203 38.5324 364.203 37.132V37.1262C364.203 35.7258 363.547 34.8527 362.469 34.8527C361.391 34.8527 360.74 35.7258 360.74 37.1262V37.132C360.74 38.5324 361.391 39.4113 362.469 39.4113ZM362.469 38.7141C361.889 38.7141 361.555 38.1223 361.555 37.132V37.1262C361.555 36.1359 361.889 35.55 362.469 35.55C363.049 35.55 363.389 36.1359 363.389 37.1262V37.132C363.389 38.1223 363.049 38.7141 362.469 38.7141Z" fill="black"/>
<path fill-rule="evenodd" clip-rule="evenodd" d="M45.5 30H46.5C47.0523 30 47.5 30.4477 47.5 31V39C47.5 39.5523 47.0523 40 46.5 40H45.5C44.9477 40 44.5 39.5523 44.5 39V31C44.5 30.4477 44.9477 30 45.5 30Z" fill="black"/>
<path d="M42 32H41C40.4477 32 40 32.4477 40 33V39C40 39.5523 40.4477 40 41 40H42C42.5523 40 43 39.5523 43 39V33C43 32.4477 42.5523 32 42 32Z" fill="black"/>
<path d="M36.5 34H37.5C38.0523 34 38.5 34.4477 38.5 35V39C38.5 39.5523 38.0523 40 37.5 40H36.5C35.9477 40 35.5 39.5523 35.5 39V35C35.5 34.4477 35.9477 34 36.5 34Z" fill="black"/>
<path d="M32 35.5H33C33.5523 35.5 34 35.9477 34 36.5V39C34 39.5523 33.5523 40 33 40H32C31.4477 40 31 39.5523 31 39V36.5C31 35.9477 31.4477 35.5 32 35.5Z" fill="black"/>
<path d="M55.0781 39H56.1328V35.6543H58.2129L60.0234 39H61.2598L59.3027 35.4902C60.3633 35.1562 61.002 34.2422 61.002 33.0703V33.0586C61.002 31.541 59.9355 30.5449 58.3066 30.5449H55.0781V39ZM56.1328 34.7168V31.4824H58.166C59.2559 31.4824 59.9121 32.0859 59.9121 33.0938V33.1055C59.9121 34.1367 59.2969 34.7168 58.2129 34.7168H56.1328ZM65.6395 39.1992C67.5262 39.1992 68.7625 38.2148 68.7625 36.6328V36.627C68.7625 35.4082 68.0652 34.6992 66.3016 34.3066L65.3641 34.0957C64.2156 33.8438 63.7527 33.3867 63.7527 32.7129V32.707C63.7527 31.8223 64.5672 31.3242 65.6219 31.3184C66.7234 31.3125 67.4266 31.8633 67.5437 32.6074L67.5555 32.6836H68.6102L68.6043 32.6016C68.5164 31.3418 67.3387 30.3457 65.6512 30.3457C63.9051 30.3457 62.6805 31.3359 62.6746 32.7363V32.7422C62.6746 33.9668 63.407 34.7461 65.1004 35.1211L66.0379 35.3262C67.198 35.584 67.6844 36.0645 67.6844 36.7676V36.7734C67.6844 37.6348 66.8465 38.2266 65.698 38.2266C64.4793 38.2266 63.6004 37.6934 63.5242 36.8496L63.5184 36.7852H62.4637L62.4695 36.8496C62.5926 38.2266 63.7879 39.1992 65.6395 39.1992ZM73.2418 39.1992C75.1285 39.1992 76.3648 38.2148 76.3648 36.6328V36.627C76.3648 35.4082 75.6676 34.6992 73.9039 34.3066L72.9664 34.0957C71.818 33.8438 71.3551 33.3867 71.3551 32.7129V32.707C71.3551 31.8223 72.1695 31.3242 73.2242 31.3184C74.3258 31.3125 75.0289 31.8633 75.1461 32.6074L75.1578 32.6836H76.2125L76.2066 32.6016C76.1187 31.3418 74.941 30.3457 73.2535 30.3457C71.5074 30.3457 70.2828 31.3359 70.277 32.7363V32.7422C70.277 33.9668 71.0094 34.7461 72.7027 35.1211L73.6402 35.3262C74.8004 35.584 75.2867 36.0645 75.2867 36.7676V36.7734C75.2867 37.6348 74.4488 38.2266 73.3004 38.2266C72.0816 38.2266 71.2027 37.6934 71.1266 36.8496L71.1207 36.7852H70.066L70.0719 36.8496C70.1949 38.2266 71.3902 39.1992 73.2418 39.1992ZM80.5277 39.1113C82.0453 39.1113 82.8949 38.2969 83.1527 37.1543L83.1645 37.0898L82.1566 37.0957L82.1449 37.1309C81.9105 37.834 81.3715 38.209 80.5219 38.209C79.3969 38.209 78.6703 37.2773 78.6703 35.8242V35.8125C78.6703 34.3887 79.3852 33.4746 80.5219 33.4746C81.4301 33.4746 81.9926 33.9785 82.1508 34.5996L82.1566 34.6172H83.1703L83.1645 34.582C82.977 33.457 82.057 32.5723 80.5219 32.5723C78.7523 32.5723 77.6273 33.8496 77.6273 35.8125V35.8242C77.6273 37.8281 78.7582 39.1113 80.5277 39.1113ZM84.6672 39H85.6867V35.2617C85.6867 34.1543 86.3254 33.4746 87.3332 33.4746C88.341 33.4746 88.8098 34.0195 88.8098 35.1562V39H89.8293V34.9102C89.8293 33.4102 89.0383 32.5723 87.6203 32.5723C86.6887 32.5723 86.0969 32.9648 85.7805 33.6328H85.6867V30.1758H84.6672V39ZM94.2207 39.1113C96.0195 39.1113 97.1328 37.8691 97.1328 35.8477V35.8359C97.1328 33.8086 96.0195 32.5723 94.2207 32.5723C92.4219 32.5723 91.3086 33.8086 91.3086 35.8359V35.8477C91.3086 37.8691 92.4219 39.1113 94.2207 39.1113ZM94.2207 38.209C93.0254 38.209 92.3516 37.3359 92.3516 35.8477V35.8359C92.3516 34.3418 93.0254 33.4746 94.2207 33.4746C95.416 33.4746 96.0898 34.3418 96.0898 35.8359V35.8477C96.0898 37.3359 95.416 38.209 94.2207 38.209ZM101.261 39.1113C103.059 39.1113 104.173 37.8691 104.173 35.8477V35.8359C104.173 33.8086 103.059 32.5723 101.261 32.5723C99.4617 32.5723 98.3484 33.8086 98.3484 35.8359V35.8477C98.3484 37.8691 99.4617 39.1113 101.261 39.1113ZM101.261 38.209C100.065 38.209 99.3914 37.3359 99.3914 35.8477V35.8359C99.3914 34.3418 100.065 33.4746 101.261 33.4746C102.456 33.4746 103.13 34.3418 103.13 35.8359V35.8477C103.13 37.3359 102.456 38.209 101.261 38.209ZM105.763 39H106.783V30.1758H105.763V39Z" fill="black"/>
<path fill-rule="evenodd" clip-rule="evenodd" d="M125.983 32.5229C124.072 30.8906 121.657 30 119.133 30C116.601 30 114.18 30.8959 112.266 32.5371L112.104 32.6765C111.972 32.7892 111.965 32.9895 112.087 33.1118L113.214 34.2356C113.324 34.3447 113.498 34.3521 113.617 34.2527L113.756 34.1354C115.263 32.8694 117.155 32.1804 119.133 32.1804C121.104 32.1804 122.989 32.8647 124.494 34.1228L124.634 34.2395C124.752 34.3385 124.926 34.3308 125.036 34.2219L126.163 33.098C126.285 32.9756 126.278 32.7749 126.146 32.6623L125.983 32.5229ZM119.133 33.4698C120.724 33.4698 122.251 33.9975 123.495 34.9749L123.671 35.113C123.811 35.2231 123.824 35.4306 123.697 35.5564L122.567 36.6841C122.462 36.7884 122.297 36.8003 122.178 36.7122L122.04 36.6098C121.2 35.9852 120.186 35.6501 119.133 35.6501C118.073 35.6501 117.053 35.9893 116.21 36.6211L116.072 36.7245C115.954 36.8133 115.787 36.8016 115.683 36.697L114.552 35.5698C114.426 35.4442 114.438 35.2373 114.578 35.1269L114.753 34.9887C116 34.0027 117.534 33.4698 119.133 33.4698ZM119.133 36.9396C119.772 36.9396 120.394 37.1076 120.941 37.4281L121.163 37.5579C121.331 37.6563 121.361 37.8867 121.223 38.0242L119.329 39.913C119.212 40.029 119.024 40.029 118.907 39.913L117.026 38.0363C116.888 37.8994 116.917 37.6702 117.084 37.5711L117.303 37.4406C117.856 37.1121 118.485 36.9396 119.133 36.9396Z" fill="black"/>
<rect x="127" y="132" width="173" height="41" rx="5" fill="#C4C4C4"/>
<rect x="135" y="423" width="156" height="42" rx="5" fill="#C4C4C4"/>
<rect x="96" y="532" width="235" height="110" rx="5" fill="#C4C4C4"/>
<path d="M71.5273 351H73.0215V346.725H76.043C78.2925 346.725 79.8862 345.14 79.8862 342.865V342.849C79.8862 340.574 78.2925 339.022 76.043 339.022H71.5273V351ZM75.6611 340.35C77.3711 340.35 78.3589 341.288 78.3589 342.865V342.882C78.3589 344.459 77.3711 345.397 75.6611 345.397H73.0215V340.35H75.6611ZM83.8693 351.158C85.073 351.158 86.0109 350.635 86.5754 349.68H86.7082V351H88.1525V344.874C88.1525 343.015 86.9323 341.894 84.7492 341.894C82.84 341.894 81.4787 342.84 81.2463 344.243L81.238 344.293H82.6823L82.6906 344.268C82.9231 343.571 83.6286 343.172 84.6994 343.172C86.0358 343.172 86.7082 343.77 86.7082 344.874V345.688L84.1433 345.845C82.0598 345.97 80.8811 346.891 80.8811 348.485V348.501C80.8811 350.128 82.1677 351.158 83.8693 351.158ZM82.3586 348.468V348.452C82.3586 347.563 82.9563 347.082 84.3176 346.999L86.7082 346.85V347.663C86.7082 348.941 85.6374 349.904 84.1682 349.904C83.1306 349.904 82.3586 349.373 82.3586 348.468ZM93.4555 351.158C95.4892 351.158 97.0414 350.054 97.0414 348.46V348.443C97.0414 347.165 96.2279 346.435 94.5429 346.028L93.165 345.696C92.1108 345.438 91.6625 345.057 91.6625 344.451V344.434C91.6625 343.646 92.4428 343.098 93.5053 343.098C94.5844 343.098 95.2817 343.587 95.4726 344.293H96.892C96.6928 342.832 95.3896 341.894 93.5136 341.894C91.6127 341.894 90.185 343.015 90.185 344.5V344.509C90.185 345.795 90.9403 346.526 92.6171 346.924L94.0033 347.256C95.1073 347.522 95.5639 347.945 95.5639 348.551V348.568C95.5639 349.381 94.7089 349.954 93.5053 349.954C92.3598 349.954 91.6459 349.464 91.4052 348.717H89.9277C90.0937 350.195 91.4633 351.158 93.4555 351.158ZM101.78 351.158C103.814 351.158 105.366 350.054 105.366 348.46V348.443C105.366 347.165 104.552 346.435 102.867 346.028L101.489 345.696C100.435 345.438 99.9869 345.057 99.9869 344.451V344.434C99.9869 343.646 100.767 343.098 101.83 343.098C102.909 343.098 103.606 343.587 103.797 344.293H105.216C105.017 342.832 103.714 341.894 101.838 341.894C99.9371 341.894 98.5094 343.015 98.5094 344.5V344.509C98.5094 345.795 99.2648 346.526 100.942 346.924L102.328 347.256C103.432 347.522 103.888 347.945 103.888 348.551V348.568C103.888 349.381 103.033 349.954 101.83 349.954C100.684 349.954 99.9703 349.464 99.7296 348.717H98.2521C98.4181 350.195 99.7877 351.158 101.78 351.158ZM108.677 351H110.121L112.113 344.077H112.246L114.246 351H115.699L118.206 342.052H116.77L115.01 349.207H114.877L112.877 342.052H111.507L109.507 349.207H109.374L107.614 342.052H106.17L108.677 351ZM123.052 351.158C125.601 351.158 127.178 349.398 127.178 346.534V346.518C127.178 343.646 125.601 341.894 123.052 341.894C120.504 341.894 118.927 343.646 118.927 346.518V346.534C118.927 349.398 120.504 351.158 123.052 351.158ZM123.052 349.879C121.359 349.879 120.404 348.643 120.404 346.534V346.518C120.404 344.401 121.359 343.172 123.052 343.172C124.746 343.172 125.7 344.401 125.7 346.518V346.534C125.7 348.643 124.746 349.879 123.052 349.879ZM129.011 351H130.455V345.455C130.455 344.144 131.435 343.272 132.813 343.272C133.128 343.272 133.402 343.305 133.701 343.355V341.952C133.56 341.927 133.253 341.894 132.979 341.894C131.767 341.894 130.928 342.442 130.588 343.38H130.455V342.052H129.011V351ZM138.132 351.158C139.377 351.158 140.373 350.568 140.921 349.572H141.054V351H142.498V338.499H141.054V343.463H140.921C140.432 342.508 139.361 341.894 138.132 341.894C135.858 341.894 134.38 343.712 134.38 346.518V346.534C134.38 349.323 135.866 351.158 138.132 351.158ZM138.464 349.879C136.829 349.879 135.858 348.618 135.858 346.534V346.518C135.858 344.434 136.829 343.172 138.464 343.172C140.091 343.172 141.087 344.451 141.087 346.518V346.534C141.087 348.601 140.091 349.879 138.464 349.879Z" fill="#3C3C43" fill-opacity="0.6"/>
<path d="M64.73 362.455L64.3896 363.123L64.73 362.455ZM62.545 360.27L61.8767 360.61L62.545 360.27ZM364.455 360.27L363.787 359.929L364.455 360.27ZM362.27 362.455L362.61 363.123L362.27 362.455ZM362.27 327.545L362.61 326.877L362.27 327.545ZM364.455 329.73L363.787 330.071L364.455 329.73ZM64.73 327.545L65.0705 328.213L64.73 327.545ZM70 327.75H357V326.25H70V327.75ZM364.25 335V355H365.75V335H364.25ZM357 362.25H70V363.75H357V362.25ZM62.75 355V335H61.25V355H62.75ZM70 362.25C68.5875 362.25 67.5732 362.249 66.7771 362.184C65.9897 362.12 65.482 361.996 65.0705 361.787L64.3896 363.123C65.0477 363.459 65.7748 363.607 66.6549 363.679C67.5263 363.751 68.6122 363.75 70 363.75V362.25ZM61.25 355C61.25 356.388 61.2494 357.474 61.3206 358.345C61.3925 359.225 61.5414 359.952 61.8767 360.61L63.2132 359.929C63.0036 359.518 62.88 359.01 62.8156 358.223C62.7506 357.427 62.75 356.413 62.75 355H61.25ZM65.0705 361.787C64.2709 361.379 63.6207 360.729 63.2132 359.929L61.8767 360.61C62.428 361.692 63.3076 362.572 64.3896 363.123L65.0705 361.787ZM364.25 355C364.25 356.413 364.249 357.427 364.184 358.223C364.12 359.01 363.996 359.518 363.787 359.929L365.123 360.61C365.459 359.952 365.607 359.225 365.679 358.345C365.751 357.474 365.75 356.388 365.75 355H364.25ZM357 363.75C358.388 363.75 359.474 363.751 360.345 363.679C361.225 363.607 361.952 363.459 362.61 363.123L361.929 361.787C361.518 361.996 361.01 362.12 360.223 362.184C359.427 362.249 358.413 362.25 357 362.25V363.75ZM363.787 359.929C363.379 360.729 362.729 361.379 361.929 361.787L362.61 363.123C363.692 362.572 364.572 361.692 365.123 360.61L363.787 359.929ZM357 327.75C358.413 327.75 359.427 327.751 360.223 327.816C361.01 327.88 361.518 328.004 361.929 328.213L362.61 326.877C361.952 326.541 361.225 326.393 360.345 326.321C359.474 326.249 358.388 326.25 357 326.25V327.75ZM365.75 335C365.75 333.612 365.751 332.526 365.679 331.655C365.607 330.775 365.459 330.048 365.123 329.39L363.787 330.071C363.996 330.482 364.12 330.99 364.184 331.777C364.249 332.573 364.25 333.587 364.25 335H365.75ZM361.929 328.213C362.729 328.621 363.379 329.271 363.787 330.071L365.123 329.39C364.572 328.308 363.692 327.428 362.61 326.877L361.929 328.213ZM70 326.25C68.6122 326.25 67.5263 326.249 66.6549 326.321C65.7748 326.393 65.0477 326.541 64.3896 326.877L65.0705 328.213C65.482 328.004 65.9897 327.88 66.7771 327.816C67.5732 327.751 68.5875 327.75 70 327.75V326.25ZM62.75 335C62.75 333.587 62.7506 332.573 62.8156 331.777C62.88 330.99 63.0036 330.482 63.2132 330.071L61.8767 329.39C61.5414 330.048 61.3925 330.775 61.3206 331.655C61.2494 332.526 61.25 333.612 61.25 335H62.75ZM64.3896 326.877C63.3076 327.428 62.428 328.308 61.8767 329.39L63.2132 330.071C63.6207 329.271 64.2709 328.621 65.0705 328.213L64.3896 326.877Z" fill="#4C5C68"/>
<path d="M71.5273 285H78.7988V283.655H73.0215V273.022H71.5273V285ZM83.861 285.158C86.4094 285.158 87.9865 283.398 87.9865 280.534V280.518C87.9865 277.646 86.4094 275.894 83.861 275.894C81.3127 275.894 79.7356 277.646 79.7356 280.518V280.534C79.7356 283.398 81.3127 285.158 83.861 285.158ZM83.861 283.879C82.1677 283.879 81.2131 282.643 81.2131 280.534V280.518C81.2131 278.401 82.1677 277.172 83.861 277.172C85.5544 277.172 86.509 278.401 86.509 280.518V280.534C86.509 282.643 85.5544 283.879 83.861 283.879ZM93.5053 288.154C95.9457 288.154 97.4897 286.876 97.4897 284.875V276.052H96.0453V277.529H95.9457C95.3979 276.517 94.4184 275.894 93.1567 275.894C90.8158 275.894 89.3715 277.712 89.3715 280.219V280.235C89.3715 282.742 90.8075 284.535 93.1235 284.535C94.352 284.535 95.3647 283.979 95.9291 282.991H96.0619V284.801C96.0619 286.121 95.1073 286.876 93.5053 286.876C92.2187 286.876 91.4218 286.395 91.2641 285.714L91.2558 285.706H89.7616L89.745 285.714C89.9692 287.183 91.3471 288.154 93.5053 288.154ZM93.4389 283.257C91.7787 283.257 90.849 282.012 90.849 280.235V280.219C90.849 278.442 91.7787 277.172 93.4389 277.172C95.0907 277.172 96.0951 278.442 96.0951 280.219V280.235C96.0951 282.012 95.099 283.257 93.4389 283.257ZM100.535 274.325C101.083 274.325 101.531 273.877 101.531 273.329C101.531 272.781 101.083 272.333 100.535 272.333C99.9869 272.333 99.5387 272.781 99.5387 273.329C99.5387 273.877 99.9869 274.325 100.535 274.325ZM99.8043 285H101.249V276.052H99.8043V285ZM103.563 285H105.008V279.704C105.008 278.135 105.912 277.172 107.34 277.172C108.768 277.172 109.432 277.944 109.432 279.555V285H110.876V279.206C110.876 277.081 109.756 275.894 107.747 275.894C106.427 275.894 105.589 276.45 105.14 277.396H105.008V276.052H103.563V285Z" fill="#3C3C43" fill-opacity="0.6"/>
<path d="M64.73 296.455L64.3896 297.123L64.73 296.455ZM62.545 294.27L61.8767 294.61L62.545 294.27ZM364.455 294.27L363.787 293.929L364.455 294.27ZM362.27 296.455L362.61 297.123L362.27 296.455ZM362.27 261.545L362.61 260.877L362.27 261.545ZM364.455 263.73L363.787 264.071L364.455 263.73ZM64.73 261.545L65.0705 262.213L64.73 261.545ZM70 261.75H357V260.25H70V261.75ZM364.25 269V289H365.75V269H364.25ZM357 296.25H70V297.75H357V296.25ZM62.75 289V269H61.25V289H62.75ZM70 296.25C68.5875 296.25 67.5732 296.249 66.7771 296.184C65.9897 296.12 65.482 295.996 65.0705 295.787L64.3896 297.123C65.0477 297.459 65.7748 297.607 66.6549 297.679C67.5263 297.751 68.6122 297.75 70 297.75V296.25ZM61.25 289C61.25 290.388 61.2494 291.474 61.3206 292.345C61.3925 293.225 61.5414 293.952 61.8767 294.61L63.2132 293.929C63.0036 293.518 62.88 293.01 62.8156 292.223C62.7506 291.427 62.75 290.413 62.75 289H61.25ZM65.0705 295.787C64.2709 295.379 63.6207 294.729 63.2132 293.929L61.8767 294.61C62.428 295.692 63.3076 296.572 64.3896 297.123L65.0705 295.787ZM364.25 289C364.25 290.413 364.249 291.427 364.184 292.223C364.12 293.01 363.996 293.518 363.787 293.929L365.123 294.61C365.459 293.952 365.607 293.225 365.679 292.345C365.751 291.474 365.75 290.388 365.75 289H364.25ZM357 297.75C358.388 297.75 359.474 297.751 360.345 297.679C361.225 297.607 361.952 297.459 362.61 297.123L361.929 295.787C361.518 295.996 361.01 296.12 360.223 296.184C359.427 296.249 358.413 296.25 357 296.25V297.75ZM363.787 293.929C363.379 294.729 362.729 295.379 361.929 295.787L362.61 297.123C363.692 296.572 364.572 295.692 365.123 294.61L363.787 293.929ZM357 261.75C358.413 261.75 359.427 261.751 360.223 261.816C361.01 261.88 361.518 262.004 361.929 262.213L362.61 260.877C361.952 260.541 361.225 260.393 360.345 260.321C359.474 260.249 358.388 260.25 357 260.25V261.75ZM365.75 269C365.75 267.612 365.751 266.526 365.679 265.655C365.607 264.775 365.459 264.048 365.123 263.39L363.787 264.071C363.996 264.482 364.12 264.99 364.184 265.777C364.249 266.573 364.25 267.587 364.25 269H365.75ZM361.929 262.213C362.729 262.621 363.379 263.271 363.787 264.071L365.123 263.39C364.572 262.308 363.692 261.428 362.61 260.877L361.929 262.213ZM70 260.25C68.6122 260.25 67.5263 260.249 66.6549 260.321C65.7748 260.393 65.0477 260.541 64.3896 260.877L65.0705 262.213C65.482 262.004 65.9897 261.88 66.7771 261.816C67.5732 261.751 68.5875 261.75 70 261.75V260.25ZM62.75 269C62.75 267.587 62.7506 266.573 62.8156 265.777C62.88 264.99 63.0036 264.482 63.2132 264.071L61.8767 263.39C61.5414 264.048 61.3925 264.775 61.3206 265.655C61.2494 266.526 61.25 267.612 61.25 269H62.75ZM64.3896 260.877C63.3076 261.428 62.428 262.308 61.8767 263.39L63.2132 264.071C63.6207 263.271 64.2709 262.621 65.0705 262.213L64.3896 260.877Z" fill="#4C5C68"/>
<line x1="70.75" y1="333" x2="70.75" y2="356" stroke="#4C5C68" stroke-width="1.5"/>
<line x1="374.5" y1="260.5" x2="391.5" y2="260.5" stroke="#FFA800" stroke-linecap="round"/>
<path d="M214 306L214 317" stroke="#FFA800" stroke-linecap="round"/>
<path d="M363.014 252.188C364.988 252.188 366.307 251.15 366.307 249.615V249.604C366.307 248.455 365.486 247.729 364.227 247.611V247.576C365.217 247.371 365.99 246.686 365.99 245.631V245.619C365.99 244.271 364.818 243.357 363.002 243.357C361.227 243.357 360.037 244.342 359.914 245.854L359.908 245.924H361.537L361.543 245.871C361.613 245.168 362.17 244.717 363.002 244.717C363.834 244.717 364.32 245.15 364.32 245.854V245.865C364.32 246.551 363.746 247.02 362.855 247.02H361.912V248.279H362.879C363.904 248.279 364.508 248.725 364.508 249.533V249.545C364.508 250.26 363.916 250.764 363.014 250.764C362.1 250.764 361.496 250.295 361.42 249.639L361.414 249.574H359.721L359.727 249.65C359.844 251.162 361.104 252.188 363.014 252.188ZM371.143 252.217C373.048 252.217 374.384 250.945 374.384 249.217V249.205C374.384 247.605 373.27 246.434 371.624 246.434C370.458 246.434 369.749 247.014 369.444 247.67H369.327C369.327 247.605 369.327 247.541 369.333 247.477C369.397 245.941 369.93 244.74 371.155 244.74C371.841 244.74 372.321 245.098 372.52 245.625L372.544 245.678H374.272L374.261 245.619C374.003 244.295 372.784 243.328 371.149 243.328C368.987 243.328 367.651 245.01 367.651 247.84V247.852C367.651 250.828 369.18 252.217 371.143 252.217ZM369.591 249.24V249.234C369.591 248.361 370.27 247.734 371.143 247.734C372.028 247.734 372.673 248.379 372.673 249.264V249.275C372.673 250.143 371.987 250.816 371.132 250.816C370.27 250.816 369.591 250.131 369.591 249.24ZM378.971 254.139H380.682V250.969H380.788C381.116 251.672 381.836 252.1 382.721 252.1C384.356 252.1 385.34 250.852 385.34 248.777V248.766C385.34 246.709 384.332 245.443 382.721 245.443C381.807 245.443 381.121 245.854 380.788 246.545H380.682V245.549H378.971V254.139ZM382.135 250.682C381.239 250.682 380.664 249.961 380.664 248.777V248.766C380.664 247.582 381.233 246.861 382.135 246.861C383.043 246.861 383.6 247.582 383.6 248.766V248.777C383.6 249.961 383.038 250.682 382.135 250.682ZM385.87 252H387.675L388.876 249.867H388.982L390.189 252H392.081L390.036 248.736L392.07 245.549H390.206L389.064 247.688H388.958L387.816 245.549H385.853L387.892 248.807L385.87 252Z" fill="#FFA800"/>
<path d="M359.061 390.217C360.959 390.217 362.271 389.004 362.271 387.223V387.211C362.271 385.6 361.135 384.439 359.559 384.439C358.75 384.439 358.094 384.791 357.754 385.359H357.648L357.859 382.951H361.768V381.545H356.482L356.09 386.549H357.607C357.701 386.367 357.842 386.209 358 386.08C358.281 385.84 358.645 385.717 359.072 385.717C359.969 385.717 360.607 386.344 360.607 387.246V387.258C360.607 388.166 359.975 388.805 359.066 388.805C358.27 388.805 357.689 388.307 357.566 387.686L357.555 387.645H355.949L355.955 387.727C356.055 389.139 357.25 390.217 359.061 390.217ZM366.818 392.139H368.529V388.969H368.634C368.962 389.672 369.683 390.1 370.568 390.1C372.203 390.1 373.187 388.852 373.187 386.777V386.766C373.187 384.709 372.179 383.443 370.568 383.443C369.654 383.443 368.968 383.854 368.634 384.545H368.529V383.549H366.818V392.139ZM369.982 388.682C369.086 388.682 368.511 387.961 368.511 386.777V386.766C368.511 385.582 369.08 384.861 369.982 384.861C370.89 384.861 371.447 385.582 371.447 386.766V386.777C371.447 387.961 370.884 388.682 369.982 388.682ZM373.717 390H375.522L376.723 387.867H376.829L378.036 390H379.928L377.883 386.736L379.916 383.549H378.053L376.911 385.688H376.805L375.663 383.549H373.7L375.739 386.807L373.717 390Z" fill="#FFA800"/>
<path d="M225.014 316.188C226.988 316.188 228.307 315.15 228.307 313.615V313.604C228.307 312.455 227.486 311.729 226.227 311.611V311.576C227.217 311.371 227.99 310.686 227.99 309.631V309.619C227.99 308.271 226.818 307.357 225.002 307.357C223.227 307.357 222.037 308.342 221.914 309.854L221.908 309.924H223.537L223.543 309.871C223.613 309.168 224.17 308.717 225.002 308.717C225.834 308.717 226.32 309.15 226.32 309.854V309.865C226.32 310.551 225.746 311.02 224.855 311.02H223.912V312.279H224.879C225.904 312.279 226.508 312.725 226.508 313.533V313.545C226.508 314.26 225.916 314.764 225.014 314.764C224.1 314.764 223.496 314.295 223.42 313.639L223.414 313.574H221.721L221.727 313.65C221.844 315.162 223.104 316.188 225.014 316.188ZM233.026 316.217C235.118 316.217 236.384 314.506 236.384 311.775V311.764C236.384 309.027 235.118 307.328 233.026 307.328C230.94 307.328 229.669 309.027 229.669 311.764V311.775C229.669 314.506 230.94 316.217 233.026 316.217ZM233.026 314.816C232.03 314.816 231.462 313.686 231.462 311.775V311.764C231.462 309.848 232.03 308.729 233.026 308.729C234.028 308.729 234.596 309.848 234.596 311.764V311.775C234.596 313.686 234.028 314.816 233.026 314.816ZM240.983 318.139H242.694V314.969H242.799C243.127 315.672 243.848 316.1 244.733 316.1C246.368 316.1 247.352 314.852 247.352 312.777V312.766C247.352 310.709 246.344 309.443 244.733 309.443C243.819 309.443 243.133 309.854 242.799 310.545H242.694V309.549H240.983V318.139ZM244.147 314.682C243.25 314.682 242.676 313.961 242.676 312.777V312.766C242.676 311.582 243.245 310.861 244.147 310.861C245.055 310.861 245.612 311.582 245.612 312.766V312.777C245.612 313.961 245.049 314.682 244.147 314.682ZM247.882 316H249.687L250.888 313.867H250.993L252.2 316H254.093L252.048 312.736L254.081 309.549H252.218L251.075 311.688H250.97L249.827 309.549H247.864L249.904 312.807L247.882 316Z" fill="#FFA800"/>
<path d="M63.4766 387.139H66.7227V385.879H65.1172V377.342H66.7227V376.082H63.4766V387.139ZM68.1199 385H71.9168C73.7215 385 74.8406 384.068 74.8406 382.586V382.574C74.8406 381.49 74.0262 380.652 72.907 380.564V380.459C73.7742 380.33 74.4363 379.551 74.4363 378.66V378.648C74.4363 377.348 73.4578 376.545 71.8172 376.545H68.1199V385ZM71.366 377.857C72.2098 377.857 72.6961 378.268 72.6961 378.953V378.965C72.6961 379.662 72.1746 380.061 71.2195 380.061H69.8895V377.857H71.366ZM71.4246 381.227C72.4676 381.227 73.0359 381.648 73.0359 382.434V382.445C73.0359 383.248 72.4852 383.682 71.4656 383.682H69.8895V381.227H71.4246ZM79.0855 385.135C81.0719 385.135 82.2672 383.881 82.2672 381.777V381.766C82.2672 379.68 81.0543 378.408 79.0855 378.408C77.1168 378.408 75.9039 379.686 75.9039 381.766V381.777C75.9039 383.875 77.0992 385.135 79.0855 385.135ZM79.0855 383.793C78.1715 383.793 77.6559 383.049 77.6559 381.777V381.766C77.6559 380.506 78.1773 379.75 79.0855 379.75C79.9879 379.75 80.5152 380.506 80.5152 381.766V381.777C80.5152 383.049 79.9937 383.793 79.0855 383.793ZM83.6117 385H85.3227V381.391C85.3227 380.477 85.9379 379.92 86.9105 379.92C87.1742 379.92 87.4379 379.961 87.6957 380.02V378.525C87.5258 378.479 87.2855 378.443 87.057 378.443C86.2191 378.443 85.6332 378.854 85.4281 379.551H85.3227V378.549H83.6117V385ZM90.9387 385.1C91.8469 385.1 92.5324 384.695 92.8664 383.998H92.9719V385H94.6828V376.082H92.9719V379.58H92.8664C92.5441 378.877 91.8234 378.443 90.9387 378.443C89.3039 378.443 88.3195 379.691 88.3195 381.766V381.777C88.3195 383.84 89.3273 385.1 90.9387 385.1ZM91.5187 383.682C90.6164 383.682 90.0598 382.967 90.0598 381.777V381.766C90.0598 380.588 90.6164 379.861 91.5187 379.861C92.4211 379.861 92.9895 380.588 92.9895 381.771V381.783C92.9895 382.967 92.427 383.682 91.5187 383.682ZM99.2383 385.135C101.125 385.135 101.957 384.045 102.156 383.236L102.168 383.178H100.574L100.557 383.213C100.439 383.459 100.023 383.857 99.2734 383.857C98.3652 383.857 97.7969 383.242 97.7793 382.182H102.221V381.648C102.221 379.697 101.049 378.408 99.168 378.408C97.2871 378.408 96.0859 379.727 96.0859 381.777V381.783C96.0859 383.852 97.2754 385.135 99.2383 385.135ZM99.1973 379.691C99.9414 379.691 100.475 380.172 100.58 381.109H97.7969C97.9023 380.195 98.4531 379.691 99.1973 379.691ZM103.571 385H105.282V381.391C105.282 380.477 105.897 379.92 106.87 379.92C107.134 379.92 107.397 379.961 107.655 380.02V378.525C107.485 378.479 107.245 378.443 107.016 378.443C106.179 378.443 105.593 378.854 105.388 379.551H105.282V378.549H103.571V385ZM111.566 387.139V376.082H108.32V377.342H109.92V385.879H108.32V387.139H111.566ZM63.0254 401H66.8223C68.627 401 69.7461 400.068 69.7461 398.586V398.574C69.7461 397.49 68.9316 396.652 67.8125 396.564V396.459C68.6797 396.33 69.3418 395.551 69.3418 394.66V394.648C69.3418 393.348 68.3633 392.545 66.7227 392.545H63.0254V401ZM66.2715 393.857C67.1152 393.857 67.6016 394.268 67.6016 394.953V394.965C67.6016 395.662 67.0801 396.061 66.125 396.061H64.7949V393.857H66.2715ZM66.3301 397.227C67.373 397.227 67.9414 397.648 67.9414 398.434V398.445C67.9414 399.248 67.3906 399.682 66.3711 399.682H64.7949V397.227H66.3301ZM71.1844 401H72.8953V392.082H71.1844V401ZM76.3727 401.1C77.2164 401.1 77.8961 400.742 78.2242 400.145H78.3297V401H80.0172V396.594C80.0172 395.217 79.0504 394.408 77.3395 394.408C75.7164 394.408 74.65 395.158 74.5152 396.289L74.5094 396.342H76.0914L76.1031 396.318C76.2379 395.938 76.6305 395.721 77.2457 395.721C77.9488 395.721 78.3297 396.037 78.3297 396.594V397.127L76.7711 397.221C75.1656 397.314 74.2691 397.994 74.2691 399.154V399.166C74.2691 400.338 75.1422 401.1 76.3727 401.1ZM75.9391 399.061V399.049C75.9391 398.58 76.2965 398.305 77.0289 398.258L78.3297 398.176V398.65C78.3297 399.33 77.7379 399.852 76.9469 399.852C76.3551 399.852 75.9391 399.553 75.9391 399.061ZM84.4848 401.135C86.1664 401.135 87.1742 400.232 87.35 398.826L87.3559 398.791H85.7738L85.7621 398.814C85.6098 399.459 85.1938 399.793 84.4906 399.793C83.5766 399.793 83.0668 399.072 83.0668 397.766V397.754C83.0668 396.465 83.5707 395.75 84.4906 395.75C85.223 395.75 85.6508 396.16 85.7621 396.787L85.768 396.799H87.3617V396.781C87.2094 395.34 86.1957 394.408 84.4848 394.408C82.4633 394.408 81.3266 395.633 81.3266 397.754V397.766C81.3266 399.91 82.4691 401.135 84.4848 401.135ZM88.7062 401H90.4172V398.838L90.8859 398.34L92.7668 401H94.7883L92.1398 397.285L94.6184 394.549H92.6789L90.5227 397.098H90.4172V392.082H88.7062V401ZM102.622 401.217C104.661 401.217 106.108 400.01 106.29 398.24L106.296 398.176H104.573L104.561 398.223C104.374 399.125 103.641 399.717 102.628 399.717C101.292 399.717 100.466 398.592 100.466 396.775V396.764C100.466 394.947 101.292 393.828 102.622 393.828C103.63 393.828 104.386 394.473 104.567 395.422V395.463H106.29V395.393C106.126 393.605 104.626 392.328 102.622 392.328C100.167 392.328 98.6551 394.021 98.6551 396.764V396.775C98.6551 399.518 100.173 401.217 102.622 401.217ZM110.57 401.135C112.556 401.135 113.752 399.881 113.752 397.777V397.766C113.752 395.68 112.539 394.408 110.57 394.408C108.601 394.408 107.388 395.686 107.388 397.766V397.777C107.388 399.875 108.584 401.135 110.57 401.135ZM110.57 399.793C109.656 399.793 109.14 399.049 109.14 397.777V397.766C109.14 396.506 109.662 395.75 110.57 395.75C111.472 395.75 112 396.506 112 397.766V397.777C112 399.049 111.478 399.793 110.57 399.793ZM115.096 401H116.807V397.391C116.807 396.477 117.422 395.92 118.395 395.92C118.659 395.92 118.922 395.961 119.18 396.02V394.525C119.01 394.479 118.77 394.443 118.541 394.443C117.704 394.443 117.118 394.854 116.912 395.551H116.807V394.549H115.096V401ZM121.913 401.1C122.757 401.1 123.437 400.742 123.765 400.145H123.87V401H125.558V396.594C125.558 395.217 124.591 394.408 122.88 394.408C121.257 394.408 120.191 395.158 120.056 396.289L120.05 396.342H121.632L121.644 396.318C121.779 395.938 122.171 395.721 122.786 395.721C123.489 395.721 123.87 396.037 123.87 396.594V397.127L122.312 397.221C120.706 397.314 119.81 397.994 119.81 399.154V399.166C119.81 400.338 120.683 401.1 121.913 401.1ZM121.48 399.061V399.049C121.48 398.58 121.837 398.305 122.57 398.258L123.87 398.176V398.65C123.87 399.33 123.279 399.852 122.487 399.852C121.896 399.852 121.48 399.553 121.48 399.061ZM127.242 401H128.953V392.082H127.242V401ZM64.9238 417H66.6934V408.545H64.9297L62.7441 410.062V411.656L64.8184 410.215H64.9238V417ZM69.8484 417.146C70.452 417.146 70.8797 416.707 70.8797 416.127C70.8797 415.547 70.452 415.113 69.8484 415.113C69.2508 415.113 68.8172 415.547 68.8172 416.127C68.8172 416.707 69.2508 417.146 69.8484 417.146ZM75.5816 417.217C77.4801 417.217 78.7926 416.004 78.7926 414.223V414.211C78.7926 412.6 77.6559 411.439 76.0797 411.439C75.2711 411.439 74.6148 411.791 74.275 412.359H74.1695L74.3805 409.951H78.2887V408.545H73.0035L72.6109 413.549H74.1285C74.2223 413.367 74.3629 413.209 74.5211 413.08C74.8023 412.84 75.1656 412.717 75.5934 412.717C76.4898 412.717 77.1285 413.344 77.1285 414.246V414.258C77.1285 415.166 76.4957 415.805 75.5875 415.805C74.7906 415.805 74.2105 415.307 74.0875 414.686L74.0758 414.645H72.4703L72.4762 414.727C72.5758 416.139 73.7711 417.217 75.5816 417.217ZM80.2953 419.139H82.0063V415.969H82.1117C82.4398 416.672 83.1605 417.1 84.0453 417.1C85.6801 417.1 86.6645 415.852 86.6645 413.777V413.766C86.6645 411.709 85.6566 410.443 84.0453 410.443C83.1313 410.443 82.4457 410.854 82.1117 411.545H82.0063V410.549H80.2953V419.139ZM83.4594 415.682C82.5629 415.682 81.9887 414.961 81.9887 413.777V413.766C81.9887 412.582 82.557 411.861 83.4594 411.861C84.3676 411.861 84.9242 412.582 84.9242 413.766V413.777C84.9242 414.961 84.3617 415.682 83.4594 415.682ZM87.1945 417H88.9992L90.2004 414.867H90.3059L91.5129 417H93.4055L91.3605 413.736L93.3937 410.549H91.5305L90.3879 412.688H90.2824L89.1398 410.549H87.177L89.216 413.807L87.1945 417Z" fill="#FFA800"/>
<path d="M371.497 361C370.049 367.697 368.053 369.906 362 370.594" stroke="#FFA800" stroke-linecap="round"/>
</g>
<defs>
<filter id="filter0_d" x="0" y="0" width="426" height="717" filterUnits="userSpaceOnUse" color-interpolation-filters="sRGB">
<feFlood flood-opacity="0" result="BackgroundImageFix"/>
<feColorMatrix in="SourceAlpha" type="matrix" values="0 0 0 0 0 0 0 0 0 0 0 0 0 0 0 0 0 0 127 0"/>
<feMorphology radius="5" operator="dilate" in="SourceAlpha" result="effect1_dropShadow"/>
<feOffset/>
<feGaussianBlur stdDeviation="10"/>
<feColorMatrix type="matrix" values="0 0 0 0 0 0 0 0 0 0 0 0 0 0 0 0 0 0 0.15 0"/>
<feBlend mode="normal" in2="BackgroundImageFix" result="effect1_dropShadow"/>
<feBlend mode="normal" in="SourceGraphic" in2="effect1_dropShadow" result="shape"/>
</filter>
</defs>
</svg>
