<svg width="426" height="717" viewBox="0 0 426 717" fill="none" xmlns="http://www.w3.org/2000/svg">
<g filter="url(#filter0_d)">
<rect width="375" height="667" transform="translate(26 25)" fill="white"/>
<path d="M192.279 30.334C190.445 30.334 189.139 31.5879 189.139 33.3047V33.3164C189.139 34.9219 190.275 36.1055 191.898 36.1055C193.059 36.1055 193.797 35.5137 194.107 34.8457H194.225C194.225 34.9102 194.219 34.9746 194.219 35.0391C194.154 36.6562 193.586 37.9688 192.244 37.9688C191.5 37.9688 190.979 37.582 190.756 36.9902L190.738 36.9316H189.25L189.262 36.9961C189.531 38.291 190.691 39.2109 192.244 39.2109C194.371 39.2109 195.654 37.5234 195.654 34.6758V34.6641C195.654 31.6172 194.084 30.334 192.279 30.334ZM192.273 34.9453C191.312 34.9453 190.615 34.2422 190.615 33.2637V33.252C190.615 32.3086 191.359 31.5645 192.291 31.5645C193.229 31.5645 193.961 32.3203 193.961 33.2871V33.2988C193.961 34.2539 193.229 34.9453 192.273 34.9453ZM198.314 33.5215C198.854 33.5215 199.246 33.1113 199.246 32.5957C199.246 32.0742 198.854 31.6699 198.314 31.6699C197.781 31.6699 197.383 32.0742 197.383 32.5957C197.383 33.1113 197.781 33.5215 198.314 33.5215ZM198.314 37.8691C198.854 37.8691 199.246 37.4648 199.246 36.9434C199.246 36.4219 198.854 36.0176 198.314 36.0176C197.781 36.0176 197.383 36.4219 197.383 36.9434C197.383 37.4648 197.781 37.8691 198.314 37.8691ZM205.076 39H206.523V37.377H207.66V36.1289H206.523V30.5449H204.385C203.236 32.291 202.035 34.2363 200.939 36.1406V37.377H205.076V39ZM202.346 36.1641V36.0762C203.166 34.6406 204.145 33.0762 205.012 31.752H205.1V36.1641H202.346ZM211.164 39H212.676V30.5449H211.17L208.961 32.0977V33.5215L211.064 32.0332H211.164V39ZM217.756 39H219.338L220.041 36.8145H223.17L223.879 39H225.461L222.461 30.5449H220.756L217.756 39ZM221.559 32.1152H221.658L222.795 35.6484H220.422L221.559 32.1152ZM226.914 39H228.279V32.9883H228.379L230.723 39H231.754L234.098 32.9883H234.203V39H235.562V30.5449H233.828L231.291 37.0488H231.191L228.648 30.5449H226.914V39Z" fill="black"/>
<path opacity="0.35" fill-rule="evenodd" clip-rule="evenodd" d="M370.5 29.5H389.5C390.881 29.5 392 30.6193 392 32V38.5C392 39.8807 390.881 41 389.5 41H370.5C369.119 41 368 39.8807 368 38.5V32C368 30.6193 369.119 29.5 370.5 29.5ZM370.5 30.5C369.672 30.5 369 31.1716 369 32V38.5C369 39.3284 369.672 40 370.5 40H389.5C390.328 40 391 39.3284 391 38.5V32C391 31.1716 390.328 30.5 389.5 30.5H370.5Z" fill="black"/>
<path opacity="0.4" fill-rule="evenodd" clip-rule="evenodd" d="M393 32.7998C393.89 33.255 394.5 34.1813 394.5 35.2499C394.5 36.3186 393.89 37.2449 393 37.7001V32.7998Z" fill="black"/>
<path fill-rule="evenodd" clip-rule="evenodd" d="M371 31.5H389C389.552 31.5 390 31.9477 390 32.5V38C390 38.5523 389.552 39 389 39H371C370.448 39 370 38.5523 370 38V32.5C370 31.9477 370.448 31.5 371 31.5Z" fill="black"/>
<path d="M336.219 39.3H337.273V30.8449H336.225L333.975 32.4621V33.5754L336.125 32.0168H336.219V39.3ZM342.547 39.4992C344.416 39.4992 345.541 37.7941 345.541 35.0754V35.0637C345.541 32.3449 344.416 30.6457 342.547 30.6457C340.678 30.6457 339.564 32.3449 339.564 35.0637V35.0754C339.564 37.7941 340.678 39.4992 342.547 39.4992ZM342.547 38.5793C341.334 38.5793 340.625 37.2316 340.625 35.0754V35.0637C340.625 32.9074 341.334 31.5715 342.547 31.5715C343.76 31.5715 344.48 32.9074 344.48 35.0637V35.0754C344.48 37.2316 343.76 38.5793 342.547 38.5793ZM350.105 39.4992C351.975 39.4992 353.1 37.7941 353.1 35.0754V35.0637C353.1 32.3449 351.975 30.6457 350.105 30.6457C348.236 30.6457 347.123 32.3449 347.123 35.0637V35.0754C347.123 37.7941 348.236 39.4992 350.105 39.4992ZM350.105 38.5793C348.893 38.5793 348.184 37.2316 348.184 35.0754V35.0637C348.184 32.9074 348.893 31.5715 350.105 31.5715C351.318 31.5715 352.039 32.9074 352.039 35.0637V35.0754C352.039 37.2316 351.318 38.5793 350.105 38.5793ZM356.41 35.2922C357.488 35.2922 358.145 34.4133 358.145 33.0129V33.007C358.145 31.6066 357.488 30.7336 356.41 30.7336C355.332 30.7336 354.682 31.6066 354.682 33.007V33.0129C354.682 34.4133 355.332 35.2922 356.41 35.2922ZM357.043 39.3L362.797 30.8449H361.848L356.094 39.3H357.043ZM356.41 34.5949C355.83 34.5949 355.496 34.0031 355.496 33.0129V33.007C355.496 32.0168 355.83 31.4308 356.41 31.4308C356.99 31.4308 357.33 32.0168 357.33 33.007V33.0129C357.33 34.0031 356.99 34.5949 356.41 34.5949ZM362.469 39.4113C363.547 39.4113 364.203 38.5324 364.203 37.132V37.1262C364.203 35.7258 363.547 34.8527 362.469 34.8527C361.391 34.8527 360.74 35.7258 360.74 37.1262V37.132C360.74 38.5324 361.391 39.4113 362.469 39.4113ZM362.469 38.7141C361.889 38.7141 361.555 38.1223 361.555 37.132V37.1262C361.555 36.1359 361.889 35.55 362.469 35.55C363.049 35.55 363.389 36.1359 363.389 37.1262V37.132C363.389 38.1223 363.049 38.7141 362.469 38.7141Z" fill="black"/>
<path fill-rule="evenodd" clip-rule="evenodd" d="M45.5 30H46.5C47.0523 30 47.5 30.4477 47.5 31V39C47.5 39.5523 47.0523 40 46.5 40H45.5C44.9477 40 44.5 39.5523 44.5 39V31C44.5 30.4477 44.9477 30 45.5 30Z" fill="black"/>
<path d="M42 32H41C40.4477 32 40 32.4477 40 33V39C40 39.5523 40.4477 40 41 40H42C42.5523 40 43 39.5523 43 39V33C43 32.4477 42.5523 32 42 32Z" fill="black"/>
<path d="M36.5 34H37.5C38.0523 34 38.5 34.4477 38.5 35V39C38.5 39.5523 38.0523 40 37.5 40H36.5C35.9477 40 35.5 39.5523 35.5 39V35C35.5 34.4477 35.9477 34 36.5 34Z" fill="black"/>
<path d="M32 35.5H33C33.5523 35.5 34 35.9477 34 36.5V39C34 39.5523 33.5523 40 33 40H32C31.4477 40 31 39.5523 31 39V36.5C31 35.9477 31.4477 35.5 32 35.5Z" fill="black"/>
<path d="M55.0781 39H56.1328V35.6543H58.2129L60.0234 39H61.2598L59.3027 35.4902C60.3633 35.1562 61.002 34.2422 61.002 33.0703V33.0586C61.002 31.541 59.9355 30.5449 58.3066 30.5449H55.0781V39ZM56.1328 34.7168V31.4824H58.166C59.2559 31.4824 59.9121 32.0859 59.9121 33.0938V33.1055C59.9121 34.1367 59.2969 34.7168 58.2129 34.7168H56.1328ZM65.6395 39.1992C67.5262 39.1992 68.7625 38.2148 68.7625 36.6328V36.627C68.7625 35.4082 68.0652 34.6992 66.3016 34.3066L65.3641 34.0957C64.2156 33.8438 63.7527 33.3867 63.7527 32.7129V32.707C63.7527 31.8223 64.5672 31.3242 65.6219 31.3184C66.7234 31.3125 67.4266 31.8633 67.5437 32.6074L67.5555 32.6836H68.6102L68.6043 32.6016C68.5164 31.3418 67.3387 30.3457 65.6512 30.3457C63.9051 30.3457 62.6805 31.3359 62.6746 32.7363V32.7422C62.6746 33.9668 63.407 34.7461 65.1004 35.1211L66.0379 35.3262C67.198 35.584 67.6844 36.0645 67.6844 36.7676V36.7734C67.6844 37.6348 66.8465 38.2266 65.698 38.2266C64.4793 38.2266 63.6004 37.6934 63.5242 36.8496L63.5184 36.7852H62.4637L62.4695 36.8496C62.5926 38.2266 63.7879 39.1992 65.6395 39.1992ZM73.2418 39.1992C75.1285 39.1992 76.3648 38.2148 76.3648 36.6328V36.627C76.3648 35.4082 75.6676 34.6992 73.9039 34.3066L72.9664 34.0957C71.818 33.8438 71.3551 33.3867 71.3551 32.7129V32.707C71.3551 31.8223 72.1695 31.3242 73.2242 31.3184C74.3258 31.3125 75.0289 31.8633 75.1461 32.6074L75.1578 32.6836H76.2125L76.2066 32.6016C76.1187 31.3418 74.941 30.3457 73.2535 30.3457C71.5074 30.3457 70.2828 31.3359 70.277 32.7363V32.7422C70.277 33.9668 71.0094 34.7461 72.7027 35.1211L73.6402 35.3262C74.8004 35.584 75.2867 36.0645 75.2867 36.7676V36.7734C75.2867 37.6348 74.4488 38.2266 73.3004 38.2266C72.0816 38.2266 71.2027 37.6934 71.1266 36.8496L71.1207 36.7852H70.066L70.0719 36.8496C70.1949 38.2266 71.3902 39.1992 73.2418 39.1992ZM80.5277 39.1113C82.0453 39.1113 82.8949 38.2969 83.1527 37.1543L83.1645 37.0898L82.1566 37.0957L82.1449 37.1309C81.9105 37.834 81.3715 38.209 80.5219 38.209C79.3969 38.209 78.6703 37.2773 78.6703 35.8242V35.8125C78.6703 34.3887 79.3852 33.4746 80.5219 33.4746C81.4301 33.4746 81.9926 33.9785 82.1508 34.5996L82.1566 34.6172H83.1703L83.1645 34.582C82.977 33.457 82.057 32.5723 80.5219 32.5723C78.7523 32.5723 77.6273 33.8496 77.6273 35.8125V35.8242C77.6273 37.8281 78.7582 39.1113 80.5277 39.1113ZM84.6672 39H85.6867V35.2617C85.6867 34.1543 86.3254 33.4746 87.3332 33.4746C88.341 33.4746 88.8098 34.0195 88.8098 35.1562V39H89.8293V34.9102C89.8293 33.4102 89.0383 32.5723 87.6203 32.5723C86.6887 32.5723 86.0969 32.9648 85.7805 33.6328H85.6867V30.1758H84.6672V39ZM94.2207 39.1113C96.0195 39.1113 97.1328 37.8691 97.1328 35.8477V35.8359C97.1328 33.8086 96.0195 32.5723 94.2207 32.5723C92.4219 32.5723 91.3086 33.8086 91.3086 35.8359V35.8477C91.3086 37.8691 92.4219 39.1113 94.2207 39.1113ZM94.2207 38.209C93.0254 38.209 92.3516 37.3359 92.3516 35.8477V35.8359C92.3516 34.3418 93.0254 33.4746 94.2207 33.4746C95.416 33.4746 96.0898 34.3418 96.0898 35.8359V35.8477C96.0898 37.3359 95.416 38.209 94.2207 38.209ZM101.261 39.1113C103.059 39.1113 104.173 37.8691 104.173 35.8477V35.8359C104.173 33.8086 103.059 32.5723 101.261 32.5723C99.4617 32.5723 98.3484 33.8086 98.3484 35.8359V35.8477C98.3484 37.8691 99.4617 39.1113 101.261 39.1113ZM101.261 38.209C100.065 38.209 99.3914 37.3359 99.3914 35.8477V35.8359C99.3914 34.3418 100.065 33.4746 101.261 33.4746C102.456 33.4746 103.13 34.3418 103.13 35.8359V35.8477C103.13 37.3359 102.456 38.209 101.261 38.209ZM105.763 39H106.783V30.1758H105.763V39Z" fill="black"/>
<path fill-rule="evenodd" clip-rule="evenodd" d="M125.983 32.5229C124.072 30.8906 121.657 30 119.133 30C116.601 30 114.18 30.8959 112.266 32.5371L112.104 32.6765C111.972 32.7892 111.965 32.9895 112.087 33.1118L113.214 34.2356C113.324 34.3447 113.498 34.3521 113.617 34.2527L113.756 34.1354C115.263 32.8694 117.155 32.1804 119.133 32.1804C121.104 32.1804 122.989 32.8647 124.494 34.1228L124.634 34.2395C124.752 34.3385 124.926 34.3308 125.036 34.2219L126.163 33.098C126.285 32.9756 126.278 32.7749 126.146 32.6623L125.983 32.5229ZM119.133 33.4698C120.724 33.4698 122.251 33.9975 123.495 34.9749L123.671 35.113C123.811 35.2231 123.824 35.4306 123.697 35.5564L122.567 36.6841C122.462 36.7884 122.297 36.8003 122.178 36.7122L122.04 36.6098C121.2 35.9852 120.186 35.6501 119.133 35.6501C118.073 35.6501 117.053 35.9893 116.21 36.6211L116.072 36.7245C115.954 36.8133 115.787 36.8016 115.683 36.697L114.552 35.5698C114.426 35.4442 114.438 35.2373 114.578 35.1269L114.753 34.9887C116 34.0027 117.534 33.4698 119.133 33.4698ZM119.133 36.9396C119.772 36.9396 120.394 37.1076 120.941 37.4281L121.163 37.5579C121.331 37.6563 121.361 37.8867 121.223 38.0242L119.329 39.913C119.212 40.029 119.024 40.029 118.907 39.913L117.026 38.0363C116.888 37.8994 116.917 37.6702 117.084 37.5711L117.303 37.4406C117.856 37.1121 118.485 36.9396 119.133 36.9396Z" fill="black"/>
<rect x="127" y="132" width="173" height="41" rx="5" fill="#C4C4C4"/>
<path d="M62 335C62 332.2 62 330.8 62.545 329.73C63.0243 328.789 63.7892 328.024 64.73 327.545C65.7996 327 67.1997 327 70 327H357C359.8 327 361.2 327 362.27 327.545C363.211 328.024 363.976 328.789 364.455 329.73C365 330.8 365 332.2 365 335V355C365 357.8 365 359.2 364.455 360.27C363.976 361.211 363.211 361.976 362.27 362.455C361.2 363 359.8 363 357 363H70C67.1997 363 65.7996 363 64.73 362.455C63.7892 361.976 63.0243 361.211 62.545 360.27C62 359.2 62 357.8 62 355V335Z" fill="#C4C4C4"/>
<path d="M62 269C62 266.2 62 264.8 62.545 263.73C63.0243 262.789 63.7892 262.024 64.73 261.545C65.7996 261 67.1997 261 70 261H357C359.8 261 361.2 261 362.27 261.545C363.211 262.024 363.976 262.789 364.455 263.73C365 264.8 365 266.2 365 269V289C365 291.8 365 293.2 364.455 294.27C363.976 295.211 363.211 295.976 362.27 296.455C361.2 297 359.8 297 357 297H70C67.1997 297 65.7996 297 64.73 296.455C63.7892 295.976 63.0243 295.211 62.545 294.27C62 293.2 62 291.8 62 289V269Z" fill="#C4C4C4"/>
<rect x="96" y="532" width="235" height="110" rx="5" fill="#C4C4C4"/>
<rect x="136" y="424" width="154" height="40" rx="9" stroke="#80A4ED" stroke-width="2"/>
<path d="M180.231 451H182.868L184.039 447.357H189.254L190.436 451H193.073L188.073 436.908H185.231L180.231 451ZM186.569 439.525H186.735L188.629 445.414H184.674L186.569 439.525ZM197.821 451.215C199.364 451.215 200.448 450.521 200.946 449.379H201.112V451H203.543V440.326H201.112V446.547C201.112 448.148 200.272 449.164 198.7 449.164C197.235 449.164 196.62 448.324 196.62 446.674V440.326H194.188V447.23C194.188 449.77 195.418 451.215 197.821 451.215ZM210.303 451.049C210.772 451.049 211.221 451.01 211.573 450.941V449.066C211.28 449.096 211.094 449.105 210.753 449.105C209.737 449.105 209.317 448.656 209.317 447.592V442.211H211.573V440.326H209.317V437.709H206.846V440.326H205.186V442.211H206.846V448.168C206.846 450.229 207.852 451.049 210.303 451.049ZM213.685 451H216.116V444.779C216.116 443.178 217.015 442.162 218.46 442.162C219.935 442.162 220.608 443.002 220.608 444.662V451H223.04V444.096C223.04 441.557 221.741 440.121 219.358 440.121C217.815 440.121 216.79 440.814 216.282 441.957H216.116V436.195H213.685V451ZM230.112 451.215C233.306 451.215 235.249 449.125 235.249 445.668V445.648C235.249 442.211 233.296 440.121 230.112 440.121C226.939 440.121 224.976 442.221 224.976 445.648V445.668C224.976 449.125 226.909 451.215 230.112 451.215ZM230.112 449.242C228.423 449.242 227.456 447.924 227.456 445.678V445.658C227.456 443.412 228.423 442.084 230.112 442.084C231.792 442.084 232.759 443.412 232.759 445.658V445.678C232.759 447.924 231.802 449.242 230.112 449.242ZM237.283 451H239.714V444.799C239.714 443.275 240.779 442.309 242.4 442.309C242.82 442.309 243.22 442.367 243.611 442.445V440.268C243.376 440.199 242.995 440.15 242.624 440.15C241.218 440.15 240.242 440.824 239.88 441.967H239.714V440.326H237.283V451ZM246.445 438.539C247.236 438.539 247.89 437.904 247.89 437.104C247.89 436.312 247.236 435.668 246.445 435.668C245.644 435.668 244.99 436.312 244.99 437.104C244.99 437.904 245.644 438.539 246.445 438.539ZM245.224 451H247.656V440.326H245.224V451ZM249.992 451H258.644V449.125H253.068V448.949L258.556 441.947V440.326H250.041V442.211H255.685V442.377L249.992 449.516V451ZM265.258 451.215C268.158 451.215 269.584 449.545 269.926 448.168L269.955 448.08H267.641L267.611 448.148C267.377 448.637 266.625 449.301 265.307 449.301C263.656 449.301 262.621 448.188 262.592 446.273H270.053V445.473C270.053 442.25 268.178 440.121 265.141 440.121C262.104 440.121 260.16 442.318 260.16 445.678V445.688C260.16 449.086 262.084 451.215 265.258 451.215ZM265.17 442.025C266.527 442.025 267.514 442.895 267.68 444.643H262.611C262.797 442.943 263.812 442.025 265.17 442.025Z" fill="#80A4ED"/>
<path d="M164.628 444.156C166.604 444.156 168.214 442.396 168.214 440.255C168.214 438.13 166.612 436.461 164.628 436.461C162.661 436.461 161.042 438.163 161.042 440.271C161.051 442.405 162.653 444.156 164.628 444.156ZM164.628 442.903C163.417 442.903 162.379 441.741 162.379 440.271C162.379 438.827 163.4 437.715 164.628 437.715C165.865 437.715 166.878 438.811 166.878 440.255C166.878 441.724 165.849 442.903 164.628 442.903ZM159.407 451.834H169.841C171.219 451.834 171.875 451.419 171.875 450.506C171.875 448.332 169.127 445.186 164.628 445.186C160.121 445.186 157.374 448.332 157.374 450.506C157.374 451.419 158.029 451.834 159.407 451.834ZM159.017 450.581C158.801 450.581 158.71 450.523 158.71 450.349C158.71 448.987 160.818 446.439 164.628 446.439C168.43 446.439 170.539 448.987 170.539 450.349C170.539 450.523 170.456 450.581 170.24 450.581H159.017Z" fill="#80A4ED"/>
<path d="M283.924 492H285.693V483.545H283.93L281.744 485.062V486.656L283.818 485.215H283.924V492ZM291.198 492.217C293.29 492.217 294.555 490.506 294.555 487.775V487.764C294.555 485.027 293.29 483.328 291.198 483.328C289.112 483.328 287.841 485.027 287.841 487.764V487.775C287.841 490.506 289.112 492.217 291.198 492.217ZM291.198 490.816C290.202 490.816 289.634 489.686 289.634 487.775V487.764C289.634 485.848 290.202 484.729 291.198 484.729C292.2 484.729 292.768 485.848 292.768 487.764V487.775C292.768 489.686 292.2 490.816 291.198 490.816ZM299.155 494.139H300.866V490.969H300.971C301.299 491.672 302.02 492.1 302.905 492.1C304.539 492.1 305.524 490.852 305.524 488.777V488.766C305.524 486.709 304.516 485.443 302.905 485.443C301.991 485.443 301.305 485.854 300.971 486.545H300.866V485.549H299.155V494.139ZM302.319 490.682C301.422 490.682 300.848 489.961 300.848 488.777V488.766C300.848 487.582 301.416 486.861 302.319 486.861C303.227 486.861 303.784 487.582 303.784 488.766V488.777C303.784 489.961 303.221 490.682 302.319 490.682ZM306.054 492H307.859L309.06 489.867H309.165L310.372 492H312.265L310.22 488.736L312.253 485.549H310.39L309.247 487.688H309.142L307.999 485.549H306.036L308.075 488.807L306.054 492Z" fill="#FFA800"/>
<path d="M167.061 391.217C168.959 391.217 170.271 390.004 170.271 388.223V388.211C170.271 386.6 169.135 385.439 167.559 385.439C166.75 385.439 166.094 385.791 165.754 386.359H165.648L165.859 383.951H169.768V382.545H164.482L164.09 387.549H165.607C165.701 387.367 165.842 387.209 166 387.08C166.281 386.84 166.645 386.717 167.072 386.717C167.969 386.717 168.607 387.344 168.607 388.246V388.258C168.607 389.166 167.975 389.805 167.066 389.805C166.27 389.805 165.689 389.307 165.566 388.686L165.555 388.645H163.949L163.955 388.727C164.055 390.139 165.25 391.217 167.061 391.217ZM174.818 393.139H176.529V389.969H176.634C176.962 390.672 177.683 391.1 178.568 391.1C180.203 391.1 181.187 389.852 181.187 387.777V387.766C181.187 385.709 180.179 384.443 178.568 384.443C177.654 384.443 176.968 384.854 176.634 385.545H176.529V384.549H174.818V393.139ZM177.982 389.682C177.086 389.682 176.511 388.961 176.511 387.777V387.766C176.511 386.582 177.08 385.861 177.982 385.861C178.89 385.861 179.447 386.582 179.447 387.766V387.777C179.447 388.961 178.884 389.682 177.982 389.682ZM181.717 391H183.522L184.723 388.867H184.829L186.036 391H187.928L185.883 387.736L187.916 384.549H186.053L184.911 386.688H184.805L183.663 384.549H181.7L183.739 387.807L181.717 391Z" fill="#FFA800"/>
<path d="M329.924 462H331.693V453.545H329.93L327.744 455.062V456.656L329.818 455.215H329.924V462ZM337.198 462.217C339.29 462.217 340.555 460.506 340.555 457.775V457.764C340.555 455.027 339.29 453.328 337.198 453.328C335.112 453.328 333.841 455.027 333.841 457.764V457.775C333.841 460.506 335.112 462.217 337.198 462.217ZM337.198 460.816C336.202 460.816 335.634 459.686 335.634 457.775V457.764C335.634 455.848 336.202 454.729 337.198 454.729C338.2 454.729 338.768 455.848 338.768 457.764V457.775C338.768 459.686 338.2 460.816 337.198 460.816ZM345.155 464.139H346.866V460.969H346.971C347.299 461.672 348.02 462.1 348.905 462.1C350.539 462.1 351.524 460.852 351.524 458.777V458.766C351.524 456.709 350.516 455.443 348.905 455.443C347.991 455.443 347.305 455.854 346.971 456.545H346.866V455.549H345.155V464.139ZM348.319 460.682C347.422 460.682 346.848 459.961 346.848 458.777V458.766C346.848 457.582 347.416 456.861 348.319 456.861C349.227 456.861 349.784 457.582 349.784 458.766V458.777C349.784 459.961 349.221 460.682 348.319 460.682ZM352.054 462H353.859L355.06 459.867H355.165L356.372 462H358.265L356.22 458.736L358.253 455.549H356.39L355.247 457.688H355.142L353.999 455.549H352.036L354.075 458.807L352.054 462Z" fill="#FFA800"/>
<path d="M297.498 463C296.05 469.697 294.053 471.906 288 472.594" stroke="#FFA800" stroke-linecap="round"/>
<line x1="172.5" y1="443.5" x2="179.5" y2="443.5" stroke="#FFA800" stroke-linecap="round"/>
<line x1="139.5" y1="443.5" x2="153.5" y2="443.5" stroke="#FFA800" stroke-linecap="round"/>
<line x1="272.5" y1="443.5" x2="286.5" y2="443.5" stroke="#FFA800" stroke-linecap="round"/>
<line x1="168.5" y1="399.5" x2="183.5" y2="399.5" stroke="#FFA800" stroke-linecap="round"/>
<line x1="322.5" y1="454.5" x2="322.5" y2="460.5" stroke="#FFA800" stroke-linecap="round"/>
<line x1="176.5" y1="443.5" x2="176.5" y2="399.5" stroke="#FFA800" stroke-linecap="round"/>
<path d="M262.855 391H268.955V389.576H265.229V389.441L266.793 387.982C268.334 386.559 268.832 385.762 268.832 384.801V384.783C268.832 383.324 267.613 382.328 265.873 382.328C264.021 382.328 262.756 383.441 262.756 385.064L262.762 385.088H264.396V385.059C264.396 384.256 264.965 383.705 265.791 383.705C266.6 383.705 267.092 384.209 267.092 384.93V384.947C267.092 385.539 266.77 385.967 265.58 387.121L262.855 389.811V391ZM273.78 391.217C275.872 391.217 277.137 389.506 277.137 386.775V386.764C277.137 384.027 275.872 382.328 273.78 382.328C271.694 382.328 270.423 384.027 270.423 386.764V386.775C270.423 389.506 271.694 391.217 273.78 391.217ZM273.78 389.816C272.784 389.816 272.216 388.686 272.216 386.775V386.764C272.216 384.848 272.784 383.729 273.78 383.729C274.782 383.729 275.35 384.848 275.35 386.764V386.775C275.35 388.686 274.782 389.816 273.78 389.816ZM281.737 393.139H283.448V389.969H283.553C283.881 390.672 284.602 391.1 285.487 391.1C287.121 391.1 288.106 389.852 288.106 387.777V387.766C288.106 385.709 287.098 384.443 285.487 384.443C284.573 384.443 283.887 384.854 283.553 385.545H283.448V384.549H281.737V393.139ZM284.901 389.682C284.004 389.682 283.43 388.961 283.43 387.777V387.766C283.43 386.582 283.998 385.861 284.901 385.861C285.809 385.861 286.366 386.582 286.366 387.766V387.777C286.366 388.961 285.803 389.682 284.901 389.682ZM288.636 391H290.441L291.642 388.867H291.747L292.954 391H294.847L292.802 387.736L294.835 384.549H292.972L291.829 386.688H291.724L290.581 384.549H288.618L290.657 387.807L288.636 391Z" fill="#FFA800"/>
<line x1="271.5" y1="399.5" x2="286.5" y2="399.5" stroke="#FFA800" stroke-linecap="round"/>
<line x1="279.5" y1="443.5" x2="279.5" y2="399.5" stroke="#FFA800" stroke-linecap="round"/>
<line x1="212.5" y1="457.5" x2="322.5" y2="457.5" stroke="#FFA800" stroke-linecap="round"/>
<line x1="212.5" y1="460.5" x2="212.5" y2="454.5" stroke="#FFA800" stroke-linecap="round"/>
<line x1="212.5" y1="433.5" x2="212.5" y2="427.5" stroke="#FFA800" stroke-linecap="round"/>
<path d="M39.4766 437.139H42.7227V435.879H41.1172V427.342H42.7227V426.082H39.4766V437.139ZM44.1199 435H47.9168C49.7215 435 50.8406 434.068 50.8406 432.586V432.574C50.8406 431.49 50.0262 430.652 48.907 430.564V430.459C49.7742 430.33 50.4363 429.551 50.4363 428.66V428.648C50.4363 427.348 49.4578 426.545 47.8172 426.545H44.1199V435ZM47.366 427.857C48.2098 427.857 48.6961 428.268 48.6961 428.953V428.965C48.6961 429.662 48.1746 430.061 47.2195 430.061H45.8895V427.857H47.366ZM47.4246 431.227C48.4676 431.227 49.0359 431.648 49.0359 432.434V432.445C49.0359 433.248 48.4852 433.682 47.4656 433.682H45.8895V431.227H47.4246ZM55.0855 435.135C57.0719 435.135 58.2672 433.881 58.2672 431.777V431.766C58.2672 429.68 57.0543 428.408 55.0855 428.408C53.1168 428.408 51.9039 429.686 51.9039 431.766V431.777C51.9039 433.875 53.0992 435.135 55.0855 435.135ZM55.0855 433.793C54.1715 433.793 53.6559 433.049 53.6559 431.777V431.766C53.6559 430.506 54.1773 429.75 55.0855 429.75C55.9879 429.75 56.5152 430.506 56.5152 431.766V431.777C56.5152 433.049 55.9937 433.793 55.0855 433.793ZM59.6117 435H61.3227V431.391C61.3227 430.477 61.9379 429.92 62.9105 429.92C63.1742 429.92 63.4379 429.961 63.6957 430.02V428.525C63.5258 428.479 63.2855 428.443 63.057 428.443C62.2191 428.443 61.6332 428.854 61.4281 429.551H61.3227V428.549H59.6117V435ZM66.9387 435.1C67.8469 435.1 68.5324 434.695 68.8664 433.998H68.9719V435H70.6828V426.082H68.9719V429.58H68.8664C68.5441 428.877 67.8234 428.443 66.9387 428.443C65.3039 428.443 64.3195 429.691 64.3195 431.766V431.777C64.3195 433.84 65.3273 435.1 66.9387 435.1ZM67.5187 433.682C66.6164 433.682 66.0598 432.967 66.0598 431.777V431.766C66.0598 430.588 66.6164 429.861 67.5187 429.861C68.4211 429.861 68.9895 430.588 68.9895 431.771V431.783C68.9895 432.967 68.427 433.682 67.5187 433.682ZM75.2383 435.135C77.125 435.135 77.957 434.045 78.1562 433.236L78.168 433.178H76.5742L76.5566 433.213C76.4395 433.459 76.0234 433.857 75.2734 433.857C74.3652 433.857 73.7969 433.242 73.7793 432.182H78.2207V431.648C78.2207 429.697 77.0488 428.408 75.168 428.408C73.2871 428.408 72.0859 429.727 72.0859 431.777V431.783C72.0859 433.852 73.2754 435.135 75.2383 435.135ZM75.1973 429.691C75.9414 429.691 76.4746 430.172 76.5801 431.109H73.7969C73.9023 430.195 74.4531 429.691 75.1973 429.691ZM79.5711 435H81.282V431.391C81.282 430.477 81.8973 429.92 82.8699 429.92C83.1336 429.92 83.3973 429.961 83.6551 430.02V428.525C83.4852 428.479 83.2449 428.443 83.0164 428.443C82.1785 428.443 81.5926 428.854 81.3875 429.551H81.282V428.549H79.5711V435ZM87.566 437.139V426.082H84.3199V427.342H85.9195V435.879H84.3199V437.139H87.566ZM39.0254 451H44.5566V449.541H40.7949V442.545H39.0254V451ZM46.8152 443.559C47.3426 443.559 47.7762 443.137 47.7762 442.609C47.7762 442.076 47.3426 441.654 46.8152 441.654C46.2879 441.654 45.8484 442.076 45.8484 442.609C45.8484 443.137 46.2879 443.559 46.8152 443.559ZM45.9539 451H47.6648V444.549H45.9539V451ZM52.0152 451.023C52.3434 451.023 52.6598 450.988 52.8707 450.947V449.676C52.7066 449.693 52.5895 449.705 52.3668 449.705C51.7867 449.705 51.5406 449.447 51.5406 448.867V445.838H52.8707V444.549H51.5406V443.008H49.8121V444.549H48.816V445.838H49.8121V449.26C49.8121 450.514 50.4449 451.023 52.0152 451.023ZM56.9809 451.023C57.309 451.023 57.6254 450.988 57.8363 450.947V449.676C57.6723 449.693 57.5551 449.705 57.3324 449.705C56.7523 449.705 56.5063 449.447 56.5063 448.867V445.838H57.8363V444.549H56.5063V443.008H54.7777V444.549H53.7816V445.838H54.7777V449.26C54.7777 450.514 55.4105 451.023 56.9809 451.023ZM59.2687 451H60.9797V442.082H59.2687V451ZM65.5352 451.135C67.4219 451.135 68.2539 450.045 68.4531 449.236L68.4648 449.178H66.8711L66.8535 449.213C66.7363 449.459 66.3203 449.857 65.5703 449.857C64.6621 449.857 64.0938 449.242 64.0762 448.182H68.5176V447.648C68.5176 445.697 67.3457 444.408 65.4648 444.408C63.584 444.408 62.3828 445.727 62.3828 447.777V447.783C62.3828 449.852 63.5723 451.135 65.5352 451.135ZM65.4941 445.691C66.2383 445.691 66.7715 446.172 66.877 447.109H64.0938C64.1992 446.195 64.75 445.691 65.4941 445.691ZM73.0816 451H76.8785C78.6832 451 79.8023 450.068 79.8023 448.586V448.574C79.8023 447.49 78.9879 446.652 77.8688 446.564V446.459C78.7359 446.33 79.398 445.551 79.398 444.66V444.648C79.398 443.348 78.4195 442.545 76.7789 442.545H73.0816V451ZM76.3277 443.857C77.1715 443.857 77.6578 444.268 77.6578 444.953V444.965C77.6578 445.662 77.1363 446.061 76.1813 446.061H74.8512V443.857H76.3277ZM76.3863 447.227C77.4293 447.227 77.9977 447.648 77.9977 448.434V448.445C77.9977 449.248 77.4469 449.682 76.4273 449.682H74.8512V447.227H76.3863ZM84.0473 451.135C86.0336 451.135 87.2289 449.881 87.2289 447.777V447.766C87.2289 445.68 86.016 444.408 84.0473 444.408C82.0785 444.408 80.8656 445.686 80.8656 447.766V447.777C80.8656 449.875 82.0609 451.135 84.0473 451.135ZM84.0473 449.793C83.1332 449.793 82.6176 449.049 82.6176 447.777V447.766C82.6176 446.506 83.1391 445.75 84.0473 445.75C84.9496 445.75 85.477 446.506 85.477 447.766V447.777C85.477 449.049 84.9555 449.793 84.0473 449.793ZM89.0715 453.273C90.6652 453.273 91.5148 452.699 92.0891 450.994L94.2863 444.549H92.4816L91.1281 449.436H91.0109L89.6574 444.549H87.7766L90.0441 451L89.9855 451.246C89.8625 451.75 89.5109 451.984 88.9016 451.984C88.7434 451.984 88.5734 451.979 88.4562 451.967V453.256C88.6555 453.268 88.8723 453.273 89.0715 453.273ZM98.6395 451H102.436C104.241 451 105.36 450.068 105.36 448.586V448.574C105.36 447.49 104.546 446.652 103.427 446.564V446.459C104.294 446.33 104.956 445.551 104.956 444.66V444.648C104.956 443.348 103.977 442.545 102.337 442.545H98.6395V451ZM101.886 443.857C102.729 443.857 103.216 444.268 103.216 444.953V444.965C103.216 445.662 102.694 446.061 101.739 446.061H100.409V443.857H101.886ZM101.944 447.227C102.987 447.227 103.555 447.648 103.555 448.434V448.445C103.555 449.248 103.005 449.682 101.985 449.682H100.409V447.227H101.944ZM106.798 451H108.509V442.082H106.798V451ZM112.362 451.135C113.282 451.135 113.938 450.707 114.231 450.004H114.336V451H116.047V444.549H114.336V448.275C114.336 449.148 113.879 449.717 113.036 449.717C112.227 449.717 111.881 449.242 111.881 448.328V444.549H110.17V448.721C110.17 450.256 110.914 451.135 112.362 451.135ZM120.55 451.135C122.437 451.135 123.269 450.045 123.468 449.236L123.48 449.178H121.886L121.868 449.213C121.751 449.459 121.335 449.857 120.585 449.857C119.677 449.857 119.109 449.242 119.091 448.182H123.532V447.648C123.532 445.697 122.361 444.408 120.48 444.408C118.599 444.408 117.398 445.727 117.398 447.777V447.783C117.398 449.852 118.587 451.135 120.55 451.135ZM120.509 445.691C121.253 445.691 121.786 446.172 121.892 447.109H119.109C119.214 446.195 119.765 445.691 120.509 445.691ZM38.8555 467H44.9551V465.576H41.2285V465.441L42.793 463.982C44.334 462.559 44.832 461.762 44.832 460.801V460.783C44.832 459.324 43.6133 458.328 41.873 458.328C40.0215 458.328 38.7559 459.441 38.7559 461.064L38.7617 461.088H40.3965V461.059C40.3965 460.256 40.9648 459.705 41.791 459.705C42.5996 459.705 43.0918 460.209 43.0918 460.93V460.947C43.0918 461.539 42.7695 461.967 41.5801 463.121L38.8555 465.811V467ZM46.5281 469.139H48.2391V465.969H48.3445C48.6727 466.672 49.3934 467.1 50.2781 467.1C51.9129 467.1 52.8973 465.852 52.8973 463.777V463.766C52.8973 461.709 51.8895 460.443 50.2781 460.443C49.3641 460.443 48.6785 460.854 48.3445 461.545H48.2391V460.549H46.5281V469.139ZM49.6922 465.682C48.7957 465.682 48.2215 464.961 48.2215 463.777V463.766C48.2215 462.582 48.7898 461.861 49.6922 461.861C50.6004 461.861 51.157 462.582 51.157 463.766V463.777C51.157 464.961 50.5945 465.682 49.6922 465.682ZM53.4273 467H55.232L56.4332 464.867H56.5387L57.7457 467H59.6383L57.5934 463.736L59.6266 460.549H57.7633L56.6207 462.688H56.5152L55.3727 460.549H53.4098L55.4488 463.807L53.4273 467Z" fill="#FFA800"/>
</g>
<defs>
<filter id="filter0_d" x="0" y="0" width="426" height="717" filterUnits="userSpaceOnUse" color-interpolation-filters="sRGB">
<feFlood flood-opacity="0" result="BackgroundImageFix"/>
<feColorMatrix in="SourceAlpha" type="matrix" values="0 0 0 0 0 0 0 0 0 0 0 0 0 0 0 0 0 0 127 0"/>
<feMorphology radius="5" operator="dilate" in="SourceAlpha" result="effect1_dropShadow"/>
<feOffset/>
<feGaussianBlur stdDeviation="10"/>
<feColorMatrix type="matrix" values="0 0 0 0 0 0 0 0 0 0 0 0 0 0 0 0 0 0 0.15 0"/>
<feBlend mode="normal" in2="BackgroundImageFix" result="effect1_dropShadow"/>
<feBlend mode="normal" in="SourceGraphic" in2="effect1_dropShadow" result="shape"/>
</filter>
</defs>
</svg>
