<svg width="426" height="717" viewBox="0 0 426 717" fill="none" xmlns="http://www.w3.org/2000/svg">
<g filter="url(#filter0_d)">
<rect width="375" height="667" transform="translate(26 25)" fill="white"/>
<path d="M192.279 30.334C190.445 30.334 189.139 31.5879 189.139 33.3047V33.3164C189.139 34.9219 190.275 36.1055 191.898 36.1055C193.059 36.1055 193.797 35.5137 194.107 34.8457H194.225C194.225 34.9102 194.219 34.9746 194.219 35.0391C194.154 36.6562 193.586 37.9688 192.244 37.9688C191.5 37.9688 190.979 37.582 190.756 36.9902L190.738 36.9316H189.25L189.262 36.9961C189.531 38.291 190.691 39.2109 192.244 39.2109C194.371 39.2109 195.654 37.5234 195.654 34.6758V34.6641C195.654 31.6172 194.084 30.334 192.279 30.334ZM192.273 34.9453C191.312 34.9453 190.615 34.2422 190.615 33.2637V33.252C190.615 32.3086 191.359 31.5645 192.291 31.5645C193.229 31.5645 193.961 32.3203 193.961 33.2871V33.2988C193.961 34.2539 193.229 34.9453 192.273 34.9453ZM198.314 33.5215C198.854 33.5215 199.246 33.1113 199.246 32.5957C199.246 32.0742 198.854 31.6699 198.314 31.6699C197.781 31.6699 197.383 32.0742 197.383 32.5957C197.383 33.1113 197.781 33.5215 198.314 33.5215ZM198.314 37.8691C198.854 37.8691 199.246 37.4648 199.246 36.9434C199.246 36.4219 198.854 36.0176 198.314 36.0176C197.781 36.0176 197.383 36.4219 197.383 36.9434C197.383 37.4648 197.781 37.8691 198.314 37.8691ZM205.076 39H206.523V37.377H207.66V36.1289H206.523V30.5449H204.385C203.236 32.291 202.035 34.2363 200.939 36.1406V37.377H205.076V39ZM202.346 36.1641V36.0762C203.166 34.6406 204.145 33.0762 205.012 31.752H205.1V36.1641H202.346ZM211.164 39H212.676V30.5449H211.17L208.961 32.0977V33.5215L211.064 32.0332H211.164V39ZM217.756 39H219.338L220.041 36.8145H223.17L223.879 39H225.461L222.461 30.5449H220.756L217.756 39ZM221.559 32.1152H221.658L222.795 35.6484H220.422L221.559 32.1152ZM226.914 39H228.279V32.9883H228.379L230.723 39H231.754L234.098 32.9883H234.203V39H235.562V30.5449H233.828L231.291 37.0488H231.191L228.648 30.5449H226.914V39Z" fill="black"/>
<path opacity="0.35" fill-rule="evenodd" clip-rule="evenodd" d="M370.5 29.5H389.5C390.881 29.5 392 30.6193 392 32V38.5C392 39.8807 390.881 41 389.5 41H370.5C369.119 41 368 39.8807 368 38.5V32C368 30.6193 369.119 29.5 370.5 29.5ZM370.5 30.5C369.672 30.5 369 31.1716 369 32V38.5C369 39.3284 369.672 40 370.5 40H389.5C390.328 40 391 39.3284 391 38.5V32C391 31.1716 390.328 30.5 389.5 30.5H370.5Z" fill="black"/>
<path opacity="0.4" fill-rule="evenodd" clip-rule="evenodd" d="M393 32.7998C393.89 33.255 394.5 34.1813 394.5 35.2499C394.5 36.3186 393.89 37.2449 393 37.7001V32.7998Z" fill="black"/>
<path fill-rule="evenodd" clip-rule="evenodd" d="M371 31.5H389C389.552 31.5 390 31.9477 390 32.5V38C390 38.5523 389.552 39 389 39H371C370.448 39 370 38.5523 370 38V32.5C370 31.9477 370.448 31.5 371 31.5Z" fill="black"/>
<path d="M336.219 39.3H337.273V30.8449H336.225L333.975 32.4621V33.5754L336.125 32.0168H336.219V39.3ZM342.547 39.4992C344.416 39.4992 345.541 37.7941 345.541 35.0754V35.0637C345.541 32.3449 344.416 30.6457 342.547 30.6457C340.678 30.6457 339.564 32.3449 339.564 35.0637V35.0754C339.564 37.7941 340.678 39.4992 342.547 39.4992ZM342.547 38.5793C341.334 38.5793 340.625 37.2316 340.625 35.0754V35.0637C340.625 32.9074 341.334 31.5715 342.547 31.5715C343.76 31.5715 344.48 32.9074 344.48 35.0637V35.0754C344.48 37.2316 343.76 38.5793 342.547 38.5793ZM350.105 39.4992C351.975 39.4992 353.1 37.7941 353.1 35.0754V35.0637C353.1 32.3449 351.975 30.6457 350.105 30.6457C348.236 30.6457 347.123 32.3449 347.123 35.0637V35.0754C347.123 37.7941 348.236 39.4992 350.105 39.4992ZM350.105 38.5793C348.893 38.5793 348.184 37.2316 348.184 35.0754V35.0637C348.184 32.9074 348.893 31.5715 350.105 31.5715C351.318 31.5715 352.039 32.9074 352.039 35.0637V35.0754C352.039 37.2316 351.318 38.5793 350.105 38.5793ZM356.41 35.2922C357.488 35.2922 358.145 34.4133 358.145 33.0129V33.007C358.145 31.6066 357.488 30.7336 356.41 30.7336C355.332 30.7336 354.682 31.6066 354.682 33.007V33.0129C354.682 34.4133 355.332 35.2922 356.41 35.2922ZM357.043 39.3L362.797 30.8449H361.848L356.094 39.3H357.043ZM356.41 34.5949C355.83 34.5949 355.496 34.0031 355.496 33.0129V33.007C355.496 32.0168 355.83 31.4308 356.41 31.4308C356.99 31.4308 357.33 32.0168 357.33 33.007V33.0129C357.33 34.0031 356.99 34.5949 356.41 34.5949ZM362.469 39.4113C363.547 39.4113 364.203 38.5324 364.203 37.132V37.1262C364.203 35.7258 363.547 34.8527 362.469 34.8527C361.391 34.8527 360.74 35.7258 360.74 37.1262V37.132C360.74 38.5324 361.391 39.4113 362.469 39.4113ZM362.469 38.7141C361.889 38.7141 361.555 38.1223 361.555 37.132V37.1262C361.555 36.1359 361.889 35.55 362.469 35.55C363.049 35.55 363.389 36.1359 363.389 37.1262V37.132C363.389 38.1223 363.049 38.7141 362.469 38.7141Z" fill="black"/>
<path fill-rule="evenodd" clip-rule="evenodd" d="M45.5 30H46.5C47.0523 30 47.5 30.4477 47.5 31V39C47.5 39.5523 47.0523 40 46.5 40H45.5C44.9477 40 44.5 39.5523 44.5 39V31C44.5 30.4477 44.9477 30 45.5 30Z" fill="black"/>
<path d="M42 32H41C40.4477 32 40 32.4477 40 33V39C40 39.5523 40.4477 40 41 40H42C42.5523 40 43 39.5523 43 39V33C43 32.4477 42.5523 32 42 32Z" fill="black"/>
<path d="M36.5 34H37.5C38.0523 34 38.5 34.4477 38.5 35V39C38.5 39.5523 38.0523 40 37.5 40H36.5C35.9477 40 35.5 39.5523 35.5 39V35C35.5 34.4477 35.9477 34 36.5 34Z" fill="black"/>
<path d="M32 35.5H33C33.5523 35.5 34 35.9477 34 36.5V39C34 39.5523 33.5523 40 33 40H32C31.4477 40 31 39.5523 31 39V36.5C31 35.9477 31.4477 35.5 32 35.5Z" fill="black"/>
<path d="M55.0781 39H56.1328V35.6543H58.2129L60.0234 39H61.2598L59.3027 35.4902C60.3633 35.1562 61.002 34.2422 61.002 33.0703V33.0586C61.002 31.541 59.9355 30.5449 58.3066 30.5449H55.0781V39ZM56.1328 34.7168V31.4824H58.166C59.2559 31.4824 59.9121 32.0859 59.9121 33.0938V33.1055C59.9121 34.1367 59.2969 34.7168 58.2129 34.7168H56.1328ZM65.6395 39.1992C67.5262 39.1992 68.7625 38.2148 68.7625 36.6328V36.627C68.7625 35.4082 68.0652 34.6992 66.3016 34.3066L65.3641 34.0957C64.2156 33.8438 63.7527 33.3867 63.7527 32.7129V32.707C63.7527 31.8223 64.5672 31.3242 65.6219 31.3184C66.7234 31.3125 67.4266 31.8633 67.5437 32.6074L67.5555 32.6836H68.6102L68.6043 32.6016C68.5164 31.3418 67.3387 30.3457 65.6512 30.3457C63.9051 30.3457 62.6805 31.3359 62.6746 32.7363V32.7422C62.6746 33.9668 63.407 34.7461 65.1004 35.1211L66.0379 35.3262C67.198 35.584 67.6844 36.0645 67.6844 36.7676V36.7734C67.6844 37.6348 66.8465 38.2266 65.698 38.2266C64.4793 38.2266 63.6004 37.6934 63.5242 36.8496L63.5184 36.7852H62.4637L62.4695 36.8496C62.5926 38.2266 63.7879 39.1992 65.6395 39.1992ZM73.2418 39.1992C75.1285 39.1992 76.3648 38.2148 76.3648 36.6328V36.627C76.3648 35.4082 75.6676 34.6992 73.9039 34.3066L72.9664 34.0957C71.818 33.8438 71.3551 33.3867 71.3551 32.7129V32.707C71.3551 31.8223 72.1695 31.3242 73.2242 31.3184C74.3258 31.3125 75.0289 31.8633 75.1461 32.6074L75.1578 32.6836H76.2125L76.2066 32.6016C76.1187 31.3418 74.941 30.3457 73.2535 30.3457C71.5074 30.3457 70.2828 31.3359 70.277 32.7363V32.7422C70.277 33.9668 71.0094 34.7461 72.7027 35.1211L73.6402 35.3262C74.8004 35.584 75.2867 36.0645 75.2867 36.7676V36.7734C75.2867 37.6348 74.4488 38.2266 73.3004 38.2266C72.0816 38.2266 71.2027 37.6934 71.1266 36.8496L71.1207 36.7852H70.066L70.0719 36.8496C70.1949 38.2266 71.3902 39.1992 73.2418 39.1992ZM80.5277 39.1113C82.0453 39.1113 82.8949 38.2969 83.1527 37.1543L83.1645 37.0898L82.1566 37.0957L82.1449 37.1309C81.9105 37.834 81.3715 38.209 80.5219 38.209C79.3969 38.209 78.6703 37.2773 78.6703 35.8242V35.8125C78.6703 34.3887 79.3852 33.4746 80.5219 33.4746C81.4301 33.4746 81.9926 33.9785 82.1508 34.5996L82.1566 34.6172H83.1703L83.1645 34.582C82.977 33.457 82.057 32.5723 80.5219 32.5723C78.7523 32.5723 77.6273 33.8496 77.6273 35.8125V35.8242C77.6273 37.8281 78.7582 39.1113 80.5277 39.1113ZM84.6672 39H85.6867V35.2617C85.6867 34.1543 86.3254 33.4746 87.3332 33.4746C88.341 33.4746 88.8098 34.0195 88.8098 35.1562V39H89.8293V34.9102C89.8293 33.4102 89.0383 32.5723 87.6203 32.5723C86.6887 32.5723 86.0969 32.9648 85.7805 33.6328H85.6867V30.1758H84.6672V39ZM94.2207 39.1113C96.0195 39.1113 97.1328 37.8691 97.1328 35.8477V35.8359C97.1328 33.8086 96.0195 32.5723 94.2207 32.5723C92.4219 32.5723 91.3086 33.8086 91.3086 35.8359V35.8477C91.3086 37.8691 92.4219 39.1113 94.2207 39.1113ZM94.2207 38.209C93.0254 38.209 92.3516 37.3359 92.3516 35.8477V35.8359C92.3516 34.3418 93.0254 33.4746 94.2207 33.4746C95.416 33.4746 96.0898 34.3418 96.0898 35.8359V35.8477C96.0898 37.3359 95.416 38.209 94.2207 38.209ZM101.261 39.1113C103.059 39.1113 104.173 37.8691 104.173 35.8477V35.8359C104.173 33.8086 103.059 32.5723 101.261 32.5723C99.4617 32.5723 98.3484 33.8086 98.3484 35.8359V35.8477C98.3484 37.8691 99.4617 39.1113 101.261 39.1113ZM101.261 38.209C100.065 38.209 99.3914 37.3359 99.3914 35.8477V35.8359C99.3914 34.3418 100.065 33.4746 101.261 33.4746C102.456 33.4746 103.13 34.3418 103.13 35.8359V35.8477C103.13 37.3359 102.456 38.209 101.261 38.209ZM105.763 39H106.783V30.1758H105.763V39Z" fill="black"/>
<path fill-rule="evenodd" clip-rule="evenodd" d="M125.983 32.5229C124.072 30.8906 121.657 30 119.133 30C116.601 30 114.18 30.8959 112.266 32.5371L112.104 32.6765C111.972 32.7892 111.965 32.9895 112.087 33.1118L113.214 34.2356C113.324 34.3447 113.498 34.3521 113.617 34.2527L113.756 34.1354C115.263 32.8694 117.155 32.1804 119.133 32.1804C121.104 32.1804 122.989 32.8647 124.494 34.1228L124.634 34.2395C124.752 34.3385 124.926 34.3308 125.036 34.2219L126.163 33.098C126.285 32.9756 126.278 32.7749 126.146 32.6623L125.983 32.5229ZM119.133 33.4698C120.724 33.4698 122.251 33.9975 123.495 34.9749L123.671 35.113C123.811 35.2231 123.824 35.4306 123.697 35.5564L122.567 36.6841C122.462 36.7884 122.297 36.8003 122.178 36.7122L122.04 36.6098C121.2 35.9852 120.186 35.6501 119.133 35.6501C118.073 35.6501 117.053 35.9893 116.21 36.6211L116.072 36.7245C115.954 36.8133 115.787 36.8016 115.683 36.697L114.552 35.5698C114.426 35.4442 114.438 35.2373 114.578 35.1269L114.753 34.9887C116 34.0027 117.534 33.4698 119.133 33.4698ZM119.133 36.9396C119.772 36.9396 120.394 37.1076 120.941 37.4281L121.163 37.5579C121.331 37.6563 121.361 37.8867 121.223 38.0242L119.329 39.913C119.212 40.029 119.024 40.029 118.907 39.913L117.026 38.0363C116.888 37.8994 116.917 37.6702 117.084 37.5711L117.303 37.4406C117.856 37.1121 118.485 36.9396 119.133 36.9396Z" fill="black"/>
<rect x="127" y="132" width="173" height="41" rx="5" fill="#C4C4C4"/>
<path d="M62 335C62 332.2 62 330.8 62.545 329.73C63.0243 328.789 63.7892 328.024 64.73 327.545C65.7996 327 67.1997 327 70 327H357C359.8 327 361.2 327 362.27 327.545C363.211 328.024 363.976 328.789 364.455 329.73C365 330.8 365 332.2 365 335V355C365 357.8 365 359.2 364.455 360.27C363.976 361.211 363.211 361.976 362.27 362.455C361.2 363 359.8 363 357 363H70C67.1997 363 65.7996 363 64.73 362.455C63.7892 361.976 63.0243 361.211 62.545 360.27C62 359.2 62 357.8 62 355V335Z" fill="#C4C4C4"/>
<path d="M62 269C62 266.2 62 264.8 62.545 263.73C63.0243 262.789 63.7892 262.024 64.73 261.545C65.7996 261 67.1997 261 70 261H357C359.8 261 361.2 261 362.27 261.545C363.211 262.024 363.976 262.789 364.455 263.73C365 264.8 365 266.2 365 269V289C365 291.8 365 293.2 364.455 294.27C363.976 295.211 363.211 295.976 362.27 296.455C361.2 297 359.8 297 357 297H70C67.1997 297 65.7996 297 64.73 296.455C63.7892 295.976 63.0243 295.211 62.545 294.27C62 293.2 62 291.8 62 289V269Z" fill="#C4C4C4"/>
<rect x="96" y="532" width="235" height="110" rx="5" fill="#C4C4C4"/>
<g opacity="0.5">
<rect x="136" y="424" width="154" height="40" rx="9" stroke="#80A4ED" stroke-width="2"/>
<path d="M180.231 451H182.868L184.039 447.357H189.254L190.436 451H193.073L188.073 436.908H185.231L180.231 451ZM186.569 439.525H186.735L188.629 445.414H184.674L186.569 439.525ZM197.821 451.215C199.364 451.215 200.448 450.521 200.946 449.379H201.112V451H203.543V440.326H201.112V446.547C201.112 448.148 200.272 449.164 198.7 449.164C197.235 449.164 196.62 448.324 196.62 446.674V440.326H194.188V447.23C194.188 449.77 195.418 451.215 197.821 451.215ZM210.303 451.049C210.772 451.049 211.221 451.01 211.573 450.941V449.066C211.28 449.096 211.094 449.105 210.753 449.105C209.737 449.105 209.317 448.656 209.317 447.592V442.211H211.573V440.326H209.317V437.709H206.846V440.326H205.186V442.211H206.846V448.168C206.846 450.229 207.852 451.049 210.303 451.049ZM213.685 451H216.116V444.779C216.116 443.178 217.015 442.162 218.46 442.162C219.935 442.162 220.608 443.002 220.608 444.662V451H223.04V444.096C223.04 441.557 221.741 440.121 219.358 440.121C217.815 440.121 216.79 440.814 216.282 441.957H216.116V436.195H213.685V451ZM230.112 451.215C233.306 451.215 235.249 449.125 235.249 445.668V445.648C235.249 442.211 233.296 440.121 230.112 440.121C226.939 440.121 224.976 442.221 224.976 445.648V445.668C224.976 449.125 226.909 451.215 230.112 451.215ZM230.112 449.242C228.423 449.242 227.456 447.924 227.456 445.678V445.658C227.456 443.412 228.423 442.084 230.112 442.084C231.792 442.084 232.759 443.412 232.759 445.658V445.678C232.759 447.924 231.802 449.242 230.112 449.242ZM237.283 451H239.714V444.799C239.714 443.275 240.779 442.309 242.4 442.309C242.82 442.309 243.22 442.367 243.611 442.445V440.268C243.376 440.199 242.995 440.15 242.624 440.15C241.218 440.15 240.242 440.824 239.88 441.967H239.714V440.326H237.283V451ZM246.445 438.539C247.236 438.539 247.89 437.904 247.89 437.104C247.89 436.312 247.236 435.668 246.445 435.668C245.644 435.668 244.99 436.312 244.99 437.104C244.99 437.904 245.644 438.539 246.445 438.539ZM245.224 451H247.656V440.326H245.224V451ZM249.992 451H258.644V449.125H253.068V448.949L258.556 441.947V440.326H250.041V442.211H255.685V442.377L249.992 449.516V451ZM265.258 451.215C268.158 451.215 269.584 449.545 269.926 448.168L269.955 448.08H267.641L267.611 448.148C267.377 448.637 266.625 449.301 265.307 449.301C263.656 449.301 262.621 448.188 262.592 446.273H270.053V445.473C270.053 442.25 268.178 440.121 265.141 440.121C262.104 440.121 260.16 442.318 260.16 445.678V445.688C260.16 449.086 262.084 451.215 265.258 451.215ZM265.17 442.025C266.527 442.025 267.514 442.895 267.68 444.643H262.611C262.797 442.943 263.812 442.025 265.17 442.025Z" fill="#80A4ED"/>
<path d="M164.628 444.156C166.604 444.156 168.214 442.396 168.214 440.255C168.214 438.13 166.612 436.461 164.628 436.461C162.661 436.461 161.042 438.163 161.042 440.271C161.051 442.405 162.653 444.156 164.628 444.156ZM164.628 442.903C163.417 442.903 162.379 441.741 162.379 440.271C162.379 438.827 163.4 437.715 164.628 437.715C165.865 437.715 166.878 438.811 166.878 440.255C166.878 441.724 165.849 442.903 164.628 442.903ZM159.407 451.834H169.841C171.219 451.834 171.875 451.419 171.875 450.506C171.875 448.332 169.127 445.186 164.628 445.186C160.121 445.186 157.374 448.332 157.374 450.506C157.374 451.419 158.029 451.834 159.407 451.834ZM159.017 450.581C158.801 450.581 158.71 450.523 158.71 450.349C158.71 448.987 160.818 446.439 164.628 446.439C168.43 446.439 170.539 448.987 170.539 450.349C170.539 450.523 170.456 450.581 170.24 450.581H159.017Z" fill="#80A4ED"/>
</g>
<path d="M266.17 403.105C267.061 403.105 267.781 402.643 268.062 401.887H268.168L268.221 402.027C268.402 402.73 268.947 403.059 269.773 403.059C270.09 403.059 270.441 403.018 270.611 402.959V401.705C270.523 401.729 270.406 401.746 270.301 401.746C269.955 401.746 269.773 401.576 269.773 401.025V396.549H268.062V397.539H267.957C267.629 396.848 266.938 396.443 266.129 396.443C264.523 396.443 263.51 397.709 263.51 399.76V399.771C263.51 401.852 264.518 403.105 266.17 403.105ZM266.598 401.729C265.789 401.729 265.262 400.973 265.262 399.783V399.771C265.262 398.564 265.812 397.82 266.662 397.82C267.512 397.82 268.068 398.6 268.068 399.777V399.789C268.068 400.967 267.494 401.729 266.598 401.729ZM278.129 403.217C280.22 403.217 281.486 401.506 281.486 398.775V398.764C281.486 396.027 280.22 394.328 278.129 394.328C276.043 394.328 274.771 396.027 274.771 398.764V398.775C274.771 401.506 276.043 403.217 278.129 403.217ZM278.129 401.816C277.132 401.816 276.564 400.686 276.564 398.775V398.764C276.564 396.848 277.132 395.729 278.129 395.729C279.13 395.729 279.699 396.848 279.699 398.764V398.775C279.699 400.686 279.13 401.816 278.129 401.816ZM283.651 403.146C284.254 403.146 284.682 402.707 284.682 402.127C284.682 401.547 284.254 401.113 283.651 401.113C283.053 401.113 282.62 401.547 282.62 402.127C282.62 402.707 283.053 403.146 283.651 403.146ZM289.384 403.217C291.282 403.217 292.595 402.004 292.595 400.223V400.211C292.595 398.6 291.458 397.439 289.882 397.439C289.073 397.439 288.417 397.791 288.077 398.359H287.972L288.183 395.951H292.091V394.545H286.806L286.413 399.549H287.931C288.025 399.367 288.165 399.209 288.323 399.08C288.605 398.84 288.968 398.717 289.396 398.717C290.292 398.717 290.931 399.344 290.931 400.246V400.258C290.931 401.166 290.298 401.805 289.39 401.805C288.593 401.805 288.013 401.307 287.89 400.686L287.878 400.645H286.273L286.279 400.727C286.378 402.139 287.573 403.217 289.384 403.217Z" fill="#FFA800"/>
<line x1="278.5" y1="412.5" x2="278.5" y2="439.5" stroke="#FFA800" stroke-linecap="round"/>
<line x1="275.5" y1="412.5" x2="281.5" y2="412.5" stroke="#FFA800" stroke-linecap="round"/>
</g>
<defs>
<filter id="filter0_d" x="0" y="0" width="426" height="717" filterUnits="userSpaceOnUse" color-interpolation-filters="sRGB">
<feFlood flood-opacity="0" result="BackgroundImageFix"/>
<feColorMatrix in="SourceAlpha" type="matrix" values="0 0 0 0 0 0 0 0 0 0 0 0 0 0 0 0 0 0 127 0"/>
<feMorphology radius="5" operator="dilate" in="SourceAlpha" result="effect1_dropShadow"/>
<feOffset/>
<feGaussianBlur stdDeviation="10"/>
<feColorMatrix type="matrix" values="0 0 0 0 0 0 0 0 0 0 0 0 0 0 0 0 0 0 0.15 0"/>
<feBlend mode="normal" in2="BackgroundImageFix" result="effect1_dropShadow"/>
<feBlend mode="normal" in="SourceGraphic" in2="effect1_dropShadow" result="shape"/>
</filter>
</defs>
</svg>
