<svg width="426" height="717" viewBox="0 0 426 717" fill="none" xmlns="http://www.w3.org/2000/svg">
<g filter="url(#filter0_d)">
<rect width="375" height="667" transform="translate(26 25)" fill="white"/>
<path d="M192.279 30.334C190.445 30.334 189.139 31.5879 189.139 33.3047V33.3164C189.139 34.9219 190.275 36.1055 191.898 36.1055C193.059 36.1055 193.797 35.5137 194.107 34.8457H194.225C194.225 34.9102 194.219 34.9746 194.219 35.0391C194.154 36.6562 193.586 37.9688 192.244 37.9688C191.5 37.9688 190.979 37.582 190.756 36.9902L190.738 36.9316H189.25L189.262 36.9961C189.531 38.291 190.691 39.2109 192.244 39.2109C194.371 39.2109 195.654 37.5234 195.654 34.6758V34.6641C195.654 31.6172 194.084 30.334 192.279 30.334ZM192.273 34.9453C191.312 34.9453 190.615 34.2422 190.615 33.2637V33.252C190.615 32.3086 191.359 31.5645 192.291 31.5645C193.229 31.5645 193.961 32.3203 193.961 33.2871V33.2988C193.961 34.2539 193.229 34.9453 192.273 34.9453ZM198.314 33.5215C198.854 33.5215 199.246 33.1113 199.246 32.5957C199.246 32.0742 198.854 31.6699 198.314 31.6699C197.781 31.6699 197.383 32.0742 197.383 32.5957C197.383 33.1113 197.781 33.5215 198.314 33.5215ZM198.314 37.8691C198.854 37.8691 199.246 37.4648 199.246 36.9434C199.246 36.4219 198.854 36.0176 198.314 36.0176C197.781 36.0176 197.383 36.4219 197.383 36.9434C197.383 37.4648 197.781 37.8691 198.314 37.8691ZM205.076 39H206.523V37.377H207.66V36.1289H206.523V30.5449H204.385C203.236 32.291 202.035 34.2363 200.939 36.1406V37.377H205.076V39ZM202.346 36.1641V36.0762C203.166 34.6406 204.145 33.0762 205.012 31.752H205.1V36.1641H202.346ZM211.164 39H212.676V30.5449H211.17L208.961 32.0977V33.5215L211.064 32.0332H211.164V39ZM217.756 39H219.338L220.041 36.8145H223.17L223.879 39H225.461L222.461 30.5449H220.756L217.756 39ZM221.559 32.1152H221.658L222.795 35.6484H220.422L221.559 32.1152ZM226.914 39H228.279V32.9883H228.379L230.723 39H231.754L234.098 32.9883H234.203V39H235.562V30.5449H233.828L231.291 37.0488H231.191L228.648 30.5449H226.914V39Z" fill="black"/>
<path opacity="0.35" fill-rule="evenodd" clip-rule="evenodd" d="M370.5 29.5H389.5C390.881 29.5 392 30.6193 392 32V38.5C392 39.8807 390.881 41 389.5 41H370.5C369.119 41 368 39.8807 368 38.5V32C368 30.6193 369.119 29.5 370.5 29.5ZM370.5 30.5C369.672 30.5 369 31.1716 369 32V38.5C369 39.3284 369.672 40 370.5 40H389.5C390.328 40 391 39.3284 391 38.5V32C391 31.1716 390.328 30.5 389.5 30.5H370.5Z" fill="black"/>
<path opacity="0.4" fill-rule="evenodd" clip-rule="evenodd" d="M393 32.7998C393.89 33.255 394.5 34.1813 394.5 35.2499C394.5 36.3186 393.89 37.2449 393 37.7001V32.7998Z" fill="black"/>
<path fill-rule="evenodd" clip-rule="evenodd" d="M371 31.5H389C389.552 31.5 390 31.9477 390 32.5V38C390 38.5523 389.552 39 389 39H371C370.448 39 370 38.5523 370 38V32.5C370 31.9477 370.448 31.5 371 31.5Z" fill="black"/>
<path d="M336.219 39.3H337.273V30.845H336.225L333.975 32.4622V33.5754L336.125 32.0168H336.219V39.3ZM342.547 39.4993C344.416 39.4993 345.541 37.7942 345.541 35.0754V35.0637C345.541 32.345 344.416 30.6458 342.547 30.6458C340.678 30.6458 339.564 32.345 339.564 35.0637V35.0754C339.564 37.7942 340.678 39.4993 342.547 39.4993ZM342.547 38.5793C341.334 38.5793 340.625 37.2317 340.625 35.0754V35.0637C340.625 32.9075 341.334 31.5715 342.547 31.5715C343.76 31.5715 344.48 32.9075 344.48 35.0637V35.0754C344.48 37.2317 343.76 38.5793 342.547 38.5793ZM350.105 39.4993C351.975 39.4993 353.1 37.7942 353.1 35.0754V35.0637C353.1 32.345 351.975 30.6458 350.105 30.6458C348.236 30.6458 347.123 32.345 347.123 35.0637V35.0754C347.123 37.7942 348.236 39.4993 350.105 39.4993ZM350.105 38.5793C348.893 38.5793 348.184 37.2317 348.184 35.0754V35.0637C348.184 32.9075 348.893 31.5715 350.105 31.5715C351.318 31.5715 352.039 32.9075 352.039 35.0637V35.0754C352.039 37.2317 351.318 38.5793 350.105 38.5793ZM356.41 35.2922C357.488 35.2922 358.145 34.4133 358.145 33.0129V33.0071C358.145 31.6067 357.488 30.7336 356.41 30.7336C355.332 30.7336 354.682 31.6067 354.682 33.0071V33.0129C354.682 34.4133 355.332 35.2922 356.41 35.2922ZM357.043 39.3L362.797 30.845H361.848L356.094 39.3H357.043ZM356.41 34.595C355.83 34.595 355.496 34.0032 355.496 33.0129V33.0071C355.496 32.0168 355.83 31.4309 356.41 31.4309C356.99 31.4309 357.33 32.0168 357.33 33.0071V33.0129C357.33 34.0032 356.99 34.595 356.41 34.595ZM362.469 39.4114C363.547 39.4114 364.203 38.5325 364.203 37.1321V37.1262C364.203 35.7258 363.547 34.8528 362.469 34.8528C361.391 34.8528 360.74 35.7258 360.74 37.1262V37.1321C360.74 38.5325 361.391 39.4114 362.469 39.4114ZM362.469 38.7141C361.889 38.7141 361.555 38.1223 361.555 37.1321V37.1262C361.555 36.136 361.889 35.55 362.469 35.55C363.049 35.55 363.389 36.136 363.389 37.1262V37.1321C363.389 38.1223 363.049 38.7141 362.469 38.7141Z" fill="black"/>
<path fill-rule="evenodd" clip-rule="evenodd" d="M45.5 30H46.5C47.0523 30 47.5 30.4477 47.5 31V39C47.5 39.5523 47.0523 40 46.5 40H45.5C44.9477 40 44.5 39.5523 44.5 39V31C44.5 30.4477 44.9477 30 45.5 30Z" fill="black"/>
<path d="M42 32H41C40.4477 32 40 32.4477 40 33V39C40 39.5523 40.4477 40 41 40H42C42.5523 40 43 39.5523 43 39V33C43 32.4477 42.5523 32 42 32Z" fill="black"/>
<path d="M36.5 34H37.5C38.0523 34 38.5 34.4477 38.5 35V39C38.5 39.5523 38.0523 40 37.5 40H36.5C35.9477 40 35.5 39.5523 35.5 39V35C35.5 34.4477 35.9477 34 36.5 34Z" fill="black"/>
<path d="M32 35.5H33C33.5523 35.5 34 35.9477 34 36.5V39C34 39.5523 33.5523 40 33 40H32C31.4477 40 31 39.5523 31 39V36.5C31 35.9477 31.4477 35.5 32 35.5Z" fill="black"/>
<path d="M55.0781 39H56.1328V35.6543H58.2129L60.0234 39H61.2598L59.3027 35.4902C60.3633 35.1562 61.002 34.2422 61.002 33.0703V33.0586C61.002 31.541 59.9355 30.5449 58.3066 30.5449H55.0781V39ZM56.1328 34.7168V31.4824H58.166C59.2559 31.4824 59.9121 32.0859 59.9121 33.0938V33.1055C59.9121 34.1367 59.2969 34.7168 58.2129 34.7168H56.1328ZM65.6395 39.1992C67.5262 39.1992 68.7625 38.2148 68.7625 36.6328V36.627C68.7625 35.4082 68.0652 34.6992 66.3016 34.3066L65.3641 34.0957C64.2156 33.8438 63.7527 33.3867 63.7527 32.7129V32.707C63.7527 31.8223 64.5672 31.3242 65.6219 31.3184C66.7234 31.3125 67.4266 31.8633 67.5437 32.6074L67.5555 32.6836H68.6102L68.6043 32.6016C68.5164 31.3418 67.3387 30.3457 65.6512 30.3457C63.9051 30.3457 62.6805 31.3359 62.6746 32.7363V32.7422C62.6746 33.9668 63.407 34.7461 65.1004 35.1211L66.0379 35.3262C67.198 35.584 67.6844 36.0645 67.6844 36.7676V36.7734C67.6844 37.6348 66.8465 38.2266 65.698 38.2266C64.4793 38.2266 63.6004 37.6934 63.5242 36.8496L63.5184 36.7852H62.4637L62.4695 36.8496C62.5926 38.2266 63.7879 39.1992 65.6395 39.1992ZM73.2418 39.1992C75.1285 39.1992 76.3648 38.2148 76.3648 36.6328V36.627C76.3648 35.4082 75.6676 34.6992 73.9039 34.3066L72.9664 34.0957C71.818 33.8438 71.3551 33.3867 71.3551 32.7129V32.707C71.3551 31.8223 72.1695 31.3242 73.2242 31.3184C74.3258 31.3125 75.0289 31.8633 75.1461 32.6074L75.1578 32.6836H76.2125L76.2066 32.6016C76.1187 31.3418 74.941 30.3457 73.2535 30.3457C71.5074 30.3457 70.2828 31.3359 70.277 32.7363V32.7422C70.277 33.9668 71.0094 34.7461 72.7027 35.1211L73.6402 35.3262C74.8004 35.584 75.2867 36.0645 75.2867 36.7676V36.7734C75.2867 37.6348 74.4488 38.2266 73.3004 38.2266C72.0816 38.2266 71.2027 37.6934 71.1266 36.8496L71.1207 36.7852H70.066L70.0719 36.8496C70.1949 38.2266 71.3902 39.1992 73.2418 39.1992ZM80.5277 39.1113C82.0453 39.1113 82.8949 38.2969 83.1527 37.1543L83.1645 37.0898L82.1566 37.0957L82.1449 37.1309C81.9105 37.834 81.3715 38.209 80.5219 38.209C79.3969 38.209 78.6703 37.2773 78.6703 35.8242V35.8125C78.6703 34.3887 79.3852 33.4746 80.5219 33.4746C81.4301 33.4746 81.9926 33.9785 82.1508 34.5996L82.1566 34.6172H83.1703L83.1645 34.582C82.977 33.457 82.057 32.5723 80.5219 32.5723C78.7523 32.5723 77.6273 33.8496 77.6273 35.8125V35.8242C77.6273 37.8281 78.7582 39.1113 80.5277 39.1113ZM84.6672 39H85.6867V35.2617C85.6867 34.1543 86.3254 33.4746 87.3332 33.4746C88.341 33.4746 88.8098 34.0195 88.8098 35.1562V39H89.8293V34.9102C89.8293 33.4102 89.0383 32.5723 87.6203 32.5723C86.6887 32.5723 86.0969 32.9648 85.7805 33.6328H85.6867V30.1758H84.6672V39ZM94.2207 39.1113C96.0195 39.1113 97.1328 37.8691 97.1328 35.8477V35.8359C97.1328 33.8086 96.0195 32.5723 94.2207 32.5723C92.4219 32.5723 91.3086 33.8086 91.3086 35.8359V35.8477C91.3086 37.8691 92.4219 39.1113 94.2207 39.1113ZM94.2207 38.209C93.0254 38.209 92.3516 37.3359 92.3516 35.8477V35.8359C92.3516 34.3418 93.0254 33.4746 94.2207 33.4746C95.416 33.4746 96.0898 34.3418 96.0898 35.8359V35.8477C96.0898 37.3359 95.416 38.209 94.2207 38.209ZM101.261 39.1113C103.059 39.1113 104.173 37.8691 104.173 35.8477V35.8359C104.173 33.8086 103.059 32.5723 101.261 32.5723C99.4617 32.5723 98.3484 33.8086 98.3484 35.8359V35.8477C98.3484 37.8691 99.4617 39.1113 101.261 39.1113ZM101.261 38.209C100.065 38.209 99.3914 37.3359 99.3914 35.8477V35.8359C99.3914 34.3418 100.065 33.4746 101.261 33.4746C102.456 33.4746 103.13 34.3418 103.13 35.8359V35.8477C103.13 37.3359 102.456 38.209 101.261 38.209ZM105.763 39H106.783V30.1758H105.763V39Z" fill="black"/>
<path fill-rule="evenodd" clip-rule="evenodd" d="M125.983 32.5229C124.072 30.8906 121.657 30 119.133 30C116.601 30 114.18 30.8959 112.266 32.5371L112.104 32.6765C111.972 32.7892 111.965 32.9895 112.087 33.1118L113.214 34.2356C113.324 34.3447 113.498 34.3521 113.617 34.2527L113.756 34.1354C115.263 32.8694 117.155 32.1804 119.133 32.1804C121.104 32.1804 122.989 32.8647 124.494 34.1228L124.634 34.2395C124.752 34.3385 124.926 34.3308 125.036 34.2219L126.163 33.098C126.285 32.9756 126.278 32.7749 126.146 32.6623L125.983 32.5229ZM119.133 33.4698C120.724 33.4698 122.251 33.9975 123.495 34.9749L123.671 35.113C123.811 35.2231 123.824 35.4306 123.697 35.5564L122.567 36.6841C122.462 36.7884 122.297 36.8003 122.178 36.7122L122.04 36.6098C121.2 35.9852 120.186 35.6501 119.133 35.6501C118.073 35.6501 117.053 35.9893 116.21 36.6211L116.072 36.7245C115.954 36.8133 115.787 36.8016 115.683 36.697L114.552 35.5698C114.426 35.4442 114.438 35.2373 114.578 35.1269L114.753 34.9887C116 34.0027 117.534 33.4698 119.133 33.4698ZM119.133 36.9396C119.772 36.9396 120.394 37.1076 120.941 37.4281L121.163 37.5579C121.331 37.6563 121.361 37.8867 121.223 38.0242L119.329 39.913C119.212 40.029 119.024 40.029 118.907 39.913L117.026 38.0363C116.888 37.8994 116.917 37.6702 117.084 37.5711L117.303 37.4406C117.856 37.1121 118.485 36.9396 119.133 36.9396Z" fill="black"/>
<rect x="127" y="132" width="173" height="41" rx="5" fill="#C4C4C4"/>
<path d="M62 335C62 332.2 62 330.8 62.545 329.73C63.0243 328.789 63.7892 328.024 64.73 327.545C65.7996 327 67.1997 327 70 327H357C359.8 327 361.2 327 362.27 327.545C363.211 328.024 363.976 328.789 364.455 329.73C365 330.8 365 332.2 365 335V355C365 357.8 365 359.2 364.455 360.27C363.976 361.211 363.211 361.976 362.27 362.455C361.2 363 359.8 363 357 363H70C67.1997 363 65.7996 363 64.73 362.455C63.7892 361.976 63.0243 361.211 62.545 360.27C62 359.2 62 357.8 62 355V335Z" fill="#C4C4C4"/>
<path d="M62 269C62 266.2 62 264.8 62.545 263.73C63.0243 262.789 63.7892 262.024 64.73 261.545C65.7996 261 67.1997 261 70 261H357C359.8 261 361.2 261 362.27 261.545C363.211 262.024 363.976 262.789 364.455 263.73C365 264.8 365 266.2 365 269V289C365 291.8 365 293.2 364.455 294.27C363.976 295.211 363.211 295.976 362.27 296.455C361.2 297 359.8 297 357 297H70C67.1997 297 65.7996 297 64.73 296.455C63.7892 295.976 63.0243 295.211 62.545 294.27C62 293.2 62 291.8 62 289V269Z" fill="#C4C4C4"/>
<rect x="135" y="423" width="156" height="42" rx="5" fill="#C4C4C4"/>
<rect x="97" y="533" width="234" height="108" rx="9" stroke="white" stroke-width="2"/>
<rect x="119.75" y="577.75" width="48.5" height="48.5" rx="24.25" stroke="#80A4ED" stroke-width="1.5"/>
<path d="M143.906 610H146.93V593.09H143.918L139.5 596.195V599.043L143.707 596.066H143.906V610Z" fill="#80A4ED"/>
<rect x="189.75" y="577.75" width="48.5" height="48.5" rx="24.25" stroke="#80A4ED" stroke-width="1.5"/>
<rect x="259.75" y="577.75" width="48.5" height="48.5" rx="24.25" stroke="#80A4ED" stroke-width="1.5"/>
<path d="M208 562.865H219.004V560.879H208V562.865Z" fill="black"/>
<path d="M207.77 610H219.512V607.492H211.859V607.246L215.246 603.965C218.328 601 219.254 599.477 219.254 597.555V597.52C219.254 594.672 216.887 592.668 213.594 592.668C210.066 592.668 207.605 594.871 207.605 598.023L207.617 598.059L210.43 598.07L210.441 598.023C210.441 596.277 211.648 595.094 213.441 595.094C215.199 595.094 216.266 596.219 216.266 597.777V597.812C216.266 599.113 215.621 599.969 213.324 602.289L207.77 607.961V610Z" fill="#80A4ED"/>
<path d="M283.887 610.34C287.637 610.34 290.203 608.266 290.203 605.289V605.266C290.203 602.922 288.551 601.445 286.066 601.211V601.152C288.094 600.73 289.605 599.336 289.605 597.238V597.215C289.605 594.566 287.344 592.75 283.863 592.75C280.453 592.75 278.145 594.672 277.887 597.602L277.875 597.73H280.688L280.699 597.613C280.852 596.102 282.082 595.152 283.863 595.152C285.668 595.152 286.711 596.066 286.711 597.613V597.637C286.711 599.113 285.469 600.168 283.605 600.168H281.672V602.418H283.664C285.832 602.418 287.145 603.402 287.145 605.184V605.207C287.145 606.777 285.844 607.867 283.887 607.867C281.906 607.867 280.582 606.848 280.418 605.418L280.406 605.289H277.523L277.535 605.43C277.758 608.324 280.184 610.34 283.887 610.34Z" fill="#80A4ED"/>
<line x1="324.5" y1="581.5" x2="324.5" y2="622.5" stroke="#FFA800" stroke-linecap="round"/>
<line x1="263.5" y1="561.5" x2="304.5" y2="561.5" stroke="#FFA800" stroke-linecap="round"/>
<path d="M333.061 606.217C334.959 606.217 336.271 605.004 336.271 603.223V603.211C336.271 601.6 335.135 600.439 333.559 600.439C332.75 600.439 332.094 600.791 331.754 601.359H331.648L331.859 598.951H335.768V597.545H330.482L330.09 602.549H331.607C331.701 602.367 331.842 602.209 332 602.08C332.281 601.84 332.645 601.717 333.072 601.717C333.969 601.717 334.607 602.344 334.607 603.246V603.258C334.607 604.166 333.975 604.805 333.066 604.805C332.27 604.805 331.689 604.307 331.566 603.686L331.555 603.645H329.949L329.955 603.727C330.055 605.139 331.25 606.217 333.061 606.217ZM341.026 606.217C343.118 606.217 344.384 604.506 344.384 601.775V601.764C344.384 599.027 343.118 597.328 341.026 597.328C338.94 597.328 337.669 599.027 337.669 601.764V601.775C337.669 604.506 338.94 606.217 341.026 606.217ZM341.026 604.816C340.03 604.816 339.462 603.686 339.462 601.775V601.764C339.462 599.848 340.03 598.729 341.026 598.729C342.028 598.729 342.596 599.848 342.596 601.764V601.775C342.596 603.686 342.028 604.816 341.026 604.816ZM348.983 608.139H350.694V604.969H350.799C351.127 605.672 351.848 606.1 352.733 606.1C354.368 606.1 355.352 604.852 355.352 602.777V602.766C355.352 600.709 354.344 599.443 352.733 599.443C351.819 599.443 351.133 599.854 350.799 600.545H350.694V599.549H348.983V608.139ZM352.147 604.682C351.25 604.682 350.676 603.961 350.676 602.777V602.766C350.676 601.582 351.245 600.861 352.147 600.861C353.055 600.861 353.612 601.582 353.612 602.766V602.777C353.612 603.961 353.049 604.682 352.147 604.682ZM355.882 606H357.687L358.888 603.867H358.993L360.2 606H362.093L360.048 602.736L362.081 599.549H360.218L359.075 601.688H358.97L357.827 599.549H355.864L357.904 602.807L355.882 606Z" fill="#FFA800"/>
<path d="M271.061 553.217C272.959 553.217 274.271 552.004 274.271 550.223V550.211C274.271 548.6 273.135 547.439 271.559 547.439C270.75 547.439 270.094 547.791 269.754 548.359H269.648L269.859 545.951H273.768V544.545H268.482L268.09 549.549H269.607C269.701 549.367 269.842 549.209 270 549.08C270.281 548.84 270.645 548.717 271.072 548.717C271.969 548.717 272.607 549.344 272.607 550.246V550.258C272.607 551.166 271.975 551.805 271.066 551.805C270.27 551.805 269.689 551.307 269.566 550.686L269.555 550.645H267.949L267.955 550.727C268.055 552.139 269.25 553.217 271.061 553.217ZM279.026 553.217C281.118 553.217 282.384 551.506 282.384 548.775V548.764C282.384 546.027 281.118 544.328 279.026 544.328C276.94 544.328 275.669 546.027 275.669 548.764V548.775C275.669 551.506 276.94 553.217 279.026 553.217ZM279.026 551.816C278.03 551.816 277.462 550.686 277.462 548.775V548.764C277.462 546.848 278.03 545.729 279.026 545.729C280.028 545.729 280.596 546.848 280.596 548.764V548.775C280.596 550.686 280.028 551.816 279.026 551.816ZM286.983 555.139H288.694V551.969H288.799C289.127 552.672 289.848 553.1 290.733 553.1C292.368 553.1 293.352 551.852 293.352 549.777V549.766C293.352 547.709 292.344 546.443 290.733 546.443C289.819 546.443 289.133 546.854 288.799 547.545H288.694V546.549H286.983V555.139ZM290.147 551.682C289.25 551.682 288.676 550.961 288.676 549.777V549.766C288.676 548.582 289.245 547.861 290.147 547.861C291.055 547.861 291.612 548.582 291.612 549.766V549.777C291.612 550.961 291.049 551.682 290.147 551.682ZM293.882 553H295.687L296.888 550.867H296.993L298.2 553H300.093L298.048 549.736L300.081 546.549H298.218L297.075 548.688H296.97L295.827 546.549H293.864L295.904 549.807L293.882 553Z" fill="#FFA800"/>
<line x1="174.5" y1="601.5" x2="184.5" y2="601.5" stroke="#FFA800" stroke-linecap="round"/>
<line x1="169.5" y1="648.5" x2="189.5" y2="648.5" stroke="#FFA800" stroke-linecap="round"/>
<line x1="179.5" y1="601.5" x2="179.5" y2="648.5" stroke="#FFA800" stroke-linecap="round"/>
<line x1="213.5" y1="566.5" x2="213.5" y2="572.5" stroke="#FFA800" stroke-linecap="round"/>
<line x1="196.5" y1="565.5" x2="196.5" y2="573.5" stroke="#FFA800" stroke-linecap="round"/>
<line x1="213.5" y1="569.5" x2="196.5" y2="569.5" stroke="#FFA800" stroke-linecap="round"/>
<path d="M162.855 666H168.955V664.576H165.229V664.441L166.793 662.982C168.334 661.559 168.832 660.762 168.832 659.801V659.783C168.832 658.324 167.613 657.328 165.873 657.328C164.021 657.328 162.756 658.441 162.756 660.064L162.762 660.088H164.396V660.059C164.396 659.256 164.965 658.705 165.791 658.705C166.6 658.705 167.092 659.209 167.092 659.93V659.947C167.092 660.539 166.77 660.967 165.58 662.121L162.855 664.811V666ZM173.78 666.217C175.872 666.217 177.137 664.506 177.137 661.775V661.764C177.137 659.027 175.872 657.328 173.78 657.328C171.694 657.328 170.423 659.027 170.423 661.764V661.775C170.423 664.506 171.694 666.217 173.78 666.217ZM173.78 664.816C172.784 664.816 172.216 663.686 172.216 661.775V661.764C172.216 659.848 172.784 658.729 173.78 658.729C174.782 658.729 175.35 659.848 175.35 661.764V661.775C175.35 663.686 174.782 664.816 173.78 664.816ZM181.737 668.139H183.448V664.969H183.553C183.881 665.672 184.602 666.1 185.487 666.1C187.121 666.1 188.106 664.852 188.106 662.777V662.766C188.106 660.709 187.098 659.443 185.487 659.443C184.573 659.443 183.887 659.854 183.553 660.545H183.448V659.549H181.737V668.139ZM184.901 664.682C184.004 664.682 183.43 663.961 183.43 662.777V662.766C183.43 661.582 183.998 660.861 184.901 660.861C185.809 660.861 186.366 661.582 186.366 662.766V662.777C186.366 663.961 185.803 664.682 184.901 664.682ZM188.636 666H190.441L191.642 663.867H191.747L192.954 666H194.847L192.802 662.736L194.835 659.549H192.972L191.829 661.688H191.724L190.581 659.549H188.618L190.657 662.807L188.636 666Z" fill="#FFA800"/>
<path d="M299.855 654H305.955V652.576H302.229V652.441L303.793 650.982C305.334 649.559 305.832 648.762 305.832 647.801V647.783C305.832 646.324 304.613 645.328 302.873 645.328C301.021 645.328 299.756 646.441 299.756 648.064L299.762 648.088H301.396V648.059C301.396 647.256 301.965 646.705 302.791 646.705C303.6 646.705 304.092 647.209 304.092 647.93V647.947C304.092 648.539 303.77 648.967 302.58 650.121L299.855 652.811V654ZM310.733 654.217C312.632 654.217 313.944 653.004 313.944 651.223V651.211C313.944 649.6 312.807 648.439 311.231 648.439C310.423 648.439 309.766 648.791 309.427 649.359H309.321L309.532 646.951H313.44V645.545H308.155L307.762 650.549H309.28C309.374 650.367 309.514 650.209 309.673 650.08C309.954 649.84 310.317 649.717 310.745 649.717C311.641 649.717 312.28 650.344 312.28 651.246V651.258C312.28 652.166 311.647 652.805 310.739 652.805C309.942 652.805 309.362 652.307 309.239 651.686L309.227 651.645H307.622L307.628 651.727C307.727 653.139 308.923 654.217 310.733 654.217ZM318.491 656.139H320.202V652.969H320.307C320.635 653.672 321.356 654.1 322.241 654.1C323.875 654.1 324.86 652.852 324.86 650.777V650.766C324.86 648.709 323.852 647.443 322.241 647.443C321.327 647.443 320.641 647.854 320.307 648.545H320.202V647.549H318.491V656.139ZM321.655 652.682C320.758 652.682 320.184 651.961 320.184 650.777V650.766C320.184 649.582 320.752 648.861 321.655 648.861C322.563 648.861 323.12 649.582 323.12 650.766V650.777C323.12 651.961 322.557 652.682 321.655 652.682ZM325.39 654H327.195L328.396 651.867H328.501L329.708 654H331.601L329.556 650.736L331.589 647.549H329.726L328.583 649.688H328.478L327.335 647.549H325.372L327.411 650.807L325.39 654Z" fill="#FFA800"/>
<path d="M315.497 625C314.049 631.697 312.053 633.906 306 634.594" stroke="#FFA800" stroke-linecap="round"/>
<path d="M157.855 573H163.955V571.576H160.229V571.441L161.793 569.982C163.334 568.559 163.832 567.762 163.832 566.801V566.783C163.832 565.324 162.613 564.328 160.873 564.328C159.021 564.328 157.756 565.441 157.756 567.064L157.762 567.088H159.396V567.059C159.396 566.256 159.965 565.705 160.791 565.705C161.6 565.705 162.092 566.209 162.092 566.93V566.947C162.092 567.539 161.77 567.967 160.58 569.121L157.855 571.811V573ZM168.78 573.217C170.872 573.217 172.137 571.506 172.137 568.775V568.764C172.137 566.027 170.872 564.328 168.78 564.328C166.694 564.328 165.423 566.027 165.423 568.764V568.775C165.423 571.506 166.694 573.217 168.78 573.217ZM168.78 571.816C167.784 571.816 167.216 570.686 167.216 568.775V568.764C167.216 566.848 167.784 565.729 168.78 565.729C169.782 565.729 170.35 566.848 170.35 568.764V568.775C170.35 570.686 169.782 571.816 168.78 571.816ZM176.737 575.139H178.448V571.969H178.553C178.881 572.672 179.602 573.1 180.487 573.1C182.121 573.1 183.106 571.852 183.106 569.777V569.766C183.106 567.709 182.098 566.443 180.487 566.443C179.573 566.443 178.887 566.854 178.553 567.545H178.448V566.549H176.737V575.139ZM179.901 571.682C179.004 571.682 178.43 570.961 178.43 569.777V569.766C178.43 568.582 178.998 567.861 179.901 567.861C180.809 567.861 181.366 568.582 181.366 569.766V569.777C181.366 570.961 180.803 571.682 179.901 571.682ZM183.636 573H185.441L186.642 570.867H186.747L187.954 573H189.847L187.802 569.736L189.835 566.549H187.972L186.829 568.688H186.724L185.581 566.549H183.618L185.657 569.807L183.636 573Z" fill="#FFA800"/>
</g>
<defs>
<filter id="filter0_d" x="0" y="0" width="426" height="717" filterUnits="userSpaceOnUse" color-interpolation-filters="sRGB">
<feFlood flood-opacity="0" result="BackgroundImageFix"/>
<feColorMatrix in="SourceAlpha" type="matrix" values="0 0 0 0 0 0 0 0 0 0 0 0 0 0 0 0 0 0 127 0"/>
<feMorphology radius="5" operator="dilate" in="SourceAlpha" result="effect1_dropShadow"/>
<feOffset/>
<feGaussianBlur stdDeviation="10"/>
<feColorMatrix type="matrix" values="0 0 0 0 0 0 0 0 0 0 0 0 0 0 0 0 0 0 0.15 0"/>
<feBlend mode="normal" in2="BackgroundImageFix" result="effect1_dropShadow"/>
<feBlend mode="normal" in="SourceGraphic" in2="effect1_dropShadow" result="shape"/>
</filter>
</defs>
</svg>
