<svg width="875" height="203" viewBox="0 0 875 203" fill="none" xmlns="http://www.w3.org/2000/svg">
<rect width="875" height="203" rx="10" fill="#C4C4C4" fill-opacity="0.56"/>
<path d="M82.2471 57H83.9082L85.9043 49.9385H86.0068L88.0166 57H89.6709L92.3164 47.1357H90.4912L88.8027 54.5391H88.707L86.7383 47.1357H85.1729L83.2314 54.5391H83.1289L81.4404 47.1357H79.6016L82.2471 57ZM94.0854 57H95.7875V52.6455C95.7875 51.5244 96.4164 50.8135 97.4282 50.8135C98.4604 50.8135 98.9321 51.4014 98.9321 52.5635V57H100.634V52.167C100.634 50.3896 99.725 49.3848 98.0571 49.3848C96.977 49.3848 96.2592 49.8701 95.9038 50.6699H95.7875V46.6367H94.0854V57ZM103.579 48.2773C104.133 48.2773 104.591 47.833 104.591 47.2725C104.591 46.7188 104.133 46.2676 103.579 46.2676C103.018 46.2676 102.56 46.7188 102.56 47.2725C102.56 47.833 103.018 48.2773 103.579 48.2773ZM102.724 57H104.427V49.5283H102.724V57ZM109.518 57.0342C109.846 57.0342 110.16 57.0068 110.407 56.959V55.6465C110.201 55.667 110.072 55.6738 109.832 55.6738C109.121 55.6738 108.827 55.3594 108.827 54.6143V50.8477H110.407V49.5283H108.827V47.6963H107.098V49.5283H105.936V50.8477H107.098V55.0176C107.098 56.46 107.802 57.0342 109.518 57.0342ZM115.293 57.1504C117.323 57.1504 118.321 55.9814 118.56 55.0176L118.581 54.9561H116.961L116.94 55.0039C116.776 55.3457 116.25 55.8105 115.327 55.8105C114.172 55.8105 113.447 55.0312 113.427 53.6914H118.649V53.1309C118.649 50.875 117.337 49.3848 115.211 49.3848C113.085 49.3848 111.724 50.9229 111.724 53.2744V53.2812C111.724 55.6602 113.071 57.1504 115.293 57.1504ZM115.231 50.7178C116.181 50.7178 116.872 51.3262 116.988 52.5498H113.44C113.57 51.3604 114.281 50.7178 115.231 50.7178Z" fill="black"/>
<path fill-rule="evenodd" clip-rule="evenodd" d="M160 157C160 123.863 133.137 97 100 97C66.8629 97 40 123.863 40 157" fill="white"/>
<path d="M76.209 75L76.666 72.7441H78.3242L77.8613 75H78.998L79.4492 72.7441H80.9258L81.1367 71.6367H79.6777L80.0469 69.8086H81.4707L81.6816 68.707H80.2695L80.7031 66.5449H79.5723L79.1387 68.707H77.4805L77.9199 66.5449H76.7949L76.3555 68.707H74.9492L74.7324 69.8086H76.1328L75.7637 71.6367H74.4102L74.1934 72.7441H75.541L75.0898 75H76.209ZM76.8359 71.6895L77.2227 69.7676H78.9688L78.582 71.6895H76.8359ZM82.978 75H84.4897V71.5488H88.0346V70.3184H84.4897V67.8164H88.3686V66.5449H82.978V75ZM90.1044 75H91.6161V71.5488H95.161V70.3184H91.6161V67.8164H95.495V66.5449H90.1044V75ZM97.2308 75H98.7425V71.5488H102.287V70.3184H98.7425V67.8164H102.621V66.5449H97.2308V75ZM104.357 75H105.869V71.5488H109.414V70.3184H105.869V67.8164H109.748V66.5449H104.357V75ZM111.484 75H112.995V71.5488H116.54V70.3184H112.995V67.8164H116.874V66.5449H111.484V75ZM118.61 75H120.122V71.5488H123.667V70.3184H120.122V67.8164H124.001V66.5449H118.61V75Z" fill="black"/>
<path d="M726.217 57H732.506V55.5166H727.98V47.1357H726.217V57ZM735.164 48.2773C735.717 48.2773 736.175 47.833 736.175 47.2725C736.175 46.7188 735.717 46.2676 735.164 46.2676C734.603 46.2676 734.145 46.7188 734.145 47.2725C734.145 47.833 734.603 48.2773 735.164 48.2773ZM734.309 57H736.011V49.5283H734.309V57ZM741.102 57.0342C741.431 57.0342 741.745 57.0068 741.991 56.959V55.6465C741.786 55.667 741.656 55.6738 741.417 55.6738C740.706 55.6738 740.412 55.3594 740.412 54.6143V50.8477H741.991V49.5283H740.412V47.6963H738.682V49.5283H737.52V50.8477H738.682V55.0176C738.682 56.46 739.387 57.0342 741.102 57.0342ZM746.727 57.0342C747.055 57.0342 747.369 57.0068 747.616 56.959V55.6465C747.41 55.667 747.281 55.6738 747.041 55.6738C746.33 55.6738 746.036 55.3594 746.036 54.6143V50.8477H747.616V49.5283H746.036V47.6963H744.307V49.5283H743.145V50.8477H744.307V55.0176C744.307 56.46 745.011 57.0342 746.727 57.0342ZM749.439 57H751.141V46.6367H749.439V57ZM756.554 57.1504C758.584 57.1504 759.582 55.9814 759.821 55.0176L759.842 54.9561H758.222L758.201 55.0039C758.037 55.3457 757.511 55.8105 756.588 55.8105C755.433 55.8105 754.708 55.0312 754.688 53.6914H759.91V53.1309C759.91 50.875 758.598 49.3848 756.472 49.3848C754.346 49.3848 752.986 50.9229 752.986 53.2744V53.2812C752.986 55.6602 754.332 57.1504 756.554 57.1504ZM756.492 50.7178C757.443 50.7178 758.133 51.3262 758.249 52.5498H754.701C754.831 51.3604 755.542 50.7178 756.492 50.7178ZM765.643 57H769.86C771.966 57 773.251 55.9336 773.251 54.2041V54.1904C773.251 52.9121 772.335 51.9551 771.009 51.832V51.709C772 51.5518 772.766 50.6357 772.766 49.6035V49.5898C772.766 48.0791 771.638 47.1357 769.765 47.1357H765.643V57ZM769.334 48.5098C770.4 48.5098 771.023 49.0225 771.023 49.8975V49.9111C771.023 50.8066 770.359 51.292 769.108 51.292H767.406V48.5098H769.334ZM769.389 52.543C770.735 52.543 771.446 53.0693 771.446 54.0674V54.0811C771.446 55.0859 770.756 55.626 769.457 55.626H767.406V52.543H769.389ZM778.281 57.1504C780.516 57.1504 781.876 55.6875 781.876 53.2676V53.2539C781.876 50.8477 780.509 49.3848 778.281 49.3848C776.059 49.3848 774.685 50.8545 774.685 53.2539V53.2676C774.685 55.6875 776.039 57.1504 778.281 57.1504ZM778.281 55.7695C777.098 55.7695 776.421 54.8467 776.421 53.2744V53.2607C776.421 51.6885 777.098 50.7588 778.281 50.7588C779.457 50.7588 780.133 51.6885 780.133 53.2607V53.2744C780.133 54.8467 779.463 55.7695 778.281 55.7695ZM784.144 59.625C785.799 59.625 786.653 59.0303 787.296 57.1572L789.976 49.5283H788.185L786.448 55.3662H786.318L784.575 49.5283H782.716L785.389 57.0068L785.3 57.3486C785.115 58.0254 784.698 58.3125 784.001 58.3125C783.823 58.3125 783.632 58.3057 783.495 58.292V59.5977C783.7 59.6182 783.939 59.625 784.144 59.625ZM795.469 57H799.686C801.792 57 803.077 55.9336 803.077 54.2041V54.1904C803.077 52.9121 802.161 51.9551 800.835 51.832V51.709C801.826 51.5518 802.592 50.6357 802.592 49.6035V49.5898C802.592 48.0791 801.464 47.1357 799.591 47.1357H795.469V57ZM799.16 48.5098C800.226 48.5098 800.848 49.0225 800.848 49.8975V49.9111C800.848 50.8066 800.185 51.292 798.934 51.292H797.232V48.5098H799.16ZM799.215 52.543C800.561 52.543 801.272 53.0693 801.272 54.0674V54.0811C801.272 55.0859 800.582 55.626 799.283 55.626H797.232V52.543H799.215ZM804.949 57H806.651V46.6367H804.949V57ZM811.339 57.1504C812.419 57.1504 813.177 56.665 813.526 55.8652H813.642V57H815.344V49.5283H813.642V53.8828C813.642 55.0039 813.054 55.7148 811.954 55.7148C810.928 55.7148 810.498 55.127 810.498 53.9717V49.5283H808.796V54.3613C808.796 56.1387 809.657 57.1504 811.339 57.1504ZM820.682 57.1504C822.712 57.1504 823.71 55.9814 823.949 55.0176L823.97 54.9561H822.35L822.329 55.0039C822.165 55.3457 821.639 55.8105 820.716 55.8105C819.561 55.8105 818.836 55.0312 818.816 53.6914H824.038V53.1309C824.038 50.875 822.726 49.3848 820.6 49.3848C818.474 49.3848 817.113 50.9229 817.113 53.2744V53.2812C817.113 55.6602 818.46 57.1504 820.682 57.1504ZM820.62 50.7178C821.57 50.7178 822.261 51.3262 822.377 52.5498H818.829C818.959 51.3604 819.67 50.7178 820.62 50.7178Z" fill="black"/>
<path fill-rule="evenodd" clip-rule="evenodd" d="M835 157C835 123.863 808.137 97 775 97C741.863 97 715 123.863 715 157" fill="#80A4ED"/>
<path d="M748.209 75L748.666 72.7441H750.324L749.861 75H750.998L751.449 72.7441H752.926L753.137 71.6367H751.678L752.047 69.8086H753.471L753.682 68.707H752.27L752.703 66.5449H751.572L751.139 68.707H749.48L749.92 66.5449H748.795L748.355 68.707H746.949L746.732 69.8086H748.133L747.764 71.6367H746.41L746.193 72.7441H747.541L747.09 75H748.209ZM748.836 71.6895L749.223 69.7676H750.969L750.582 71.6895H748.836ZM757.978 75.1699C759.923 75.1699 761.277 74.1621 761.277 72.7148V72.7031C761.277 71.6191 760.492 70.7812 759.361 70.5527V70.5176C760.328 70.2598 760.972 69.5508 760.972 68.6426V68.6309C760.972 67.3301 759.73 66.375 757.978 66.375C756.226 66.375 754.984 67.3301 754.984 68.6309V68.6426C754.984 69.5508 755.628 70.2598 756.595 70.5176V70.5527C755.47 70.7812 754.679 71.6191 754.679 72.7031V72.7148C754.679 74.1621 756.033 75.1699 757.978 75.1699ZM757.978 70.0371C757.093 70.0371 756.478 69.5215 756.478 68.7832V68.7715C756.478 68.0332 757.093 67.5176 757.978 67.5176C758.863 67.5176 759.478 68.0332 759.478 68.7715V68.7832C759.478 69.5215 758.863 70.0371 757.978 70.0371ZM757.978 74.0156C756.964 74.0156 756.244 73.4297 756.244 72.6152V72.6035C756.244 71.7832 756.953 71.1914 757.978 71.1914C758.997 71.1914 759.712 71.7832 759.712 72.6035V72.6152C759.712 73.4297 758.992 74.0156 757.978 74.0156ZM766.03 75.2109C768.04 75.2109 769.259 73.5059 769.259 70.7754V70.7637C769.259 68.0332 768.04 66.334 766.03 66.334C764.02 66.334 762.813 68.0332 762.813 70.7637V70.7754C762.813 73.5059 764.02 75.2109 766.03 75.2109ZM766.03 73.9863C764.952 73.9863 764.337 72.7793 764.337 70.7754V70.7637C764.337 68.7598 764.952 67.5645 766.03 67.5645C767.108 67.5645 767.735 68.7598 767.735 70.7637V70.7754C767.735 72.7793 767.108 73.9863 766.03 73.9863ZM770.35 75H771.932L772.635 72.8145H775.764L776.473 75H778.055L775.055 66.5449H773.35L770.35 75ZM774.153 68.1152H774.252L775.389 71.6484H773.016L774.153 68.1152ZM783.312 75H784.76V73.377H785.896V72.1289H784.76V66.5449H782.621C781.472 68.291 780.271 70.2363 779.176 72.1406V73.377H783.312V75ZM780.582 72.1641V72.0762C781.402 70.6406 782.381 69.0762 783.248 67.752H783.336V72.1641H780.582ZM787.691 75H793.163V73.7285H789.202V71.3086H792.946V70.1074H789.202V67.8164H793.163V66.5449H787.691V75ZM795.098 75H798.268C800.799 75 802.247 73.4473 802.247 70.7402V70.7285C802.247 68.0801 800.782 66.5449 798.268 66.5449H795.098V75ZM796.61 73.7285V67.8164H798.069C799.727 67.8164 800.706 68.8945 800.706 70.752V70.7637C800.706 72.6621 799.751 73.7285 798.069 73.7285H796.61Z" fill="black"/>
<path d="M316.671 57H318.435V48.6191H321.477V47.1357H313.636V48.6191H316.671V57ZM324.845 57.1504C325.925 57.1504 326.684 56.665 327.033 55.8652H327.149V57H328.851V49.5283H327.149V53.8828C327.149 55.0039 326.561 55.7148 325.46 55.7148C324.435 55.7148 324.004 55.127 324.004 53.9717V49.5283H322.302V54.3613C322.302 56.1387 323.164 57.1504 324.845 57.1504ZM330.989 57H332.691V52.6592C332.691 51.5928 333.436 50.916 334.571 50.916C334.865 50.916 335.145 50.957 335.419 51.0117V49.4873C335.255 49.4395 334.988 49.4053 334.728 49.4053C333.744 49.4053 333.06 49.877 332.808 50.6768H332.691V49.5283H330.989V57ZM341.782 59.4814H343.484V49.5283H341.782V50.7656H341.693C341.262 49.918 340.414 49.4053 339.403 49.4053C337.489 49.4053 336.32 50.8818 336.32 53.2607V53.2744C336.32 55.6396 337.502 57.123 339.382 57.123C340.449 57.123 341.283 56.6582 341.665 55.8652H341.782V59.4814ZM339.929 55.6875C338.76 55.6875 338.049 54.7783 338.049 53.2744V53.2607C338.049 51.7568 338.76 50.8408 339.922 50.8408C341.071 50.8408 341.809 51.7705 341.809 53.2607V53.2744C341.809 54.7646 341.077 55.6875 339.929 55.6875ZM348.09 57.1504C349.17 57.1504 349.928 56.665 350.277 55.8652H350.393V57H352.095V49.5283H350.393V53.8828C350.393 55.0039 349.805 55.7148 348.705 55.7148C347.679 55.7148 347.249 55.127 347.249 53.9717V49.5283H345.547V54.3613C345.547 56.1387 346.408 57.1504 348.09 57.1504ZM357.46 57.1504C359.696 57.1504 361.056 55.6875 361.056 53.2676V53.2539C361.056 50.8477 359.689 49.3848 357.46 49.3848C355.238 49.3848 353.864 50.8545 353.864 53.2539V53.2676C353.864 55.6875 355.218 57.1504 357.46 57.1504ZM357.46 55.7695C356.278 55.7695 355.601 54.8467 355.601 53.2744V53.2607C355.601 51.6885 356.278 50.7588 357.46 50.7588C358.636 50.7588 359.313 51.6885 359.313 53.2607V53.2744C359.313 54.8467 358.643 55.7695 357.46 55.7695ZM363.7 48.2773C364.254 48.2773 364.712 47.833 364.712 47.2725C364.712 46.7188 364.254 46.2676 363.7 46.2676C363.139 46.2676 362.681 46.7188 362.681 47.2725C362.681 47.833 363.139 48.2773 363.7 48.2773ZM362.845 57H364.548V49.5283H362.845V57ZM369.523 57.1504C371.361 57.1504 372.694 56.2002 372.694 54.7783V54.7646C372.694 53.6777 372.004 53.0557 370.541 52.7275L369.331 52.4609C368.524 52.2764 368.21 52.0098 368.21 51.5723V51.5654C368.21 51.0049 368.757 50.6357 369.516 50.6357C370.316 50.6357 370.808 51.0186 370.931 51.4902L370.938 51.5107H372.537V51.4971C372.428 50.2871 371.341 49.3848 369.523 49.3848C367.759 49.3848 366.528 50.3145 366.528 51.6611V51.668C366.528 52.7686 367.205 53.4385 368.627 53.7529L369.837 54.0264C370.657 54.2109 370.985 54.498 370.985 54.9355V54.9492C370.985 55.5098 370.398 55.8926 369.55 55.8926C368.702 55.8926 368.203 55.5303 368.025 55.0107L368.019 54.9971H366.33V55.0107C366.474 56.2754 367.622 57.1504 369.523 57.1504ZM377.669 57.1504C379.7 57.1504 380.698 55.9814 380.937 55.0176L380.958 54.9561H379.337L379.317 55.0039C379.153 55.3457 378.626 55.8105 377.704 55.8105C376.548 55.8105 375.824 55.0312 375.803 53.6914H381.026V53.1309C381.026 50.875 379.713 49.3848 377.587 49.3848C375.461 49.3848 374.101 50.9229 374.101 53.2744V53.2812C374.101 55.6602 375.448 57.1504 377.669 57.1504ZM377.608 50.7178C378.558 50.7178 379.249 51.3262 379.365 52.5498H375.817C375.947 51.3604 376.658 50.7178 377.608 50.7178ZM390.976 57.2461C393.608 57.2461 395.289 55.6123 395.289 53.0625V51.832H391.195V53.1787H393.56L393.553 53.3838C393.533 54.7852 392.507 55.7217 391.003 55.7217C389.246 55.7217 388.139 54.3203 388.139 52.0576V52.0439C388.139 49.8154 389.226 48.4141 390.949 48.4141C392.213 48.4141 393.116 49.043 393.437 50.123L393.457 50.1914H395.207L395.201 50.123C394.866 48.1953 393.225 46.8896 390.949 46.8896C388.139 46.8896 386.341 48.9062 386.341 52.0576V52.0713C386.341 55.2568 388.119 57.2461 390.976 57.2461ZM397.223 57H398.925V52.6592C398.925 51.5928 399.67 50.916 400.805 50.916C401.098 50.916 401.379 50.957 401.652 51.0117V49.4873C401.488 49.4395 401.222 49.4053 400.962 49.4053C399.977 49.4053 399.294 49.877 399.041 50.6768H398.925V49.5283H397.223V57ZM406.115 57.1504C408.145 57.1504 409.143 55.9814 409.382 55.0176L409.403 54.9561H407.783L407.762 55.0039C407.598 55.3457 407.072 55.8105 406.149 55.8105C404.993 55.8105 404.269 55.0312 404.248 53.6914H409.471V53.1309C409.471 50.875 408.158 49.3848 406.033 49.3848C403.907 49.3848 402.546 50.9229 402.546 53.2744V53.2812C402.546 55.6602 403.893 57.1504 406.115 57.1504ZM406.053 50.7178C407.003 50.7178 407.694 51.3262 407.81 52.5498H404.262C404.392 51.3604 405.103 50.7178 406.053 50.7178ZM414.432 57.1504C416.463 57.1504 417.461 55.9814 417.7 55.0176L417.72 54.9561H416.1L416.08 55.0039C415.916 55.3457 415.389 55.8105 414.467 55.8105C413.311 55.8105 412.587 55.0312 412.566 53.6914H417.789V53.1309C417.789 50.875 416.476 49.3848 414.35 49.3848C412.224 49.3848 410.864 50.9229 410.864 53.2744V53.2812C410.864 55.6602 412.211 57.1504 414.432 57.1504ZM414.371 50.7178C415.321 50.7178 416.011 51.3262 416.128 52.5498H412.58C412.71 51.3604 413.421 50.7178 414.371 50.7178ZM419.551 57H421.253V52.6455C421.253 51.5244 421.882 50.8135 422.894 50.8135C423.926 50.8135 424.398 51.4014 424.398 52.5635V57H426.1V52.167C426.1 50.3896 425.191 49.3848 423.523 49.3848C422.443 49.3848 421.725 49.8701 421.369 50.6699H421.253V49.5283H419.551V57Z" fill="black"/>
<path fill-rule="evenodd" clip-rule="evenodd" d="M430 157C430 123.863 403.137 97 370 97C336.863 97 310 123.863 310 157" fill="#91C7B1"/>
<path d="M346.209 75L346.666 72.7441H348.324L347.861 75H348.998L349.449 72.7441H350.926L351.137 71.6367H349.678L350.047 69.8086H351.471L351.682 68.707H350.27L350.703 66.5449H349.572L349.139 68.707H347.48L347.92 66.5449H346.795L346.355 68.707H344.949L344.732 69.8086H346.133L345.764 71.6367H344.41L344.193 72.7441H345.541L345.09 75H346.209ZM346.836 71.6895L347.223 69.7676H348.969L348.582 71.6895H346.836ZM355.82 66.334C353.986 66.334 352.679 67.5879 352.679 69.3047V69.3164C352.679 70.9219 353.816 72.1055 355.439 72.1055C356.599 72.1055 357.337 71.5137 357.648 70.8457H357.765C357.765 70.9102 357.759 70.9746 357.759 71.0391C357.695 72.6562 357.126 73.9688 355.785 73.9688C355.04 73.9688 354.519 73.582 354.296 72.9902L354.279 72.9316H352.79L352.802 72.9961C353.072 74.291 354.232 75.2109 355.785 75.2109C357.912 75.2109 359.195 73.5234 359.195 70.6758V70.6641C359.195 67.6172 357.624 66.334 355.82 66.334ZM355.814 70.9453C354.853 70.9453 354.156 70.2422 354.156 69.2637V69.252C354.156 68.3086 354.9 67.5645 355.831 67.5645C356.769 67.5645 357.501 68.3203 357.501 69.2871V69.2988C357.501 70.2539 356.769 70.9453 355.814 70.9453ZM362.952 75H364.464V66.5449H362.958L360.749 68.0977V69.5215L362.852 68.0332H362.952V75ZM370.559 75.2109C372.51 75.2109 373.91 74.0801 374.133 72.3867V72.3457H372.651L372.645 72.375C372.428 73.3066 371.631 73.9043 370.559 73.9043C369.118 73.9043 368.221 72.7031 368.221 70.7754V70.7637C368.221 68.8418 369.118 67.6406 370.553 67.6406C371.619 67.6406 372.428 68.3027 372.645 69.3047L372.651 69.3281H374.133V69.2812C373.934 67.5527 372.475 66.334 370.553 66.334C368.157 66.334 366.674 68.0273 366.674 70.7695V70.7812C366.674 73.5117 368.162 75.2109 370.559 75.2109ZM376.092 75H377.674L381.289 67.8047V66.5449H375.406V67.7812H379.765V67.875L376.092 75ZM383.042 75H386.657C388.462 75 389.564 74.0859 389.564 72.6035V72.5918C389.564 71.4961 388.779 70.6758 387.642 70.5703V70.4648C388.491 70.3301 389.148 69.5449 389.148 68.6602V68.6484C389.148 67.3535 388.181 66.5449 386.575 66.5449H383.042V75ZM386.206 67.7227C387.12 67.7227 387.654 68.1621 387.654 68.9121V68.9238C387.654 69.6914 387.085 70.1074 386.013 70.1074H384.554V67.7227H386.206ZM386.253 71.1797C387.407 71.1797 388.017 71.6309 388.017 72.4863V72.498C388.017 73.3594 387.425 73.8223 386.312 73.8223H384.554V71.1797H386.253ZM393.18 75H394.692V66.5449H393.186L390.977 68.0977V69.5215L393.081 68.0332H393.18V75Z" fill="black"/>
<path d="M463.896 57H465.961L469.372 47.1357H467.424L464.983 54.9629H464.867L462.427 47.1357H460.485L463.896 57ZM473.376 57.1504C475.407 57.1504 476.405 55.9814 476.644 55.0176L476.664 54.9561H475.044L475.024 55.0039C474.86 55.3457 474.333 55.8105 473.411 55.8105C472.255 55.8105 471.531 55.0312 471.51 53.6914H476.733V53.1309C476.733 50.875 475.42 49.3848 473.294 49.3848C471.168 49.3848 469.808 50.9229 469.808 53.2744V53.2812C469.808 55.6602 471.155 57.1504 473.376 57.1504ZM473.315 50.7178C474.265 50.7178 474.956 51.3262 475.072 52.5498H471.524C471.654 51.3604 472.365 50.7178 473.315 50.7178ZM478.495 57H480.197V52.6455C480.197 51.5244 480.826 50.8135 481.838 50.8135C482.87 50.8135 483.342 51.4014 483.342 52.5635V57H485.044V52.167C485.044 50.3896 484.135 49.3848 482.467 49.3848C481.387 49.3848 480.669 49.8701 480.313 50.6699H480.197V49.5283H478.495V57ZM490.313 57.1504C492.343 57.1504 493.341 55.9814 493.58 55.0176L493.601 54.9561H491.981L491.96 55.0039C491.796 55.3457 491.27 55.8105 490.347 55.8105C489.192 55.8105 488.467 55.0312 488.447 53.6914H493.669V53.1309C493.669 50.875 492.357 49.3848 490.231 49.3848C488.105 49.3848 486.744 50.9229 486.744 53.2744V53.2812C486.744 55.6602 488.091 57.1504 490.313 57.1504ZM490.251 50.7178C491.201 50.7178 491.892 51.3262 492.008 52.5498H488.46C488.59 51.3604 489.301 50.7178 490.251 50.7178ZM498.371 57.0342C498.699 57.0342 499.013 57.0068 499.26 56.959V55.6465C499.054 55.667 498.925 55.6738 498.685 55.6738C497.974 55.6738 497.68 55.3594 497.68 54.6143V50.8477H499.26V49.5283H497.68V47.6963H495.951V49.5283H494.789V50.8477H495.951V55.0176C495.951 56.46 496.655 57.0342 498.371 57.0342ZM501.89 48.2773C502.444 48.2773 502.902 47.833 502.902 47.2725C502.902 46.7188 502.444 46.2676 501.89 46.2676C501.329 46.2676 500.871 46.7188 500.871 47.2725C500.871 47.833 501.329 48.2773 501.89 48.2773ZM501.035 57H502.737V49.5283H501.035V57ZM506.926 57.123C507.911 57.123 508.704 56.6992 509.114 55.9746H509.23V57H510.912V51.8936C510.912 50.3145 509.832 49.3848 507.911 49.3848C506.133 49.3848 504.93 50.2188 504.766 51.4766L504.759 51.5381H506.366L506.373 51.5107C506.544 51.0186 507.049 50.7383 507.829 50.7383C508.745 50.7383 509.23 51.1484 509.23 51.8936V52.5361L507.309 52.6523C505.491 52.7617 504.472 53.541 504.472 54.874V54.8877C504.472 56.248 505.505 57.123 506.926 57.123ZM506.154 54.8057V54.792C506.154 54.1768 506.598 53.8281 507.548 53.7666L509.23 53.6572V54.2588C509.23 55.1475 508.471 55.8174 507.446 55.8174C506.694 55.8174 506.154 55.4414 506.154 54.8057ZM513.016 57H514.718V52.6455C514.718 51.5244 515.347 50.8135 516.358 50.8135C517.391 50.8135 517.862 51.4014 517.862 52.5635V57H519.565V52.167C519.565 50.3896 518.655 49.3848 516.987 49.3848C515.907 49.3848 515.19 49.8701 514.834 50.6699H514.718V49.5283H513.016V57ZM525.604 57H527.368V53.2881H529.323L531.258 57H533.274L531.121 53.0215C532.29 52.5977 532.98 51.5176 532.98 50.2119V50.1982C532.98 48.3184 531.709 47.1357 529.59 47.1357H525.604V57ZM527.368 51.9346V48.5645H529.371C530.492 48.5645 531.169 49.207 531.169 50.2393V50.2529C531.169 51.3125 530.519 51.9346 529.405 51.9346H527.368ZM537.969 57.1504C539.999 57.1504 540.997 55.9814 541.237 55.0176L541.257 54.9561H539.637L539.617 55.0039C539.453 55.3457 538.926 55.8105 538.003 55.8105C536.848 55.8105 536.123 55.0312 536.103 53.6914H541.326V53.1309C541.326 50.875 540.013 49.3848 537.887 49.3848C535.761 49.3848 534.401 50.9229 534.401 53.2744V53.2812C534.401 55.6602 535.747 57.1504 537.969 57.1504ZM537.908 50.7178C538.858 50.7178 539.548 51.3262 539.664 52.5498H536.117C536.246 51.3604 536.957 50.7178 537.908 50.7178ZM545.781 57.123C546.834 57.123 547.64 56.6445 548.051 55.8311H548.167V57H549.876V46.6367H548.167V50.7178H548.051C547.661 49.9111 546.806 49.4053 545.781 49.4053C543.888 49.4053 542.719 50.8818 542.719 53.2607V53.2744C542.719 55.6396 543.908 57.123 545.781 57.123ZM546.314 55.6875C545.152 55.6875 544.448 54.7783 544.448 53.2744V53.2607C544.448 51.7568 545.159 50.8408 546.314 50.8408C547.47 50.8408 548.194 51.7637 548.194 53.2607V53.2744C548.194 54.7715 547.476 55.6875 546.314 55.6875Z" fill="black"/>
<path fill-rule="evenodd" clip-rule="evenodd" d="M565 157C565 123.863 538.137 97 505 97C471.863 97 445 123.863 445 157" fill="#C20114"/>
<path d="M481.209 75L481.666 72.7441H483.324L482.861 75H483.998L484.449 72.7441H485.926L486.137 71.6367H484.678L485.047 69.8086H486.471L486.682 68.707H485.27L485.703 66.5449H484.572L484.139 68.707H482.48L482.92 66.5449H481.795L481.355 68.707H479.949L479.732 69.8086H481.133L480.764 71.6367H479.41L479.193 72.7441H480.541L480.09 75H481.209ZM481.836 71.6895L482.223 69.7676H483.969L483.582 71.6895H481.836ZM491.505 75.2109C493.456 75.2109 494.857 74.0801 495.08 72.3867V72.3457H493.597L493.591 72.375C493.374 73.3066 492.578 73.9043 491.505 73.9043C490.064 73.9043 489.167 72.7031 489.167 70.7754V70.7637C489.167 68.8418 490.064 67.6406 491.499 67.6406C492.566 67.6406 493.374 68.3027 493.591 69.3047L493.597 69.3281H495.08V69.2812C494.88 67.5527 493.421 66.334 491.499 66.334C489.103 66.334 487.621 68.0273 487.621 70.7695V70.7812C487.621 73.5117 489.109 75.2109 491.505 75.2109ZM496.669 75H502.54V73.7461H498.714V73.623L500.407 71.9824C501.948 70.5 502.411 69.7383 502.411 68.7773V68.7598C502.411 67.3359 501.227 66.334 499.581 66.334C497.817 66.334 496.587 67.4355 496.587 69.0117L496.593 69.0293L497.999 69.0352L498.005 69.0117C498.005 68.1387 498.608 67.5469 499.505 67.5469C500.384 67.5469 500.917 68.1094 500.917 68.8887V68.9062C500.917 69.5566 500.595 69.9844 499.446 71.1445L496.669 73.9805V75ZM507.375 75.2109C509.385 75.2109 510.604 73.5059 510.604 70.7754V70.7637C510.604 68.0332 509.385 66.334 507.375 66.334C505.366 66.334 504.159 68.0332 504.159 70.7637V70.7754C504.159 73.5059 505.366 75.2109 507.375 75.2109ZM507.375 73.9863C506.297 73.9863 505.682 72.7793 505.682 70.7754V70.7637C505.682 68.7598 506.297 67.5645 507.375 67.5645C508.453 67.5645 509.08 68.7598 509.08 70.7637V70.7754C509.08 72.7793 508.453 73.9863 507.375 73.9863ZM514.385 75H515.896V66.5449H514.39L512.181 68.0977V69.5215L514.285 68.0332H514.385V75ZM520.374 75H521.886V66.5449H520.38L518.171 68.0977V69.5215L520.275 68.0332H520.374V75ZM528.198 75H529.645V73.377H530.782V72.1289H529.645V66.5449H527.506C526.358 68.291 525.157 70.2363 524.061 72.1406V73.377H528.198V75ZM525.467 72.1641V72.0762C526.288 70.6406 527.266 69.0762 528.133 67.752H528.221V72.1641H525.467Z" fill="black"/>
<path d="M622.217 57H626.435C628.54 57 629.825 55.9336 629.825 54.2041V54.1904C629.825 52.9121 628.909 51.9551 627.583 51.832V51.709C628.574 51.5518 629.34 50.6357 629.34 49.6035V49.5898C629.34 48.0791 628.212 47.1357 626.339 47.1357H622.217V57ZM625.908 48.5098C626.975 48.5098 627.597 49.0225 627.597 49.8975V49.9111C627.597 50.8066 626.934 51.292 625.683 51.292H623.98V48.5098H625.908ZM625.963 52.543C627.31 52.543 628.021 53.0693 628.021 54.0674V54.0811C628.021 55.0859 627.33 55.626 626.031 55.626H623.98V52.543H625.963ZM631.697 57H633.399V46.6367H631.697V57ZM637.649 57.123C638.634 57.123 639.427 56.6992 639.837 55.9746H639.953V57H641.635V51.8936C641.635 50.3145 640.555 49.3848 638.634 49.3848C636.856 49.3848 635.653 50.2188 635.489 51.4766L635.482 51.5381H637.089L637.096 51.5107C637.266 51.0186 637.772 50.7383 638.552 50.7383C639.468 50.7383 639.953 51.1484 639.953 51.8936V52.5361L638.032 52.6523C636.214 52.7617 635.195 53.541 635.195 54.874V54.8877C635.195 56.248 636.227 57.123 637.649 57.123ZM636.877 54.8057V54.792C636.877 54.1768 637.321 53.8281 638.271 53.7666L639.953 53.6572V54.2588C639.953 55.1475 639.194 55.8174 638.169 55.8174C637.417 55.8174 636.877 55.4414 636.877 54.8057ZM646.945 57.1504C648.838 57.1504 649.939 56.1318 650.185 54.6006L650.199 54.5459L648.592 54.5527L648.578 54.5801C648.367 55.3662 647.826 55.7695 646.945 55.7695C645.789 55.7695 645.099 54.8398 645.099 53.2539V53.2402C645.099 51.6748 645.783 50.7588 646.945 50.7588C647.874 50.7588 648.428 51.2783 648.585 52.0029L648.592 52.0234H650.199V51.9961C650.007 50.4512 648.859 49.3848 646.938 49.3848C644.689 49.3848 643.369 50.8271 643.369 53.2402V53.2539C643.369 55.6943 644.696 57.1504 646.945 57.1504ZM651.947 57H653.649V54.375L654.244 53.7666L656.643 57H658.694L655.481 52.6865L658.489 49.5283H656.52L653.765 52.5908H653.649V46.6367H651.947V57Z" fill="black"/>
<path fill-rule="evenodd" clip-rule="evenodd" d="M700 157C700 123.863 673.137 97 640 97C606.863 97 580 123.863 580 157" fill="black"/>
<path d="M614.209 75L614.666 72.7441H616.324L615.861 75H616.998L617.449 72.7441H618.926L619.137 71.6367H617.678L618.047 69.8086H619.471L619.682 68.707H618.27L618.703 66.5449H617.572L617.139 68.707H615.48L615.92 66.5449H614.795L614.355 68.707H612.949L612.732 69.8086H614.133L613.764 71.6367H612.41L612.193 72.7441H613.541L613.09 75H614.209ZM614.836 71.6895L615.223 69.7676H616.969L616.582 71.6895H614.836ZM623.919 75.2109C625.929 75.2109 627.148 73.5059 627.148 70.7754V70.7637C627.148 68.0332 625.929 66.334 623.919 66.334C621.91 66.334 620.703 68.0332 620.703 70.7637V70.7754C620.703 73.5059 621.91 75.2109 623.919 75.2109ZM623.919 73.9863C622.841 73.9863 622.226 72.7793 622.226 70.7754V70.7637C622.226 68.7598 622.841 67.5645 623.919 67.5645C624.997 67.5645 625.624 68.7598 625.624 70.7637V70.7754C625.624 72.7793 624.997 73.9863 623.919 73.9863ZM631.96 75.2109C633.97 75.2109 635.188 73.5059 635.188 70.7754V70.7637C635.188 68.0332 633.97 66.334 631.96 66.334C629.95 66.334 628.743 68.0332 628.743 70.7637V70.7754C628.743 73.5059 629.95 75.2109 631.96 75.2109ZM631.96 73.9863C630.882 73.9863 630.266 72.7793 630.266 70.7754V70.7637C630.266 68.7598 630.882 67.5645 631.96 67.5645C633.038 67.5645 633.665 68.7598 633.665 70.7637V70.7754C633.665 72.7793 633.038 73.9863 631.96 73.9863ZM640 75.2109C642.01 75.2109 643.229 73.5059 643.229 70.7754V70.7637C643.229 68.0332 642.01 66.334 640 66.334C637.991 66.334 636.784 68.0332 636.784 70.7637V70.7754C636.784 73.5059 637.991 75.2109 640 75.2109ZM640 73.9863C638.922 73.9863 638.307 72.7793 638.307 70.7754V70.7637C638.307 68.7598 638.922 67.5645 640 67.5645C641.078 67.5645 641.705 68.7598 641.705 70.7637V70.7754C641.705 72.7793 641.078 73.9863 640 73.9863ZM648.041 75.2109C650.051 75.2109 651.269 73.5059 651.269 70.7754V70.7637C651.269 68.0332 650.051 66.334 648.041 66.334C646.031 66.334 644.824 68.0332 644.824 70.7637V70.7754C644.824 73.5059 646.031 75.2109 648.041 75.2109ZM648.041 73.9863C646.963 73.9863 646.347 72.7793 646.347 70.7754V70.7637C646.347 68.7598 646.963 67.5645 648.041 67.5645C649.119 67.5645 649.746 68.7598 649.746 70.7637V70.7754C649.746 72.7793 649.119 73.9863 648.041 73.9863ZM656.081 75.2109C658.091 75.2109 659.31 73.5059 659.31 70.7754V70.7637C659.31 68.0332 658.091 66.334 656.081 66.334C654.071 66.334 652.864 68.0332 652.864 70.7637V70.7754C652.864 73.5059 654.071 75.2109 656.081 75.2109ZM656.081 73.9863C655.003 73.9863 654.388 72.7793 654.388 70.7754V70.7637C654.388 68.7598 655.003 67.5645 656.081 67.5645C657.159 67.5645 657.786 68.7598 657.786 70.7637V70.7754C657.786 72.7793 657.159 73.9863 656.081 73.9863ZM664.122 75.2109C666.131 75.2109 667.35 73.5059 667.35 70.7754V70.7637C667.35 68.0332 666.131 66.334 664.122 66.334C662.112 66.334 660.905 68.0332 660.905 70.7637V70.7754C660.905 73.5059 662.112 75.2109 664.122 75.2109ZM664.122 73.9863C663.044 73.9863 662.428 72.7793 662.428 70.7754V70.7637C662.428 68.7598 663.044 67.5645 664.122 67.5645C665.2 67.5645 665.827 68.7598 665.827 70.7637V70.7754C665.827 72.7793 665.2 73.9863 664.122 73.9863Z" fill="black"/>
<path d="M197.217 57H201.435C203.54 57 204.825 55.9336 204.825 54.2041V54.1904C204.825 52.9121 203.909 51.9551 202.583 51.832V51.709C203.574 51.5518 204.34 50.6357 204.34 49.6035V49.5898C204.34 48.0791 203.212 47.1357 201.339 47.1357H197.217V57ZM200.908 48.5098C201.975 48.5098 202.597 49.0225 202.597 49.8975V49.9111C202.597 50.8066 201.934 51.292 200.683 51.292H198.98V48.5098H200.908ZM200.963 52.543C202.31 52.543 203.021 53.0693 203.021 54.0674V54.0811C203.021 55.0859 202.33 55.626 201.031 55.626H198.98V52.543H200.963ZM206.697 57H208.399V46.6367H206.697V57ZM212.649 57.123C213.634 57.123 214.427 56.6992 214.837 55.9746H214.953V57H216.635V51.8936C216.635 50.3145 215.555 49.3848 213.634 49.3848C211.856 49.3848 210.653 50.2188 210.489 51.4766L210.482 51.5381H212.089L212.096 51.5107C212.266 51.0186 212.772 50.7383 213.552 50.7383C214.468 50.7383 214.953 51.1484 214.953 51.8936V52.5361L213.032 52.6523C211.214 52.7617 210.195 53.541 210.195 54.874V54.8877C210.195 56.248 211.227 57.123 212.649 57.123ZM211.877 54.8057V54.792C211.877 54.1768 212.321 53.8281 213.271 53.7666L214.953 53.6572V54.2588C214.953 55.1475 214.194 55.8174 213.169 55.8174C212.417 55.8174 211.877 55.4414 211.877 54.8057ZM221.945 57.1504C223.838 57.1504 224.939 56.1318 225.185 54.6006L225.199 54.5459L223.592 54.5527L223.578 54.5801C223.367 55.3662 222.826 55.7695 221.945 55.7695C220.789 55.7695 220.099 54.8398 220.099 53.2539V53.2402C220.099 51.6748 220.783 50.7588 221.945 50.7588C222.874 50.7588 223.428 51.2783 223.585 52.0029L223.592 52.0234H225.199V51.9961C225.007 50.4512 223.859 49.3848 221.938 49.3848C219.689 49.3848 218.369 50.8271 218.369 53.2402V53.2539C218.369 55.6943 219.696 57.1504 221.945 57.1504ZM226.947 57H228.649V54.375L229.244 53.7666L231.643 57H233.694L230.481 52.6865L233.489 49.5283H231.52L228.765 52.5908H228.649V46.6367H226.947V57ZM243.145 57.2461C245.422 57.2461 247.055 55.9268 247.315 53.9512V53.9033H245.586L245.579 53.9375C245.326 55.0244 244.396 55.7217 243.145 55.7217C241.464 55.7217 240.418 54.3203 240.418 52.0713V52.0576C240.418 49.8154 241.464 48.4141 243.138 48.4141C244.382 48.4141 245.326 49.1865 245.579 50.3555L245.586 50.3828H247.315V50.3281C247.083 48.3115 245.381 46.8896 243.138 46.8896C240.342 46.8896 238.613 48.8652 238.613 52.0645V52.0781C238.613 55.2637 240.349 57.2461 243.145 57.2461ZM252.393 57.1504C254.628 57.1504 255.988 55.6875 255.988 53.2676V53.2539C255.988 50.8477 254.621 49.3848 252.393 49.3848C250.171 49.3848 248.797 50.8545 248.797 53.2539V53.2676C248.797 55.6875 250.15 57.1504 252.393 57.1504ZM252.393 55.7695C251.21 55.7695 250.533 54.8467 250.533 53.2744V53.2607C250.533 51.6885 251.21 50.7588 252.393 50.7588C253.568 50.7588 254.245 51.6885 254.245 53.2607V53.2744C254.245 54.8467 253.575 55.7695 252.393 55.7695ZM257.757 57H259.459V52.6592C259.459 51.5928 260.205 50.916 261.339 50.916C261.633 50.916 261.914 50.957 262.187 51.0117V49.4873C262.023 49.4395 261.756 49.4053 261.497 49.4053C260.512 49.4053 259.829 49.877 259.576 50.6768H259.459V49.5283H257.757V57ZM265.583 57.123C266.567 57.123 267.36 56.6992 267.77 55.9746H267.887V57H269.568V51.8936C269.568 50.3145 268.488 49.3848 266.567 49.3848C264.79 49.3848 263.587 50.2188 263.423 51.4766L263.416 51.5381H265.022L265.029 51.5107C265.2 51.0186 265.706 50.7383 266.485 50.7383C267.401 50.7383 267.887 51.1484 267.887 51.8936V52.5361L265.966 52.6523C264.147 52.7617 263.129 53.541 263.129 54.874V54.8877C263.129 56.248 264.161 57.123 265.583 57.123ZM264.811 54.8057V54.792C264.811 54.1768 265.255 53.8281 266.205 53.7666L267.887 53.6572V54.2588C267.887 55.1475 267.128 55.8174 266.103 55.8174C265.351 55.8174 264.811 55.4414 264.811 54.8057ZM271.741 57H273.443V46.6367H271.741V57Z" fill="black"/>
<path fill-rule="evenodd" clip-rule="evenodd" d="M295 157C295 123.863 268.137 97 235 97C201.863 97 175 123.863 175 157" fill="#4C5C68"/>
<path d="M208.209 75L208.666 72.7441H210.324L209.861 75H210.998L211.449 72.7441H212.926L213.137 71.6367H211.678L212.047 69.8086H213.471L213.682 68.707H212.27L212.703 66.5449H211.572L211.139 68.707H209.48L209.92 66.5449H208.795L208.355 68.707H206.949L206.732 69.8086H208.133L207.764 71.6367H206.41L206.193 72.7441H207.541L207.09 75H208.209ZM208.836 71.6895L209.223 69.7676H210.969L210.582 71.6895H208.836ZM218.558 75H220.005V73.377H221.142V72.1289H220.005V66.5449H217.867C216.718 68.291 215.517 70.2363 214.421 72.1406V73.377H218.558V75ZM215.828 72.1641V72.0762C216.648 70.6406 217.626 69.0762 218.494 67.752H218.581V72.1641H215.828ZM226.464 75.2109C228.415 75.2109 229.815 74.0801 230.038 72.3867V72.3457H228.556L228.55 72.375C228.333 73.3066 227.536 73.9043 226.464 73.9043C225.022 73.9043 224.126 72.7031 224.126 70.7754V70.7637C224.126 68.8418 225.022 67.6406 226.458 67.6406C227.524 67.6406 228.333 68.3027 228.55 69.3047L228.556 69.3281H230.038V69.2812C229.839 67.5527 228.38 66.334 226.458 66.334C224.061 66.334 222.579 68.0273 222.579 70.7695V70.7812C222.579 73.5117 224.067 75.2109 226.464 75.2109ZM234.68 75.2109C236.508 75.2109 237.791 74.0098 237.791 72.252V72.2402C237.791 70.623 236.649 69.4512 235.073 69.4512C234.276 69.4512 233.619 69.791 233.268 70.3594H233.168L233.403 67.7871H237.299V66.5449H232.225L231.815 71.4961H233.11C233.209 71.3086 233.35 71.1445 233.502 71.0156C233.813 70.7344 234.223 70.5938 234.698 70.5938C235.664 70.5938 236.356 71.2852 236.356 72.2695V72.2812C236.356 73.2773 235.676 73.9746 234.686 73.9746C233.819 73.9746 233.18 73.4238 233.069 72.7324L233.063 72.6914H231.668L231.674 72.7676C231.785 74.1562 232.951 75.2109 234.68 75.2109ZM243.142 75.2109C245.094 75.2109 246.494 74.0801 246.717 72.3867V72.3457H245.234L245.228 72.375C245.011 73.3066 244.215 73.9043 243.142 73.9043C241.701 73.9043 240.804 72.7031 240.804 70.7754V70.7637C240.804 68.8418 241.701 67.6406 243.136 67.6406C244.203 67.6406 245.011 68.3027 245.228 69.3047L245.234 69.3281H246.717V69.2812C246.517 67.5527 245.058 66.334 243.136 66.334C240.74 66.334 239.258 68.0273 239.258 70.7695V70.7812C239.258 73.5117 240.746 75.2109 243.142 75.2109ZM251.534 75.2109C253.368 75.2109 254.675 73.957 254.675 72.2402V72.2285C254.675 70.623 253.538 69.4395 251.915 69.4395C250.755 69.4395 250.017 70.0312 249.706 70.6992H249.589C249.589 70.6348 249.595 70.5703 249.595 70.5059C249.659 68.8887 250.228 67.5762 251.57 67.5762C252.314 67.5762 252.835 67.9629 253.058 68.5547L253.081 68.6133H254.564L254.552 68.5488C254.282 67.2539 253.122 66.334 251.57 66.334C249.443 66.334 248.159 68.0215 248.159 70.8691V70.8809C248.159 73.9277 249.73 75.2109 251.534 75.2109ZM249.853 72.2578V72.2461C249.853 71.291 250.585 70.5996 251.54 70.5996C252.501 70.5996 253.198 71.3027 253.198 72.2812V72.293C253.198 73.2363 252.46 73.9805 251.523 73.9805C250.585 73.9805 249.853 73.2246 249.853 72.2578ZM259.528 75.1699C261.473 75.1699 262.827 74.1621 262.827 72.7148V72.7031C262.827 71.6191 262.042 70.7812 260.911 70.5527V70.5176C261.878 70.2598 262.522 69.5508 262.522 68.6426V68.6309C262.522 67.3301 261.28 66.375 259.528 66.375C257.776 66.375 256.534 67.3301 256.534 68.6309V68.6426C256.534 69.5508 257.178 70.2598 258.145 70.5176V70.5527C257.02 70.7812 256.229 71.6191 256.229 72.7031V72.7148C256.229 74.1621 257.583 75.1699 259.528 75.1699ZM259.528 70.0371C258.643 70.0371 258.028 69.5215 258.028 68.7832V68.7715C258.028 68.0332 258.643 67.5176 259.528 67.5176C260.413 67.5176 261.028 68.0332 261.028 68.7715V68.7832C261.028 69.5215 260.413 70.0371 259.528 70.0371ZM259.528 74.0156C258.514 74.0156 257.794 73.4297 257.794 72.6152V72.6035C257.794 71.7832 258.503 71.1914 259.528 71.1914C260.548 71.1914 261.262 71.7832 261.262 72.6035V72.6152C261.262 73.4297 260.542 74.0156 259.528 74.0156Z" fill="black"/>
</svg>
