<svg width="426" height="717" viewBox="0 0 426 717" fill="none" xmlns="http://www.w3.org/2000/svg">
<g filter="url(#filter0_d)">
<rect width="375" height="667" transform="translate(26 25)" fill="white"/>
<path d="M192.279 30.334C190.445 30.334 189.139 31.5879 189.139 33.3047V33.3164C189.139 34.9219 190.275 36.1055 191.898 36.1055C193.059 36.1055 193.797 35.5137 194.107 34.8457H194.225C194.225 34.9102 194.219 34.9746 194.219 35.0391C194.154 36.6562 193.586 37.9688 192.244 37.9688C191.5 37.9688 190.979 37.582 190.756 36.9902L190.738 36.9316H189.25L189.262 36.9961C189.531 38.291 190.691 39.2109 192.244 39.2109C194.371 39.2109 195.654 37.5234 195.654 34.6758V34.6641C195.654 31.6172 194.084 30.334 192.279 30.334ZM192.273 34.9453C191.312 34.9453 190.615 34.2422 190.615 33.2637V33.252C190.615 32.3086 191.359 31.5645 192.291 31.5645C193.229 31.5645 193.961 32.3203 193.961 33.2871V33.2988C193.961 34.2539 193.229 34.9453 192.273 34.9453ZM198.314 33.5215C198.854 33.5215 199.246 33.1113 199.246 32.5957C199.246 32.0742 198.854 31.6699 198.314 31.6699C197.781 31.6699 197.383 32.0742 197.383 32.5957C197.383 33.1113 197.781 33.5215 198.314 33.5215ZM198.314 37.8691C198.854 37.8691 199.246 37.4648 199.246 36.9434C199.246 36.4219 198.854 36.0176 198.314 36.0176C197.781 36.0176 197.383 36.4219 197.383 36.9434C197.383 37.4648 197.781 37.8691 198.314 37.8691ZM205.076 39H206.523V37.377H207.66V36.1289H206.523V30.5449H204.385C203.236 32.291 202.035 34.2363 200.939 36.1406V37.377H205.076V39ZM202.346 36.1641V36.0762C203.166 34.6406 204.145 33.0762 205.012 31.752H205.1V36.1641H202.346ZM211.164 39H212.676V30.5449H211.17L208.961 32.0977V33.5215L211.064 32.0332H211.164V39ZM217.756 39H219.338L220.041 36.8145H223.17L223.879 39H225.461L222.461 30.5449H220.756L217.756 39ZM221.559 32.1152H221.658L222.795 35.6484H220.422L221.559 32.1152ZM226.914 39H228.279V32.9883H228.379L230.723 39H231.754L234.098 32.9883H234.203V39H235.562V30.5449H233.828L231.291 37.0488H231.191L228.648 30.5449H226.914V39Z" fill="black"/>
<path opacity="0.35" fill-rule="evenodd" clip-rule="evenodd" d="M370.5 29.5H389.5C390.881 29.5 392 30.6193 392 32V38.5C392 39.8807 390.881 41 389.5 41H370.5C369.119 41 368 39.8807 368 38.5V32C368 30.6193 369.119 29.5 370.5 29.5ZM370.5 30.5C369.672 30.5 369 31.1716 369 32V38.5C369 39.3284 369.672 40 370.5 40H389.5C390.328 40 391 39.3284 391 38.5V32C391 31.1716 390.328 30.5 389.5 30.5H370.5Z" fill="black"/>
<path opacity="0.4" fill-rule="evenodd" clip-rule="evenodd" d="M393 32.7998C393.89 33.255 394.5 34.1813 394.5 35.2499C394.5 36.3186 393.89 37.2449 393 37.7001V32.7998Z" fill="black"/>
<path fill-rule="evenodd" clip-rule="evenodd" d="M371 31.5H389C389.552 31.5 390 31.9477 390 32.5V38C390 38.5523 389.552 39 389 39H371C370.448 39 370 38.5523 370 38V32.5C370 31.9477 370.448 31.5 371 31.5Z" fill="black"/>
<path d="M336.219 39.3H337.273V30.8449H336.225L333.975 32.4621V33.5754L336.125 32.0168H336.219V39.3ZM342.547 39.4992C344.416 39.4992 345.541 37.7941 345.541 35.0754V35.0637C345.541 32.3449 344.416 30.6457 342.547 30.6457C340.678 30.6457 339.564 32.3449 339.564 35.0637V35.0754C339.564 37.7941 340.678 39.4992 342.547 39.4992ZM342.547 38.5793C341.334 38.5793 340.625 37.2316 340.625 35.0754V35.0637C340.625 32.9074 341.334 31.5715 342.547 31.5715C343.76 31.5715 344.48 32.9074 344.48 35.0637V35.0754C344.48 37.2316 343.76 38.5793 342.547 38.5793ZM350.105 39.4992C351.975 39.4992 353.1 37.7941 353.1 35.0754V35.0637C353.1 32.3449 351.975 30.6457 350.105 30.6457C348.236 30.6457 347.123 32.3449 347.123 35.0637V35.0754C347.123 37.7941 348.236 39.4992 350.105 39.4992ZM350.105 38.5793C348.893 38.5793 348.184 37.2316 348.184 35.0754V35.0637C348.184 32.9074 348.893 31.5715 350.105 31.5715C351.318 31.5715 352.039 32.9074 352.039 35.0637V35.0754C352.039 37.2316 351.318 38.5793 350.105 38.5793ZM356.41 35.2922C357.488 35.2922 358.145 34.4133 358.145 33.0129V33.007C358.145 31.6066 357.488 30.7336 356.41 30.7336C355.332 30.7336 354.682 31.6066 354.682 33.007V33.0129C354.682 34.4133 355.332 35.2922 356.41 35.2922ZM357.043 39.3L362.797 30.8449H361.848L356.094 39.3H357.043ZM356.41 34.5949C355.83 34.5949 355.496 34.0031 355.496 33.0129V33.007C355.496 32.0168 355.83 31.4308 356.41 31.4308C356.99 31.4308 357.33 32.0168 357.33 33.007V33.0129C357.33 34.0031 356.99 34.5949 356.41 34.5949ZM362.469 39.4113C363.547 39.4113 364.203 38.5324 364.203 37.132V37.1262C364.203 35.7258 363.547 34.8527 362.469 34.8527C361.391 34.8527 360.74 35.7258 360.74 37.1262V37.132C360.74 38.5324 361.391 39.4113 362.469 39.4113ZM362.469 38.7141C361.889 38.7141 361.555 38.1223 361.555 37.132V37.1262C361.555 36.1359 361.889 35.55 362.469 35.55C363.049 35.55 363.389 36.1359 363.389 37.1262V37.132C363.389 38.1223 363.049 38.7141 362.469 38.7141Z" fill="black"/>
<path fill-rule="evenodd" clip-rule="evenodd" d="M45.5 30H46.5C47.0523 30 47.5 30.4477 47.5 31V39C47.5 39.5523 47.0523 40 46.5 40H45.5C44.9477 40 44.5 39.5523 44.5 39V31C44.5 30.4477 44.9477 30 45.5 30Z" fill="black"/>
<path d="M42 32H41C40.4477 32 40 32.4477 40 33V39C40 39.5523 40.4477 40 41 40H42C42.5523 40 43 39.5523 43 39V33C43 32.4477 42.5523 32 42 32Z" fill="black"/>
<path d="M36.5 34H37.5C38.0523 34 38.5 34.4477 38.5 35V39C38.5 39.5523 38.0523 40 37.5 40H36.5C35.9477 40 35.5 39.5523 35.5 39V35C35.5 34.4477 35.9477 34 36.5 34Z" fill="black"/>
<path d="M32 35.5H33C33.5523 35.5 34 35.9477 34 36.5V39C34 39.5523 33.5523 40 33 40H32C31.4477 40 31 39.5523 31 39V36.5C31 35.9477 31.4477 35.5 32 35.5Z" fill="black"/>
<path d="M55.0781 39H56.1328V35.6543H58.2129L60.0234 39H61.2598L59.3027 35.4902C60.3633 35.1562 61.002 34.2422 61.002 33.0703V33.0586C61.002 31.541 59.9355 30.5449 58.3066 30.5449H55.0781V39ZM56.1328 34.7168V31.4824H58.166C59.2559 31.4824 59.9121 32.0859 59.9121 33.0938V33.1055C59.9121 34.1367 59.2969 34.7168 58.2129 34.7168H56.1328ZM65.6395 39.1992C67.5262 39.1992 68.7625 38.2148 68.7625 36.6328V36.627C68.7625 35.4082 68.0652 34.6992 66.3016 34.3066L65.3641 34.0957C64.2156 33.8438 63.7527 33.3867 63.7527 32.7129V32.707C63.7527 31.8223 64.5672 31.3242 65.6219 31.3184C66.7234 31.3125 67.4266 31.8633 67.5437 32.6074L67.5555 32.6836H68.6102L68.6043 32.6016C68.5164 31.3418 67.3387 30.3457 65.6512 30.3457C63.9051 30.3457 62.6805 31.3359 62.6746 32.7363V32.7422C62.6746 33.9668 63.407 34.7461 65.1004 35.1211L66.0379 35.3262C67.198 35.584 67.6844 36.0645 67.6844 36.7676V36.7734C67.6844 37.6348 66.8465 38.2266 65.698 38.2266C64.4793 38.2266 63.6004 37.6934 63.5242 36.8496L63.5184 36.7852H62.4637L62.4695 36.8496C62.5926 38.2266 63.7879 39.1992 65.6395 39.1992ZM73.2418 39.1992C75.1285 39.1992 76.3648 38.2148 76.3648 36.6328V36.627C76.3648 35.4082 75.6676 34.6992 73.9039 34.3066L72.9664 34.0957C71.818 33.8438 71.3551 33.3867 71.3551 32.7129V32.707C71.3551 31.8223 72.1695 31.3242 73.2242 31.3184C74.3258 31.3125 75.0289 31.8633 75.1461 32.6074L75.1578 32.6836H76.2125L76.2066 32.6016C76.1187 31.3418 74.941 30.3457 73.2535 30.3457C71.5074 30.3457 70.2828 31.3359 70.277 32.7363V32.7422C70.277 33.9668 71.0094 34.7461 72.7027 35.1211L73.6402 35.3262C74.8004 35.584 75.2867 36.0645 75.2867 36.7676V36.7734C75.2867 37.6348 74.4488 38.2266 73.3004 38.2266C72.0816 38.2266 71.2027 37.6934 71.1266 36.8496L71.1207 36.7852H70.066L70.0719 36.8496C70.1949 38.2266 71.3902 39.1992 73.2418 39.1992ZM80.5277 39.1113C82.0453 39.1113 82.8949 38.2969 83.1527 37.1543L83.1645 37.0898L82.1566 37.0957L82.1449 37.1309C81.9105 37.834 81.3715 38.209 80.5219 38.209C79.3969 38.209 78.6703 37.2773 78.6703 35.8242V35.8125C78.6703 34.3887 79.3852 33.4746 80.5219 33.4746C81.4301 33.4746 81.9926 33.9785 82.1508 34.5996L82.1566 34.6172H83.1703L83.1645 34.582C82.977 33.457 82.057 32.5723 80.5219 32.5723C78.7523 32.5723 77.6273 33.8496 77.6273 35.8125V35.8242C77.6273 37.8281 78.7582 39.1113 80.5277 39.1113ZM84.6672 39H85.6867V35.2617C85.6867 34.1543 86.3254 33.4746 87.3332 33.4746C88.341 33.4746 88.8098 34.0195 88.8098 35.1562V39H89.8293V34.9102C89.8293 33.4102 89.0383 32.5723 87.6203 32.5723C86.6887 32.5723 86.0969 32.9648 85.7805 33.6328H85.6867V30.1758H84.6672V39ZM94.2207 39.1113C96.0195 39.1113 97.1328 37.8691 97.1328 35.8477V35.8359C97.1328 33.8086 96.0195 32.5723 94.2207 32.5723C92.4219 32.5723 91.3086 33.8086 91.3086 35.8359V35.8477C91.3086 37.8691 92.4219 39.1113 94.2207 39.1113ZM94.2207 38.209C93.0254 38.209 92.3516 37.3359 92.3516 35.8477V35.8359C92.3516 34.3418 93.0254 33.4746 94.2207 33.4746C95.416 33.4746 96.0898 34.3418 96.0898 35.8359V35.8477C96.0898 37.3359 95.416 38.209 94.2207 38.209ZM101.261 39.1113C103.059 39.1113 104.173 37.8691 104.173 35.8477V35.8359C104.173 33.8086 103.059 32.5723 101.261 32.5723C99.4617 32.5723 98.3484 33.8086 98.3484 35.8359V35.8477C98.3484 37.8691 99.4617 39.1113 101.261 39.1113ZM101.261 38.209C100.065 38.209 99.3914 37.3359 99.3914 35.8477V35.8359C99.3914 34.3418 100.065 33.4746 101.261 33.4746C102.456 33.4746 103.13 34.3418 103.13 35.8359V35.8477C103.13 37.3359 102.456 38.209 101.261 38.209ZM105.763 39H106.783V30.1758H105.763V39Z" fill="black"/>
<path fill-rule="evenodd" clip-rule="evenodd" d="M125.983 32.5229C124.072 30.8906 121.657 30 119.133 30C116.601 30 114.18 30.8959 112.266 32.5371L112.104 32.6765C111.972 32.7892 111.965 32.9895 112.087 33.1118L113.214 34.2356C113.324 34.3447 113.498 34.3521 113.617 34.2527L113.756 34.1354C115.263 32.8694 117.155 32.1804 119.133 32.1804C121.104 32.1804 122.989 32.8647 124.494 34.1228L124.634 34.2395C124.752 34.3385 124.926 34.3308 125.036 34.2219L126.163 33.098C126.285 32.9756 126.278 32.7749 126.146 32.6623L125.983 32.5229ZM119.133 33.4698C120.724 33.4698 122.251 33.9975 123.495 34.9749L123.671 35.113C123.811 35.2231 123.824 35.4306 123.697 35.5564L122.567 36.6841C122.462 36.7884 122.297 36.8003 122.178 36.7122L122.04 36.6098C121.2 35.9852 120.186 35.6501 119.133 35.6501C118.073 35.6501 117.053 35.9893 116.21 36.6211L116.072 36.7245C115.954 36.8133 115.787 36.8016 115.683 36.697L114.552 35.5698C114.426 35.4442 114.438 35.2373 114.578 35.1269L114.753 34.9887C116 34.0027 117.534 33.4698 119.133 33.4698ZM119.133 36.9396C119.772 36.9396 120.394 37.1076 120.941 37.4281L121.163 37.5579C121.331 37.6563 121.361 37.8867 121.223 38.0242L119.329 39.913C119.212 40.029 119.024 40.029 118.907 39.913L117.026 38.0363C116.888 37.8994 116.917 37.6702 117.084 37.5711L117.303 37.4406C117.856 37.1121 118.485 36.9396 119.133 36.9396Z" fill="black"/>
<path d="M136.109 166H141.418V156.807H145.672L150.4 166H156.412L151.068 156.016C153.881 154.908 155.656 152.131 155.656 148.791V148.756C155.656 143.658 152.281 140.635 146.586 140.635H136.109V166ZM141.418 152.781V144.783H145.936C148.555 144.783 150.225 146.33 150.225 148.756V148.791C150.225 151.287 148.643 152.781 146.006 152.781H141.418ZM168.386 166.439C174.784 166.439 178.616 163.346 178.616 158.477V158.459C178.616 154.469 176.225 152.307 170.917 151.252L168.227 150.707C165.309 150.127 164.009 149.195 164.009 147.596V147.578C164.009 145.768 165.643 144.52 168.368 144.502C170.987 144.502 172.815 145.715 173.079 147.701L173.096 147.912H178.106L178.089 147.578C177.843 143.131 174.239 140.195 168.368 140.195C162.743 140.195 158.7 143.254 158.7 147.895V147.912C158.7 151.727 161.231 154.117 166.241 155.119L168.913 155.646C172.059 156.297 173.307 157.158 173.307 158.881V158.898C173.307 160.832 171.462 162.115 168.526 162.115C165.626 162.115 163.534 160.885 163.2 158.916L163.165 158.723H158.155L158.173 159.004C158.471 163.68 162.356 166.439 168.386 166.439ZM191.082 166.439C197.48 166.439 201.312 163.346 201.312 158.477V158.459C201.312 154.469 198.921 152.307 193.613 151.252L190.923 150.707C188.005 150.127 186.705 149.195 186.705 147.596V147.578C186.705 145.768 188.339 144.52 191.064 144.502C193.683 144.502 195.511 145.715 195.775 147.701L195.793 147.912H200.802L200.785 147.578C200.539 143.131 196.935 140.195 191.064 140.195C185.439 140.195 181.396 143.254 181.396 147.895V147.912C181.396 151.727 183.927 154.117 188.937 155.119L191.609 155.646C194.755 156.297 196.004 157.158 196.004 158.881V158.898C196.004 160.832 194.158 162.115 191.222 162.115C188.322 162.115 186.23 160.885 185.896 158.916L185.861 158.723H180.851L180.869 159.004C181.168 163.68 185.052 166.439 191.082 166.439ZM212.688 166.387C217.715 166.387 220.967 163.258 221.213 159.145V159.039H216.432L216.414 159.197C216.063 161.096 214.78 162.361 212.723 162.361C210.192 162.361 208.61 160.27 208.61 156.578V156.561C208.61 152.957 210.192 150.795 212.705 150.795C214.832 150.795 216.08 152.166 216.397 153.959L216.432 154.117H221.196V153.994C221.002 149.916 217.75 146.77 212.635 146.77C206.993 146.77 203.389 150.514 203.389 156.543V156.561C203.389 162.643 206.94 166.387 212.688 166.387ZM223.765 166H228.898V155.207C228.898 152.746 230.357 151.023 232.624 151.023C234.962 151.023 236.263 152.588 236.263 155.225V166H241.396V154.17C241.396 149.617 238.864 146.77 234.786 146.77C231.956 146.77 229.97 148.07 229.003 150.408H228.898V140.635H223.765V166ZM253.299 166.387C258.994 166.387 262.633 162.73 262.633 156.578V156.543C262.633 150.443 258.924 146.77 253.281 146.77C247.656 146.77 243.965 150.479 243.965 156.543V156.578C243.965 162.713 247.568 166.387 253.299 166.387ZM253.316 162.361C250.785 162.361 249.186 160.27 249.186 156.578V156.543C249.186 152.904 250.803 150.795 253.281 150.795C255.777 150.795 257.412 152.904 257.412 156.543V156.578C257.412 160.252 255.812 162.361 253.316 162.361ZM273.886 166.387C279.581 166.387 283.22 162.73 283.22 156.578V156.543C283.22 150.443 279.511 146.77 273.868 146.77C268.243 146.77 264.552 150.479 264.552 156.543V156.578C264.552 162.713 268.155 166.387 273.886 166.387ZM273.903 162.361C271.372 162.361 269.772 160.27 269.772 156.578V156.543C269.772 152.904 271.389 150.795 273.868 150.795C276.364 150.795 277.999 152.904 277.999 156.543V156.578C277.999 160.252 276.399 162.361 273.903 162.361ZM285.947 166H291.08V140.635H285.947V166Z" fill="black"/>
<g opacity="0.5">
<path d="M75.8545 350.455C78.5791 350.455 80.835 348.194 80.835 345.475C80.835 342.75 78.5742 340.494 75.8496 340.494C73.1299 340.494 70.874 342.75 70.874 345.475C70.874 348.194 73.1348 350.455 75.8545 350.455ZM87.1555 350.455C89.8801 350.455 92.1359 348.194 92.1359 345.475C92.1359 342.75 89.8752 340.494 87.1506 340.494C84.4309 340.494 82.175 342.75 82.175 345.475C82.175 348.194 84.4358 350.455 87.1555 350.455ZM98.4565 350.455C101.181 350.455 103.437 348.194 103.437 345.475C103.437 342.75 101.176 340.494 98.4516 340.494C95.7319 340.494 93.476 342.75 93.476 345.475C93.476 348.194 95.7367 350.455 98.4565 350.455ZM109.757 350.455C112.482 350.455 114.738 348.194 114.738 345.475C114.738 342.75 112.477 340.494 109.753 340.494C107.033 340.494 104.777 342.75 104.777 345.475C104.777 348.194 107.038 350.455 109.757 350.455ZM121.058 350.455C123.783 350.455 126.039 348.194 126.039 345.475C126.039 342.75 123.778 340.494 121.054 340.494C118.334 340.494 116.078 342.75 116.078 345.475C116.078 348.194 118.339 350.455 121.058 350.455ZM132.359 350.455C135.084 350.455 137.34 348.194 137.34 345.475C137.34 342.75 135.079 340.494 132.355 340.494C129.635 340.494 127.379 342.75 127.379 345.475C127.379 348.194 129.64 350.455 132.359 350.455ZM143.66 350.455C146.385 350.455 148.641 348.194 148.641 345.475C148.641 342.75 146.38 340.494 143.656 340.494C140.936 340.494 138.68 342.75 138.68 345.475C138.68 348.194 140.941 350.455 143.66 350.455ZM154.961 350.455C157.686 350.455 159.942 348.194 159.942 345.475C159.942 342.75 157.681 340.494 154.956 340.494C152.237 340.494 149.981 342.75 149.981 345.475C149.981 348.194 152.242 350.455 154.961 350.455ZM166.262 350.455C168.987 350.455 171.243 348.194 171.243 345.475C171.243 342.75 168.982 340.494 166.257 340.494C163.538 340.494 161.282 342.75 161.282 345.475C161.282 348.194 163.543 350.455 166.262 350.455ZM177.563 350.455C180.288 350.455 182.544 348.194 182.544 345.475C182.544 342.75 180.283 340.494 177.558 340.494C174.839 340.494 172.583 342.75 172.583 345.475C172.583 348.194 174.844 350.455 177.563 350.455Z" fill="black"/>
<path d="M64.73 362.455L64.3896 363.123L64.73 362.455ZM62.545 360.27L61.8767 360.61L62.545 360.27ZM364.455 360.27L363.787 359.929L364.455 360.27ZM362.27 362.455L362.61 363.123L362.27 362.455ZM362.27 327.545L362.61 326.877L362.27 327.545ZM364.455 329.73L363.787 330.071L364.455 329.73ZM64.73 327.545L65.0705 328.213L64.73 327.545ZM70 327.75H357V326.25H70V327.75ZM364.25 335V355H365.75V335H364.25ZM357 362.25H70V363.75H357V362.25ZM62.75 355V335H61.25V355H62.75ZM70 362.25C68.5875 362.25 67.5732 362.249 66.7771 362.184C65.9897 362.12 65.482 361.996 65.0705 361.787L64.3896 363.123C65.0477 363.459 65.7748 363.607 66.6549 363.679C67.5263 363.751 68.6122 363.75 70 363.75V362.25ZM61.25 355C61.25 356.388 61.2494 357.474 61.3206 358.345C61.3925 359.225 61.5414 359.952 61.8767 360.61L63.2132 359.929C63.0036 359.518 62.88 359.01 62.8156 358.223C62.7506 357.427 62.75 356.413 62.75 355H61.25ZM65.0705 361.787C64.2709 361.379 63.6207 360.729 63.2132 359.929L61.8767 360.61C62.428 361.692 63.3076 362.572 64.3896 363.123L65.0705 361.787ZM364.25 355C364.25 356.413 364.249 357.427 364.184 358.223C364.12 359.01 363.996 359.518 363.787 359.929L365.123 360.61C365.459 359.952 365.607 359.225 365.679 358.345C365.751 357.474 365.75 356.388 365.75 355H364.25ZM357 363.75C358.388 363.75 359.474 363.751 360.345 363.679C361.225 363.607 361.952 363.459 362.61 363.123L361.929 361.787C361.518 361.996 361.01 362.12 360.223 362.184C359.427 362.249 358.413 362.25 357 362.25V363.75ZM363.787 359.929C363.379 360.729 362.729 361.379 361.929 361.787L362.61 363.123C363.692 362.572 364.572 361.692 365.123 360.61L363.787 359.929ZM357 327.75C358.413 327.75 359.427 327.751 360.223 327.816C361.01 327.88 361.518 328.004 361.929 328.213L362.61 326.877C361.952 326.541 361.225 326.393 360.345 326.321C359.474 326.249 358.388 326.25 357 326.25V327.75ZM365.75 335C365.75 333.612 365.751 332.526 365.679 331.655C365.607 330.775 365.459 330.048 365.123 329.39L363.787 330.071C363.996 330.482 364.12 330.99 364.184 331.777C364.249 332.573 364.25 333.587 364.25 335H365.75ZM361.929 328.213C362.729 328.621 363.379 329.271 363.787 330.071L365.123 329.39C364.572 328.308 363.692 327.428 362.61 326.877L361.929 328.213ZM70 326.25C68.6122 326.25 67.5263 326.249 66.6549 326.321C65.7748 326.393 65.0477 326.541 64.3896 326.877L65.0705 328.213C65.482 328.004 65.9897 327.88 66.7771 327.816C67.5732 327.751 68.5875 327.75 70 327.75V326.25ZM62.75 335C62.75 333.587 62.7506 332.573 62.8156 331.777C62.88 330.99 63.0036 330.482 63.2132 330.071L61.8767 329.39C61.5414 330.048 61.3925 330.775 61.3206 331.655C61.2494 332.526 61.25 333.612 61.25 335H62.75ZM64.3896 326.877C63.3076 327.428 62.428 328.308 61.8767 329.39L63.2132 330.071C63.6207 329.271 64.2709 328.621 65.0705 328.213L64.3896 326.877Z" fill="#91C7B1"/>
</g>
<g opacity="0.5">
<path d="M74.3413 285.158C75.6528 285.158 76.5576 284.618 76.9976 283.664H77.1304V285H78.5747V276.052H77.1304V281.348C77.1304 282.917 76.292 283.879 74.7148 283.879C73.2871 283.879 72.7061 283.107 72.7061 281.497V276.052H71.2617V281.846C71.2617 283.962 72.3076 285.158 74.3413 285.158ZM83.9358 285.158C85.9694 285.158 87.5217 284.054 87.5217 282.46V282.443C87.5217 281.165 86.7082 280.435 85.0232 280.028L83.6452 279.696C82.591 279.438 82.1428 279.057 82.1428 278.451V278.434C82.1428 277.646 82.9231 277.098 83.9856 277.098C85.0647 277.098 85.7619 277.587 85.9528 278.293H87.3723C87.1731 276.832 85.8698 275.894 83.9939 275.894C82.093 275.894 80.6652 277.015 80.6652 278.5V278.509C80.6652 279.795 81.4206 280.526 83.0974 280.924L84.4836 281.256C85.5876 281.522 86.0441 281.945 86.0441 282.551V282.568C86.0441 283.381 85.1892 283.954 83.9856 283.954C82.84 283.954 82.1262 283.464 81.8855 282.717H80.4079C80.5739 284.195 81.9436 285.158 83.9358 285.158ZM93.0072 285.158C95.1156 285.158 96.394 283.962 96.7011 282.75L96.7177 282.684H95.2734L95.2402 282.759C94.9994 283.298 94.2524 283.871 93.0404 283.871C91.4467 283.871 90.4257 282.792 90.3842 280.941H96.8256V280.376C96.8256 277.704 95.3481 275.894 92.9159 275.894C90.4838 275.894 88.9067 277.787 88.9067 280.551V280.559C88.9067 283.365 90.4506 285.158 93.0072 285.158ZM92.9076 277.181C94.2275 277.181 95.2069 278.019 95.3564 279.787H90.4091C90.5668 278.085 91.5795 277.181 92.9076 277.181ZM98.6588 285H100.103V279.455C100.103 278.144 101.083 277.272 102.461 277.272C102.776 277.272 103.05 277.305 103.349 277.355V275.952C103.208 275.927 102.901 275.894 102.627 275.894C101.415 275.894 100.576 276.442 100.236 277.38H100.103V276.052H98.6588V285ZM104.891 285H106.336V279.704C106.336 278.135 107.241 277.172 108.668 277.172C110.096 277.172 110.76 277.944 110.76 279.555V285H112.204V279.206C112.204 277.081 111.084 275.894 109.075 275.894C107.755 275.894 106.917 276.45 106.469 277.396H106.336V276.052H104.891V285ZM116.868 285.158C118.072 285.158 119.01 284.635 119.574 283.68H119.707V285H121.151V278.874C121.151 277.015 119.931 275.894 117.748 275.894C115.839 275.894 114.478 276.84 114.245 278.243L114.237 278.293H115.681L115.689 278.268C115.922 277.571 116.627 277.172 117.698 277.172C119.035 277.172 119.707 277.77 119.707 278.874V279.688L117.142 279.845C115.059 279.97 113.88 280.891 113.88 282.485V282.501C113.88 284.128 115.167 285.158 116.868 285.158ZM115.357 282.468V282.452C115.357 281.563 115.955 281.082 117.316 280.999L119.707 280.85V281.663C119.707 282.941 118.636 283.904 117.167 283.904C116.129 283.904 115.357 283.373 115.357 282.468ZM123.383 285H124.827V279.455C124.827 278.193 125.716 277.172 126.886 277.172C128.015 277.172 128.745 277.861 128.745 278.924V285H130.19V279.248C130.19 278.11 131.011 277.172 132.257 277.172C133.518 277.172 134.124 277.828 134.124 279.148V285H135.569V278.816C135.569 276.94 134.548 275.894 132.721 275.894C131.485 275.894 130.464 276.517 129.982 277.463H129.849C129.434 276.533 128.588 275.894 127.376 275.894C126.205 275.894 125.359 276.45 124.96 277.413H124.827V276.052H123.383V285ZM141.419 285.158C143.528 285.158 144.806 283.962 145.113 282.75L145.13 282.684H143.686L143.652 282.759C143.412 283.298 142.665 283.871 141.453 283.871C139.859 283.871 138.838 282.792 138.796 280.941H145.238V280.376C145.238 277.704 143.76 275.894 141.328 275.894C138.896 275.894 137.319 277.787 137.319 280.551V280.559C137.319 283.365 138.863 285.158 141.419 285.158ZM141.32 277.181C142.64 277.181 143.619 278.019 143.769 279.787H138.821C138.979 278.085 139.992 277.181 141.32 277.181Z" fill="black"/>
<path d="M64.73 296.455L64.3896 297.123L64.73 296.455ZM62.545 294.27L61.8767 294.61L62.545 294.27ZM364.455 294.27L363.787 293.929L364.455 294.27ZM362.27 296.455L362.61 297.123L362.27 296.455ZM362.27 261.545L362.61 260.877L362.27 261.545ZM364.455 263.73L363.787 264.071L364.455 263.73ZM64.73 261.545L65.0705 262.213L64.73 261.545ZM70 261.75H357V260.25H70V261.75ZM364.25 269V289H365.75V269H364.25ZM357 296.25H70V297.75H357V296.25ZM62.75 289V269H61.25V289H62.75ZM70 296.25C68.5875 296.25 67.5732 296.249 66.7771 296.184C65.9897 296.12 65.482 295.996 65.0705 295.787L64.3896 297.123C65.0477 297.459 65.7748 297.607 66.6549 297.679C67.5263 297.751 68.6122 297.75 70 297.75V296.25ZM61.25 289C61.25 290.388 61.2494 291.474 61.3206 292.345C61.3925 293.225 61.5414 293.952 61.8767 294.61L63.2132 293.929C63.0036 293.518 62.88 293.01 62.8156 292.223C62.7506 291.427 62.75 290.413 62.75 289H61.25ZM65.0705 295.787C64.2709 295.379 63.6207 294.729 63.2132 293.929L61.8767 294.61C62.428 295.692 63.3076 296.572 64.3896 297.123L65.0705 295.787ZM364.25 289C364.25 290.413 364.249 291.427 364.184 292.223C364.12 293.01 363.996 293.518 363.787 293.929L365.123 294.61C365.459 293.952 365.607 293.225 365.679 292.345C365.751 291.474 365.75 290.388 365.75 289H364.25ZM357 297.75C358.388 297.75 359.474 297.751 360.345 297.679C361.225 297.607 361.952 297.459 362.61 297.123L361.929 295.787C361.518 295.996 361.01 296.12 360.223 296.184C359.427 296.249 358.413 296.25 357 296.25V297.75ZM363.787 293.929C363.379 294.729 362.729 295.379 361.929 295.787L362.61 297.123C363.692 296.572 364.572 295.692 365.123 294.61L363.787 293.929ZM357 261.75C358.413 261.75 359.427 261.751 360.223 261.816C361.01 261.88 361.518 262.004 361.929 262.213L362.61 260.877C361.952 260.541 361.225 260.393 360.345 260.321C359.474 260.249 358.388 260.25 357 260.25V261.75ZM365.75 269C365.75 267.612 365.751 266.526 365.679 265.655C365.607 264.775 365.459 264.048 365.123 263.39L363.787 264.071C363.996 264.482 364.12 264.99 364.184 265.777C364.249 266.573 364.25 267.587 364.25 269H365.75ZM361.929 262.213C362.729 262.621 363.379 263.271 363.787 264.071L365.123 263.39C364.572 262.308 363.692 261.428 362.61 260.877L361.929 262.213ZM70 260.25C68.6122 260.25 67.5263 260.249 66.6549 260.321C65.7748 260.393 65.0477 260.541 64.3896 260.877L65.0705 262.213C65.482 262.004 65.9897 261.88 66.7771 261.816C67.5732 261.751 68.5875 261.75 70 261.75V260.25ZM62.75 269C62.75 267.587 62.7506 266.573 62.8156 265.777C62.88 264.99 63.0036 264.482 63.2132 264.071L61.8767 263.39C61.5414 264.048 61.3925 264.775 61.3206 265.655C61.2494 266.526 61.25 267.612 61.25 269H62.75ZM64.3896 260.877C63.3076 261.428 62.428 262.308 61.8767 263.39L63.2132 264.071C63.6207 263.271 64.2709 262.621 65.0705 262.213L64.3896 260.877Z" fill="#91C7B1"/>
</g>
<g opacity="0.5">
<rect x="136" y="424" width="154" height="40" rx="9" stroke="#80A4ED" stroke-width="2"/>
<path d="M180.231 451H182.868L184.039 447.357H189.254L190.436 451H193.073L188.073 436.908H185.231L180.231 451ZM186.569 439.525H186.735L188.629 445.414H184.674L186.569 439.525ZM197.821 451.215C199.364 451.215 200.448 450.521 200.946 449.379H201.112V451H203.543V440.326H201.112V446.547C201.112 448.148 200.272 449.164 198.7 449.164C197.235 449.164 196.62 448.324 196.62 446.674V440.326H194.188V447.23C194.188 449.77 195.418 451.215 197.821 451.215ZM210.303 451.049C210.772 451.049 211.221 451.01 211.573 450.941V449.066C211.28 449.096 211.094 449.105 210.753 449.105C209.737 449.105 209.317 448.656 209.317 447.592V442.211H211.573V440.326H209.317V437.709H206.846V440.326H205.186V442.211H206.846V448.168C206.846 450.229 207.852 451.049 210.303 451.049ZM213.685 451H216.116V444.779C216.116 443.178 217.015 442.162 218.46 442.162C219.935 442.162 220.608 443.002 220.608 444.662V451H223.04V444.096C223.04 441.557 221.741 440.121 219.358 440.121C217.815 440.121 216.79 440.814 216.282 441.957H216.116V436.195H213.685V451ZM230.112 451.215C233.306 451.215 235.249 449.125 235.249 445.668V445.648C235.249 442.211 233.296 440.121 230.112 440.121C226.939 440.121 224.976 442.221 224.976 445.648V445.668C224.976 449.125 226.909 451.215 230.112 451.215ZM230.112 449.242C228.423 449.242 227.456 447.924 227.456 445.678V445.658C227.456 443.412 228.423 442.084 230.112 442.084C231.792 442.084 232.759 443.412 232.759 445.658V445.678C232.759 447.924 231.802 449.242 230.112 449.242ZM237.283 451H239.714V444.799C239.714 443.275 240.779 442.309 242.4 442.309C242.82 442.309 243.22 442.367 243.611 442.445V440.268C243.376 440.199 242.995 440.15 242.624 440.15C241.218 440.15 240.242 440.824 239.88 441.967H239.714V440.326H237.283V451ZM246.445 438.539C247.236 438.539 247.89 437.904 247.89 437.104C247.89 436.312 247.236 435.668 246.445 435.668C245.644 435.668 244.99 436.312 244.99 437.104C244.99 437.904 245.644 438.539 246.445 438.539ZM245.224 451H247.656V440.326H245.224V451ZM249.992 451H258.644V449.125H253.068V448.949L258.556 441.947V440.326H250.041V442.211H255.685V442.377L249.992 449.516V451ZM265.258 451.215C268.158 451.215 269.584 449.545 269.926 448.168L269.955 448.08H267.641L267.611 448.148C267.377 448.637 266.625 449.301 265.307 449.301C263.656 449.301 262.621 448.188 262.592 446.273H270.053V445.473C270.053 442.25 268.178 440.121 265.141 440.121C262.104 440.121 260.16 442.318 260.16 445.678V445.688C260.16 449.086 262.084 451.215 265.258 451.215ZM265.17 442.025C266.527 442.025 267.514 442.895 267.68 444.643H262.611C262.797 442.943 263.812 442.025 265.17 442.025Z" fill="#80A4ED"/>
<path d="M164.628 444.156C166.604 444.156 168.214 442.396 168.214 440.255C168.214 438.13 166.612 436.461 164.628 436.461C162.661 436.461 161.042 438.163 161.042 440.271C161.051 442.405 162.653 444.156 164.628 444.156ZM164.628 442.903C163.417 442.903 162.379 441.741 162.379 440.271C162.379 438.827 163.4 437.715 164.628 437.715C165.865 437.715 166.878 438.811 166.878 440.255C166.878 441.724 165.849 442.903 164.628 442.903ZM159.407 451.834H169.841C171.219 451.834 171.875 451.419 171.875 450.506C171.875 448.332 169.127 445.186 164.628 445.186C160.121 445.186 157.374 448.332 157.374 450.506C157.374 451.419 158.029 451.834 159.407 451.834ZM159.017 450.581C158.801 450.581 158.71 450.523 158.71 450.349C158.71 448.987 160.818 446.439 164.628 446.439C168.43 446.439 170.539 448.987 170.539 450.349C170.539 450.523 170.456 450.581 170.24 450.581H159.017Z" fill="#80A4ED"/>
</g>
<rect x="119.75" y="577.75" width="48.5" height="48.5" rx="24.25" stroke="#80A4ED" stroke-width="1.5"/>
<path d="M143.906 610H146.93V593.09H143.918L139.5 596.195V599.043L143.707 596.066H143.906V610Z" fill="#80A4ED"/>
<rect x="189.75" y="577.75" width="48.5" height="48.5" rx="24.25" stroke="#80A4ED" stroke-width="1.5"/>
<rect x="259.75" y="577.75" width="48.5" height="48.5" rx="24.25" stroke="#80A4ED" stroke-width="1.5"/>
<path d="M208 562.865H219.004V560.879H208V562.865Z" fill="black"/>
<path d="M207.77 610H219.512V607.492H211.859V607.246L215.246 603.965C218.328 601 219.254 599.477 219.254 597.555V597.52C219.254 594.672 216.887 592.668 213.594 592.668C210.066 592.668 207.605 594.871 207.605 598.023L207.617 598.059L210.43 598.07L210.441 598.023C210.441 596.277 211.648 595.094 213.441 595.094C215.199 595.094 216.266 596.219 216.266 597.777V597.812C216.266 599.113 215.621 599.969 213.324 602.289L207.77 607.961V610Z" fill="#80A4ED"/>
<path d="M283.887 610.34C287.637 610.34 290.203 608.266 290.203 605.289V605.266C290.203 602.922 288.551 601.445 286.066 601.211V601.152C288.094 600.73 289.605 599.336 289.605 597.238V597.215C289.605 594.566 287.344 592.75 283.863 592.75C280.453 592.75 278.145 594.672 277.887 597.602L277.875 597.73H280.688L280.699 597.613C280.852 596.102 282.082 595.152 283.863 595.152C285.668 595.152 286.711 596.066 286.711 597.613V597.637C286.711 599.113 285.469 600.168 283.605 600.168H281.672V602.418H283.664C285.832 602.418 287.145 603.402 287.145 605.184V605.207C287.145 606.777 285.844 607.867 283.887 607.867C281.906 607.867 280.582 606.848 280.418 605.418L280.406 605.289H277.523L277.535 605.43C277.758 608.324 280.184 610.34 283.887 610.34Z" fill="#80A4ED"/>
</g>
<defs>
<filter id="filter0_d" x="0" y="0" width="426" height="717" filterUnits="userSpaceOnUse" color-interpolation-filters="sRGB">
<feFlood flood-opacity="0" result="BackgroundImageFix"/>
<feColorMatrix in="SourceAlpha" type="matrix" values="0 0 0 0 0 0 0 0 0 0 0 0 0 0 0 0 0 0 127 0"/>
<feMorphology radius="5" operator="dilate" in="SourceAlpha" result="effect1_dropShadow"/>
<feOffset/>
<feGaussianBlur stdDeviation="10"/>
<feColorMatrix type="matrix" values="0 0 0 0 0 0 0 0 0 0 0 0 0 0 0 0 0 0 0.15 0"/>
<feBlend mode="normal" in2="BackgroundImageFix" result="effect1_dropShadow"/>
<feBlend mode="normal" in="SourceGraphic" in2="effect1_dropShadow" result="shape"/>
</filter>
</defs>
</svg>
